<svg viewBox="0 0 32 32" fill="none" xmlns="http://www.w3.org/2000/svg">
<path d="M13.762 7.01875C13.0802 7.51293 12.3672 7.96261 11.6275 8.365V8.5C11.7026 8.48682 11.7742 8.45877 11.8383 8.4175C11.9305 8.4175 11.9883 8.44525 11.9883 8.536L12.1383 8.4535H12.2133V8.518C11.7598 8.9637 11.2562 9.35531 10.7125 9.685L10.795 9.81325H10.72L10.5633 9.75925C10.5633 9.80575 10.4988 9.83425 10.3525 9.84175V9.91675L10.5168 10.099C10.4422 10.0972 10.3686 10.0812 10.3 10.0517C10.0997 10.0941 9.91086 10.1791 9.74636 10.3011C9.58187 10.423 9.44558 10.5789 9.34677 10.7582L9.42927 10.8865C9.56737 10.7376 9.72778 10.6111 9.90477 10.5115L9.92277 10.7117C9.84817 10.7265 9.77679 10.7544 9.71202 10.7942L9.88677 11.0507C10.2058 10.6996 10.5721 10.3944 10.975 10.144C11.1753 10.198 11.275 10.2542 11.275 10.3262H11.425C12.3908 9.58807 13.4663 9.00599 14.6125 8.60125V8.74C14.4123 9.03325 14.2833 9.1795 14.2113 9.19C14.2213 9.28545 14.256 9.37666 14.3118 9.45475C13.9329 10.6942 13.4564 11.9018 12.8868 13.066C11.2877 17.0125 9.44304 20.855 7.36377 24.571C7.37756 24.6426 7.40562 24.7107 7.44627 24.7712C7.69698 24.7307 7.93712 24.6407 8.15277 24.5065H8.23527V24.6452H8.37402L8.52852 24.5387C8.52852 24.5852 8.58252 24.6032 8.67852 24.5927V24.7315C8.65953 24.9604 8.57692 25.1794 8.44002 25.3637C8.21539 25.6888 8.05102 26.0516 7.95477 26.4347V26.5H8.09352C8.63596 25.9085 9.09496 25.2456 9.45777 24.5297C10.8415 24.1579 12.1854 23.6512 13.4703 23.017C14.2329 22.9958 14.9711 22.7432 15.5868 22.2925V22.2175L15.238 22.318H15.1555V22.243C15.653 22.2029 16.1339 22.0461 16.5595 21.7855C17.8878 20.7602 18.8845 20.0365 19.5685 19.6045C21.6685 18.0655 22.6563 16.5812 22.5378 15.1712C22.1558 14.5349 21.6901 13.9527 21.1533 13.4402C21.1353 13.24 21.4533 12.973 22.096 12.6055L23.9193 11.0005C24.3971 10.2441 24.6509 9.36773 24.6513 8.473L24.613 8.2C24.538 7.3855 23.953 6.7255 22.8355 6.22225C21.7389 5.67666 20.5168 5.43281 19.2948 5.51575C17.3951 5.76955 15.5374 6.27394 13.7703 7.01575L13.762 7.01875ZM15.367 12.7802C15.5058 12.0302 15.6603 11.599 15.8343 11.4985L17.3553 8.0875C17.3373 7.87675 17.6553 7.7125 18.3265 7.60225L18.547 7.58425L18.565 7.7845C19.225 7.684 19.6285 7.62775 19.783 7.60975C20.983 7.50925 21.6145 7.7485 21.6708 8.34175H21.8095L21.7818 7.993H21.9318C22.0807 8.05176 22.2116 8.14866 22.3112 8.27399C22.4109 8.39931 22.4758 8.54864 22.4995 8.707C22.4892 8.97566 22.3781 9.23058 22.1883 9.421C22.096 9.421 22.0383 9.367 22.0315 9.22075H21.8815L21.8455 9.634C21.232 10.5505 20.7955 11.0185 20.5173 11.038C20.2698 11.3765 20.114 11.5515 20.05 11.563C19.5728 12.0146 19.0442 12.4085 18.475 12.7367C17.389 13.0581 16.3314 13.4688 15.313 13.9645C15.2218 13.9211 15.12 13.905 15.0198 13.918V13.7875C15.0282 13.4236 15.1533 13.0721 15.3768 12.7847L15.367 12.7802ZM10.417 10.198V10.2625C10.3424 10.2772 10.271 10.3052 10.2063 10.345H10.1313V10.216L10.417 10.198ZM14.8263 10.096L14.8443 10.2962C14.7798 10.2962 14.6875 10.3967 14.5795 10.5895V10.45C14.6813 10.3544 14.7513 10.2297 14.7798 10.093L14.8263 10.096ZM14.1513 11.521L14.179 11.7955H14.104L14.0823 11.5225L14.1513 11.521ZM13.9765 12.0167C13.9585 12.2417 13.9015 12.3655 13.7763 12.3737H13.7013C13.7712 12.2702 13.8121 12.1497 13.8198 12.025L13.9765 12.0167ZM13.6765 12.7307V12.7952L13.5483 13.0157H13.4095V12.955C13.4385 12.9586 13.4679 12.9551 13.4953 12.945C13.5226 12.9348 13.5472 12.9183 13.5668 12.8967C13.5864 12.875 13.6006 12.849 13.608 12.8208C13.6155 12.7926 13.6161 12.763 13.6098 12.7345H13.6758L13.6765 12.7307ZM13.3653 13.3727L13.3293 13.7117H13.2543L13.2265 13.3727H13.3653ZM14.9703 14.398V14.5262L14.6853 14.554V14.4257L14.9703 14.398ZM13.6075 16.3607C14.9485 16.142 16.2564 15.7544 17.5 15.2072L17.9313 15.1712C18.283 15.1082 18.6441 15.1214 18.9902 15.21C19.3364 15.2986 19.6594 15.4606 19.9375 15.685L19.9653 15.9595C19.636 16.9127 19.2693 17.4595 18.8763 17.6365L17.0448 19.093C16.343 19.5977 15.6055 20.0508 14.8383 20.449C13.5792 21.2505 12.2166 21.8762 10.7883 22.309H10.7058C10.7808 22.0525 11.7408 20.074 13.6105 16.3525L13.6075 16.3607ZM15.5853 15.5822V15.6467L15.292 15.6745V15.61L15.5853 15.5822ZM11.023 20.0072C10.9308 20.4745 10.8228 20.7137 10.7298 20.7212V20.6567C10.7243 20.5323 10.7486 20.4083 10.8008 20.2952C10.853 20.1821 10.9315 20.0831 11.0298 20.0065L11.023 20.0072ZM12.8545 22.591C14.3908 21.9835 15.8587 21.2155 17.2338 20.2997V20.428C17.2338 20.482 17.0335 20.653 16.6203 20.9597C15.8626 21.2851 15.1435 21.6936 14.476 22.1777C13.156 22.6352 12.5058 22.9202 12.5163 23.0305C11.7278 23.3252 10.9567 23.6647 10.207 24.0475C10.0759 24.0436 9.94752 24.0092 9.83202 23.947C9.82145 23.8285 9.84632 23.7096 9.90348 23.6053C9.96063 23.501 10.0475 23.4161 10.153 23.3612C10.353 23.341 10.5547 23.3728 10.7388 23.4535C11.1033 23.2916 11.4839 23.1686 11.8743 23.0867V22.948L11.443 22.984C11.8382 22.7422 12.2593 22.5457 12.6985 22.3982L12.919 22.3802V22.45C12.5523 22.4777 12.3415 22.6 12.295 22.789C12.2947 22.8075 12.2986 22.8258 12.3065 22.8426C12.3144 22.8593 12.3261 22.874 12.3406 22.8855C12.3551 22.897 12.3721 22.9049 12.3902 22.9087C12.4083 22.9126 12.4271 22.9121 12.445 22.9075C12.593 22.8236 12.7282 22.7187 12.8463 22.5962L12.8545 22.591ZM10.6045 20.926V20.9905C10.6089 21.0095 10.6088 21.0293 10.6043 21.0484C10.5999 21.0674 10.5911 21.0851 10.5787 21.1003C10.5664 21.1154 10.5507 21.1275 10.5329 21.1356C10.5152 21.1438 10.4958 21.1477 10.4763 21.1472V21.0827C10.4736 21.065 10.4745 21.0469 10.4788 21.0295C10.4831 21.0121 10.4908 20.9958 10.5015 20.9814C10.5121 20.9669 10.5255 20.9548 10.5409 20.9455C10.5563 20.9363 10.5733 20.9302 10.591 20.9275L10.6045 20.926ZM14.0313 21.8605C13.6827 21.949 13.3512 22.0947 13.0503 22.2917H12.9753V22.153C13.3158 22.1304 13.6362 21.9833 13.8753 21.7397C13.894 21.737 13.9131 21.7382 13.9314 21.7432C13.9496 21.7482 13.9666 21.7569 13.9814 21.7688C13.9961 21.7807 14.0082 21.7956 14.0169 21.8124C14.0256 21.8292 14.0308 21.8476 14.032 21.8665L14.0313 21.8605ZM10.468 22.8587L10.6885 22.8407V22.9157C10.6135 22.9289 10.5418 22.957 10.4778 22.9982H10.3398C10.3433 22.9643 10.3577 22.9324 10.3808 22.9073C10.4039 22.8822 10.4345 22.8652 10.468 22.8587Z" fill="#FABD2F"/>
</svg>
