<svg viewBox="0 0 32 32" fill="none" xmlns="http://www.w3.org/2000/svg">
<path d="M16 28.25C22.7655 28.25 28.25 22.7655 28.25 16C28.25 9.23451 22.7655 3.75 16 3.75C9.23451 3.75 3.75 9.23451 3.75 16C3.75 22.7655 9.23451 28.25 16 28.25Z" fill="#FABD2F"/>
<path d="M20.5912 8.35597C20.6454 8.3408 20.6994 8.32768 20.7531 8.3166L20.9123 8.51172C20.9006 8.55722 20.8899 8.60301 20.8799 8.6491C20.751 8.67251 20.6245 8.70765 20.5019 8.7541C20.5259 8.62226 20.5556 8.48955 20.5912 8.35597ZM17.1454 12.0493C16.0429 13.7993 15.4348 15.608 15.6133 16.5845C17.515 16.9131 19.4624 16.8709 21.3481 16.4602C22.5615 16.1958 23.7267 15.7454 24.8026 15.125C24.9837 15.021 25.1487 14.8913 25.2926 14.74C24.035 14.4264 22.8822 13.7872 21.9501 12.8867C21.3755 12.3791 20.9409 11.7324 20.688 11.0086C20.435 10.2848 20.3722 9.50825 20.5054 8.75322C19.0847 9.49623 17.9156 10.6431 17.1454 12.0493ZM20.9762 8.28685C19.8439 11.9951 23.8567 14.145 25.4431 14.4197C26.0792 14.53 25.5218 15.1153 24.9784 15.4338C22.0393 17.0547 18.618 17.5729 15.3307 16.8951C14.5852 14.6962 18.2444 8.54585 20.9771 8.28247L20.9762 8.28685Z" fill="#1D2021"/>
<path d="M19.8343 13.0705C19.8024 13.218 19.8191 13.372 19.8818 13.5093C19.9445 13.6466 20.05 13.7599 20.1824 13.8324C20.3148 13.9049 20.4672 13.9326 20.6166 13.9115C20.7661 13.8903 20.9047 13.8214 21.0118 13.715C21.1189 13.6085 21.1888 13.4704 21.2109 13.321C21.2331 13.1717 21.2063 13.0192 21.1347 12.8863C21.0631 12.7534 20.9504 12.6472 20.8135 12.5836C20.6766 12.52 20.5228 12.5023 20.375 12.5332C20.4489 12.5534 20.5162 12.5927 20.5701 12.647C20.624 12.7014 20.6628 12.7689 20.6824 12.8429C20.7021 12.9169 20.702 12.9948 20.6821 13.0687C20.6622 13.1427 20.6233 13.2101 20.5692 13.2643C20.5151 13.3185 20.4477 13.3576 20.3738 13.3775C20.2999 13.3975 20.222 13.3978 20.148 13.3782C20.0739 13.3587 20.0063 13.3201 19.9519 13.2662C19.8975 13.2124 19.8581 13.1452 19.8378 13.0714L19.8343 13.0705ZM24.8935 15.1425C25.1012 15.1425 25.3042 15.0809 25.4769 14.9655C25.6496 14.8501 25.7841 14.6862 25.8636 14.4943C25.9431 14.3024 25.9639 14.0913 25.9234 13.8876C25.8828 13.684 25.7828 13.4969 25.636 13.35C25.4891 13.2032 25.3021 13.1032 25.0984 13.0627C24.8947 13.0221 24.6836 13.0429 24.4917 13.1224C24.2999 13.2019 24.1359 13.3365 24.0205 13.5091C23.9051 13.6818 23.8435 13.8848 23.8435 14.0925C24.554 14.6061 25.5804 14.502 24.8944 15.1425H24.8935Z" fill="#1D2021"/>
<path d="M15.3726 26.4431C15.6141 23.6808 14.719 22.4278 13.1326 19.9235C11.5463 17.4193 12.2226 12.8168 16.532 13.1939C23.5084 13.8046 20.7416 24.1296 15.3726 26.4431Z" fill="#1D2021"/>
<path d="M11.6819 25.4045C12.8973 22.9125 12.5114 21.4215 11.9269 18.5148C11.3424 15.608 13.6244 11.5541 17.512 13.4503C23.8068 16.5206 17.5234 25.1691 11.6819 25.4045Z" fill="#1D2021"/>
<path d="M8.61672 23.1234C10.6441 21.2325 10.8182 19.7021 11.3143 16.7787C11.8105 13.8554 15.3936 10.8891 18.3432 14.0522C23.1198 19.1745 14.1546 24.9967 8.61584 23.1225L8.61672 23.1234Z" fill="#1D2021"/>
<path d="M6.55005 19.9192C9.1208 18.8805 9.8313 17.5138 11.3424 14.9632C12.8535 12.4125 17.2609 10.9259 18.8814 14.9369C21.5064 21.4312 11.0493 23.6537 6.55005 19.9192Z" fill="#1D2021"/>
<path d="M5.79838 16.1461C8.57038 16.098 9.72363 15.0769 12.0485 13.2368C14.3734 11.3966 19.0205 11.5891 19.0966 15.9143C19.2191 22.9143 8.66051 21.2439 5.79663 16.1461H5.79838Z" fill="#1D2021"/>
<path d="M6.40649 12.3775C9.01137 13.326 10.4542 12.7853 13.284 11.9006C16.1137 11.016 20.3837 12.8631 18.9041 16.9258C16.5092 23.5075 7.24999 18.1621 6.40649 12.3775Z" fill="#1D2021"/>
<path d="M8.37084 9.08752C10.4638 10.9066 12.0038 10.9189 14.9631 11.107C17.9223 11.2951 21.25 14.5458 18.4088 17.8104C13.8125 23.0963 7.08634 14.7881 8.37084 9.08752Z" fill="#1D2021"/>
<path d="M11.3442 6.69263C12.6462 9.14263 14.0794 9.70438 16.7744 10.9408C19.4694 12.1771 21.4119 16.4051 17.5882 18.436C11.4046 21.7243 8.10143 11.5576 11.3442 6.69263Z" fill="#1D2021"/>
<path d="M15.0094 5.54901C15.3472 8.30089 16.4838 9.34126 18.5567 11.4605C20.6296 13.5798 20.9244 18.2225 16.6317 18.7493C9.67894 19.6033 10.2389 8.92826 15.0094 5.54901Z" fill="#1D2021"/>
<path d="M18.821 5.79486C18.1499 8.48549 18.8385 9.86274 20.0136 12.5849C21.1888 15.307 19.801 19.7459 15.6036 18.6994C8.8075 17.0054 13.1554 7.23949 18.821 5.79486Z" fill="#1D2021"/>
<path d="M22.3105 7.37602C18.5585 10.2206 20.7127 12.276 20.7127 17.7106C20.7127 22.6885 18.226 20.7521 14.6822 18.2706C8.94486 14.25 16.504 6.69527 22.3105 7.37602Z" fill="#1D2021"/>
<path d="M20.6944 16.4375C20.6743 16.2656 20.6588 16.0931 20.648 15.9204C20.5939 15.3087 20.5233 14.6986 20.4363 14.0907L20.4118 13.9394L20.6078 13.9175C20.7296 13.9015 20.8453 13.8543 20.9436 13.7806C21.0419 13.7068 21.1195 13.6089 21.1688 13.4963C21.2182 13.3838 21.2377 13.2604 21.2254 13.1381C21.2131 13.0159 21.1694 12.8988 21.0987 12.7984C20.9453 12.6309 20.7364 12.5249 20.5107 12.5H20.3698L20.5194 12.6417C20.5636 12.6732 20.6 12.7142 20.6259 12.7618C20.6518 12.8095 20.6666 12.8623 20.669 12.9165C20.672 12.9993 20.6525 13.0813 20.6128 13.154C20.5731 13.2266 20.5145 13.2873 20.4433 13.3295C20.3427 13.375 20.3357 13.3706 20.3129 13.242C20.1381 12.3268 20.0934 11.3915 20.1799 10.4639C20.2157 10.2566 20.2654 10.052 20.3287 9.85136L20.4109 9.62036V9.80936C20.4254 9.99973 20.4528 10.1889 20.4932 10.3755C20.6806 11.1185 21.0201 11.8145 21.4903 12.4195C21.9605 13.0245 22.5512 13.5254 23.2249 13.8904C23.7034 14.1747 24.2068 14.4145 24.729 14.607C24.8504 14.6422 24.9677 14.69 25.079 14.7496C25.1508 14.8214 25.0685 14.9246 24.806 15.0909C23.7796 15.6882 22.6695 16.1283 21.5125 16.3964C20.6524 16.5994 20.7189 16.5959 20.6944 16.4375Z" fill="#FBF1C7"/>
</svg>
