<svg viewBox="0 0 32 32" fill="none" xmlns="http://www.w3.org/2000/svg">
<path d="M22.125 18.9907C21.466 20.1633 20.438 21.0851 19.2008 21.6129C17.9637 22.1406 16.5868 22.2446 15.2844 21.9088C13.982 21.5729 12.8271 20.816 11.9995 19.7557C11.1718 18.6955 10.7178 17.3915 10.7081 16.0465C10.6984 14.7015 11.1335 13.391 11.9457 12.3189C12.7579 11.2469 13.9017 10.4733 15.1992 10.1186C16.4966 9.76398 17.8748 9.84809 19.1195 10.3579C20.3642 10.8677 21.4054 11.7746 22.0812 12.9375L27.4126 9.86712C26.062 7.53059 23.9776 5.70548 21.4831 4.67528C18.9887 3.64507 16.2239 3.46745 13.6181 4.17C11.0124 4.87254 8.71154 6.41593 7.07304 8.56042C5.43454 10.7049 4.55008 13.3305 4.55705 16.0293C4.56401 18.7281 5.46201 21.349 7.11156 23.485C8.7611 25.621 11.0699 27.1525 13.6792 27.8416C16.2886 28.5307 19.0524 28.3388 21.5415 27.2957C24.0306 26.2527 26.1056 24.4168 27.4441 22.0734L22.125 18.9907Z" fill="#458588"/>
</svg>
