<svg viewBox="0 0 32 32" fill="none" xmlns="http://www.w3.org/2000/svg">
<path d="M20.2604 17.1218H28.25V18.2969H20.2604V17.1218ZM24.9696 19.4729L27.3619 23H26.0109L24.2609 20.7014L22.4995 23H21.1476L23.5408 19.4729H24.9696Z" fill="#FB4934"/>
<path d="M8.83468 17.9766C8.54102 18.0894 8.23715 18.1735 7.9273 18.2277C7.60944 18.2828 7.28739 18.31 6.9648 18.3091C6.53135 18.3376 6.09664 18.2776 5.68706 18.1329C5.27748 17.9882 4.90158 17.7618 4.58218 17.4674C4.28661 17.1337 4.06073 16.7443 3.91783 16.322C3.77493 15.8998 3.71788 15.4532 3.75005 15.0086C3.74371 14.528 3.82525 14.0503 3.99068 13.599C4.13951 13.1956 4.36974 12.8272 4.66705 12.5166C4.9608 12.2141 5.3154 11.9773 5.70743 11.8219C6.13149 11.6544 6.58414 11.5712 7.04005 11.5769C7.35793 11.5752 7.67542 11.5992 7.98943 11.6486C8.27902 11.6951 8.56252 11.7738 8.83468 11.8831V12.9664C8.56251 12.822 8.27282 12.7135 7.9728 12.6435C7.67546 12.5754 7.37134 12.5414 7.0663 12.542C6.78356 12.5405 6.50355 12.5974 6.2438 12.7091C5.98617 12.8193 5.75454 12.9824 5.56393 13.1878C5.3611 13.4093 5.20435 13.6689 5.1028 13.9516C4.98527 14.2778 4.92776 14.6226 4.93305 14.9693C4.88274 15.6144 5.08972 16.2533 5.5088 16.7464C5.71985 16.9494 5.97053 17.1066 6.24516 17.2082C6.51979 17.3099 6.81245 17.3537 7.1048 17.337C7.40597 17.3381 7.70619 17.3032 7.99905 17.2329C8.28926 17.1627 8.56986 17.0575 8.83468 16.9196V17.9766ZM13.3086 9.93275H11.3774V9H14.4522V17.2723H16.3964V18.2181H11.1622V17.2723H13.3086V9.93275Z" fill="#458588"/>
</svg>
