<svg viewBox="0 0 32 32" fill="none" xmlns="http://www.w3.org/2000/svg">
<path d="M19.318 8.18711H21.5519V10.421H23.7875V8.18711H26.0205V10.421H28.25V12.654H26.0188V14.8861H28.25V17.12H26.0179V19.353H23.7875V17.1217H21.5563V19.3547H19.3189V17.1235H17.085V14.8844H19.3189V12.6566H17.085V10.4192H19.3198L19.318 8.18711ZM21.5519 14.8879H23.7875V12.654H21.5519V14.8879ZM14.8529 23.0114C13.5775 23.5944 12.1827 23.8687 10.7815 23.812C9.82601 23.8621 8.87092 23.7055 7.98148 23.3527C7.09204 22.9999 6.2892 22.4594 5.62778 21.768C4.32372 20.262 3.65109 18.3108 3.75003 16.3211C3.65647 14.1606 4.41426 12.0497 5.86053 10.442C6.55964 9.69712 7.41008 9.11052 8.35471 8.72159C9.29933 8.33266 10.3163 8.15042 11.3372 8.18711C12.5335 8.15501 13.7254 8.34427 14.8529 8.74536V12.0222C13.8773 11.4118 12.7459 11.097 11.5953 11.1157C10.9911 11.0922 10.389 11.1995 9.83016 11.4305C9.27135 11.6614 8.76908 12.0104 8.35778 12.4536C7.4965 13.4584 7.05557 14.7564 7.12666 16.0779C7.06093 17.3469 7.47583 18.5941 8.28866 19.5709C8.68232 20.0044 9.16676 20.3458 9.70745 20.5707C10.2481 20.7956 10.8318 20.8985 11.4168 20.872C12.6311 20.8826 13.8232 20.5462 14.8529 19.9025V23.0114Z" fill="#B8BB26"/>
</svg>
