<svg viewBox="0 0 32 32" fill="none" xmlns="http://www.w3.org/2000/svg">
<path d="M15.5937 4.63476C17.8424 4.55308 20.0647 5.14016 21.9797 6.32172C23.8946 7.50329 25.4161 9.22625 26.3517 11.2727C27.2873 13.3191 27.5949 15.597 27.2357 17.8183C26.8764 20.0396 25.8665 22.1044 24.3336 23.7516C22.8006 25.3988 20.8136 26.5543 18.6238 27.0721C16.4341 27.5898 14.1399 27.4464 12.0316 26.6601C9.92336 25.8738 8.09564 24.4799 6.77969 22.6547C5.46374 20.8295 4.71868 18.655 4.63877 16.4063C4.53363 13.3934 5.62804 10.4619 7.68184 8.25498C9.73564 6.04809 12.5811 4.74612 15.5937 4.63476Z" fill="#1D2021"/>
<path d="M22.0938 12.3933L19.9528 17.7656L17.7989 12.3933H16.0358L19.0575 19.7261L16.91 24.8969L18.4538 25.2016L23.7643 12.3933H22.0938Z" fill="#FBF1C7"/>
<path d="M12.6883 13.7518C13.113 13.7436 13.5305 13.8631 13.8866 14.0949C14.2427 14.3267 14.521 14.66 14.6854 15.0518L14.7146 15.116L16.2169 14.6098L16.1844 14.5334C15.8984 13.8469 15.4119 13.2626 14.7887 12.8567C14.1654 12.4509 13.4343 12.2424 12.6907 12.2584C12.1832 12.2423 11.6776 12.3293 11.2046 12.514C10.7316 12.6988 10.301 12.9775 9.93876 13.3334C9.57687 13.6787 9.29075 14.0956 9.09856 14.5575C8.90638 15.0193 8.81233 15.5161 8.82238 16.0162C8.81239 16.5146 8.90628 17.0096 9.09806 17.4697C9.28984 17.9297 9.57532 18.3449 9.93632 18.6886C10.2985 19.0446 10.7291 19.3234 11.2021 19.5083C11.6751 19.6932 12.1807 19.7803 12.6883 19.7643C13.4318 19.7801 14.1628 19.5715 14.7861 19.1657C15.4093 18.7599 15.8957 18.1757 16.182 17.4893L16.2145 17.4129L14.7098 16.9059L14.6813 16.9734C14.5209 17.3673 14.2436 17.7027 13.8869 17.9344C13.5301 18.1661 13.111 18.283 12.6858 18.2693C12.3953 18.275 12.1068 18.2207 11.8382 18.1099C11.5697 17.999 11.3269 17.834 11.125 17.625C10.917 17.4132 10.7537 17.1619 10.6447 16.8858C10.5357 16.6097 10.4832 16.3146 10.4904 16.0179C10.4829 15.7184 10.5352 15.4205 10.6441 15.1415C10.7531 14.8625 10.9166 14.608 11.125 14.3929C11.3272 14.1829 11.5709 14.0172 11.8406 13.9064C12.1103 13.7957 12.4001 13.7422 12.6915 13.7494L12.6883 13.7518Z" fill="#FBF1C7"/>
<path d="M21.079 23.9625C23.0869 22.6985 24.5452 20.7247 25.1634 18.434C25.7816 16.1432 25.5145 13.7037 24.4151 11.6011L25.7817 10.8951C27.0607 13.3367 27.3722 16.1708 26.6541 18.8319C25.9361 21.4931 24.2413 23.7858 21.9077 25.2528L21.079 23.9625Z" fill="#8EC07C"/>
<path d="M5.36029 18.8941C5.09901 17.9483 4.96673 16.9715 4.96704 15.9902C4.98235 13.7708 5.66658 11.6075 6.93038 9.78286C8.19418 7.95825 9.97882 6.55715 12.0512 5.7625L12.607 7.18843C10.8242 7.87274 9.28908 9.07859 8.20201 10.6486C7.11495 12.2186 6.52642 14.0799 6.51323 15.9894C6.51289 16.8337 6.62659 17.6741 6.85123 18.4879L5.36029 18.8941Z" fill="#8EC07C"/>
<path d="M11.9773 5.79825C14.5265 4.81003 17.3507 4.79687 19.9091 5.76129C22.4674 6.72571 24.5801 8.59993 25.8426 11.0251L24.4711 11.7222C23.3842 9.63551 21.566 8.02296 19.3644 7.1932C17.1628 6.36344 14.7325 6.37476 12.5387 7.225L11.9773 5.80069V5.79825Z" fill="#8EC07C"/>
<path d="M17.209 24.1737L16.8337 25.0756C16.7974 25.163 16.7371 25.2383 16.6597 25.2926C16.5823 25.347 16.491 25.3783 16.3965 25.3828C16.2698 25.3884 16.1414 25.3917 16.0122 25.3917C13.8619 25.3881 11.7755 24.6609 10.0888 23.3272C8.40206 21.9934 7.21332 20.1309 6.71398 18.0394L5.20923 18.3766C5.76659 20.7862 7.12066 22.9372 9.05235 24.4817C11.0252 26.055 13.4726 26.9141 15.996 26.9192H16.0187C16.1666 26.9192 16.3145 26.9192 16.4607 26.9102C16.849 26.8939 17.2246 26.7673 17.5436 26.5453C17.8626 26.3232 18.1118 26.015 18.262 25.6566L18.7495 24.4784L17.2058 24.1737H17.209Z" fill="#8EC07C"/>
</svg>
