<svg viewBox="0 0 32 32" fill="none" xmlns="http://www.w3.org/2000/svg">
<path d="M16.4725 13.0801H18.975V15.6386H20.2402C20.832 15.6359 21.4194 15.5375 21.9797 15.3472C22.274 15.2498 22.5573 15.122 22.825 14.9657C22.4825 14.4917 22.2795 13.9313 22.2387 13.3479C22.1334 12.4965 22.3521 11.6367 22.8512 10.939L23.1137 10.6345L23.427 10.8865C24.2577 11.4955 24.8205 12.4023 24.9976 13.417C25.9634 13.1204 27.0073 13.2176 27.9017 13.6874L28.2456 13.8851L28.0645 14.2351C27.6981 14.852 27.1568 15.3461 26.5093 15.655C25.8617 15.9639 25.1371 16.0736 24.4271 15.9703C22.2571 21.3673 17.54 23.9223 11.8192 23.9223C8.86349 23.9223 6.15274 22.8171 4.60837 20.1956L4.58299 20.1528L4.36249 19.6986C3.8539 18.5422 3.65518 17.2732 3.78587 16.0166L3.82087 15.6378H5.96024V13.0801H8.46362V10.575H13.4695V8.07425H16.4725V13.0801Z" fill="#458588"/>
<path d="M12.5053 23.4961C11.281 22.9745 10.2994 22.0089 9.75775 20.7933C9.11059 20.9664 8.44617 21.0671 7.77675 21.0934C7.48509 21.1097 7.1803 21.1179 6.86238 21.1179C6.49371 21.1179 6.1055 21.1071 5.69775 21.0855C6.48505 21.9052 7.43955 22.5459 8.49642 22.9639C9.55328 23.382 10.6878 23.5677 11.8228 23.5084C12.0514 23.5084 12.2789 23.5043 12.5053 23.4961ZM8.195 13.6778H8.37V15.4864H8.195V13.6778ZM7.866 13.6778H8.041V15.4864H7.8625V13.6778H7.866ZM7.537 13.6778H7.712V15.4864H7.537V13.6778ZM7.208 13.6778H7.383V15.4864H7.208V13.6778ZM6.879 13.6778H7.054V15.4864H6.879V13.6778ZM6.557 13.6778H6.732V15.4864H6.557V13.6778ZM6.375 13.4975H8.54675V15.6666H6.375V13.4975ZM8.87663 10.9941H11.0466V13.1633H8.88013L8.87663 10.9941ZM10.694 11.1753H10.869V12.983H10.694V11.1753ZM10.365 11.1753H10.54V12.983H10.365V11.1753ZM10.036 11.1753H10.211V12.983H10.036V11.1753ZM9.707 11.1753H9.882V12.983H9.707V11.1753ZM9.378 11.1753H9.553V12.983H9.378V11.1753ZM9.056 11.1753H9.231V12.983H9.056V11.1753ZM8.87488 13.4966H11.0449V15.6666H8.88013V13.4975L8.87488 13.4966ZM10.6923 13.6778H10.8673V15.4864H10.6923V13.6778ZM10.3633 13.6778H10.5383V15.4864H10.3633V13.6778ZM10.0343 13.6778H10.2093V15.4864H10.0343V13.6778ZM9.70525 13.6778H9.88025V15.4864H9.70525V13.6778ZM9.37625 13.6778H9.55125V15.4864H9.37625V13.6778ZM9.05425 13.6778H9.22925V15.4864H9.05425V13.6778ZM11.3765 13.4966H13.55V15.6666H11.38V13.4975L11.3765 13.4966ZM13.193 13.6778H13.375V15.4864H13.2L13.193 13.6778ZM12.864 13.6778H13.039V15.4864H12.864V13.6778ZM12.535 13.6778H12.71V15.4864H12.535V13.6778ZM12.206 13.6778H12.381V15.4864H12.206V13.6778ZM11.877 13.6778H12.052V15.4864H11.877V13.6778ZM11.555 13.6778H11.73V15.4864H11.555V13.6778ZM11.3748 10.9941H13.55V13.1633H11.38V10.9941H11.3748ZM13.1913 11.1753H13.375V12.983H13.2L13.1913 11.1753ZM12.8623 11.1753H13.0373V12.983H12.8623V11.1753ZM12.5333 11.1753H12.7083V12.983H12.5333V11.1753ZM12.2043 11.1753H12.3793V12.983H12.2043V11.1753ZM11.8753 11.1753H12.0503V12.983H11.8753V11.1753ZM11.5533 11.1753H11.7283V12.983H11.5533V11.1753ZM13.8755 13.4966H16.0446V15.6666H13.8746V13.4975L13.8755 13.4966ZM15.692 13.6778H15.867V15.4864H15.692V13.6778ZM15.363 13.6778H15.538V15.4864H15.363V13.6778ZM15.034 13.6778H15.209V15.4864H15.034V13.6778ZM14.705 13.6778H14.88V15.4864H14.705V13.6778ZM14.376 13.6778H14.551V15.4864H14.376V13.6778ZM14.054 13.6778H14.222V15.4864H14.047V13.6778H14.054ZM13.8738 10.9941H16.0429V13.1633H13.8729L13.8738 10.9941ZM15.6903 11.1753H15.8653V12.983H15.6903V11.1753ZM15.3613 11.1753H15.5363V12.983H15.3613V11.1753ZM15.0323 11.1753H15.2073V12.983H15.0323V11.1753ZM14.7033 11.1753H14.8783V12.983H14.7033V11.1753ZM14.3743 11.1753H14.5493V12.983H14.3743V11.1753ZM14.0523 11.1753H14.2203V12.983H14.0453V11.1753H14.0523ZM13.872 8.49164H16.0411V10.6625H13.8711L13.872 8.49164ZM15.6885 8.67189H15.8635V10.4796H15.6885V8.67189ZM15.3595 8.67189H15.5345V10.4796H15.3595V8.67189ZM15.0305 8.67189H15.2055V10.4796H15.0305V8.67189ZM14.7015 8.67189H14.8765V10.4796H14.7015V8.67189ZM14.3725 8.67189H14.5475V10.4796H14.3725V8.67189ZM14.0505 8.67189H14.2185V10.4796H14.0435V8.67189H14.0505ZM16.3728 13.4966H18.5419V15.6666H16.3719V13.4975L16.3728 13.4966ZM18.1893 13.6778H18.3599V15.4864H18.1849V13.6778H18.1893ZM17.8603 13.6778H18.0405V15.4864H17.8603V13.6778ZM17.5313 13.6778H17.7063V15.4864H17.5313V13.6778ZM17.2023 13.6778H17.3773V15.4864H17.2023V13.6778ZM16.8733 13.6778H17.0483V15.4864H16.8689V13.6778H16.8733ZM16.5513 13.6778H16.7263V15.4864H16.5565V13.6778H16.5513ZM10.9145 19.1833C11.0329 19.1833 11.1486 19.2184 11.247 19.2841C11.3454 19.3499 11.4221 19.4434 11.4674 19.5527C11.5127 19.6621 11.5246 19.7824 11.5015 19.8985C11.4784 20.0146 11.4214 20.1213 11.3377 20.205C11.254 20.2887 11.1474 20.3457 11.0313 20.3688C10.9152 20.3919 10.7948 20.38 10.6855 20.3347C10.5761 20.2894 10.4826 20.2127 10.4169 20.1143C10.3511 20.0158 10.316 19.9001 10.316 19.7818C10.316 19.623 10.3791 19.4708 10.4913 19.3586C10.6035 19.2463 10.7558 19.1833 10.9145 19.1833ZM10.9145 19.353C10.9675 19.353 11.02 19.3628 11.0694 19.3819C11.0459 19.3953 11.0258 19.414 11.0107 19.4365C10.9957 19.459 10.986 19.4847 10.9826 19.5116C10.9791 19.5384 10.982 19.5657 10.9908 19.5913C10.9997 19.6169 11.0144 19.64 11.0338 19.659C11.0531 19.6779 11.0766 19.6921 11.1024 19.7004C11.1282 19.7087 11.1555 19.7109 11.1823 19.7069C11.2091 19.7029 11.2345 19.6927 11.2567 19.6771C11.2788 19.6615 11.2971 19.6411 11.31 19.6173C11.3457 19.7021 11.3531 19.7962 11.3312 19.8855C11.3093 19.9749 11.2592 20.0549 11.1884 20.1136C11.1175 20.1724 11.0296 20.2067 10.9377 20.2116C10.8458 20.2166 10.7548 20.1918 10.6781 20.141C10.6013 20.0902 10.543 20.016 10.5117 19.9295C10.4803 19.8429 10.4777 19.7486 10.5041 19.6605C10.5305 19.5723 10.5846 19.495 10.6583 19.4399C10.7321 19.3849 10.8216 19.355 10.9136 19.3548L10.9145 19.353Z" fill="#FBF1C7"/>
</svg>
