<svg viewBox="0 0 32 32" fill="none" xmlns="http://www.w3.org/2000/svg">
<path d="M9.62036 18.0571C9.81446 17.93 9.96378 17.7452 10.0473 17.5287C10.1308 17.3123 10.1443 17.0751 10.0859 16.8505C9.60549 17.0561 9.62824 17.5304 9.62036 18.0571ZM15.0585 19.3705C15.1622 19.3458 15.2596 19.2995 15.3444 19.2348C15.4292 19.17 15.4994 19.0882 15.5505 18.9946C15.6016 18.9009 15.6326 18.7976 15.6412 18.6913C15.6499 18.585 15.6362 18.4781 15.601 18.3774C15.4389 18.4887 15.3053 18.6366 15.211 18.8091C15.1168 18.9817 15.0645 19.174 15.0585 19.3705Z" fill="#D3869B"/>
<path d="M4.37392 25.6941C4.34704 25.9139 4.37482 26.137 4.4548 26.3435C4.53478 26.55 4.66449 26.7336 4.83242 26.878C6.06967 27.5727 10.4079 27.0311 11.8814 26.703C12.6196 26.4141 13.3301 26.0588 14.0042 25.6416C15.4626 25.0618 16.8469 24.3107 18.128 23.4042C19.0748 22.7095 20.578 20.7539 20.7399 19.5857L19.4493 19.2952C19.4187 20.6077 19.1212 20.907 17.9522 21.2124C16.9252 21.4286 15.8692 21.47 14.8284 21.3349C14.4129 21.2653 14.0171 21.1072 13.668 20.8714C13.3188 20.6356 13.0243 20.3276 12.8045 19.9681C11.8727 18.7309 13.011 17.8681 11.5367 17.7806C9.98617 19.682 7.24917 18.3152 6.05305 18.1245C5.19986 20.2576 4.62976 22.4933 4.3573 24.7745C4.67203 24.6926 5.00009 24.6755 5.32164 24.7241C5.64319 24.7726 5.95154 24.8859 6.22805 25.0571C8.58005 25.9662 6.52555 26.7677 5.58667 26.5315C4.94705 26.381 4.74842 25.961 4.37392 25.6941ZM7.45217 14.7199C8.36422 14.9258 9.24324 15.2573 10.064 15.7051C11.3853 16.3622 11.6224 16.2704 11.744 17.1865C11.7589 17.3545 11.7292 17.449 12.2095 17.5986C13.0189 17.8506 11.744 17.4 13.9123 17.4079C15.7009 17.4615 17.4644 17.8445 19.1142 18.5375C19.5114 18.7895 19.4353 19.1106 20.7767 19.0721C20.7319 17.2287 20.3769 15.4059 19.7267 13.6804C18.9707 11.9242 17.9705 11.6565 15.9309 10.9994C14.7392 10.6179 11.2418 10.1979 10.1559 10.8699C9.14005 11.5034 8.9493 12.2602 8.00255 13.5885C7.76917 13.9392 7.58405 14.3198 7.45217 14.7199Z" fill="#FBF1C7"/>
<path d="M15.86 17.9652C16.6239 18.2785 15.8215 20.3024 14.7601 19.8132C14.4163 18.8437 15.2335 18.2934 15.4549 17.8585C14.7472 17.711 14.0218 17.6674 13.3015 17.729C12.7975 17.9197 12.6829 18.9969 12.9428 19.5009C14.1678 21.8992 19.5639 21.3874 18.9916 19.5236C18.7624 18.7676 18.5489 18.6486 17.7771 18.3861C17.1654 18.142 16.5178 17.9998 15.86 17.9652ZM6.26038 17.6984C6.87288 18.2864 8.25363 18.3782 9.14788 18.4237C9.2625 17.2399 9.36138 16.35 10.3125 16.4226C10.5077 16.7108 10.5885 17.0615 10.5391 17.406C10.4898 17.7506 10.3139 18.0645 10.0456 18.2864C10.2351 18.2902 10.4229 18.2496 10.5939 18.1678C10.7648 18.086 10.9143 17.9653 11.0301 17.8153C11.146 17.6653 11.2251 17.4902 11.2611 17.3041C11.2971 17.1181 11.289 16.9261 11.2374 16.7437C10.0384 15.977 8.71924 15.4168 7.33488 15.0865C6.83044 15.8895 6.46703 16.7729 6.26038 17.6984Z" fill="#FBF1C7"/>
<path d="M4.82445 25.2584C5.32845 25.2129 6.64183 25.5944 6.74945 26.0222C5.9322 26.122 4.89358 26.045 4.82445 25.2584ZM4.37383 25.6959C4.74833 25.9627 4.94695 26.3836 5.58833 26.5359C6.52808 26.773 8.5817 25.9706 6.2297 25.0615C5.95371 24.8907 5.64599 24.7775 5.32508 24.7287C5.00417 24.68 4.67671 24.6968 4.36245 24.778C4.63491 22.4968 5.20501 20.2611 6.0582 18.128C7.25695 18.3187 9.99133 19.6864 11.5418 17.7841C13.0162 17.8716 11.8778 18.7309 12.8097 19.9716C13.0291 20.3304 13.3229 20.638 13.6713 20.8736C14.0197 21.1092 14.4145 21.2674 14.8292 21.3375C15.8699 21.4727 16.926 21.4312 17.953 21.215C19.1211 20.9096 19.4195 20.6112 19.4501 19.2979L20.7407 19.5884C20.5806 20.7565 19.0782 22.7121 18.1288 23.4069C16.8477 24.3134 15.4633 25.0644 14.005 25.6442C13.3309 26.0614 12.6204 26.4167 11.8822 26.7056C10.4078 27.0337 6.07045 27.5806 4.8332 26.8806C4.66471 26.7361 4.53459 26.5521 4.45444 26.3451C4.37429 26.1381 4.3466 25.9144 4.37383 25.6941V25.6959ZM15.0585 19.3722C15.0645 19.1757 15.1168 18.9834 15.211 18.8108C15.3053 18.6383 15.4389 18.4904 15.601 18.3791C15.6359 18.4797 15.6494 18.5865 15.6406 18.6926C15.6317 18.7987 15.6007 18.9018 15.5496 18.9952C15.4985 19.0886 15.4284 19.1702 15.3438 19.2349C15.2592 19.2995 15.162 19.3457 15.0585 19.3705V19.3722ZM15.86 17.967C16.5177 18.0013 17.1653 18.1431 17.7771 18.387C18.5488 18.6495 18.7623 18.7685 18.9916 19.5245C19.5647 21.3882 14.1651 21.8992 12.9427 19.5017C12.6802 18.9977 12.7975 17.9206 13.3015 17.7299C14.0217 17.6683 14.7471 17.7119 15.4548 17.8594C15.2335 18.2969 14.4162 18.8446 14.7601 19.8141C15.825 20.3024 16.6238 18.275 15.86 17.9652V17.967ZM9.62033 18.0545C9.6282 17.5295 9.60545 17.0544 10.0858 16.8479C10.1449 17.0728 10.1317 17.3106 10.0481 17.5276C9.9646 17.7446 9.81494 17.9298 9.62033 18.0571V18.0545ZM6.26033 17.6957C6.46536 16.7706 6.82698 15.8872 7.32958 15.0839C8.71394 15.4142 10.0331 15.9743 11.2321 16.7411C11.2841 16.9236 11.2927 17.1157 11.2569 17.3021C11.2212 17.4885 11.1423 17.6639 11.0265 17.8142C10.9106 17.9645 10.7611 18.0855 10.59 18.1675C10.4189 18.2495 10.2309 18.2902 10.0412 18.2864C10.3094 18.0645 10.4854 17.7506 10.5347 17.4061C10.5841 17.0615 10.5033 16.7109 10.3081 16.4226C9.36133 16.3535 9.25808 17.2399 9.14695 18.4237C8.25358 18.3774 6.87108 18.2864 6.26033 17.6984V17.6957ZM5.49995 17.0867C5.21733 16.308 5.21733 15.0935 6.41608 14.9937L5.80358 16.6965C5.6417 17.064 5.6417 16.98 5.49995 17.0867ZM7.4547 14.719C7.58637 14.3192 7.77119 13.939 8.0042 13.5885C8.95095 12.2594 9.1417 11.5034 10.1576 10.8699C11.2417 10.1979 14.74 10.6179 15.9326 10.9994C17.9713 11.6565 18.9723 11.9234 19.7283 13.6804C20.3786 15.4059 20.7335 17.2287 20.7783 19.0721C19.4343 19.1106 19.5105 18.7895 19.1158 18.5375C17.4663 17.8443 15.7032 17.4611 13.9148 17.407C11.7457 17.3991 13.0215 17.8497 12.2121 17.5977C11.7308 17.4446 11.7615 17.3536 11.7466 17.1856C11.6241 16.2695 11.3878 16.3605 10.0666 15.7042C9.2449 15.2566 8.36498 14.9253 7.45208 14.7199L7.4547 14.719ZM20.9726 14.3445C20.8273 13.8632 21.0951 13.8939 21.5606 13.5657C21.8181 13.3579 22.0884 13.1665 22.37 12.9926C23.5993 12.3049 25.891 12.1911 26.8683 13.0075C27.1623 13.2087 27.4023 13.4791 27.5669 13.795C27.7316 14.1109 27.8159 14.4625 27.8125 14.8187C27.6801 15.5046 27.4086 16.1559 27.0146 16.7327C26.6206 17.3094 26.1125 17.7992 25.5217 18.1717C24.9649 18.6786 24.2914 19.0397 23.5611 19.2229C22.8309 19.4061 22.0666 19.4057 21.3366 19.2217C21.1992 18.8857 21.306 16.7551 21.1458 15.9685C21.0006 15.2685 21.0767 15.1897 21.4818 14.7697C22.6736 13.5325 25.2548 12.6312 26.7213 13.6926C27.34 14.1511 27.1641 14.3261 27.4852 14.6779C27.8825 14.25 27.1413 12.8141 24.4078 12.906C22.5502 12.9629 21.7487 14.4136 20.97 14.3454L20.9726 14.3445ZM9.84958 10.0001C10.0597 8.47773 10.7593 7.06499 11.8428 5.97512C13.025 5.0625 14.264 4.19537 16.0822 5.22612C16.5328 5.47812 16.5101 5.60762 16.5556 6.23412C16.6015 6.67872 16.544 7.12793 16.3876 7.54662C15.181 11.4412 14.173 9.20387 10.3081 10.1279C10.5885 8.95835 11.2395 7.91082 12.164 7.1415C13.214 6.12562 13.9665 5.46937 15.5397 5.68287C15.7665 5.97528 15.8858 6.33684 15.8775 6.70682C15.8692 7.0768 15.7339 7.43266 15.4942 7.71462C14.7942 8.84512 14.6192 8.776 14.7225 9.54775C15.272 9.41037 15.44 8.87575 15.692 8.34112C17.2267 5.13337 14.9972 4.744 13.6296 5.332C12.3425 6.14827 11.2818 7.27551 10.5452 8.60975C10.4385 8.82325 10.3238 9.09887 10.2241 9.33512L9.84958 10.0001ZM15.8985 10.1602C16.0586 9.20562 17.0062 8.9685 17.0062 6.025C17.0062 4.75712 15.4478 3.61962 13.4091 4.46662C11.6591 5.18412 11.3966 5.7345 10.4612 7.13975C9.5862 8.46887 9.61333 9.9275 8.85733 11.1569C8.63595 11.5069 8.43733 11.6302 8.1932 11.982C8.0182 12.2445 7.88783 12.57 7.71195 12.8754C7.32308 13.4191 6.98313 13.9963 6.69608 14.6C5.77995 14.6227 5.0082 14.6385 4.91633 15.5852C4.79383 16.8837 5.40545 17.204 5.40545 17.6931C5.39758 18.2181 3.25908 23.5355 3.85495 26.7056C4.02295 27.5806 4.59608 27.5806 5.5122 27.6909C7.87832 28.0242 10.2893 27.8126 12.5612 27.0722L16.1487 25.3537C17.2683 24.7473 18.3139 24.0132 19.2646 23.1662C19.6895 22.6992 20.0727 22.1959 20.41 21.6621C20.8787 21.1295 21.1288 20.4394 21.11 19.7301C22.0276 19.8561 22.9135 20.1529 23.7218 20.6051C23.6685 21.1301 23.4086 20.8799 23.4086 21.3532C23.6168 21.3169 23.8116 21.2255 23.9727 21.0886C24.1338 20.9517 24.2553 20.7742 24.3247 20.5745C24.0115 20.116 23.6833 20.193 23.2327 19.8264C23.7091 19.5639 24.2137 19.3564 24.7368 19.2077C25.8061 18.765 27.6313 17.421 28.082 16.1986C28.2453 15.6512 28.2861 15.0746 28.2016 14.5096C28.117 13.9447 27.9092 13.4052 27.5928 12.9296C26.6869 12.2157 25.5527 11.8548 24.4008 11.9137C23.0183 11.9137 21.5903 12.9069 20.4756 13.3339C20.0477 12.9594 20.0171 12.5324 19.7038 12.1194C18.5796 11.2178 17.2854 10.5515 15.8985 10.1602Z" fill="#1D2021"/>
<path d="M20.9699 14.3454C21.7487 14.4145 22.5511 12.9629 24.4069 12.9016C27.1413 12.8141 27.8816 14.2456 27.4843 14.6735C27.1632 14.3235 27.3391 14.1485 26.7204 13.6882C25.2539 12.6269 22.6727 13.5281 21.4809 14.7654C21.0758 15.1854 20.9997 15.2615 21.1449 15.9641C21.3051 16.7516 21.1983 18.8814 21.3357 19.2174C22.0658 19.4013 22.83 19.4017 23.5603 19.2185C24.2905 19.0353 24.9641 18.6742 25.5208 18.1674C26.1113 17.7954 26.6192 17.3063 27.0134 16.7304C27.4075 16.1544 27.6795 15.5038 27.8124 14.8187C27.8155 14.4624 27.7307 14.1109 27.5655 13.7951C27.4004 13.4794 27.1601 13.2092 26.8657 13.0084C25.8883 12.1911 23.5967 12.3084 22.3673 12.9935C22.0858 13.1674 21.8155 13.3588 21.5579 13.5666C21.0916 13.8947 20.8247 13.8641 20.9699 14.3454Z" fill="#FBF1C7"/>
<path d="M9.84961 10.0001L10.225 9.33512C10.3239 9.098 10.4385 8.82324 10.5461 8.60974C11.2829 7.27615 12.3437 6.14953 13.6305 5.33374C14.9972 4.74574 17.2276 5.13512 15.6929 8.34287C15.4409 8.87749 15.2729 9.41212 14.7234 9.5495C14.6166 8.77775 14.7925 8.84949 15.4951 7.71637C15.7348 7.43441 15.8701 7.07855 15.8784 6.70857C15.8867 6.33859 15.7674 5.97703 15.5406 5.68462C13.9656 5.47112 13.2114 6.12737 12.1649 7.14324C11.2417 7.91308 10.592 8.96056 10.3125 10.1296C14.1765 9.20562 15.1854 11.4421 16.392 7.54837C16.5485 7.12968 16.606 6.68047 16.56 6.23587C16.5145 5.60937 16.5372 5.47987 16.0866 5.22787C14.2692 4.19712 13.032 5.05987 11.8481 5.97599C10.7628 7.0649 10.0613 8.47739 9.84961 10.0001Z" fill="#FBF1C7"/>
<path d="M5.49995 17.0868C5.6452 16.98 5.6452 17.064 5.80532 16.6974L6.41782 14.9946C5.21382 15.0935 5.21382 16.308 5.49995 17.0868Z" fill="#FBF1C7"/>
<path d="M6.74946 26.0223C6.64271 25.5944 5.32934 25.2129 4.82446 25.2584C4.89359 26.045 5.93221 26.122 6.74946 26.0223Z" fill="#FBF1C7"/>
</svg>
