<svg viewBox="0 0 32 32" fill="none" xmlns="http://www.w3.org/2000/svg">
<path d="M28.1031 16.6125L22.5433 25.9899C22.4397 26.1536 22.2946 26.287 22.1228 26.3766C21.951 26.4662 21.7586 26.5087 21.5651 26.5H10.4412C10.2471 26.5076 10.0545 26.4638 9.88276 26.3732C9.71101 26.2826 9.5662 26.1482 9.46294 25.9837L3.90144 16.6212C3.80236 16.4525 3.75012 16.2604 3.75012 16.0647C3.75012 15.8691 3.80236 15.677 3.90144 15.5082L9.46119 6.0915C9.56063 5.9176 9.70285 5.77199 9.87436 5.66847C10.0459 5.56495 10.241 5.50696 10.4412 5.5H21.5616C21.7616 5.50743 21.9565 5.56583 22.1277 5.66965C22.2989 5.77346 22.4407 5.91927 22.5398 6.09325L28.0996 15.531C28.198 15.6945 28.25 15.8818 28.25 16.0726C28.25 16.2635 28.198 16.4507 28.0996 16.6142L28.1031 16.6125ZM23.4988 20.2875V11.8753L16.0001 7.65775L8.51006 11.8753V20.2875L16.0001 24.5041L23.4988 20.2875Z" fill="#83A598"/>
<path d="M21.0768 18.7895L16.0482 21.6201L11.0239 18.7895V13.1283L16.0482 10.2968L21.0768 13.1283V18.7895Z" fill="#D3869B"/>
</svg>
