<svg viewBox="0 0 32 32" fill="none" xmlns="http://www.w3.org/2000/svg">
<path d="M27.788 14.9089L17.0911 4.21202C16.9448 4.06519 16.7709 3.94869 16.5795 3.86919C16.388 3.7897 16.1828 3.74878 15.9755 3.74878C15.7682 3.74878 15.5629 3.7897 15.3715 3.86919C15.18 3.94869 15.0062 4.06519 14.8598 4.21202L12.6382 6.43365L15.4557 9.25115C15.788 9.13808 16.1453 9.12062 16.487 9.20074C16.8287 9.28087 17.141 9.45537 17.3883 9.70435C17.6357 9.95333 17.8081 10.2668 17.8859 10.609C17.9638 10.9512 17.944 11.3084 17.8287 11.6399L20.5412 14.3524C20.9467 14.2131 21.3876 14.217 21.7906 14.3633C22.1935 14.5097 22.5342 14.7897 22.7557 15.1567C22.9773 15.5237 23.0664 15.9556 23.0082 16.3803C22.95 16.8051 22.748 17.197 22.4359 17.4909C22.1238 17.7848 21.7204 17.9629 21.2929 17.9955C20.8655 18.0281 20.4397 17.9132 20.0867 17.67C19.7336 17.4268 19.4746 17.0699 19.3527 16.6589C19.2308 16.2479 19.2535 15.8075 19.4168 15.4111L16.8837 12.878V19.5429C17.2674 19.733 17.5744 20.0489 17.7536 20.4378C17.9327 20.8268 17.9732 21.2654 17.8683 21.6806C17.7633 22.0958 17.5193 22.4625 17.1769 22.7196C16.8344 22.9767 16.4142 23.1088 15.9862 23.0937C15.5582 23.0787 15.1483 22.9175 14.8248 22.6369C14.5012 22.3564 14.2835 21.9735 14.208 21.552C14.1325 21.1304 14.2036 20.6957 14.4097 20.3203C14.6157 19.9449 14.9441 19.6514 15.3402 19.4886V12.7625C15.1111 12.6685 14.9028 12.5301 14.7273 12.3552C14.5519 12.1803 14.4128 11.9724 14.318 11.7436C14.2233 11.5147 14.1747 11.2693 14.1752 11.0216C14.1757 10.7739 14.2252 10.5288 14.3208 10.3003L11.5471 7.52477L4.21197 14.8625C4.06501 15.0089 3.94839 15.1828 3.86882 15.3743C3.78925 15.5658 3.74829 15.7712 3.74829 15.9786C3.74829 16.186 3.78925 16.3913 3.86882 16.5829C3.94839 16.7744 4.06501 16.9483 4.21197 17.0946L14.9088 27.788C15.0552 27.9349 15.229 28.0514 15.4205 28.1309C15.6119 28.2103 15.8172 28.2513 16.0245 28.2513C16.2318 28.2513 16.437 28.2103 16.6285 28.1309C16.8199 28.0514 16.9938 27.9349 17.1401 27.788L27.788 17.1375C27.9349 16.9912 28.0515 16.8173 28.1311 16.6257C28.2107 16.4342 28.2516 16.2289 28.2516 16.0215C28.2516 15.8141 28.2107 15.6087 28.1311 15.4172C28.0515 15.2257 27.9349 15.0517 27.788 14.9054" fill="#FB4934"/>
<path d="M12.6382 6.43365L15.4557 9.25115C15.788 9.13809 16.1453 9.12062 16.487 9.20075C16.8287 9.28088 17.141 9.45538 17.3883 9.70436C17.6357 9.95334 17.8081 10.2668 17.886 10.609C17.9638 10.9512 17.944 11.3084 17.8287 11.6399L20.5412 14.3524C20.9467 14.2131 21.3876 14.217 21.7906 14.3633C22.1936 14.5097 22.5342 14.7897 22.7558 15.1567C22.9773 15.5237 23.0664 15.9556 23.0082 16.3803C22.95 16.8051 22.7481 17.1971 22.4359 17.491C22.1238 17.7849 21.7204 17.9629 21.293 17.9955C20.8655 18.0281 20.4398 17.9132 20.0867 17.67C19.7337 17.4268 19.4746 17.0699 19.3527 16.6589C19.2308 16.2479 19.2535 15.8075 19.4169 15.4112L16.8837 12.878V19.5429C17.2675 19.733 17.5745 20.0489 17.7536 20.4378C17.9328 20.8268 17.9732 21.2654 17.8683 21.6806C17.7634 22.0958 17.5193 22.4625 17.1769 22.7196C16.8344 22.9768 16.4142 23.1088 15.9862 23.0938C15.5583 23.0787 15.1484 22.9175 14.8248 22.637C14.5012 22.3564 14.2836 21.9735 14.208 21.552C14.1325 21.1304 14.2037 20.6958 14.4097 20.3203C14.6157 19.9449 14.9441 19.6514 15.3402 19.4887V12.7625C15.1111 12.6685 14.9028 12.5301 14.7273 12.3552C14.5519 12.1803 14.4128 11.9725 14.3181 11.7436C14.2233 11.5147 14.1748 11.2694 14.1753 11.0217C14.1757 10.7739 14.2252 10.5288 14.3209 10.3003L11.5471 7.52478" fill="#FBF1C7"/>
</svg>
