<svg viewBox="0 0 32 32" fill="none" xmlns="http://www.w3.org/2000/svg">
<path d="M27.8125 13.55V13.4625L24.4875 4.80001C24.4 4.62501 24.3125 4.45001 24.1375 4.36251C23.7875 4.18751 23.4375 4.18751 23.0875 4.45001C23 4.53751 22.825 4.62501 22.825 4.80001L20.55 11.7125H11.45L9.17496 4.80001C9.17496 4.62501 8.99996 4.53751 8.91247 4.36251C8.56246 4.18751 8.21246 4.10001 7.86246 4.36251C7.68746 4.45001 7.59997 4.53751 7.51247 4.71251L4.18746 13.375V13.4625C3.22496 16 4.01247 18.975 6.19997 20.6375L11.275 24.4L13.8125 26.325L15.3 27.4625C15.65 27.725 16.175 27.725 16.525 27.4625L18.0125 26.325L20.55 24.4L25.625 20.55C27.9875 19.0625 28.8625 16.0875 27.8125 13.55Z" fill="#FB4934"/>
<path d="M27.8125 13.55V13.4625C26.15 13.8125 24.6625 14.5125 23.35 15.475L16 20.9875C18.5375 22.9125 20.6375 24.4875 20.6375 24.4875L25.7125 20.6375C27.9875 19.0625 28.8625 16.0875 27.8125 13.55Z" fill="#FE8019"/>
<path d="M11.3625 24.575L13.9 26.5L15.3875 27.6375C15.7375 27.9 16.2625 27.9 16.6125 27.6375L18.1 26.5L20.6375 24.575C20.6375 24.575 18.45 22.9125 16 21.075C13.4625 22.9125 11.3625 24.575 11.3625 24.575Z" fill="#FABD2F"/>
<path d="M8.64996 15.475C7.33746 14.5125 5.76246 13.8125 4.18746 13.4625V13.55C3.22496 16.0875 4.01247 19.0625 6.19997 20.725L11.275 24.4875C11.275 24.4875 13.4625 22.825 15.9125 20.9875L8.64996 15.475Z" fill="#FE8019"/>
</svg>
