<svg viewBox="0 0 32 32" fill="none" xmlns="http://www.w3.org/2000/svg">
<path fill-rule="evenodd" clip-rule="evenodd" d="M7.23868 17.0063C7.27368 17.729 7.99555 17.3948 8.3228 17.169C8.63343 16.9546 8.72443 17.1331 8.75155 16.7096C8.77971 16.432 8.7911 16.153 8.78568 15.874C8.30361 15.8256 7.82 15.9497 7.42068 16.224C7.22205 16.3684 6.85105 16.8278 7.23868 17.0115" fill="#FBF1C7"/>
<path d="M7.61397 17.5155C7.54261 17.5168 7.47192 17.5015 7.40747 17.4709C7.33382 17.4283 7.27302 17.3666 7.23145 17.2924C7.18987 17.2182 7.16907 17.1341 7.17122 17.0491C7.12347 17.026 7.08237 16.9912 7.05176 16.9479C7.02115 16.9046 7.00204 16.8542 6.99622 16.8015C7.00927 16.6744 7.04985 16.5516 7.11513 16.4418C7.1804 16.3319 7.26881 16.2376 7.37422 16.1654C7.78648 15.8803 8.28708 15.7522 8.78559 15.804L8.84509 15.8092V15.8687C8.85277 16.0868 8.84605 16.3052 8.82497 16.5224C8.81986 16.5859 8.8152 16.6495 8.81097 16.7131C8.79172 17.0132 8.73572 17.0587 8.58084 17.1121C8.4995 17.1381 8.42251 17.1761 8.35247 17.225C8.13536 17.3837 7.88101 17.4837 7.61397 17.5155ZM8.58522 15.9335C8.18334 15.9281 7.78986 16.0487 7.45997 16.2782C7.31822 16.3815 7.12134 16.623 7.13797 16.7892C7.14293 16.8244 7.15759 16.8576 7.1803 16.8849C7.20302 16.9123 7.23289 16.9328 7.26659 16.9441L7.30422 16.9616V17.0027C7.31297 17.183 7.36722 17.2985 7.46609 17.3475C7.65684 17.442 8.01209 17.2967 8.28072 17.1121C8.36129 17.0561 8.44976 17.0125 8.54322 16.9826C8.64472 16.9476 8.66572 16.9397 8.68059 16.7044C8.68059 16.6405 8.68934 16.5766 8.69459 16.5119C8.71245 16.3205 8.72005 16.1283 8.71734 15.9361C8.67242 15.9344 8.6278 15.9335 8.58522 15.9335Z" fill="#1D2021"/>
<path fill-rule="evenodd" clip-rule="evenodd" d="M7.23865 17.0062C7.3485 16.9819 7.44869 16.9256 7.52652 16.8444Z" fill="#FBF1C7"/>
<path d="M7.23857 17.0754C7.2228 17.0748 7.20772 17.0688 7.19583 17.0584C7.18393 17.0481 7.17594 17.0339 7.17318 17.0184C7.17043 17.0029 7.17306 16.9869 7.18066 16.973C7.18826 16.9592 7.20035 16.9484 7.21495 16.9424L7.26132 16.9258C7.34222 16.9073 7.41569 16.8649 7.4722 16.8041C7.47717 16.7958 7.48382 16.7887 7.49173 16.7831C7.49963 16.7776 7.50861 16.7737 7.5181 16.7719C7.52758 16.77 7.53734 16.7701 7.54677 16.7723C7.55619 16.7744 7.56506 16.7785 7.57281 16.7843C7.58055 16.7901 7.587 16.7974 7.59173 16.8058C7.59647 16.8143 7.59938 16.8236 7.60029 16.8332C7.6012 16.8428 7.60008 16.8525 7.59701 16.8617C7.59393 16.8708 7.58897 16.8793 7.58245 16.8864C7.51028 16.9694 7.41439 17.0284 7.3077 17.0553L7.26307 17.071C7.25524 17.074 7.24694 17.0754 7.23857 17.0754Z" fill="#1D2021"/>
<path fill-rule="evenodd" clip-rule="evenodd" d="M8.9073 8.39536C6.13967 7.61749 8.19767 4.09999 10.4193 5.54549L8.9073 8.39536Z" fill="#458588"/>
<path d="M8.9422 8.47499L8.88882 8.46011C8.55573 8.40346 8.24733 8.24805 8.00363 8.01402C7.75993 7.77999 7.59216 7.47814 7.52207 7.14761C7.48921 6.80801 7.55182 6.46597 7.70286 6.16003C7.85389 5.85409 8.08736 5.5964 8.37695 5.41599C8.6909 5.21783 9.05718 5.11862 9.42823 5.13126C9.79927 5.1439 10.158 5.2678 10.4577 5.48686L10.5102 5.52099L8.9422 8.47499ZM9.33507 5.26724C9.02129 5.26733 8.71428 5.35852 8.45132 5.52974C8.18372 5.69544 7.96766 5.93253 7.82745 6.21434C7.68725 6.49614 7.62846 6.81147 7.6577 7.12486C7.72057 7.42063 7.86937 7.69124 8.08542 7.90278C8.30148 8.11432 8.57517 8.25737 8.8722 8.31399L10.3291 5.56911C10.0321 5.37866 9.68785 5.27473 9.33507 5.26899V5.26724Z" fill="#1D2021"/>
<path fill-rule="evenodd" clip-rule="evenodd" d="M21.201 5.28125C23.3885 3.743 25.3704 7.21412 22.825 8.08737L21.201 5.28125Z" fill="#458588"/>
<path d="M22.7944 8.1705L21.11 5.26112L21.1616 5.22525C21.4418 5.00095 21.7823 4.86511 22.14 4.83503C22.4976 4.80496 22.8561 4.88201 23.1697 5.05637C23.4662 5.23031 23.7086 5.48315 23.8699 5.78672C24.0312 6.09029 24.1051 6.43268 24.0832 6.77575C24.0388 7.10265 23.8972 7.40867 23.6767 7.6541C23.4563 7.89953 23.1672 8.07304 22.8469 8.15212L22.7944 8.1705ZM21.2929 5.30137L22.8565 8.0025C23.1398 7.92531 23.3942 7.76656 23.5881 7.54596C23.7819 7.32536 23.9066 7.05266 23.9467 6.76175C23.9664 6.44479 23.8977 6.1286 23.7483 5.84837C23.5989 5.56813 23.3747 5.33486 23.1006 5.1745C22.8208 5.01372 22.4994 4.93992 22.1774 4.96252C21.8554 4.98511 21.5475 5.10308 21.2929 5.30137Z" fill="#1D2021"/>
<path fill-rule="evenodd" clip-rule="evenodd" d="M21.6727 25.9024C22.2292 26.2462 23.2477 27.2875 22.4112 27.7924C21.6097 28.5265 21.1608 26.9865 20.4564 26.773C20.5917 26.5549 20.7689 26.3656 20.9776 26.2162C21.1863 26.0668 21.4226 25.9601 21.6727 25.9024Z" fill="#FBF1C7"/>
<path d="M21.9885 28.0584H21.9553C21.6394 28.0391 21.3769 27.7311 21.1231 27.4328C20.949 27.1795 20.7124 26.9754 20.4363 26.8404L20.3435 26.8124L20.4013 26.7336C20.6867 26.2798 21.1399 25.9571 21.6621 25.8359H21.6875L21.7094 25.849C22.0655 26.0695 22.8005 26.7135 22.797 27.2963C22.7952 27.4114 22.7622 27.5239 22.7017 27.6219C22.6412 27.7198 22.5553 27.7996 22.4531 27.8528C22.3299 27.9777 22.1638 28.0512 21.9885 28.0584ZM20.5666 26.7459C20.8261 26.8987 21.0513 27.1033 21.2281 27.347C21.474 27.6358 21.7068 27.9088 21.964 27.9245C22.0391 27.9243 22.1133 27.9087 22.1821 27.8786C22.2509 27.8484 22.3128 27.8045 22.3639 27.7495L22.3744 27.7416C22.4577 27.7009 22.5282 27.6381 22.5782 27.56C22.6282 27.4819 22.6558 27.3916 22.6579 27.2989C22.6579 26.8334 22.0699 26.2489 21.6569 25.9864C21.2105 26.09 20.8206 26.3601 20.5666 26.7415V26.7459Z" fill="#1D2021"/>
<path d="M22.4112 27.8615C22.3985 27.8614 22.3861 27.8579 22.3753 27.8513C22.3645 27.8446 22.3557 27.8352 22.3499 27.8239C22.3092 27.7384 22.2733 27.6508 22.2423 27.5614C22.1946 27.3932 22.109 27.2381 21.9921 27.1081C21.9812 27.095 21.9756 27.0784 21.9762 27.0614C21.9769 27.0444 21.9838 27.0283 21.9956 27.0161C22.0074 27.0038 22.0233 26.9964 22.0402 26.9951C22.0571 26.9939 22.074 26.9989 22.0874 27.0092C22.22 27.1533 22.3173 27.3261 22.3718 27.5141C22.4012 27.5976 22.4351 27.6793 22.4733 27.7591C22.4815 27.7755 22.4829 27.7944 22.4772 27.8118C22.4714 27.8292 22.459 27.8436 22.4427 27.8519C22.4331 27.8576 22.4223 27.8609 22.4112 27.8615Z" fill="#1D2021"/>
<path fill-rule="evenodd" clip-rule="evenodd" d="M11.7336 27.0792C11.0808 27.1799 10.7133 27.7696 10.1691 28.0689C9.6563 28.3751 9.45943 27.9709 9.41393 27.8886C9.33343 27.8519 9.34043 27.9227 9.21618 27.8011C8.73755 27.0469 9.71055 26.5 10.2163 26.1255C10.9207 25.9829 11.3626 26.5936 11.7336 27.0792Z" fill="#FBF1C7"/>
<path d="M9.82163 28.25C9.77999 28.2503 9.7385 28.245 9.69826 28.2343C9.62636 28.2108 9.55989 28.1731 9.50278 28.1235C9.44567 28.0739 9.39908 28.0134 9.36576 27.9455H9.35001C9.29226 27.9455 9.24938 27.9333 9.16363 27.8466L9.15401 27.8353C8.69638 27.1125 9.47513 26.5639 9.99138 26.2008C10.0561 26.1553 10.1174 26.1133 10.1725 26.0713L10.1848 26.0625H10.1996C10.925 25.9155 11.3835 26.5158 11.751 26.9979L11.8551 27.1335L11.7405 27.151C11.3717 27.2395 11.0362 27.4321 10.7736 27.7058C10.597 27.8673 10.4044 28.0103 10.1988 28.1328C10.0858 28.2048 9.95555 28.2452 9.82163 28.25ZM9.36051 27.8073C9.38838 27.8073 9.41589 27.8136 9.44101 27.8256L9.46114 27.8353L9.47863 27.8659C9.50328 27.9202 9.5386 27.9691 9.58249 28.0095C9.62638 28.0499 9.67795 28.0811 9.73413 28.1013C9.80311 28.1141 9.87396 28.1129 9.94249 28.0979C10.011 28.0829 10.0758 28.0543 10.1331 28.0138C10.3312 27.8954 10.5168 27.7573 10.687 27.6016C10.9458 27.343 11.2626 27.1498 11.611 27.0381C11.261 26.5779 10.8568 26.0809 10.2443 26.1955C10.1868 26.2373 10.1285 26.2779 10.0693 26.3171C9.54426 26.6881 8.88626 27.1501 9.26514 27.7591C9.31939 27.8134 9.33251 27.8125 9.34388 27.8125L9.36051 27.8073Z" fill="#1D2021"/>
<path d="M9.41297 27.9569H9.40685C9.38865 27.9553 9.37181 27.9466 9.36001 27.9327C9.3482 27.9188 9.34239 27.9007 9.34385 27.8825C9.3721 27.699 9.44849 27.5263 9.56522 27.382C9.62026 27.3058 9.66857 27.225 9.7096 27.1405C9.71783 27.1251 9.73159 27.1134 9.74811 27.1077C9.76462 27.102 9.78267 27.1028 9.79863 27.1099C9.81459 27.117 9.82727 27.1299 9.83413 27.146C9.84099 27.162 9.84151 27.1801 9.8356 27.1965C9.79146 27.2884 9.73934 27.3762 9.67985 27.459C9.57685 27.5851 9.50867 27.7359 9.4821 27.8965C9.47996 27.9133 9.47174 27.9287 9.459 27.9398C9.44626 27.9509 9.42989 27.957 9.41297 27.9569Z" fill="#1D2021"/>
<path fill-rule="evenodd" clip-rule="evenodd" d="M9.02271 7.425C8.65783 7.23163 8.39008 6.97 8.61321 6.55C8.81971 6.15888 9.20383 6.2 9.56871 6.39425L9.02271 7.425ZM22.2483 7.05575C22.6132 6.86238 22.881 6.60075 22.6578 6.18075C22.4513 5.78963 22.0672 5.83075 21.7023 6.025L22.2483 7.05575Z" fill="#1D2021"/>
<path fill-rule="evenodd" clip-rule="evenodd" d="M24.7613 16.9153C24.7263 17.638 24.0044 17.3038 23.6772 17.078C23.3666 16.8636 23.2756 17.0421 23.2484 16.6186C23.2203 16.341 23.2089 16.062 23.2143 15.783C23.6964 15.7346 24.18 15.8586 24.5793 16.133C24.7779 16.2774 25.1489 16.7368 24.7613 16.9205" fill="#FBF1C7"/>
<path d="M24.386 17.4236C24.116 17.3936 23.8585 17.2938 23.6388 17.134C23.5687 17.0852 23.4917 17.0471 23.4104 17.0211C23.2555 16.9669 23.1995 16.9214 23.1803 16.6221C23.1803 16.5583 23.1715 16.4953 23.1663 16.4314C23.1452 16.2142 23.1385 15.9958 23.1461 15.7778V15.7183L23.2056 15.713C23.7041 15.6612 24.2047 15.7894 24.617 16.0744C24.7224 16.1466 24.8108 16.2409 24.8761 16.3508C24.9414 16.4607 24.9819 16.5834 24.995 16.7105C24.9892 16.7632 24.9701 16.8136 24.9395 16.8569C24.9089 16.9002 24.8677 16.9351 24.82 16.9581C24.8222 17.0432 24.8013 17.1272 24.7598 17.2014C24.7182 17.2757 24.6574 17.3373 24.5838 17.3799C24.5219 17.4089 24.4543 17.4239 24.386 17.4236ZM23.2809 15.8486C23.2782 16.0408 23.2858 16.233 23.3036 16.4244L23.3176 16.6169C23.3325 16.8523 23.3535 16.8593 23.455 16.8951C23.5485 16.925 23.6369 16.9687 23.7175 17.0246C23.9853 17.2101 24.3414 17.3545 24.5321 17.26C24.631 17.211 24.6853 17.0955 24.694 16.9153V16.8741L24.7316 16.8566C24.7653 16.8453 24.7952 16.8248 24.8179 16.7975C24.8406 16.7701 24.8553 16.737 24.8603 16.7018C24.876 16.5355 24.68 16.294 24.5383 16.1908C24.171 15.9352 23.7271 15.8135 23.2809 15.846V15.8486Z" fill="#1D2021"/>
<path fill-rule="evenodd" clip-rule="evenodd" d="M24.7614 16.9153C24.6515 16.891 24.5513 16.8346 24.4735 16.7534Z" fill="#FBF1C7"/>
<path d="M24.7614 16.9835C24.7536 16.9849 24.7456 16.9849 24.7378 16.9835L24.6932 16.9677C24.5865 16.9409 24.4906 16.882 24.4184 16.7989C24.4119 16.7917 24.4069 16.7833 24.4039 16.7742C24.4008 16.765 24.3997 16.7553 24.4006 16.7457C24.4015 16.7361 24.4044 16.7267 24.4091 16.7183C24.4139 16.7099 24.4203 16.7025 24.4281 16.6968C24.4358 16.691 24.4447 16.6869 24.4541 16.6848C24.4635 16.6826 24.4733 16.6825 24.4828 16.6844C24.4923 16.6862 24.5012 16.6901 24.5091 16.6956C24.517 16.7012 24.5237 16.7083 24.5287 16.7166C24.5852 16.7774 24.6587 16.8198 24.7395 16.8382L24.7859 16.8549C24.8005 16.8609 24.8126 16.8717 24.8202 16.8855C24.8278 16.8993 24.8304 16.9153 24.8277 16.9309C24.8249 16.9464 24.8169 16.9605 24.805 16.9709C24.7931 16.9813 24.7781 16.9873 24.7623 16.9879L24.7614 16.9835Z" fill="#1D2021"/>
<path fill-rule="evenodd" clip-rule="evenodd" d="M15.7226 3.81912C18.4928 3.81912 21.0898 4.2155 22.4435 6.87725C23.6588 9.86012 23.2266 13.0775 23.4121 16.2301C23.5713 18.9374 23.924 22.0646 22.6683 24.5741C21.3471 27.2131 18.0457 27.8772 15.3253 27.7801C13.1886 27.704 10.6082 27.0066 9.40246 25.0545C7.98759 22.7646 8.65784 19.3591 8.76021 16.8111C8.88184 13.7932 7.94296 10.7649 8.93521 7.81175C9.96421 4.74925 12.738 4.05537 15.7235 3.81912" fill="#458588"/>
<path d="M15.7988 27.8562C15.6238 27.8562 15.4663 27.8563 15.3236 27.8475C14.0111 27.8003 10.7946 27.4371 9.34477 25.0895C8.20115 23.238 8.40502 20.6786 8.5844 18.4203C8.6299 17.8524 8.6719 17.3151 8.6929 16.8076C8.71332 15.7366 8.66744 14.6653 8.55552 13.5999C8.25792 11.662 8.36518 9.68339 8.87052 7.789C9.07987 7.1139 9.42766 6.48985 9.89168 5.95667C10.3557 5.4235 10.9258 4.99291 11.5655 4.69237C12.8775 4.1187 14.2863 3.79893 15.7174 3.75H15.7226C18.4273 3.75 21.1214 4.12538 22.5048 6.84575V6.851C23.2425 9.03526 23.5527 11.3412 23.4183 13.6427C23.4226 14.4906 23.4279 15.3682 23.4778 16.2257C23.4926 16.4882 23.5101 16.7508 23.5276 17.0133C23.6886 19.4991 23.8706 22.3175 22.727 24.6021C21.3016 27.4555 17.7036 27.8562 15.7988 27.8562ZM15.7253 3.88738C12.843 4.11575 10.0378 4.75187 8.99915 7.83275C8.50059 9.70954 8.39543 11.6691 8.69027 13.5885C8.80178 14.6598 8.84679 15.7369 8.82502 16.8138C8.80402 17.3248 8.76202 17.8638 8.71652 18.4325C8.54152 20.6699 8.33677 23.2056 9.45677 25.0186C10.8725 27.3102 14.0313 27.6655 15.3236 27.711C17.0054 27.7714 21.0803 27.5824 22.6019 24.5426C23.7289 22.2913 23.5478 19.493 23.3894 17.0246L23.3395 16.2371C23.2888 15.3761 23.2844 14.4967 23.28 13.6471C23.4135 11.3642 23.1072 9.07698 22.3779 6.90963C21.0313 4.254 18.3844 3.88825 15.7253 3.88738Z" fill="#1D2021"/>
<path fill-rule="evenodd" clip-rule="evenodd" d="M16.2118 7.53789C16.7088 10.4254 21.4355 9.66501 20.7565 6.75039C20.144 4.13589 16.0464 4.85951 16.2118 7.53789Z" fill="#FBF1C7"/>
<path d="M18.457 9.42437C18.1629 9.42547 17.8708 9.37756 17.5925 9.28262C17.2136 9.1573 16.8773 8.92846 16.6217 8.62198C16.3661 8.3155 16.2013 7.94361 16.1461 7.54837V7.54137C16.1112 6.93714 16.3121 6.34294 16.7063 5.88373C17.1006 5.42453 17.6575 5.1361 18.2601 5.07912C18.8188 4.96319 19.4006 5.07178 19.8799 5.3814C20.3591 5.69102 20.6973 6.17681 20.8212 6.73374C20.9238 7.0964 20.923 7.48049 20.8189 7.84272C20.7149 8.20495 20.5117 8.53092 20.2323 8.78387C19.7374 9.20494 19.1067 9.43248 18.457 9.42437ZM16.2782 7.52999C16.3308 7.90075 16.4857 8.2495 16.7256 8.53702C16.9655 8.82454 17.2809 9.03942 17.6362 9.15749C18.0596 9.29947 18.5124 9.33058 18.9512 9.24787C19.3901 9.16515 19.8004 8.97136 20.1431 8.68499C20.4052 8.44736 20.5955 8.14109 20.6924 7.80087C20.7894 7.46065 20.7891 7.10008 20.6917 6.75999C20.5734 6.23595 20.2535 5.77959 19.8011 5.48973C19.3488 5.19986 18.8005 5.09981 18.275 5.21124C17.7071 5.26509 17.1821 5.53654 16.8099 5.96876C16.4377 6.40099 16.2472 6.96045 16.2782 7.52999Z" fill="#1D2021"/>
<path fill-rule="evenodd" clip-rule="evenodd" d="M10.5645 8.00512C11.2085 10.5225 15.2387 9.875 15.0865 7.35325C14.9045 4.32925 9.94758 4.91287 10.5636 8.00512" fill="#FBF1C7"/>
<path d="M12.7144 9.66588C12.3045 9.66981 11.9001 9.57178 11.5375 9.38063C11.2787 9.2401 11.0525 9.04635 10.874 8.81214C10.6954 8.57792 10.5685 8.30856 10.5015 8.02175C10.402 7.62987 10.4173 7.21765 10.5454 6.83417C10.6735 6.4507 10.9092 6.11213 11.2242 5.85875C11.6044 5.56886 12.0543 5.38435 12.5285 5.32382C13.0028 5.26329 13.4846 5.32889 13.9254 5.514C14.2841 5.67072 14.5903 5.92722 14.8075 6.25298C15.0247 6.57874 15.1437 6.96004 15.1504 7.3515C15.1707 7.91585 14.9745 8.46662 14.602 8.89103C14.2295 9.31544 13.7088 9.58138 13.1466 9.63438C13.0036 9.65603 12.859 9.66656 12.7144 9.66588ZM10.6275 7.99113C10.7662 8.51872 11.1047 8.97163 11.5715 9.254C12.0382 9.53637 12.5965 9.62603 13.1282 9.504C13.6583 9.4552 14.1496 9.20569 14.5018 8.80654C14.8539 8.40738 15.0403 7.88875 15.0226 7.35675C15.017 6.98863 14.9057 6.62988 14.7018 6.32331C14.4979 6.01673 14.2102 5.77528 13.8729 5.62775C13.4538 5.45159 12.9958 5.38909 12.5449 5.44654C12.094 5.504 11.6662 5.67939 11.3047 5.955C11.0086 6.19384 10.7874 6.51272 10.6673 6.87369C10.5473 7.23466 10.5334 7.62252 10.6275 7.99113Z" fill="#1D2021"/>
<path fill-rule="evenodd" clip-rule="evenodd" d="M16.7823 11.0072C16.8237 11.4053 16.8284 11.8062 16.7963 12.2051C16.7001 12.3862 16.5119 12.4055 16.3501 12.479C16.2397 12.4617 16.1356 12.4165 16.0476 12.3478C15.9596 12.279 15.8905 12.189 15.8469 12.0861C15.8228 11.6341 15.8348 11.1809 15.8828 10.7307L16.7823 11.0072Z" fill="#FBF1C7"/>
<path d="M16.3596 12.5499H16.3395C16.2172 12.5305 16.1019 12.4801 16.0047 12.4035C15.9074 12.3269 15.8314 12.2267 15.7839 12.1124V12.094C15.7547 11.7845 15.7573 11.4728 15.7917 11.1639C15.8031 11.0213 15.8145 10.8743 15.8189 10.7264V10.6389L16.8522 10.9556V11.0064C16.8522 11.1306 16.8627 11.2593 16.8732 11.3949C16.9054 11.668 16.903 11.944 16.8662 12.2165V12.227L16.861 12.2366C16.8212 12.3023 16.7686 12.3594 16.7064 12.4045C16.6442 12.4496 16.5736 12.4818 16.4987 12.4991C16.4576 12.514 16.4191 12.5271 16.3815 12.5446L16.3596 12.5499ZM15.9142 12.0678C15.9526 12.1547 16.0115 12.231 16.0859 12.2901C16.1603 12.3492 16.2479 12.3894 16.3412 12.4073C16.3771 12.3924 16.4139 12.3793 16.4489 12.3661C16.5628 12.3425 16.6634 12.2765 16.7306 12.1815C16.7619 11.9237 16.7619 11.6631 16.7306 11.4054C16.7218 11.2855 16.7131 11.1709 16.7105 11.0554L15.9449 10.8209C15.9387 10.9399 15.93 11.058 15.9212 11.1709C15.8879 11.4688 15.885 11.7693 15.9125 12.0678H15.9142Z" fill="#1D2021"/>
<path d="M11.6757 8.3315C12.0517 8.3315 12.3565 8.00165 12.3565 7.59475C12.3565 7.18786 12.0517 6.858 11.6757 6.858C11.2998 6.858 10.995 7.18786 10.995 7.59475C10.995 8.00165 11.2998 8.3315 11.6757 8.3315Z" fill="#1D2021"/>
<path d="M11.9854 7.94826C12.0739 7.94826 12.1456 7.86443 12.1456 7.76101C12.1456 7.6576 12.0739 7.57376 11.9854 7.57376C11.897 7.57376 11.8253 7.6576 11.8253 7.76101C11.8253 7.86443 11.897 7.94826 11.9854 7.94826Z" fill="#FBF1C7"/>
<path d="M17.3773 8.14776C17.7469 8.14776 18.0466 7.8179 18.0466 7.41101C18.0466 7.00411 17.7469 6.67426 17.3773 6.67426C17.0076 6.67426 16.7079 7.00411 16.7079 7.41101C16.7079 7.8179 17.0076 8.14776 17.3773 8.14776Z" fill="#1D2021"/>
<path d="M17.6818 7.76451C17.7688 7.76451 17.8393 7.68068 17.8393 7.57726C17.8393 7.47385 17.7688 7.39001 17.6818 7.39001C17.5948 7.39001 17.5243 7.47385 17.5243 7.57726C17.5243 7.68068 17.5948 7.76451 17.6818 7.76451Z" fill="#FBF1C7"/>
<path fill-rule="evenodd" clip-rule="evenodd" d="M14.8371 10.9661C14.5404 11.6854 15.0024 13.1248 15.8083 12.0634C15.7842 11.6114 15.7962 11.1581 15.8442 10.708L14.8371 10.9661Z" fill="#FBF1C7"/>
<path d="M15.2703 12.5114C15.2008 12.511 15.1325 12.4923 15.0725 12.4571C14.8795 12.2616 14.7482 12.0135 14.6952 11.7438C14.6421 11.4742 14.6696 11.1949 14.7742 10.9407L14.7873 10.9092L15.9125 10.6187V10.7062C15.9082 10.855 15.8959 11.0037 15.8845 11.1437C15.8505 11.4433 15.8476 11.7457 15.8758 12.0459V12.0739L15.8592 12.0966C15.6273 12.4125 15.4269 12.5114 15.2703 12.5114ZM14.8888 11.0239C14.8053 11.2445 14.7847 11.4841 14.8292 11.7158C14.8737 11.9475 14.9815 12.1623 15.1408 12.3364C15.349 12.4554 15.5783 12.2489 15.7367 12.0432C15.7114 11.7429 15.7152 11.4408 15.748 11.1411C15.7568 11.0282 15.7655 10.9127 15.7717 10.7981L14.8888 11.0239Z" fill="#1D2021"/>
<path fill-rule="evenodd" clip-rule="evenodd" d="M14.9386 9.58011C14.8005 9.59309 14.6675 9.63872 14.5505 9.71323C14.4335 9.78774 14.3359 9.88899 14.2657 10.0086C14.1956 10.1283 14.1548 10.2629 14.1469 10.4014C14.139 10.5399 14.1642 10.6783 14.2202 10.8051C14.6009 11.4946 15.4514 10.7439 15.9816 10.8147C16.5941 10.827 17.0911 11.4596 17.5802 10.9294C18.1245 10.3396 17.3457 9.76474 16.7367 9.50836L14.9386 9.58011Z" fill="#FBF1C7"/>
<path d="M17.1445 11.2102C16.9491 11.1949 16.7586 11.1417 16.5836 11.0536C16.395 10.9599 16.1905 10.9023 15.9807 10.8839H15.9728C15.7581 10.884 15.5459 10.9293 15.3498 11.0169C14.9202 11.1656 14.4328 11.3336 14.1598 10.8419C14.0937 10.7181 14.0601 10.5795 14.0622 10.4391C14.0644 10.2987 14.1022 10.1612 14.1721 10.0395C14.2458 9.89611 14.3537 9.77316 14.4864 9.68157C14.619 9.58997 14.7723 9.53258 14.9325 9.5145L16.7498 9.4375L16.7638 9.44362C17.2162 9.63437 17.7316 9.9835 17.82 10.3913C17.8318 10.4897 17.8235 10.5896 17.7956 10.6847C17.7677 10.7799 17.7207 10.8684 17.6575 10.9448C17.5944 11.0212 17.5163 11.084 17.4281 11.1294C17.3399 11.1747 17.2434 11.2016 17.1445 11.2085V11.2102ZM15.9868 10.75C16.213 10.7685 16.4336 10.8297 16.637 10.9303C16.9808 11.0746 17.2495 11.1884 17.5303 10.8865C17.593 10.8288 17.6401 10.7562 17.6673 10.6754C17.6945 10.5947 17.701 10.5084 17.6861 10.4245C17.61 10.0745 17.1243 9.75162 16.7236 9.581L14.9421 9.65187C14.8053 9.66909 14.6748 9.71925 14.5617 9.79805C14.4486 9.87685 14.3564 9.98192 14.2928 10.1043C14.234 10.2058 14.2019 10.3207 14.1996 10.4381C14.1973 10.5555 14.2249 10.6716 14.2797 10.7754C14.4967 11.1683 14.8922 11.0326 15.3035 10.8891C15.5185 10.7938 15.7517 10.7463 15.9868 10.75Z" fill="#1D2021"/>
<path fill-rule="evenodd" clip-rule="evenodd" d="M14.8695 9.55126C14.8283 8.59314 16.6562 8.47501 16.875 9.27564C17.0937 10.0763 14.9622 10.2626 14.8721 9.55214L14.8695 9.55126Z" fill="#1D2021"/>
</svg>
