<svg viewBox="0 0 32 32" fill="none" xmlns="http://www.w3.org/2000/svg">
<path d="M8.08732 9.70525C8.08732 9.70525 8.50732 11.3231 8.56682 11.863C8.62632 12.4029 7.48794 13.6007 7.48794 14.2001C7.48549 14.6857 7.63419 15.1601 7.91343 15.5573C8.19266 15.9546 8.58859 16.2552 9.04632 16.4174C9.54744 16.6693 9.95953 17.0684 10.2273 17.5612C10.4951 18.0541 10.6057 18.617 10.5443 19.1745C10.4689 20.0077 10.3083 20.8311 10.0648 21.6315C10.0648 21.6315 9.76557 25.6469 11.3834 26.3661C13.0013 27.0854 12.6417 27.0854 13.0013 27.0854C13.3609 27.0854 15.9999 28.1625 17.5566 27.746C18.2822 27.6228 18.9637 27.3142 19.5349 26.85C19.9642 26.8828 20.3927 26.7786 20.759 26.5524C21.1252 26.3261 21.4101 25.9894 21.5728 25.5909C22.0935 23.7816 22.2963 21.8957 22.1722 20.0171C21.9919 18.6985 21.7531 16.9607 22.8311 16.3614C23.9091 15.762 25.0492 15.0436 24.8689 14.4442C24.5895 13.8937 24.2028 13.4046 23.7314 13.0057C23.6135 12.3936 23.5931 11.7666 23.6711 11.1481C23.8504 10.7885 24.9293 9.889 24.3299 9.23012C23.8709 8.80888 23.2729 8.57125 22.6499 8.5625L21.2718 8.68237C19.7602 7.41271 17.8515 6.71299 15.8774 6.70487C14.0434 6.78248 12.2898 7.47959 10.9031 8.68237C10.2801 8.47762 9.60801 8.47762 8.98507 8.68237C8.08644 9.04637 7.90794 8.68675 8.08732 9.70525ZM13.4187 7.03037C13.0865 6.96751 12.7887 6.78548 12.5813 6.5185C12.3215 6.13713 11.9743 5.82334 11.5687 5.60326C11.1631 5.38319 10.7108 5.26318 10.2494 5.25325C9.4028 5.26281 8.56044 5.37505 7.74082 5.5875L8.8302 6.27525C8.9457 6.27525 9.14695 6.27525 9.47945 6.284C9.863 6.30042 10.2291 6.44867 10.5161 6.70373C10.803 6.95878 10.9932 7.30501 11.0544 7.684L15.8669 7.02075M18.5794 7.0295C18.9116 6.96664 19.2094 6.78461 19.4168 6.51762C19.6764 6.13599 20.0235 5.82196 20.4292 5.60171C20.8348 5.38146 21.2872 5.26139 21.7487 5.2515C22.5954 5.26135 23.4377 5.37388 24.2573 5.58662L23.1679 6.27437C23.0524 6.27437 22.8512 6.27437 22.5178 6.28312C22.1343 6.29955 21.7681 6.4478 21.4812 6.70285C21.1943 6.9579 21.0041 7.30414 20.9428 7.68312L16.1303 7.01987" fill="#FABD2F"/>
<path d="M13.564 18.625C13.564 18.625 12.3767 20.4397 11.506 21.7277C11.3713 21.9272 12.381 21.9404 12.381 21.9404L13.564 18.625ZM14.1293 14.8625C14.1293 14.8625 13.7714 15.7541 13.5754 16.2275C13.3628 16.742 12.5517 16.9975 12.5517 16.9975C12.8738 16.5454 13.0231 15.9928 12.9725 15.44C12.9725 14.971 13.578 14.7846 13.578 14.7846L14.1302 14.8616L14.1293 14.8625ZM13.7679 15.3709C13.4991 15.6398 13.1548 15.8205 12.7807 15.889C12.4067 15.9574 12.0207 15.9104 11.674 15.7541C10.3125 15.2667 10.1725 13.5211 10.1725 13.0329C10.1725 12.5446 12.7555 13.5211 13.1047 13.7329C13.4538 13.9446 14.1162 14.7829 13.7679 15.3735V15.3709ZM8.62641 6.04687C9.35184 5.91285 10.101 6.06157 10.7203 6.46249C11.1604 6.77823 11.5284 7.18384 11.8 7.65249L10.3904 8.77249C10.1625 8.64442 9.9648 8.46869 9.81093 8.25729C9.65706 8.04589 9.55059 7.80378 9.49879 7.54749C9.28966 6.64012 9.42879 6.22099 8.62379 6.04687H8.62641ZM13.4013 12.85C13.1484 12.5137 12.8259 12.2361 12.4557 12.0362C12.0855 11.8362 11.6765 11.7186 11.2567 11.6915C10.6393 11.5977 10.0083 11.7155 9.46641 12.0257C9.46641 12.0257 11.4544 12.1132 12.0275 12.8622C13.0942 14.2622 14.6525 14.3769 14.8993 14.0689C14.7199 14.0616 14.5439 14.0181 14.3818 13.9409C14.2196 13.8638 14.0748 13.7546 13.956 13.62C13.7481 13.3807 13.5624 13.123 13.4013 12.85ZM10.05 15.5625C10.05 15.5625 7.84416 14.8039 8.26329 14.0365C8.68241 13.2691 8.35079 12.85 8.35079 12.85C8.35079 12.85 7.11266 13.7731 7.42504 14.7505C7.61754 15.3499 7.94129 15.7839 9.71841 16.616C10.5707 18.1989 9.89341 21.0479 9.93454 21.0619C10.0019 21.0846 11.1307 20.5036 11.0537 17.8384C11.03 17.0202 10.9662 15.902 10.043 15.5634L10.05 15.5625ZM12.9375 7.40924C12.0127 7.87912 10.75 8.53362 10.75 8.53362L11.2488 8.78299C11.2015 8.85999 11.1779 8.90637 11.1779 8.90637L11.6898 9.13912C11.6898 9.13912 12.9393 10.0439 13.7023 10.6266C13.4268 9.92526 13.0907 9.24924 12.6978 8.60624C12.6409 8.40249 12.6329 8.18816 12.6746 7.98075C12.7162 7.77334 12.8063 7.57871 12.9375 7.41274V7.40924ZM16.0097 26.5595C13.1668 26.5595 12.2043 25.1166 12.2043 25.1166L12.6488 26.1981C13.0505 26.7269 13.5539 27.1699 14.1295 27.5011C14.705 27.8323 15.341 28.045 16 28.1266M12.514 24.1454C12.514 24.1454 12.7765 25.744 13.8265 25.744C14.7164 25.744 14.9789 24.3939 14.9789 24.1147L12.5184 24.1454H12.514ZM10.771 21.7347C11.0204 21.0096 11.1963 20.2612 11.296 19.5009C11.3738 18.5767 11.4003 17.649 11.3757 16.7219C11.3757 16.7219 11.0965 17.8042 10.8507 17.9784C10.5565 18.3982 10.321 18.8563 10.1507 19.3399C10.1507 19.3399 9.90741 21.1065 9.79191 21.7024C10.1122 21.7662 10.3817 21.5781 10.7693 21.7374L10.771 21.7347ZM8.24229 14.7347C8.24229 14.7347 8.83554 14.5247 9.01054 13.2341C9.11006 12.4254 9.03882 11.6047 8.80141 10.8252C8.83475 11.5394 8.77593 12.255 8.62641 12.9541C8.41729 13.3041 8.24229 13.4074 7.99816 13.8615C7.92259 14.0115 7.90573 14.1844 7.95088 14.3462C7.99603 14.5081 8.09995 14.6472 8.24229 14.7365V14.7347ZM18.436 18.625C18.436 18.625 19.6225 20.4397 20.494 21.7277C20.6288 21.9272 19.619 21.9404 19.619 21.9404L18.436 18.625ZM17.8708 14.8625C17.8708 14.8625 18.2287 15.7541 18.4247 16.2275C18.6373 16.742 19.4484 16.9975 19.4484 16.9975C19.1267 16.5453 18.9776 15.9927 19.0284 15.44C19.0284 14.971 18.4229 14.7846 18.4229 14.7846L17.8708 14.8625ZM18.2322 15.3709C18.5011 15.6399 18.8456 15.8206 19.2198 15.8891C19.594 15.9575 19.9801 15.9105 20.3269 15.7541C21.6884 15.2667 21.8275 13.5211 21.8275 13.032C21.8275 12.5429 19.2445 13.5202 18.8954 13.732C18.5463 13.9437 17.883 14.782 18.2322 15.3726V15.3709ZM23.3737 6.04687C22.6475 5.91365 21.8979 6.06363 21.2789 6.46599C20.8397 6.78102 20.472 7.18537 20.2 7.65249L21.6123 8.77162C21.8404 8.64368 22.0381 8.468 22.192 8.25657C22.3459 8.04514 22.4523 7.80297 22.5039 7.54662C22.713 6.63924 22.5739 6.22012 23.3789 6.04599L23.3737 6.04687ZM18.5988 12.85C18.8517 12.5137 19.1742 12.2361 19.5444 12.0362C19.9146 11.8362 20.3236 11.7186 20.7434 11.6915C21.3605 11.598 21.9911 11.7158 22.5328 12.0257C22.5328 12.0257 20.5448 12.1132 19.9717 12.8622C18.905 14.2622 17.3467 14.3769 17.1008 14.0689C17.2802 14.0616 17.4562 14.0181 17.6183 13.9409C17.7804 13.8638 17.9253 13.7546 18.044 13.62C18.252 13.3807 18.4377 13.123 18.5988 12.85ZM21.9544 15.5625C21.9544 15.5625 24.1594 14.8039 23.7412 14.0365C23.3229 13.2691 23.6537 12.85 23.6537 12.85C23.6537 12.85 24.8857 13.7696 24.5715 14.747C24.379 15.3464 24.0553 15.7804 22.2782 16.6125C21.4259 18.1954 22.1032 21.0444 22.062 21.0584C21.9947 21.0811 20.8659 20.5001 20.9429 17.8349C20.9674 17.0194 21.033 15.902 21.9544 15.5625ZM19.0625 7.41274C19.9874 7.88262 21.25 8.53712 21.25 8.53712L20.7513 8.78649C20.7985 8.86349 20.8222 8.90987 20.8222 8.90987L20.3103 9.14262C20.3103 9.14262 19.0608 10.0474 18.2978 10.6301C18.5733 9.92876 18.9094 9.25274 19.3023 8.60974C19.3597 8.40547 19.3679 8.19049 19.3263 7.98243C19.2846 7.77437 19.1942 7.57914 19.0625 7.41274ZM15.9922 26.5639C18.8342 26.5639 19.7975 25.121 19.7975 25.121L19.3539 26.2025C18.9517 26.7309 18.4476 27.1734 17.8716 27.5038C17.2956 27.8343 16.6592 28.0461 16 28.1266M19.486 24.1454C19.486 24.1454 19.2235 25.744 18.1735 25.744C17.2837 25.744 17.0212 24.3939 17.0212 24.1147L19.486 24.1454ZM21.229 21.7347C20.9801 21.0095 20.8042 20.2611 20.704 19.5009C20.6259 18.5767 20.5993 17.649 20.6244 16.7219C20.6244 16.7219 20.9035 17.8042 21.1494 17.9784C21.4441 18.3979 21.6797 18.8561 21.8494 19.3399C21.8494 19.3399 22.0927 21.1065 22.2082 21.7024C21.8879 21.7662 21.6184 21.5781 21.2308 21.7374L21.229 21.7347ZM23.7578 14.7347C23.7578 14.7347 23.1645 14.5247 22.9895 13.2341C22.89 12.4254 22.9613 11.6047 23.1987 10.8252C23.1653 11.5394 23.2241 12.255 23.3737 12.9541C23.5828 13.3041 23.7578 13.4074 24.0019 13.8615C24.0758 14.0112 24.0918 14.1829 24.0467 14.3436C24.0016 14.5043 23.8987 14.6427 23.7578 14.7321V14.7347ZM16 11.8875C15.4572 11.9337 14.9134 11.8115 14.4425 11.5375C14.4425 11.5375 15.0507 12.6032 15.9992 12.6032C16.9485 12.6032 17.5558 11.5375 17.5558 11.5375C17.0853 11.8107 16.5422 11.9328 16 11.8875Z" fill="#FABD2F"/>
<path d="M13.8842 14.4976C13.6627 14.6956 13.3978 14.8387 13.1109 14.9155C12.8239 14.9922 12.5229 15.0005 12.2322 14.9395C11.2312 14.7304 10.6266 14.2876 10.5802 13.5203C10.5205 13.1499 10.595 12.7705 10.7902 12.4501C11.3807 12.632 11.9384 12.907 12.4422 13.2648C12.9777 13.7303 13.3732 14.4749 13.8851 14.4976H13.8842ZM12.325 22.8399C12.279 22.6123 12.279 22.3779 12.325 22.1504C12.0622 22.0133 11.7815 21.9137 11.4911 21.8546C11.2697 21.7146 10.1348 21.9981 9.31146 21.0024C8.28421 19.7546 8.50121 19.01 8.50121 19.01C8.23871 19.304 7.97621 19.192 7.57721 20.5623C7.17821 21.9325 7.76709 22.888 8.87221 23.847C9.42085 24.2649 10.0802 24.5123 10.7683 24.5584C10.5557 24.3449 11.1315 24.323 11.5287 24.1751C11.5036 24.0177 11.5141 23.8567 11.5596 23.7038C11.605 23.551 11.6842 23.4104 11.7912 23.2923C11.9401 23.1492 12.1197 23.0421 12.3162 22.979L12.346 22.9073C12.338 22.8851 12.331 22.8626 12.325 22.8399ZM18.1157 14.4976C18.3372 14.6956 18.6021 14.8387 18.889 14.9155C19.176 14.9922 19.477 15.0005 19.7677 14.9395C20.7687 14.7304 21.3733 14.2876 21.4197 13.5203C21.4796 13.15 21.4055 12.7706 21.2106 12.4501C20.6201 12.632 20.0624 12.907 19.5586 13.2648C19.024 13.725 18.625 14.4749 18.1157 14.4976ZM19.675 22.8399C19.7209 22.6123 19.7209 22.3779 19.675 22.1504C19.9377 22.0133 20.2184 21.9137 20.5088 21.8546C20.7302 21.7146 21.866 21.9981 22.6893 21.0024C23.721 19.7546 23.5031 19.01 23.5031 19.01C23.7656 19.304 24.0281 19.192 24.4271 20.5623C24.8261 21.9325 24.2372 22.888 23.1321 23.847C22.5836 24.2653 21.9242 24.5127 21.236 24.5584C21.4486 24.3449 20.8728 24.323 20.4756 24.1751C20.5007 24.0177 20.4902 23.8567 20.4447 23.7038C20.3993 23.551 20.3201 23.4104 20.2131 23.2923C20.0642 23.1492 19.8846 23.0421 19.6881 22.979L19.6583 22.9073C19.6652 22.8854 19.6708 22.8632 19.675 22.8408V22.8399Z" fill="#FBF1C7"/>
<path d="M13.0959 14.2649C12.7144 14.4183 12.2916 14.4353 11.8989 14.313C11.659 14.2269 11.4485 14.0742 11.2923 13.8727C11.1361 13.6712 11.0406 13.4294 11.0169 13.1755C11.0169 13.1755 10.5094 14.663 11.9322 14.9509C12.2475 15.0251 12.5758 15.0247 12.891 14.9499C13.2062 14.875 13.4995 14.7276 13.7478 14.5195L13.0959 14.2631V14.2649ZM11.5209 24.1664C11.4982 24.099 11.4807 24.0308 11.4632 23.9616C11.4457 23.8925 11.3538 23.6729 11.4632 23.9161C11.4354 23.8548 11.4146 23.7905 11.4011 23.7245C9.6108 23.7245 8.05243 22.4925 8.35343 19.9086C8.11893 19.5971 7.7908 20.536 7.7908 20.536C7.7908 20.536 6.90005 23.1383 9.2118 24.1471C9.70384 24.4332 10.2569 24.5978 10.8253 24.6275C10.9675 24.6455 11.112 24.6254 11.2439 24.5693C11.3758 24.5132 11.4904 24.4231 11.5761 24.3081C11.5551 24.2614 11.5361 24.2138 11.5192 24.1655L11.5209 24.1664ZM18.905 14.2649C19.2866 14.4183 19.7094 14.4353 20.102 14.313C20.342 14.2269 20.5525 14.0742 20.7087 13.8727C20.8649 13.6712 20.9604 13.4294 20.984 13.1755C20.984 13.1755 21.4907 14.663 20.0688 14.9509C19.7535 15.0251 19.4252 15.0247 19.11 14.9499C18.7948 14.875 18.5014 14.7276 18.2532 14.5195L18.905 14.2631V14.2649ZM20.4801 24.1664C20.5037 24.099 20.5203 24.0308 20.5378 23.9616C20.5553 23.8925 20.6481 23.6729 20.5378 23.9161C20.5656 23.8548 20.5864 23.7905 20.5999 23.7245C22.3902 23.7245 23.9485 22.4925 23.6467 19.9086C23.8812 19.5971 24.2093 20.536 24.2093 20.536C24.2093 20.536 25.1053 23.1391 22.7909 24.1471C22.2989 24.4332 21.7458 24.5978 21.1774 24.6275C21.0352 24.6457 20.8907 24.6257 20.7588 24.5696C20.6268 24.5135 20.5122 24.4232 20.4267 24.3081C20.448 24.2616 20.467 24.214 20.4836 24.1655L20.4801 24.1664Z" fill="#FBF1C7"/>
<path d="M9.74372 12.8098C9.74864 12.7008 9.77947 12.5946 9.83364 12.4999C9.88781 12.4053 9.96377 12.3249 10.0552 12.2655C9.85047 12.1894 9.65009 12.1019 9.43747 12.0441C10.1757 11.9149 10.9351 11.9879 11.6352 12.2555C12.3352 12.5231 12.9497 12.9753 13.4135 13.564C13.6042 13.82 13.878 14.0017 14.188 14.0782C14.4979 14.1546 14.8248 14.121 15.1127 13.9831C15.0982 14.1266 15.054 14.2655 14.9827 14.3908C14.9114 14.5162 14.8147 14.6253 14.6988 14.7111C14.5227 14.8354 14.3115 14.9001 14.096 14.8958C14.0591 15.4799 13.8267 16.0347 13.4362 16.4708C13.5814 16.0855 13.6254 15.6695 13.564 15.2624C13.5175 15.128 13.4637 14.9963 13.403 14.8678C12.4807 15.6728 11.121 14.9308 10.7937 14.5685C10.433 14.0931 10.2235 13.5203 10.1926 12.9244C10.0777 13.1723 10.0091 13.4392 9.99047 13.7119C9.81489 13.4448 9.7285 13.129 9.74372 12.8098ZM11.1026 12.7459C11.0049 13.0288 10.9841 13.3327 11.0423 13.6264C11.1006 13.92 11.2358 14.1929 11.4342 14.4171C11.6957 14.6053 12.0069 14.7121 12.3288 14.7241C12.6507 14.7361 12.969 14.6527 13.2437 14.4845C12.6415 13.7787 11.9149 13.1894 11.1 12.7459H11.1026ZM14.4635 23.7788H13.0556C12.9747 23.7704 12.893 23.7783 12.8152 23.8019C12.7373 23.8254 12.665 23.8643 12.6023 23.9161C12.5575 23.9671 12.5294 24.0306 12.5219 24.0981C12.5144 24.1655 12.5278 24.2337 12.5603 24.2933C12.7124 24.6274 12.9365 24.9239 13.2166 25.1613C13.375 25.2918 13.574 25.363 13.7792 25.3625C13.8767 25.365 13.9737 25.3473 14.064 25.3106C14.1544 25.2738 14.2361 25.2188 14.3042 25.149C14.5607 24.8764 14.7714 24.5641 14.9281 24.2241C14.9538 24.1729 14.9635 24.1152 14.956 24.0584C14.9485 24.0016 14.9242 23.9484 14.8861 23.9056C14.7672 23.8097 14.6155 23.7642 14.4635 23.7788ZM16.8881 13.9823C17.176 14.1196 17.5026 14.1529 17.8122 14.0765C18.1219 14 18.3955 13.8186 18.5865 13.5631C19.0503 12.9746 19.6649 12.5226 20.3649 12.2551C21.0649 11.9877 21.8243 11.9148 22.5625 12.0441C22.3498 12.1019 22.1495 12.1894 21.9447 12.2655C22.0361 12.325 22.1119 12.4054 22.1659 12.5C22.2199 12.5947 22.2506 12.7009 22.2553 12.8098C22.2722 13.131 22.1861 13.4492 22.0095 13.718C21.991 13.4453 21.9225 13.1784 21.8073 12.9305C21.777 13.526 21.5675 14.0985 21.2062 14.5729C20.879 14.9351 19.5183 15.6771 18.597 14.8721C18.5366 15.0007 18.4831 15.1324 18.4368 15.2668C18.3755 15.6736 18.4194 16.0893 18.5646 16.4743C18.1738 16.0384 17.9413 15.4835 17.9048 14.8993C17.689 14.9041 17.4773 14.8393 17.3011 14.7146C17.1855 14.6287 17.0891 14.5197 17.018 14.3945C16.9469 14.2694 16.9027 14.1307 16.8881 13.9875V13.9823ZM18.7562 14.4836C19.031 14.6521 19.3495 14.7355 19.6716 14.7235C19.9937 14.7115 20.3051 14.6046 20.5666 14.4163C20.7651 14.1921 20.9005 13.9192 20.9588 13.6255C21.017 13.3319 20.9961 13.0279 20.8982 12.745C20.0837 13.1887 19.3576 13.7775 18.7562 14.4836ZM19.3976 23.9135C19.3351 23.8618 19.2629 23.823 19.1852 23.7994C19.1075 23.7758 19.026 23.7679 18.9452 23.7761H17.5365C17.3841 23.7612 17.232 23.8068 17.113 23.903C17.075 23.9458 17.0506 23.999 17.0429 24.0557C17.0353 24.1124 17.0448 24.1702 17.0701 24.2215C17.227 24.5613 17.4377 24.8736 17.694 25.1464C17.762 25.2162 17.8438 25.2712 17.9342 25.308C18.0245 25.3447 18.1215 25.3624 18.219 25.3599C18.4242 25.3604 18.6232 25.2892 18.7816 25.1586C19.0617 24.9212 19.2858 24.6248 19.4378 24.2906C19.4704 24.2313 19.484 24.1635 19.4768 24.0962C19.4696 24.0289 19.442 23.9646 19.3976 23.9135ZM16 12.7319C16.6125 12.7249 17.3072 11.8796 17.3072 11.8796C16.9204 12.1381 16.4656 12.2761 16.0004 12.2761C15.5352 12.2761 15.0804 12.1381 14.6936 11.8796C14.6936 11.8796 15.3875 12.7258 16 12.7319ZM23.525 18.9321C23.9769 19.3578 24.3068 19.8965 24.4805 20.4925C24.6542 21.0885 24.6653 21.7201 24.5128 22.3219C24.4206 22.9282 24.1584 23.4959 23.7567 23.9592C23.355 24.4226 22.8302 24.7626 22.2431 24.9399C21.9643 25.5794 21.5227 26.1346 20.9623 26.5501C20.4019 26.9656 19.7423 27.2268 19.0493 27.3076C18.1787 27.977 17.0965 28.3115 16 28.25C14.9022 28.3118 13.8187 27.9771 12.9471 27.3068C12.2546 27.2255 11.5955 26.9642 11.0356 26.5487C10.4756 26.1332 10.0344 25.5782 9.75597 24.939C9.16876 24.7624 8.64377 24.4227 8.24211 23.9594C7.84044 23.4961 7.57861 22.9282 7.48709 22.3219C7.33459 21.7201 7.34577 21.0885 7.51946 20.4925C7.69316 19.8965 8.02305 19.3578 8.47497 18.9321C8.60022 19.7416 9.01535 20.478 9.64309 21.0041C9.76073 20.0205 9.82295 19.0311 9.82947 18.0405C9.83096 17.8023 9.77945 17.5668 9.67866 17.351C9.57786 17.1352 9.43032 16.9445 9.24672 16.7928C9.12422 16.7228 8.98947 16.6501 8.85122 16.5749C7.99022 16.1138 6.91747 15.5406 6.91747 14.4828C6.91429 14.2158 6.98083 13.9526 7.1105 13.7192C7.24016 13.4858 7.42848 13.2902 7.65684 13.1519L7.76009 13.0723C7.84248 13.0177 7.91277 12.9468 7.96659 12.864C8.13798 12.2793 8.1653 11.6617 8.04622 11.0641C7.83071 10.8061 7.66975 10.507 7.57305 10.1851C7.47635 9.86307 7.44592 9.52483 7.48359 9.19075C7.53166 9.01479 7.61681 8.85115 7.73331 8.7108C7.84982 8.57045 7.99499 8.45664 8.15909 8.377C8.45088 8.24441 8.767 8.1738 9.08747 8.16963C9.0822 8.07096 9.09771 7.9723 9.13297 7.88C9.16714 7.75436 9.1819 7.62423 9.17672 7.49413C9.17767 7.30974 9.1426 7.12694 9.07347 6.956C8.72171 6.52439 8.23244 6.22663 7.68747 6.1125L7.10122 5.99875L7.48972 5.54375C8.09616 4.99849 8.88446 4.69952 9.69997 4.7055C10.0915 4.70712 10.4804 4.77031 10.8523 4.89275C11.7994 5.29516 12.617 5.95132 13.2148 6.78888C13.3076 6.75913 13.4021 6.73813 13.4957 6.71188C13.4779 6.23517 13.5951 5.76313 13.8338 5.35011C14.0725 4.93709 14.423 4.5999 14.845 4.37738C14.8651 4.5935 14.8248 5.43788 15.1871 5.69688C15.293 5.00738 15.65 4.24788 17.0587 3.75C16.8537 4.33272 16.8852 4.97254 17.1462 5.53238C18.1087 4.65738 18.7571 4.8035 18.7571 4.8035C18.4182 5.36232 18.2744 6.01789 18.3485 6.66725C18.4946 6.70488 18.6425 6.74163 18.786 6.78713C19.3839 5.95026 20.2015 5.29496 21.1485 4.89363C21.5201 4.77099 21.9087 4.7075 22.3 4.7055C23.117 4.69772 23.9074 4.99614 24.5155 5.542L24.904 5.997L24.3125 6.1125C23.7658 6.22586 23.2748 6.52404 22.9221 6.95688C22.853 7.12782 22.8179 7.31061 22.8188 7.495C22.8137 7.6251 22.8285 7.75523 22.8626 7.88088C22.8978 7.97226 22.9134 8.07007 22.9081 8.16788C23.2301 8.17169 23.5478 8.24262 23.8408 8.37613C24.0049 8.45576 24.1501 8.56958 24.2666 8.70993C24.3831 8.85028 24.4683 9.01392 24.5163 9.18988C24.554 9.52395 24.5236 9.8622 24.4269 10.1842C24.3302 10.5062 24.1692 10.8052 23.9537 11.0633C23.8346 11.6608 23.8619 12.2784 24.0333 12.8631C24.0875 12.946 24.1581 13.0169 24.2407 13.0714L24.344 13.151C24.5721 13.2895 24.7602 13.4851 24.8897 13.7185C25.0192 13.9519 25.0856 14.215 25.0825 14.4819C25.0825 15.5398 24.0097 16.1129 23.1487 16.574C23.007 16.6501 22.8722 16.7219 22.7506 16.7928C22.567 16.9445 22.4194 17.1352 22.3187 17.351C22.2179 17.5668 22.1663 17.8023 22.1678 18.0405C22.1736 19.0311 22.2356 20.0205 22.3533 21.0041C22.9824 20.4785 23.3988 19.7421 23.525 18.9321ZM19.6338 7.1065C19.7091 7.13975 19.7878 7.16338 19.8631 7.194C19.983 7.24783 20.0999 7.3083 20.2131 7.37513C20.4151 6.9237 20.7572 6.54937 21.1887 6.30763C21.7238 5.94972 22.3782 5.81676 23.0105 5.9375C23.1526 5.83119 23.3053 5.73999 23.4663 5.66538C23.0921 5.50888 22.6907 5.42742 22.2851 5.42563C21.9982 5.42489 21.713 5.46918 21.4398 5.55688C20.7028 5.89135 20.0764 6.42887 19.6338 7.1065ZM21.8878 8.25275C22.0601 8.0158 22.1439 7.72606 22.125 7.43375C22.125 7.13697 22.1968 6.8446 22.3341 6.5815C22.3726 6.52463 22.4295 6.48525 22.4723 6.43188C22.1237 6.43217 21.785 6.54854 21.5098 6.76262C21.2047 7.0629 20.9849 7.43885 20.8728 7.852C21.0525 8.01465 21.2158 8.19461 21.3602 8.38925C21.5361 8.34113 21.7093 8.28513 21.8878 8.25275ZM10.6388 8.3875C10.7828 8.19276 10.9461 8.01305 11.1262 7.85113C11.014 7.43764 10.7935 7.06158 10.4875 6.76175C10.2121 6.54802 9.87356 6.4317 9.52497 6.431C9.56872 6.48438 9.62559 6.52463 9.66409 6.5815C9.8016 6.8446 9.87392 7.13688 9.87497 7.43375C9.85619 7.7263 9.94073 8.01616 10.1138 8.25275C10.2923 8.28513 10.4647 8.34113 10.6388 8.3875ZM12.1395 7.19838C12.213 7.16338 12.2908 7.13975 12.3652 7.11088C11.9236 6.43076 11.297 5.89075 10.5592 5.55425C10.2861 5.46656 10.0008 5.42227 9.71397 5.423C9.30832 5.4248 8.90697 5.50626 8.53272 5.66275C8.69332 5.73726 8.84579 5.82816 8.98772 5.934C9.62064 5.81378 10.2754 5.9477 10.8103 6.30675C11.2427 6.55085 11.5844 6.92845 11.7842 7.383C11.8992 7.31576 12.0178 7.255 12.1395 7.201V7.19838ZM10.5076 17.8279C10.5206 19.0379 10.4648 20.2476 10.3405 21.4513C10.9432 21.6569 11.5744 21.767 12.2112 21.7776C12.3198 21.5733 12.4179 21.3636 12.5052 21.1494L12.5 21.145C12.5315 21.0575 13.4371 18.7055 13.7626 18.17C13.5346 19.628 13.1579 21.0588 12.6382 22.44C12.8259 22.4092 13.0169 22.4033 13.2061 22.4225H18.8C18.9866 22.4041 19.1747 22.4093 19.36 22.4383C18.841 21.0575 18.4646 19.6273 18.2365 18.17C18.562 18.7055 19.4667 21.0575 19.4991 21.145V21.1494C19.5864 21.3636 19.6845 21.5733 19.7931 21.7776C20.4299 21.767 21.0611 21.6569 21.6638 21.4513C21.5391 20.2476 21.4833 19.0379 21.4967 17.8279C21.5038 17.5014 21.5907 17.1816 21.7498 16.8964C21.9089 16.6112 22.1353 16.3692 22.4093 16.1916C22.5397 16.1173 22.6718 16.0438 22.8118 15.9703C23.5223 15.5861 24.2582 15.1889 24.2582 14.5099C24.2742 14.3391 24.243 14.1672 24.168 14.0129C24.093 13.8586 23.9771 13.7278 23.833 13.6349L23.8093 13.6156C23.7788 13.5907 23.7496 13.5641 23.7218 13.536C23.7568 13.7714 23.7901 14.0076 23.8347 14.2421C23.4053 13.6114 23.1461 12.8805 23.0822 12.1203C23.0262 11.4243 23.1092 10.7241 23.3263 10.0605C23.3263 10.3099 23.343 10.5575 23.3622 10.806C23.378 10.7535 23.385 10.6984 23.4042 10.6468C23.708 10.294 23.8679 9.83979 23.8522 9.3745C23.8286 9.29183 23.7871 9.21539 23.7305 9.15065C23.6739 9.08591 23.6037 9.03447 23.525 9C23.2985 8.8979 23.0513 8.85025 22.8031 8.86088C22.2672 8.88102 21.737 8.97706 21.2281 9.14613C20.1215 9.58889 19.0889 10.1976 18.1656 10.9513L18.1455 10.967L17.883 11.1516L18.0492 10.8734C18.6775 9.91332 19.5636 9.14972 20.606 8.67013C20.3277 8.33333 19.9655 8.07588 19.556 7.92375C18.4434 7.40527 17.2272 7.1476 16 7.17038C14.7719 7.1479 13.555 7.40649 12.4422 7.92637C12.0337 8.07964 11.672 8.3362 11.3922 8.671C12.4347 9.15036 13.3209 9.914 13.949 10.8743L14.1152 11.1525L13.8527 10.9679L13.8326 10.9521C12.9093 10.1985 11.8766 9.58977 10.7701 9.147C10.2612 8.97793 9.73094 8.88189 9.19509 8.86175C8.94756 8.85112 8.70097 8.89847 8.47497 9C8.3974 9.03505 8.32846 9.08666 8.27298 9.15121C8.2175 9.21576 8.17684 9.29168 8.15384 9.37363C8.13809 9.83877 8.29767 10.2929 8.60097 10.6459C8.62022 10.6984 8.62722 10.7535 8.64297 10.806C8.66222 10.5575 8.68234 10.309 8.67884 10.0596C8.89597 10.7232 8.97896 11.4234 8.92297 12.1194C8.85904 12.8797 8.59983 13.6106 8.17047 14.2413C8.21509 14.0068 8.24834 13.7705 8.28422 13.5343C8.25359 13.5605 8.22822 13.5911 8.19672 13.6148L8.17309 13.634C8.02891 13.727 7.91301 13.8577 7.83803 14.012C7.76304 14.1663 7.73185 14.3382 7.74784 14.509C7.74784 15.188 8.48372 15.5853 9.19422 15.9694C9.33422 16.0429 9.46634 16.1164 9.59672 16.1908C9.87055 16.3687 10.0967 16.6108 10.2555 16.8962C10.4142 17.1815 10.5008 17.5014 10.5076 17.8279ZM9.56522 24.0973H10.1777C10.2066 24.202 10.2411 24.3051 10.281 24.4061C10.6009 24.4993 10.933 24.5441 11.2662 24.5391C11.1649 24.3126 11.1231 24.064 11.1448 23.8169C11.1666 23.5697 11.2511 23.3322 11.3905 23.1269H11.3712C11.5396 22.9131 11.6948 22.6893 11.8358 22.4566C10.5338 22.3963 8.81534 21.9255 8.29997 20.2875C8.12914 20.7445 8.05643 21.2323 8.08658 21.7193C8.11673 22.2062 8.24906 22.6813 8.47497 23.1138C8.76113 23.5182 9.1335 23.8541 9.56522 24.0973ZM12.1307 26.3845C11.9071 26.0406 11.7149 25.6771 11.5567 25.2986C11.2585 25.2746 10.9618 25.2352 10.6677 25.1805C11.0296 25.7141 11.5375 26.1321 12.1307 26.3845ZM16 27.5876C16.9283 27.6083 17.836 27.3127 18.5741 26.7494C19.3122 26.186 19.8368 25.3884 20.0617 24.4875C20.1528 24.3163 20.197 24.1241 20.1898 23.9303C20.1826 23.7365 20.1242 23.5481 20.0206 23.3841C19.8597 23.246 19.6715 23.1434 19.4682 23.0831C19.265 23.0228 19.0513 23.0061 18.8411 23.0341H13.1536C12.9436 23.0064 12.7301 23.0232 12.527 23.0835C12.3239 23.1438 12.1358 23.2463 11.975 23.3841C11.8714 23.5481 11.813 23.7365 11.8058 23.9303C11.7986 24.1241 11.8427 24.3163 11.9338 24.4875C12.1588 25.3892 12.684 26.1875 13.423 26.7509C14.162 27.3144 15.0709 27.6095 16 27.5876ZM21.3375 25.1805C21.0428 25.2356 20.7455 25.275 20.4467 25.2986C20.2875 25.6782 20.0942 26.0425 19.8692 26.3871C20.4646 26.1347 20.9744 25.7157 21.3375 25.1805ZM23.7 20.2875C23.182 21.9238 21.4661 22.3971 20.1676 22.4593C20.2883 22.6474 20.4108 22.8346 20.5491 23.0105C20.5788 23.0481 20.5998 23.091 20.6305 23.1278H20.62C20.7578 23.3338 20.8409 23.5716 20.8614 23.8187C20.8819 24.0658 20.8392 24.314 20.7372 24.54C21.0704 24.5449 21.4025 24.5001 21.7225 24.407C21.7583 24.3055 21.7986 24.2058 21.8248 24.0999H22.4312C22.8644 23.856 23.238 23.5189 23.525 23.1129C23.7507 22.6806 23.883 22.2056 23.9132 21.7188C23.9433 21.232 23.8707 20.7444 23.7 20.2875Z" fill="#1D2021"/>
</svg>
