<svg viewBox="0 0 32 32" fill="none" xmlns="http://www.w3.org/2000/svg">
<path d="M15.9493 23.0831C14.9134 23.0876 13.8804 22.9722 12.871 22.7392C12.571 22.6716 12.2767 22.5806 11.9908 22.4671L12.7021 23.6825L12.9804 27.48C12.9804 27.9061 14.3331 28.2509 16.0009 28.2509C17.6686 28.2509 19.0214 27.9061 19.0214 27.48L19.2419 23.6414L19.9148 22.4636C19.6265 22.5789 19.3295 22.6711 19.0266 22.7392C18.0175 22.9721 16.9849 23.0875 15.9493 23.0831ZM19.9375 10.7264C18.6314 10.8888 17.3161 10.9651 16 10.9547C14.6839 10.9651 13.3686 10.8888 12.0625 10.7264C11.6477 10.676 11.2379 10.5906 10.8375 10.4709C10.7333 10.4385 10.6322 10.3966 10.5356 10.3457L11.1875 16.35C11.2178 16.2467 11.2517 16.1435 11.289 16.0402C11.3646 15.8292 11.4523 15.6226 11.5515 15.4216C11.6496 15.2247 11.7595 15.0339 11.8805 14.8502C11.9947 14.6765 12.121 14.511 12.2585 14.355C12.3831 14.2126 12.5208 14.0822 12.6698 13.9656C12.8004 13.863 12.9436 13.7774 13.0959 13.711C13.2305 13.6532 13.3755 13.6235 13.522 13.6235C13.6881 13.6245 13.8507 13.6705 13.9928 13.7565C14.1653 13.8659 14.3107 14.0131 14.418 14.187C14.4467 14.2272 14.4664 14.2732 14.4758 14.3217C14.4836 14.3642 14.4877 14.4072 14.488 14.4504C14.4925 14.531 14.4683 14.6107 14.4198 14.6752C14.401 14.7005 14.3766 14.7211 14.3485 14.7354C14.3204 14.7496 14.2894 14.7572 14.2579 14.7575C14.2264 14.7559 14.1958 14.7473 14.1682 14.7321C14.1406 14.7169 14.1168 14.6957 14.0986 14.67C14.0362 14.589 13.9811 14.5027 13.9341 14.4119C13.8895 14.3249 13.8251 14.2497 13.746 14.1922C13.6802 14.1476 13.6024 14.1238 13.5229 14.124C13.3765 14.1318 13.2365 14.186 13.123 14.2789C12.9659 14.397 12.8245 14.5346 12.7021 14.6884C12.5537 14.8718 12.42 15.0667 12.3023 15.2711C12.1759 15.4876 12.0631 15.7118 11.9645 15.9422C11.8698 16.1618 11.7918 16.3882 11.7309 16.6195C11.6766 16.8148 11.6472 17.0162 11.6434 17.2189C11.6436 17.2797 11.6477 17.3405 11.6556 17.4009C11.6626 17.4593 11.6779 17.5165 11.7011 17.5706C11.7205 17.6184 11.7504 17.6612 11.7886 17.6957C11.8294 17.7293 11.8811 17.7467 11.9339 17.7447C12.0131 17.7411 12.0903 17.7182 12.1588 17.6782C12.2515 17.6282 12.3394 17.5696 12.4213 17.5032C12.5161 17.427 12.6067 17.3455 12.6925 17.2591C12.7835 17.1687 12.8681 17.0768 12.9463 16.9835C13.0244 16.8902 13.0938 16.8009 13.1545 16.7157C13.2061 16.6453 13.2517 16.5706 13.291 16.4926L13.5395 15.7489C13.5602 15.6796 13.6017 15.6185 13.6585 15.5739C13.7025 15.5416 13.7554 15.5239 13.8099 15.5231C13.8352 15.5231 13.8603 15.5273 13.8843 15.5354C13.9102 15.5439 13.9339 15.5582 13.9535 15.5771C13.9732 15.5961 13.9884 15.6192 13.998 15.6447C14.0103 15.6765 14.0162 15.7104 14.0155 15.7445C14.0159 15.8402 14.0068 15.9358 13.9884 16.0297C13.9709 16.1185 13.9481 16.2062 13.9201 16.2922C13.8927 16.3768 13.8621 16.4617 13.8283 16.5469C13.7944 16.632 13.7615 16.7213 13.7294 16.8146C13.7136 16.8467 13.7008 16.88 13.6909 16.9144L13.6226 17.1252C13.5958 17.2075 13.5666 17.302 13.5351 17.4087L13.4389 17.7281C13.4056 17.8366 13.3741 17.9431 13.3444 18.0475C13.3146 18.1519 13.2875 18.2464 13.263 18.331L13.2026 18.5427C13.1869 18.5996 13.1764 18.6302 13.1729 18.6442C13.162 18.6828 13.1477 18.7203 13.13 18.7562C13.1106 18.7974 13.0875 18.8366 13.0609 18.8735C13.0361 18.9067 13.0066 18.9362 12.9734 18.961C12.9454 18.9839 12.9106 18.9968 12.8745 18.9977C12.8507 18.9997 12.8267 18.9956 12.8049 18.9856C12.7832 18.9756 12.7643 18.9602 12.7503 18.9409C12.7187 18.8759 12.7054 18.8036 12.7118 18.7317V18.6871C12.7109 18.6714 12.7109 18.6556 12.7118 18.6399C12.7231 18.5752 12.7401 18.5117 12.7625 18.45C12.7876 18.3572 12.8168 18.2522 12.85 18.135C12.8833 18.0177 12.9206 17.8964 12.962 17.771L13.0705 17.4341C12.976 17.5397 12.8736 17.6447 12.7634 17.7491C12.6566 17.8505 12.5432 17.9446 12.4239 18.0309C12.3144 18.1104 12.1971 18.1787 12.0739 18.2347C11.9676 18.2848 11.8519 18.3116 11.7344 18.3135C11.6215 18.3165 11.51 18.2881 11.4124 18.2312C11.3958 18.2216 11.3809 18.2102 11.366 18.1989L11.7291 22.0069C11.8236 22.244 13.6034 22.8259 15.951 22.8259C18.2986 22.8259 20.0801 22.2431 20.1729 22.006L20.6979 17.4787L20.5728 17.5942C20.4378 17.7209 20.2964 17.8406 20.1493 17.953C20.0294 18.0457 19.899 18.1238 19.7608 18.1857C19.6326 18.2409 19.4943 18.2689 19.3548 18.268C19.2431 18.2754 19.1323 18.2445 19.0406 18.1805C19.0043 18.1516 18.9752 18.1145 18.9559 18.0722C18.9366 18.0299 18.9276 17.9837 18.9295 17.9372V17.9136C18.9287 17.9046 18.9287 17.8955 18.9295 17.8865C18.9419 17.8086 18.9702 17.7342 19.0126 17.6677C19.0656 17.5788 19.1241 17.4931 19.1876 17.4114C19.2553 17.3227 19.3273 17.2329 19.4038 17.1419C19.4802 17.0509 19.5511 16.9648 19.6164 16.8837C19.6744 16.8124 19.7285 16.7379 19.7783 16.6606C19.8139 16.6125 19.8359 16.5557 19.8421 16.4961C19.8426 16.4846 19.8404 16.4732 19.8357 16.4627C19.831 16.4523 19.8239 16.443 19.815 16.4357C19.7891 16.419 19.7583 16.4113 19.7275 16.4139C19.6508 16.4151 19.5753 16.434 19.507 16.469C19.4262 16.5091 19.3507 16.5591 19.2821 16.6177C19.2049 16.6834 19.1326 16.7548 19.066 16.8312C18.9959 16.9113 18.9299 16.9948 18.8683 17.0815C18.807 17.1678 18.751 17.2553 18.7003 17.344C18.6495 17.4327 18.6063 17.5134 18.5708 17.5864L18.5253 17.6844C18.5054 17.7264 18.4841 17.7739 18.4614 17.827C18.4386 17.8801 18.4141 17.9343 18.3879 17.9897L18.317 18.1481L18.2593 18.2811L18.2234 18.3616C18.2164 18.3762 18.2018 18.4121 18.1796 18.4692L18.1088 18.6547L18.0213 18.8779L17.9381 19.0992L17.8699 19.283C17.8506 19.3355 17.8375 19.3705 17.8323 19.3906C17.815 19.4437 17.794 19.4955 17.7693 19.5455C17.7468 19.5915 17.7189 19.6347 17.6861 19.6741C17.6562 19.7096 17.62 19.7392 17.5794 19.7616C17.5381 19.7841 17.4917 19.7956 17.4446 19.7949C17.388 19.7973 17.3322 19.7813 17.2854 19.7494C17.2619 19.7272 17.244 19.6998 17.2331 19.6694C17.2221 19.639 17.2185 19.6064 17.2224 19.5744C17.2225 19.5307 17.2278 19.4873 17.2381 19.4449C17.2489 19.4004 17.2624 19.3565 17.2784 19.3136C17.2941 19.2699 17.3108 19.2261 17.3283 19.1867C17.3458 19.1474 17.3606 19.1062 17.3746 19.0677C17.4709 18.8566 17.5689 18.6451 17.6686 18.4334C17.7684 18.2216 17.8641 18.0116 17.9556 17.8034L18.0108 17.6747L17.9941 17.6914C17.884 17.7974 17.7671 17.8962 17.6441 17.9871C17.5378 18.0673 17.4231 18.1356 17.302 18.191C17.1987 18.2394 17.0862 18.2654 16.9721 18.2671C16.9093 18.2691 16.8469 18.2571 16.7893 18.2321C16.7429 18.2109 16.7026 18.1784 16.672 18.1376C16.6413 18.095 16.6199 18.0464 16.609 17.995C16.609 17.9766 16.602 17.9565 16.5994 17.9372C16.5683 17.9614 16.5368 17.9851 16.5049 18.0081C16.4025 18.0814 16.2932 18.1444 16.1785 18.1962C16.0882 18.2397 15.9899 18.2638 15.8898 18.2671C15.8508 18.2682 15.8121 18.261 15.7762 18.2459C15.7402 18.2308 15.708 18.2082 15.6815 18.1796C15.6199 18.0956 15.5915 17.9919 15.6019 17.8882C15.604 17.7742 15.6184 17.6606 15.6448 17.5496C15.5939 17.638 15.5354 17.7218 15.4698 17.7999C15.3991 17.8853 15.3193 17.9628 15.2318 18.0309C15.1407 18.1014 15.0399 18.1582 14.9325 18.1997C14.8175 18.2437 14.6952 18.2657 14.572 18.2645C14.5147 18.2648 14.4576 18.2574 14.4023 18.2426C14.3495 18.2285 14.3007 18.2025 14.2596 18.1665C14.2159 18.1267 14.1821 18.0772 14.1608 18.0221C14.1336 17.9497 14.1208 17.8728 14.1231 17.7955C14.1231 17.7955 14.1231 17.7614 14.1336 17.6992C14.1492 17.5997 14.172 17.5014 14.2019 17.4052C14.2404 17.2711 14.2987 17.0961 14.3769 16.8802C14.4551 16.6644 14.5682 16.406 14.7164 16.105C14.7437 16.0365 14.7884 15.9762 14.8459 15.93C14.892 15.896 14.9478 15.8776 15.0051 15.8775C15.0315 15.8778 15.0577 15.8816 15.083 15.8889C15.1099 15.8963 15.1353 15.9081 15.1583 15.9239C15.1812 15.9396 15.2003 15.9602 15.2143 15.9842C15.2293 16.0109 15.2366 16.0412 15.2353 16.0717C15.2355 16.0921 15.2328 16.1125 15.2274 16.1321C15.2132 16.181 15.1938 16.2282 15.1696 16.273C15.1405 16.3313 15.1061 16.3978 15.0664 16.4725C15.0267 16.5472 14.9853 16.6279 14.9421 16.7149C14.8984 16.8012 14.8578 16.8907 14.8205 16.9835C14.7832 17.0761 14.751 17.1708 14.7243 17.267C14.6983 17.3582 14.683 17.4522 14.6788 17.547C14.6785 17.5835 14.6879 17.6194 14.7059 17.6511C14.7146 17.6664 14.7274 17.679 14.7428 17.6873C14.7583 17.6957 14.7758 17.6995 14.7934 17.6984C14.9133 17.697 15.0296 17.6572 15.125 17.5846C15.2348 17.504 15.3328 17.4086 15.4164 17.3011C15.5065 17.1865 15.5873 17.0647 15.6579 16.9371C15.7302 16.8076 15.7903 16.6889 15.8381 16.581C15.8725 16.5061 15.9018 16.4289 15.9256 16.35C15.9508 16.2727 15.98 16.1967 16.0131 16.1225C16.0391 16.0594 16.0742 16.0004 16.1173 15.9475C16.1348 15.9254 16.1571 15.9075 16.1826 15.8954C16.2081 15.8833 16.236 15.8771 16.2643 15.8775C16.2936 15.8764 16.3228 15.8824 16.3493 15.8951C16.3758 15.9077 16.3989 15.9266 16.4165 15.9501C16.4546 16.0004 16.4743 16.0621 16.4725 16.1251C16.4692 16.1789 16.457 16.2318 16.4366 16.2817C16.4127 16.3482 16.3836 16.4241 16.3491 16.5092C16.3147 16.5944 16.2751 16.6857 16.2301 16.7831C16.1876 16.8805 16.1479 16.9791 16.1111 17.0789C16.0769 17.1753 16.0477 17.2734 16.0236 17.3729C16.0007 17.4603 15.9887 17.5502 15.9878 17.6406C15.9858 17.6563 15.9875 17.6723 15.9928 17.6872C15.9981 17.7021 16.0067 17.7156 16.0181 17.7267C16.0294 17.7377 16.0432 17.7459 16.0583 17.7507C16.0734 17.7555 16.0894 17.7568 16.105 17.7544C16.1768 17.75 16.2468 17.7307 16.3106 17.6975C16.4022 17.6536 16.4888 17.5999 16.5688 17.5374L16.6361 17.484C16.6588 17.3867 16.688 17.2911 16.7236 17.1979C16.7861 17.0334 16.8493 16.8697 16.9135 16.707L17.0885 16.2607L17.8979 14.2194C17.9208 14.1485 17.9663 14.087 18.0274 14.0444C18.0763 14.0122 18.1334 13.9946 18.1919 13.9936C18.2467 13.9935 18.2999 14.0124 18.3424 14.047C18.3667 14.0688 18.3855 14.096 18.3974 14.1264C18.4092 14.1568 18.4138 14.1895 18.4106 14.222C18.41 14.263 18.4023 14.3035 18.3879 14.3419C18.371 14.3883 18.3517 14.4339 18.3301 14.4784C18.2858 14.5775 18.2327 14.6989 18.1709 14.8424C18.1091 14.9859 18.0431 15.1419 17.9731 15.3105C17.9026 15.4791 17.8305 15.6541 17.757 15.8355L17.5409 16.3684L17.3431 16.8601L17.1839 17.2635C17.1618 17.3191 17.1425 17.3757 17.1261 17.4332C17.1085 17.4899 17.0991 17.5489 17.0981 17.6082C17.0968 17.6345 17.1023 17.6607 17.1139 17.6844C17.1204 17.6944 17.1295 17.7025 17.1404 17.7076C17.1512 17.7127 17.1632 17.7146 17.1751 17.7132C17.224 17.7101 17.2717 17.6966 17.3151 17.6739C17.3783 17.6436 17.4391 17.6088 17.4971 17.5697C17.5625 17.5266 17.6301 17.477 17.7001 17.421C17.7701 17.365 17.8401 17.3067 17.9101 17.246C17.9796 17.1877 18.0461 17.1276 18.1096 17.0657C18.1732 17.0039 18.2298 16.9485 18.2794 16.8995C18.2911 16.8877 18.3051 16.8785 18.3205 16.8724C18.3503 16.7849 18.3783 16.6974 18.4019 16.6099L18.4605 16.448C18.4862 16.378 18.5154 16.3094 18.548 16.2424C18.5772 16.18 18.6136 16.1213 18.6565 16.0674C18.6718 16.047 18.6914 16.0304 18.714 16.0188C18.7366 16.0071 18.7615 16.0007 18.7869 16C18.8147 15.9975 18.8427 16.0005 18.8693 16.0089C18.8958 16.0173 18.9205 16.0309 18.9418 16.049C18.9589 16.0687 18.972 16.0916 18.9803 16.1164C18.9885 16.1411 18.9918 16.1673 18.9899 16.1934C18.9893 16.2136 18.9875 16.2337 18.9846 16.2537C18.9846 16.2809 18.9768 16.3106 18.9715 16.3412L18.954 16.4287C18.9498 16.4493 18.9439 16.4695 18.9365 16.4891C19.0024 16.4174 19.0736 16.3462 19.15 16.2756C19.2248 16.2063 19.3043 16.1423 19.388 16.084C19.4666 16.029 19.5508 15.9823 19.6391 15.9449C19.7202 15.9101 19.8073 15.892 19.8955 15.8915C19.9548 15.8916 20.0137 15.9001 20.0705 15.9169C20.126 15.9326 20.1784 15.9577 20.2254 15.9912C20.2709 16.0239 20.3088 16.066 20.3365 16.1146C20.3663 16.168 20.3811 16.2285 20.3794 16.2896C20.3773 16.3857 20.3549 16.4802 20.3138 16.567C20.2674 16.67 20.2123 16.769 20.1493 16.8627C20.0833 16.9619 20.0122 17.0584 19.9358 17.1524C19.8593 17.2463 19.7876 17.3317 19.7205 17.4087L19.5516 17.6047C19.5202 17.6355 19.496 17.6728 19.4808 17.7141C19.4804 17.7372 19.4892 17.7596 19.5053 17.7762C19.528 17.7942 19.5569 17.8027 19.5858 17.7999C19.6338 17.7937 19.6796 17.7763 19.7196 17.7491C19.8057 17.6963 19.8881 17.6379 19.9664 17.5741C20.0726 17.4907 20.207 17.379 20.3698 17.239C20.4818 17.1427 20.6121 17.0281 20.76 16.8977L21.467 10.3527C21.3705 10.4037 21.2694 10.4455 21.1651 10.4779C20.7637 10.5954 20.353 10.6785 19.9375 10.7264ZM16 9.17499C12.9445 9.17499 10.4683 9.51624 10.4683 9.93799C10.4683 10.3597 12.9375 10.6992 16 10.6992C19.0625 10.6992 21.5318 10.358 21.5318 9.93624C21.5318 9.51449 19.052 9.17499 16 9.17499ZM18.2085 10.1611C18.2085 10.26 17.9145 10.3361 17.5514 10.3361C17.1883 10.3361 16.8943 10.2556 16.8943 10.1611C16.8943 10.0666 17.1883 9.98611 17.5514 9.98611C17.9145 9.98611 18.2059 10.0605 18.2059 10.1594L18.2085 10.1611Z" fill="#FB4934"/>
<path d="M17.0237 10.0797C17.0205 10.0844 17.0187 10.0899 17.0185 10.0955C17.0185 10.1594 17.2556 10.211 17.5435 10.211C17.8314 10.211 18.0685 10.1594 18.0685 10.0955L18.7597 7.2955L21.509 4.39312C21.5667 4.3275 21.4495 4.12362 21.2535 3.94862C21.0575 3.77362 20.8457 3.715 20.7801 3.7815L17.8567 6.86412L17.0237 10.0797Z" fill="#FB4934"/>
</svg>
