<svg viewBox="0 0 32 32" fill="none" xmlns="http://www.w3.org/2000/svg">
<path d="M25.1 19.5C25.0781 20.3216 23.4908 20.8921 24.1375 21.7085C25.5637 21.9089 24.9153 22.8539 25.6967 23.1759C24.3151 25.4246 22.0865 25.7055 19.9663 24.2976C19.4125 23.9321 18.737 23.7992 18.086 23.9275C17.7622 24.4464 18.2443 24.5068 18.5523 24.582C20.0398 24.8786 21.5457 27.1825 26.5892 24.988C27.2621 24.7054 27.1597 23.8733 26.8683 23.2188C27.4275 22.9807 27.4616 22.3595 27.5438 21.5606C28.0933 19.7625 26.2917 19.9156 25.1 19.5ZM17.1698 15.5914C16.4181 15.7639 15.7013 16.0637 15.0506 16.4777C15.895 16.9739 16.2301 17.5654 17.1698 17.3807C18.1096 17.1961 18.0921 16.5932 17.722 15.888C17.6705 15.7887 17.5902 15.7073 17.4917 15.6544C17.3932 15.6015 17.281 15.5795 17.1698 15.5914ZM21.1397 3.75C19.9917 3.8025 19.0047 6.87725 17.834 9.05687C14.4687 10.4569 13.6261 8.64125 12.5271 8.93962C10.6555 5.1255 7.87646 1.3 7.12571 5.85C7.29108 9.28525 5.91996 9.56875 6.04158 14.4714C6.04158 14.4714 3.59158 19.3941 4.59346 23.7507C4.84806 24.9029 5.44711 25.9503 6.31105 26.7539C7.175 27.5575 8.26296 28.0793 9.43046 28.25C9.60546 26.9944 11.5733 24.1629 11.0343 23.5022C9.68858 21.8538 10.1112 17.8147 13.5193 17.3982C13.9857 14.0006 16.2966 14.6402 16.0568 13.6576C15.3157 10.5794 18.5121 12.0161 19.0485 13.025C20.011 14.6245 20.6908 16.1969 21.4783 16.9415C22.1975 17.5801 23.024 18.0864 23.9196 18.4369C23.6335 18.2619 21.1835 16.1855 20.466 14.5204C20.1743 13.46 20.0436 12.3619 20.0783 11.2627C21.3217 11.0676 21.8231 13.1597 23.1732 15.0576C23.1988 15.1103 23.212 15.168 23.212 15.2265C23.212 15.285 23.1988 15.3427 23.1732 15.3954C22.9877 15.2974 22.923 15.0506 22.699 15.0209C22.4951 15.0209 22.3306 15.3096 22.3306 15.6657C22.3306 16.0219 22.5992 16.1496 22.9693 16.3159C23.3009 16.9763 23.8568 17.4971 24.5373 17.785L22.8748 12.9209C22.8136 9.87412 23.1373 6.82825 21.3707 3.7815C21.2962 3.75753 21.218 3.74687 21.1397 3.75ZM21.1555 4.72125C21.2473 4.72125 21.3305 4.78162 21.4083 4.92337C22.3297 6.655 22.3638 10.7202 22.3568 12.1579C21.9193 11.1621 21.264 9.48737 19.1972 8.97725C19.1972 8.97725 20.4047 4.73437 21.1555 4.72125ZM8.77508 5.108C9.19508 5.108 9.67283 5.353 10.2258 6.36275C11.1122 7.978 11.7475 9.0525 12.0563 9.6125C12.6881 10.75 11.7798 9.8505 11.4955 12.7721C11.486 13.0071 11.4167 13.2357 11.2942 13.4365C11.1717 13.6372 11.0001 13.8034 10.7955 13.9192C9.74485 12.6423 9.046 11.1131 8.76808 9.483C7.88608 10.7955 9.33946 12.8194 9.36483 14.5527C8.71963 14.739 8.03608 14.7475 7.38646 14.5772C6.93146 14.3497 6.78183 11.576 7.62533 9.42262C8.32533 7.62887 7.99371 5.34862 8.30608 5.24887C8.52133 5.18062 8.52308 5.10975 8.77508 5.108Z" fill="#FBF1C7"/>
</svg>
