<svg viewBox="0 0 32 32" fill="none" xmlns="http://www.w3.org/2000/svg">
<path d="M28.25 7.11963V24.8804H3.75V7.11963H28.25Z" fill="#8EC07C"/>
<path d="M23.203 9.47338C22.7517 9.37815 22.2813 9.4481 21.8773 9.67049C21.4732 9.89287 21.1625 10.2529 21.0015 10.6851C20.8406 11.1173 20.8401 11.5929 21.0003 12.0254C21.1605 12.4579 21.4706 12.8185 21.8742 13.0416C22.2778 13.2647 22.7481 13.3355 23.1995 13.2411C23.651 13.1467 24.0535 12.8934 24.3339 12.5272C24.6143 12.1611 24.7539 11.7064 24.7273 11.246C24.7007 10.7856 24.5097 10.35 24.1891 10.0185C23.9217 9.74302 23.5785 9.55327 23.203 9.47338ZM17.8471 19.5875C16.2581 17.3778 14.6685 15.1685 13.0783 12.9594L6.00659 22.7953H15.5441C16.3118 21.7266 17.08 20.6582 17.8488 19.5901M21.2998 16C19.6706 18.2645 18.0419 20.5293 16.4138 22.7944H26.1867C24.5586 20.5293 22.9297 18.2645 21.2998 16Z" fill="#FBF1C7"/>
</svg>
