<svg viewBox="0 0 32 32" fill="none" xmlns="http://www.w3.org/2000/svg">
<path d="M12.7844 22.6972C12.7844 22.6972 11.8482 23.2415 13.4503 23.4261C15.141 23.664 16.8608 23.591 18.5253 23.2109C18.9553 23.4681 19.4064 23.6882 19.8737 23.8689C15.0778 25.9242 9.01929 23.7499 12.7862 22.6972M12.199 20.0145C12.199 20.0145 11.149 20.7915 12.7529 20.9577C14.9372 21.2175 17.1495 21.1114 19.2988 20.6436C19.5894 20.9146 19.9324 21.123 20.3068 21.2561C14.5082 22.9519 8.04892 21.39 12.199 20.0127M17.1375 15.4645C17.2929 15.652 17.4085 15.8693 17.4773 16.1029C17.546 16.3366 17.5665 16.5818 17.5374 16.8236C17.5084 17.0654 17.4304 17.2988 17.3082 17.5095C17.1861 17.7202 17.0223 17.9039 16.8269 18.0492C16.8269 18.0492 19.8273 16.5005 18.4492 14.5606C17.162 12.752 16.1742 11.8525 21.5187 8.75412C21.5187 8.75412 13.1309 10.8489 17.1375 15.4645Z" fill="#FB4934"/>
<path d="M23.483 24.6809C23.483 24.6809 24.176 25.2514 22.72 25.6932C19.9515 26.5315 11.198 26.7852 8.76555 25.7265C7.89055 25.3459 9.5303 24.8183 10.0465 24.708C10.3231 24.6404 10.6072 24.6087 10.8918 24.6135C9.91967 23.9284 4.60842 25.9584 8.19417 26.5385C17.9732 28.124 26.0197 25.8254 23.483 24.6809ZM13.235 17.2355C13.235 17.2355 8.78217 18.2934 11.66 18.6775C13.6213 18.8297 15.5921 18.8087 17.5497 18.6145C18.7868 18.5021 20.0189 18.34 21.243 18.1289C20.8541 18.298 20.4795 18.4984 20.123 18.7283C15.601 19.9174 6.86592 19.3644 9.38067 18.1481C10.5753 17.542 11.8972 17.2294 13.2368 17.2364M21.2229 21.7006C25.8193 19.3119 23.6939 17.0167 22.2108 17.3256C22.0324 17.3587 21.8568 17.4058 21.6858 17.4665C21.7832 17.3282 21.9201 17.2227 22.0787 17.1637C25.0134 16.1321 27.27 20.207 21.131 21.8205C21.1694 21.7865 21.2009 21.7456 21.2238 21.6997M18.45 3.75C18.45 3.75 20.9954 6.29625 16.0359 10.2127C12.0582 13.354 15.1285 15.1451 16.0359 17.1909C13.7145 15.0961 12.0109 13.2534 13.1537 11.5357C14.831 9.01662 19.479 7.79513 18.45 3.75Z" fill="#FB4934"/>
<path d="M13.6865 28.173C18.0983 28.4556 24.8743 28.0164 25.0344 25.9286C25.0344 25.9286 24.7255 26.7161 21.3883 27.3487C17.6979 27.983 13.9317 28.042 10.2233 27.5237C10.2233 27.5237 10.7876 27.9901 13.6874 28.1765" fill="#FB4934"/>
</svg>
