<svg viewBox="0 0 32 32" fill="none" xmlns="http://www.w3.org/2000/svg">
<path fill-rule="evenodd" clip-rule="evenodd" d="M5.71429 4H26.2857C27.2325 4 28 4.76751 28 5.71429V26.2857C28 27.2325 27.2325 28 26.2857 28H5.71429C4.76751 28 4 27.2325 4 26.2857V5.71429C4 4.76751 4.76751 4 5.71429 4ZM13.9492 14.377V23.2313C13.9492 23.2313 14.3881 24.2944 12.7823 24.2944C11.7117 24.2944 11.1379 23.8736 11.0609 23.0319L9.41845 24.0604C9.94132 25.5176 11.1036 26.2686 12.9054 26.3131C14.7071 26.3576 15.802 25.3304 16.1901 23.2313V14.377H13.9492ZM24.3872 17.6594L26.0089 16.2479C25.1581 14.9398 23.8674 14.2857 22.1366 14.2857C19.5405 14.2857 18.6815 16.3135 18.6815 17.5537C18.6815 18.7939 19.2965 20.1045 21.1021 21.0938C22.9076 22.0831 23.7276 22.1908 23.7071 23.0209C23.7036 23.7868 23.5596 24.3229 22.1366 24.3782C21.188 24.415 20.2598 23.8588 19.3523 22.7095L17.377 24.0718C18.8697 25.5477 20.4562 26.2857 22.1366 26.2857C24.6572 26.2857 26.2857 24.8897 26.2857 22.8649C26.2857 21.515 24.9753 20.2952 22.3544 19.2055C21.2361 18.7397 20.677 18.0837 20.677 17.2374C20.9318 16.4309 21.3207 16.0277 21.8438 16.0277C22.8324 15.9057 23.6802 16.4496 24.3872 17.6594Z" fill="#FABD2F"/>
<path d="M13.9492 14.377V23.2313C13.9492 23.2313 14.3881 24.2944 12.7823 24.2944C11.7117 24.2944 11.1379 23.8736 11.0609 23.0319L9.41845 24.0604C9.94132 25.5176 11.1036 26.2686 12.9054 26.3131C14.7071 26.3576 15.802 25.3304 16.1901 23.2313V14.377H13.9492Z" fill="#FABD2F"/>
<path d="M13.9492 14.377V23.2313C13.9492 23.2313 14.3881 24.2944 12.7823 24.2944C11.7117 24.2944 11.1379 23.8736 11.0609 23.0319L9.41845 24.0604C9.94132 25.5176 11.1036 26.2686 12.9054 26.3131C14.7071 26.3576 15.802 25.3304 16.1901 23.2313V14.377H13.9492Z" fill="#1D2021"/>
<path d="M24.3872 17.6594L26.0089 16.2479C25.1581 14.9398 23.8674 14.2857 22.1366 14.2857C19.5405 14.2857 18.6815 16.3135 18.6815 17.5537C18.6815 18.7939 19.2965 20.1045 21.1021 21.0938C22.9076 22.0831 23.7276 22.1908 23.7071 23.0209C23.7036 23.7868 23.5596 24.3229 22.1366 24.3782C21.188 24.415 20.2598 23.8588 19.3523 22.7095L17.377 24.0718C18.8697 25.5477 20.4562 26.2857 22.1366 26.2857C24.6572 26.2857 26.2857 24.8897 26.2857 22.8649C26.2857 21.515 24.9753 20.2952 22.3544 19.2055C21.2361 18.7397 20.677 18.0837 20.677 17.2374C20.9318 16.4309 21.3207 16.0277 21.8438 16.0277C22.8324 15.9057 23.6802 16.4496 24.3872 17.6594Z" fill="#FABD2F"/>
<path d="M24.3872 17.6594L26.0089 16.2479C25.1581 14.9398 23.8674 14.2857 22.1366 14.2857C19.5405 14.2857 18.6815 16.3135 18.6815 17.5537C18.6815 18.7939 19.2965 20.1045 21.1021 21.0938C22.9076 22.0831 23.7276 22.1908 23.7071 23.0209C23.7036 23.7868 23.5596 24.3229 22.1366 24.3782C21.188 24.415 20.2598 23.8588 19.3523 22.7095L17.377 24.0718C18.8697 25.5477 20.4562 26.2857 22.1366 26.2857C24.6572 26.2857 26.2857 24.8897 26.2857 22.8649C26.2857 21.515 24.9753 20.2952 22.3544 19.2055C21.2361 18.7397 20.677 18.0837 20.677 17.2374C20.9318 16.4309 21.3207 16.0277 21.8438 16.0277C22.8324 15.9057 23.6802 16.4496 24.3872 17.6594Z" fill="#1D2021"/>
</svg>
