<svg viewBox="0 0 32 32" fill="none" xmlns="http://www.w3.org/2000/svg">
<path d="M25.7029 15.8127C25.7029 15.208 25.4626 14.628 25.035 14.2004C24.6074 13.7727 24.0274 13.5325 23.4226 13.5325C23.3425 13.5324 23.2625 13.5365 23.1829 13.5447L26.3154 4.30649H13.004L16.1321 13.5369C16.0866 13.5369 16.0402 13.5325 15.9939 13.5325C15.4493 13.5319 14.9226 13.7261 14.5088 14.0801C14.0951 14.4341 13.8217 14.9245 13.7381 15.4626C13.6544 16.0006 13.7661 16.5509 14.0529 17.0137C14.3397 17.4766 14.7827 17.8216 15.3017 17.9862C14.8167 18.8214 14.2127 19.5816 13.5089 20.2429C12.5926 21.1187 11.5041 21.7943 10.3125 22.2265C9.64487 21.9101 9.12273 21.3514 8.85214 20.664C8.58154 19.9765 8.58279 19.2118 8.85562 18.5252C8.92299 18.3677 8.99124 18.2085 9.05599 18.0492C9.56441 17.9295 10.0163 17.6389 10.3363 17.226C10.6562 16.8131 10.8247 16.303 10.8137 15.7807C10.8027 15.2585 10.6128 14.7559 10.2757 14.3569C9.93867 13.9579 9.47489 13.6866 8.96187 13.5884C8.44886 13.4902 7.91768 13.5711 7.45711 13.8174C6.99654 14.0638 6.63446 14.4608 6.4314 14.942C6.22833 15.4233 6.19657 15.9596 6.34142 16.4615C6.48628 16.9633 6.79896 17.4002 7.22724 17.6992C6.49938 19.019 5.94389 20.4267 5.57437 21.8879C5.26462 23.756 5.57437 25.7379 7.18874 26.8587C10.9512 29.4671 15.0366 25.2417 19.3434 24.1804C20.9044 23.7954 22.6176 23.8575 23.9922 23.0612C24.4889 22.7784 24.9171 22.3897 25.2467 21.9227C25.5762 21.4557 25.7988 20.9219 25.8989 20.3592C25.9903 19.823 25.9731 19.2739 25.8482 18.7445C25.7233 18.2151 25.4932 17.7162 25.1717 17.2775C25.5148 16.8675 25.7025 16.3499 25.702 15.8154L25.7029 15.8127ZM18.275 15.825V15.8171C18.2756 15.4247 18.1748 15.0388 17.9822 14.6969C17.7896 14.355 17.5119 14.0687 17.176 13.8659L19.6645 8.82499L22.1582 13.9122C21.8454 14.1201 21.5889 14.4023 21.4116 14.7334C21.2344 15.0646 21.1419 15.4345 21.1424 15.8101V15.86L18.275 15.825Z" fill="#D65D0E"/>
<path d="M26.2603 15.8127C26.2594 15.1516 26.0279 14.5114 25.6058 14.0026C25.1837 13.4937 24.5973 13.148 23.9476 13.025L27.0924 3.75H12.2279L15.3779 13.0434C14.828 13.1663 14.3271 13.4503 13.9393 13.859C13.5514 14.2678 13.2942 14.7828 13.2003 15.3385C13.1064 15.8941 13.1802 16.4651 13.4122 16.9786C13.6442 17.4921 14.0239 17.9248 14.5029 18.2216C14.1072 18.8095 13.647 19.3513 13.1309 19.8369C12.332 20.6012 11.3932 21.2043 10.3659 21.6131C9.8838 21.3333 9.51835 20.8894 9.3362 20.3626C9.15405 19.8358 9.16734 19.261 9.37365 18.7431L9.40865 18.6617L9.4734 18.5086C10.0566 18.3064 10.558 17.9197 10.9017 17.4071C11.2454 16.8944 11.4127 16.2837 11.3782 15.6674C11.3438 15.0511 11.1095 14.4629 10.7107 13.9917C10.312 13.5206 9.77063 13.1921 9.16855 13.0562C8.56647 12.9203 7.9365 12.9843 7.37404 13.2385C6.81157 13.4926 6.34725 13.9232 6.05139 14.4649C5.75552 15.0066 5.64423 15.6299 5.73436 16.2405C5.8245 16.8511 6.11114 17.4158 6.5509 17.8489C6.4564 18.051 6.35665 18.2557 6.25428 18.4666C5.68695 19.5097 5.2743 20.6298 5.02928 21.7916C4.6224 24.2416 5.27865 26.2042 6.8764 27.3111C7.73411 27.9245 8.76283 28.2529 9.81728 28.25C11.6828 28.25 13.5701 27.3129 15.4173 26.3959C16.7078 25.694 18.0694 25.1314 19.479 24.7176C19.9839 24.5934 20.5036 24.5181 21.054 24.4385C22.1753 24.3489 23.2687 24.0435 24.274 23.539C24.841 23.2151 25.3298 22.7706 25.7059 22.2368C26.0819 21.7031 26.336 21.0931 26.4501 20.4502C26.6361 19.358 26.4214 18.2354 25.8455 17.2889C26.1179 16.8444 26.2618 16.3332 26.2611 15.8119L26.2603 15.8127ZM25.1464 15.8127C25.1464 16.1537 25.0453 16.4869 24.8559 16.7704C24.6665 17.0539 24.3973 17.2748 24.0823 17.4053C23.7673 17.5358 23.4207 17.5699 23.0864 17.5034C22.752 17.4369 22.4448 17.2727 22.2038 17.0316C21.9627 16.7906 21.7985 16.4834 21.732 16.149C21.6655 15.8147 21.6996 15.4681 21.8301 15.1531C21.9606 14.8381 22.1815 14.5689 22.465 14.3795C22.7485 14.1901 23.0817 14.089 23.4226 14.089C23.8797 14.0895 24.3178 14.2712 24.641 14.5944C24.9642 14.9176 25.1459 15.3557 25.1464 15.8127ZM25.5375 4.86387L22.7603 13.0539C22.6413 13.0826 22.5244 13.1192 22.4103 13.1632L19.6671 7.56325L16.9153 13.13C16.7955 13.0885 16.673 13.0552 16.5487 13.0302L13.781 4.86387H25.5375ZM15.9939 14.089C16.3348 14.089 16.6681 14.1901 16.9516 14.3795C17.235 14.5689 17.456 14.8381 17.5864 15.1531C17.7169 15.4681 17.751 15.8147 17.6845 16.149C17.618 16.4834 17.4538 16.7906 17.2128 17.0316C16.9717 17.2727 16.6646 17.4369 16.3302 17.5034C15.9958 17.5699 15.6492 17.5358 15.3342 17.4053C15.0193 17.2748 14.7501 17.0539 14.5607 16.7704C14.3712 16.4869 14.2702 16.1537 14.2702 15.8127C14.2706 15.3557 14.4524 14.9176 14.7755 14.5944C15.0987 14.2712 15.5369 14.0895 15.9939 14.089ZM8.53715 14.1056C8.87822 14.1058 9.21158 14.2072 9.49503 14.3969C9.77848 14.5866 9.99928 14.8561 10.1295 15.1713C10.2597 15.4866 10.2934 15.8334 10.2265 16.1678C10.1595 16.5022 9.99483 16.8093 9.75329 17.0501C9.51174 17.2909 9.20419 17.4547 8.86955 17.5206C8.53491 17.5865 8.18823 17.5517 7.87339 17.4206C7.55854 17.2894 7.28968 17.0678 7.10084 16.7838C6.912 16.4997 6.81166 16.1661 6.81253 15.825C6.81299 15.368 6.99475 14.9298 7.31791 14.6066C7.64108 14.2835 8.07925 14.1017 8.53628 14.1012L8.53715 14.1056ZM25.352 20.2604C25.2655 20.7427 25.0741 21.2001 24.7911 21.6002C24.5082 22.0003 24.1408 22.3333 23.7149 22.5756C22.8312 23.0047 21.8744 23.2627 20.8948 23.336C20.3418 23.4156 19.7704 23.4979 19.2113 23.6361C17.7228 24.0671 16.2853 24.6577 14.9238 25.3975C12.1553 26.7721 9.76128 27.9595 7.51078 26.3976C5.85965 25.2531 5.93578 23.1356 6.12828 21.9754C6.35481 20.9195 6.73263 19.9019 7.25003 18.954L7.48628 18.4649C7.72131 18.5588 7.96796 18.6206 8.21953 18.6486C7.99682 19.4352 8.05905 20.2752 8.39523 21.0204C8.73141 21.7656 9.31994 22.3681 10.057 22.7217L10.2714 22.832L10.498 22.7515C11.7621 22.2952 12.917 21.58 13.8886 20.6515C14.5305 20.0477 15.0943 19.3661 15.5669 18.6224C16.1716 18.7144 16.7899 18.6083 17.3294 18.3201C17.869 18.032 18.3009 17.577 18.5607 17.0233C18.8205 16.4695 18.8943 15.8466 18.7711 15.2474C18.6478 14.6483 18.3342 14.105 17.8769 13.6987L19.6602 10.0929L21.4618 13.7679C20.9492 14.2619 20.6412 14.9307 20.599 15.6413C20.5569 16.352 20.7837 17.0525 21.2343 17.6037C21.6849 18.1548 22.3264 18.5162 23.0312 18.6161C23.7361 18.716 24.4528 18.5471 25.0388 18.1429C25.3637 18.7987 25.4725 19.5406 25.3494 20.2621L25.352 20.2604Z" fill="#FBF1C7"/>
</svg>
