<svg viewBox="0 0 32 32" fill="none" xmlns="http://www.w3.org/2000/svg">
<path d="M5.51227 15.104C6.00733 15.1118 6.49051 14.9521 6.88339 14.6508C7.2467 14.3465 7.4952 13.9273 7.58777 13.4625C7.73327 12.6119 7.79598 11.7492 7.77502 10.8865C7.78202 9.67025 7.80389 8.86905 7.84064 8.48288C7.87957 7.97419 8.00319 7.47558 8.20639 7.00763C8.36123 6.66739 8.58638 6.36382 8.86702 6.11688C9.16294 5.8777 9.50664 5.70465 9.87502 5.60938C10.3197 5.52129 10.773 5.48459 11.226 5.5H11.8385V7.215H11.4999C10.963 7.14669 10.4209 7.29394 9.99227 7.6245C9.67501 8.17892 9.54462 8.82074 9.62039 9.455C9.64966 10.6618 9.60963 11.8692 9.50052 13.0714C9.42107 13.7166 9.19086 14.3341 8.82852 14.8739C8.42749 15.3618 7.91653 15.7477 7.33752 16C8.08373 16.2861 8.70231 16.8307 9.08052 17.5348C9.5106 18.6076 9.69536 19.7631 9.62127 20.9166C9.62127 22.337 9.63585 23.1829 9.66502 23.4541C9.6762 23.8419 9.83376 24.2111 10.106 24.4875C10.5277 24.7301 11.0152 24.8333 11.499 24.7824H11.8376V26.5H11.2251C10.702 26.5241 10.1784 26.4651 9.67377 26.325C9.21973 26.1662 8.81868 25.8845 8.51527 25.5113C8.19273 25.0976 7.98696 24.6051 7.91939 24.085C7.80808 23.146 7.75984 22.2007 7.77502 21.2553C7.79856 20.3455 7.73587 19.4355 7.58777 18.5375C7.49372 18.0726 7.24554 17.653 6.88339 17.3466C6.49189 17.0421 6.00818 16.8804 5.51227 16.8881V15.104ZM26.4878 16.8846C25.9919 16.8769 25.5081 17.0386 25.1166 17.3431C24.7545 17.6495 24.5063 18.0691 24.4123 18.534C24.2646 19.4329 24.2025 20.3438 24.2268 21.2544C24.2408 22.1999 24.1914 23.1452 24.0789 24.0841C24.0113 24.6043 23.8056 25.0968 23.483 25.5104C23.1796 25.8836 22.7786 26.1653 22.3245 26.3241C21.8199 26.4642 21.2963 26.5233 20.7731 26.4991H20.1606V24.785H20.4993C20.9831 24.8359 21.4706 24.7327 21.8923 24.4901C22.1662 24.2129 22.3245 23.8419 22.335 23.4524C22.3642 23.1829 22.3788 22.337 22.3788 20.9149C22.3047 19.7614 22.4894 18.6059 22.9195 17.533C23.2981 16.8297 23.9166 16.2856 24.6625 16C24.0849 15.7475 23.5752 15.3619 23.175 14.8748C22.8127 14.335 22.5825 13.7175 22.503 13.0723C22.3939 11.8701 22.3539 10.6626 22.3831 9.45588C22.4589 8.82161 22.3285 8.1798 22.0113 7.62538C21.5827 7.29481 21.0406 7.14756 20.5036 7.21588H20.165V5.5H20.7775C21.2294 5.48486 21.6815 5.52156 22.125 5.60938C22.4925 5.70526 22.8353 5.87859 23.1304 6.11775C23.411 6.36469 23.6362 6.66827 23.791 7.0085C23.9942 7.47646 24.1178 7.97507 24.1568 8.48375C24.1929 8.86992 24.2148 9.67113 24.2224 10.8874C24.2007 11.7509 24.2628 12.6145 24.4079 13.466C24.501 13.9298 24.7495 14.348 25.1123 14.6516C25.5052 14.9529 25.9883 15.1127 26.4834 15.1049L26.4878 16.8846Z" fill="#FABD2F"/>
</svg>
