<svg viewBox="0 0 32 32" fill="none" xmlns="http://www.w3.org/2000/svg">
<path d="M8.3989 18.3222C8.34409 18.4073 8.26379 18.4728 8.16949 18.5094C8.07519 18.546 7.97173 18.5519 7.8739 18.5261C7.75132 18.4737 7.61761 18.4526 7.48486 18.4649C7.3521 18.4771 7.22448 18.5222 7.11353 18.5961C6.84578 18.7869 6.55615 18.6425 6.6069 18.2942C6.61757 18.1221 6.66948 17.955 6.75826 17.8072C6.84705 17.6593 6.9701 17.535 7.11703 17.4446C7.8459 17.0255 7.33928 16.7341 7.73915 16.3132C8.13903 15.8924 8.05153 15.7629 8.03753 15.1906C7.4509 15.1452 6.88112 14.973 6.36749 14.686C5.85387 14.399 5.40864 14.0039 5.06253 13.5281C4.26979 12.6104 3.8185 11.4469 3.78503 10.2346C3.62606 9.09423 3.82446 7.93261 4.3529 6.90962C4.8218 5.93554 5.61541 5.15524 6.59728 4.70287C7.53979 4.21882 8.59146 3.98672 9.65015 4.02912C10.3847 3.97747 11.1203 4.11358 11.7878 4.42462C12.1957 4.73305 12.6531 4.96977 13.1405 5.12462C13.3845 5.1392 13.6262 5.06937 13.8248 4.92687C13.8659 5.96725 12.9297 6.05737 12.0923 6.07925C11.2549 6.10112 10.7395 5.75462 9.96865 5.88325C9.4408 5.93497 8.93043 6.10052 8.47273 6.3685C8.01502 6.63647 7.62086 7.0005 7.3174 7.4355C6.83194 8.11729 6.62278 8.95768 6.73203 9.7875C6.74772 10.1499 6.87837 10.4979 7.10507 10.7811C7.33176 11.0642 7.64272 11.2679 7.9929 11.3625C8.4304 11.3695 8.52665 11.2435 8.90903 10.9941C9.2914 10.7447 11.2409 8.3315 11.9068 7.789C12.4755 7.31283 13.1969 7.05777 13.9385 7.07062C14.4395 7.02279 14.9441 7.10917 15.4007 7.32087C15.8862 7.59305 16.3499 7.90257 16.7875 8.24662C16.9954 8.08883 17.1952 7.92062 17.386 7.74262C17.6649 7.48658 17.9982 7.29704 18.3609 7.18823C18.7235 7.07942 19.1061 7.05417 19.4799 7.11437C20.0651 7.19575 20.6161 7.43809 21.0715 7.81437C21.735 8.45466 22.3257 9.16627 22.8329 9.93625C23.1576 10.5083 23.6537 10.9641 24.2513 11.2391C24.9259 11.4465 25.4343 10.5724 25.5087 10.0876C25.5634 9.81801 25.5962 9.54441 25.6067 9.2695C25.6097 8.93766 25.57 8.60681 25.4885 8.28512C25.3979 7.97168 25.2639 7.67245 25.0904 7.39612C24.81 6.94108 24.4186 6.56472 23.9529 6.30237C23.5725 6.10999 23.161 5.98646 22.7375 5.9375C22.3265 5.97466 21.9176 6.03308 21.5125 6.1125C21.0015 6.1475 20.088 6.26212 19.6873 5.8675C19.5843 5.7721 19.5019 5.65672 19.445 5.52839C19.3881 5.40006 19.358 5.26148 19.3565 5.12112C19.4744 5.21499 19.6169 5.27273 19.7669 5.28737C20.0872 5.3145 20.3864 5.05287 20.6419 4.9015C20.8954 4.72932 21.1609 4.57551 21.4364 4.44125C22.1972 4.18979 23.0064 4.12026 23.7989 4.23825C24.4742 4.32907 25.1269 4.54415 25.7239 4.87262C26.2764 5.21227 26.7611 5.65135 27.1537 6.16762C27.6015 6.70892 27.9119 7.35042 28.0584 8.0375C28.3064 9.14529 28.3115 10.2937 28.0733 11.4036C27.7606 12.326 27.2486 13.1682 26.5735 13.8702C26.01 14.3896 25.3039 14.7285 24.5462 14.8432C24.564 14.9868 24.5892 15.1293 24.6214 15.2702C24.6774 15.4505 24.7859 15.6517 25.0073 15.5879C25.0494 15.5669 25.0974 15.5609 25.1434 15.5709C25.1894 15.5809 25.2306 15.6064 25.2602 15.643C25.3765 15.7445 25.3162 16.1391 24.988 16.3159C24.7979 16.4037 24.589 16.4431 24.3799 16.4305C24.0555 16.4429 23.7306 16.428 23.4087 16.3859C23.1199 16.3351 22.9467 16.1059 22.6264 16.07C22.1568 15.9488 21.7218 15.7199 21.3559 15.4015C21.254 15.3405 21.1482 15.2865 21.0392 15.2396C21.0908 15.3971 21.1599 15.5616 21.194 15.713C21.2282 15.8644 21.2142 16.0052 21.2317 16.126C21.2492 16.2467 21.2833 16.3421 21.3034 16.4401C21.3822 16.511 21.4075 16.6151 21.5414 16.6527C21.7016 16.666 21.863 16.6533 22.0192 16.6151C22.1557 16.5967 22.2467 16.5224 22.3543 16.5425C22.4652 16.5749 22.5671 16.6327 22.6518 16.7114C22.7393 16.7831 22.8189 16.7936 22.8915 16.9739C22.9774 17.2282 23.0278 17.4932 23.0412 17.7614C23.0562 17.9852 23.0264 18.2098 22.9537 18.422C22.8866 18.6066 22.7716 18.7701 22.6203 18.8954C22.3654 19.1479 22.0851 19.3734 21.7838 19.5682C21.8324 19.6619 21.891 19.7499 21.9588 19.8307C22.0463 19.9261 22.2423 20.0311 22.3272 20.1317C22.4056 20.2058 22.4521 20.3075 22.4567 20.4152C22.468 20.5486 22.4344 20.682 22.3613 20.7941C22.1433 21.0383 21.8581 21.2127 21.5414 21.2955C21.615 21.5996 21.6218 21.916 21.5615 22.223C21.5292 22.3621 21.4574 22.6771 21.2859 22.7585C21.0519 22.809 20.8131 22.8342 20.5737 22.8337C20.3645 22.867 20.2473 22.8985 20.0837 22.9309C19.9717 23.0651 19.8721 23.2092 19.7862 23.3614C19.764 23.4096 19.7532 23.4622 19.7544 23.5153C19.7556 23.5684 19.7688 23.6204 19.7932 23.6676C19.836 23.7989 19.9804 23.9896 20.0215 24.1436C20.0647 24.298 20.0683 24.4608 20.032 24.617C19.9939 24.771 19.9122 24.9107 19.7967 25.0195C19.6654 25.1569 19.4064 25.2645 19.2778 25.3747C19.1492 25.485 19.0205 25.499 19.0555 25.6827C19.1759 26.0149 19.421 26.2871 19.7389 26.4414C19.9273 26.4968 20.1294 26.4819 20.3077 26.3994C20.2945 26.6146 20.1082 26.7599 19.9865 26.9034C20.319 26.8132 20.6211 26.6356 20.8615 26.3889C20.7147 26.7175 20.4886 27.0046 20.2035 27.2245C20.0439 27.3628 19.8675 27.4804 19.6785 27.5745C19.9647 27.6289 20.2586 27.6289 20.5448 27.5745C20.3431 27.6883 20.1205 27.7604 19.8903 27.7862C19.6411 27.8162 19.3884 27.7972 19.1465 27.7302C18.8546 27.5995 18.576 27.441 18.3144 27.2569C18.3343 27.4029 18.4009 27.5386 18.5043 27.6436C18.6776 27.7642 18.8654 27.8624 19.0634 27.9359C18.781 27.9165 18.4997 27.8827 18.2208 27.8344C18.0523 27.8008 17.8891 27.7452 17.7352 27.669C17.5976 27.5888 17.4663 27.4984 17.3423 27.3986C17.3828 27.5289 17.4465 27.6507 17.5304 27.7582C17.6605 27.8447 17.8018 27.913 17.9504 27.9612C17.8047 27.9755 17.6578 27.9722 17.5129 27.9516C17.349 27.9119 17.1951 27.8389 17.0605 27.7372C16.8965 27.6168 16.7441 27.4812 16.6055 27.3321C16.465 27.1944 16.3469 27.0356 16.2555 26.8614C16.2048 26.7266 16.2862 26.6321 16.301 26.5175C16.1993 26.564 16.1054 26.6259 16.0228 26.7012C15.9795 26.742 15.9473 26.7931 15.9292 26.8498C15.9112 26.9064 15.9078 26.9667 15.9195 27.025C15.9875 27.2085 16.0803 27.3819 16.1952 27.5404C15.8942 27.2945 15.7262 27.2 15.6544 26.9025C15.6426 26.7695 15.6576 26.6354 15.6985 26.5083C15.7394 26.3812 15.8053 26.2635 15.8924 26.1622C15.958 26.0581 16.056 25.961 16.1173 25.8604C15.9722 25.737 15.836 25.6037 15.7095 25.4614C15.5932 25.31 15.5442 25.1044 15.4252 24.96C15.297 24.8287 15.157 24.7095 15.0069 24.6039C15.1501 24.8562 15.273 25.1195 15.3744 25.3914C15.3882 25.4687 15.3844 25.5482 15.3633 25.624C15.3423 25.6997 15.3045 25.7697 15.2528 25.8289C15.1802 25.9391 15.0638 25.9636 14.9527 26.031C14.8415 26.0984 14.67 26.0459 14.6027 26.1456C14.5681 26.1968 14.548 26.2563 14.5445 26.3179C14.541 26.3795 14.5541 26.4409 14.5825 26.4956L14.845 26.9034C14.7177 26.8283 14.6048 26.7311 14.5117 26.6164C14.4382 26.5166 14.3244 26.4256 14.3087 26.2917C14.2936 26.2291 14.2915 26.164 14.3025 26.1005C14.3135 26.037 14.3373 25.9765 14.3725 25.9225C14.46 25.8026 14.6972 25.7632 14.8039 25.6714C14.9107 25.5795 14.9702 25.52 14.964 25.401C14.9579 25.282 14.8415 25.198 14.7427 25.1227C14.4063 24.9115 14.0879 24.673 13.7907 24.4096C13.6784 24.3025 13.5943 24.1694 13.5457 24.022C13.5345 23.9661 13.5354 23.9085 13.5482 23.853C13.561 23.7975 13.5855 23.7453 13.62 23.7C13.6927 23.5679 13.9412 23.392 13.97 23.2494C13.9989 23.1067 13.8747 23.0744 13.7618 23.0254C13.6489 22.9764 13.4328 23.0507 13.3243 22.9632C13.2158 22.8757 13.3549 22.6911 13.2368 22.5896C13.1187 22.4881 12.8474 22.545 12.7118 22.4356C12.5878 22.3325 12.5014 22.1913 12.4659 22.034C12.4195 21.89 12.4123 21.7363 12.4449 21.5886C12.4782 21.474 12.5762 21.4539 12.6348 21.3944C12.6934 21.3349 12.7459 21.2859 12.6663 21.1975C12.5867 21.1091 12.3294 21.2027 12.1807 21.089C12.0319 20.9752 12.1229 20.704 12.0179 20.5885C11.9129 20.473 11.7239 20.5194 11.625 20.4826C11.5262 20.4459 11.4859 20.5754 11.4255 20.3706C11.3652 20.1659 11.3625 19.5569 11.2803 19.3302C11.198 19.1036 11.037 19.3145 10.9627 19.0887C10.927 18.781 10.9144 18.4709 10.925 18.1612L10.7719 17.2329C10.239 17.5907 8.55815 18.051 8.4094 18.3117" fill="#FBF1C7"/>
<path d="M16.5451 9.22574C16.5325 9.50223 16.5552 9.7792 16.6125 10.05C16.623 10.1647 16.6584 10.2758 16.7161 10.3755C16.7738 10.4752 16.8525 10.5612 16.9467 10.6275C17.351 10.9276 17.61 10.8777 17.9215 11.0519C18.0863 11.1316 18.2226 11.2602 18.3117 11.4202C18.3327 11.4895 18.3294 11.5639 18.3024 11.6311C18.2753 11.6982 18.2261 11.7541 18.163 11.7895C18.2156 11.794 18.2685 11.7852 18.3168 11.7639C18.3651 11.7427 18.4074 11.7097 18.4397 11.6679C18.472 11.6261 18.4933 11.5769 18.5016 11.5248C18.51 11.4727 18.5052 11.4193 18.4876 11.3695C18.4421 11.2575 18.2251 11.2076 18.1612 11.0947C18.1317 11.043 18.1134 10.9857 18.1074 10.9265C18.1013 10.8673 18.1078 10.8075 18.1262 10.7509C18.1822 10.5444 18.5908 10.3562 18.7387 10.1935C18.8499 10.0994 18.9277 9.97188 18.9605 9.82996C18.9933 9.68804 18.9793 9.53932 18.9207 9.40598C18.6211 8.94085 18.1745 8.58938 17.652 8.40761C17.5099 8.35205 17.3636 8.30816 17.2145 8.27636C17.5486 8.40828 17.8216 8.66005 17.9801 8.98249C18.1061 9.30974 17.9967 9.43311 18.0011 9.71748C18.0011 9.84961 18.1761 9.91524 18.254 9.99924C18.3318 10.0832 18.3152 10.1261 18.2618 10.2259C18.2603 10.185 18.2492 10.145 18.2294 10.1091C18.2097 10.0733 18.1818 10.0425 18.1481 10.0194C18.0343 9.93798 17.911 9.95549 17.8497 9.78924C17.757 9.53636 17.9372 9.29661 17.7342 9.01224C17.6694 8.89311 17.5786 8.79017 17.4684 8.71108C17.3583 8.63199 17.2317 8.5788 17.0981 8.55549C16.9723 8.5536 16.8472 8.57313 16.728 8.61324L16.5363 8.38749C16.2019 8.02812 15.8045 7.73304 15.3638 7.51686C14.928 7.30231 14.4416 7.21152 13.9577 7.25436C13.2523 7.2172 12.5606 7.45959 12.0327 7.92899C11.3257 8.54149 9.50221 10.8751 9.05771 11.1665C8.91159 11.3024 8.73961 11.4076 8.552 11.4757C8.3644 11.5438 8.16501 11.5734 7.96571 11.5629C7.56419 11.4726 7.20399 11.2516 6.9416 10.9346C6.6792 10.6176 6.52945 10.2224 6.51583 9.81111C6.40425 8.928 6.62984 8.0353 7.14758 7.31124C7.45593 6.83365 7.87152 6.43466 8.36128 6.14604C8.85103 5.85741 9.40141 5.68712 9.96858 5.64874C10.6855 5.64285 11.4012 5.71029 12.1045 5.84999C12.7791 5.84999 13.4467 5.73449 13.6436 5.19811C13.4647 5.29741 13.2576 5.33377 13.0556 5.30136C12.5483 5.12805 12.067 4.88636 11.625 4.58299C10.9901 4.32455 10.3054 4.21183 9.62121 4.25311C8.6483 4.19691 7.67782 4.39886 6.80808 4.83849C5.84459 5.30279 5.05348 6.06112 4.54883 7.00411C4.01795 7.97856 3.81717 9.09882 3.97658 10.197C4.03414 11.3587 4.47159 12.4694 5.22171 13.3584C5.56007 13.8124 5.99325 14.1873 6.49114 14.457C6.98903 14.7268 7.53969 14.8848 8.10483 14.9202L8.39271 13.6515L7.87908 14.3882L7.89221 13.5684L7.42758 14.145L7.22371 13.3627L6.84746 13.9892L6.66021 13.1142L6.11508 13.5517L6.29008 12.8316L5.56821 12.9121L5.89983 12.4116L5.24183 12.4195L5.62508 11.751L5.04146 11.6582L5.49996 11.0562L4.78508 10.8445L5.37658 10.2775L4.79996 9.80149L5.25671 9.44624L4.82621 8.87749L5.28208 8.34636L5.11233 7.64636L5.49996 7.30861L5.61546 6.50711L6.05296 6.28924L6.42658 5.66361L7.11346 5.58748L7.45471 5.02486L8.14858 5.05986L8.80396 4.70374L9.48471 4.86211L10.2573 4.62936L10.8296 4.76324L11.576 4.87261L12.297 5.44923L11.1875 5.06249L10.631 5.32936L10.1707 5.04849L9.85396 5.26374L9.29396 5.31973L8.79171 5.28736L8.42508 5.73449L7.68746 5.74586L7.42496 6.34786L6.76083 6.58061L6.69871 7.27274L6.22271 7.64549L6.37496 8.29998L5.96371 8.97636L6.27958 9.56786L5.96896 10.1095L6.38196 10.379L6.28833 11.2496L6.86233 11.3949L6.99183 12.0406L7.61746 11.975L8.00596 12.4177L8.48633 11.9487C9.22437 11.6245 9.88014 11.1385 10.4052 10.5269C11.023 9.66898 11.7872 8.92671 12.6627 8.33411C13.3104 7.92293 14.0903 7.7737 14.8441 7.91674C15.6272 8.05149 15.8888 8.52136 16.4655 9.01661C16.5035 8.9288 16.5638 8.85248 16.6405 8.79524C16.6008 8.93682 16.5692 9.08055 16.546 9.22574H16.5451ZM20.627 14.418C20.5763 14.4696 20.5171 14.5119 20.452 14.5431C20.3536 14.5748 20.253 14.599 20.151 14.6157C20.3023 14.852 20.4616 15.0909 20.6068 15.3385C20.7521 15.5861 20.8781 15.8582 21.0172 16.119C21.0186 15.9697 21.0121 15.8205 20.998 15.6719C20.9578 15.5126 20.9087 15.3557 20.851 15.202C20.7888 14.9929 20.7118 14.7085 20.6235 14.4145L20.627 14.418ZM20.5745 13.0609C20.6281 13.0781 20.678 13.1054 20.7215 13.1414C20.8172 13.1963 20.8948 13.2782 20.9446 13.3767C20.9899 13.5076 21.0042 13.6471 20.9866 13.7845C20.9376 13.7705 20.8711 13.7801 20.8195 13.7364C20.7678 13.6926 20.739 13.5946 20.6733 13.5526C20.6142 13.5223 20.5481 13.5078 20.4817 13.5106C20.5204 13.6078 20.5334 13.7132 20.5193 13.8169C20.5102 13.9068 20.469 13.9905 20.4033 14.0527C20.3376 14.1149 20.2518 14.1513 20.1615 14.1555C20.0608 14.1579 19.9602 14.1473 19.8622 14.124C19.8972 14.2019 19.9567 14.2701 19.9908 14.348C20.121 14.3423 20.25 14.3208 20.375 14.2841C20.4719 14.2197 20.5727 14.1612 20.6768 14.1091C20.79 14.079 20.9057 14.0594 21.0225 14.0505C20.9236 14.138 20.858 14.2255 20.76 14.3086L20.9787 14.9456C21.1336 15.0427 21.2797 15.0935 21.474 15.2134C21.6919 15.378 21.9202 15.5285 22.1573 15.664C22.3691 15.7719 22.595 15.8494 22.8285 15.8941C23.091 15.944 23.3053 16.1566 23.567 16.1942C23.8828 16.2284 24.201 16.2357 24.5181 16.2161C24.7465 16.1942 25.0431 16.0761 25.0702 15.825C24.9392 15.8585 24.8003 15.8402 24.6824 15.7739C24.5646 15.7075 24.4769 15.5983 24.4376 15.4689C24.372 15.3087 24.4043 15.0139 24.3037 14.824C24.2031 14.6341 24.064 14.5737 23.896 14.341C23.6754 14.0514 23.4768 13.7458 23.3018 13.4266C23.1487 13.1142 23.112 12.7599 22.9825 12.4799C22.8462 12.2245 22.6862 11.9825 22.5047 11.7571C22.2387 11.3033 21.839 10.9427 21.3602 10.7246C21.0854 10.6302 20.8037 10.5574 20.5176 10.5067C20.403 10.5584 20.2463 10.6152 20.2183 10.7482C20.2069 10.8247 20.212 10.9027 20.2331 10.9771C20.2542 11.0515 20.2909 11.1205 20.3408 11.1796C20.5489 11.3454 20.7185 11.5544 20.8378 11.7921C20.9031 12.0879 20.912 12.3934 20.8641 12.6925C20.7986 12.8358 20.7003 12.9617 20.5771 13.06L20.5745 13.0609ZM19.3048 13.2122C19.5392 13.0973 19.7923 13.0256 20.0521 13.0005C20.1623 12.9935 20.333 13.011 20.4441 13.0154C20.5533 12.8947 20.642 12.757 20.7066 12.6076C20.7339 12.3663 20.7212 12.1221 20.669 11.8849C20.5185 11.5147 20.3715 11.499 20.1641 11.2872C20.0342 11.0951 19.9639 10.869 19.962 10.6371C19.9453 10.5409 19.8981 10.4192 19.8745 10.3195C19.5853 10.2728 19.2919 10.2575 18.9995 10.274C19.1639 10.1499 19.2836 9.9758 19.3407 9.77786C19.3868 9.54389 19.3458 9.30112 19.2252 9.09536C19.0821 8.89804 18.9125 8.72138 18.7212 8.57036C18.5392 8.41111 18.2785 8.27986 18.1087 8.14861C18.3268 8.05268 18.5513 7.97227 18.7807 7.90798C19.3486 7.82199 19.9275 7.96279 20.3925 8.29998C20.7336 8.49657 21.044 8.74215 21.3138 9.02886C21.6498 9.37886 22.0655 10.0237 22.3901 10.4061C22.6523 10.7364 22.9444 11.0419 23.2625 11.3187C23.516 11.4928 23.7873 11.6394 24.0718 11.7562L24.4927 12.2025L24.8331 11.7816L25.38 11.8437L25.4928 11.2312L25.9951 11.0939L25.9137 10.2652L26.2751 10.0089L26.0038 9.49349L26.2795 8.92999L25.9198 8.28598L26.059 7.66649L25.6425 7.31211L25.5882 6.65323L25.0072 6.43186L24.7745 5.85874L24.1182 5.84999L23.798 5.42474L23.3605 5.45536L22.8705 5.40199L22.594 5.19724L22.1915 5.45974L21.7041 5.20599L20.7363 5.57349L21.3672 5.02486L22.0208 4.92074L22.5187 4.79999L23.1951 5.02224L23.7901 4.87174L24.3641 5.21124L24.9713 5.17799L25.2697 5.71349L25.8743 5.78261L26.2016 6.37761L26.5822 6.58499L26.6828 7.34711L27.0215 7.66824L26.8727 8.33498L27.2717 8.83986L26.8972 9.38148L27.2971 9.72011L26.7852 10.1734L27.3032 10.7124L26.6776 10.9136L27.0853 11.492L26.5743 11.5795L26.9095 12.2156L26.3337 12.2077L26.6233 12.6846L25.9916 12.6085L26.143 13.2936L25.6652 12.8736L25.5016 13.704L25.1717 13.1072L24.9967 13.851L24.5898 13.3024L24.6003 14.082L24.1506 13.382C24.1815 13.8034 24.296 14.2145 24.4875 14.5912C25.2294 14.5345 25.9257 14.2109 26.4475 13.6804C27.0958 12.9984 27.5823 12.1793 27.8711 11.2837C28.0814 10.2393 28.0846 9.1637 27.8807 8.11799C27.714 7.4436 27.4019 6.81379 26.9663 6.27261C26.5522 5.77742 26.0714 5.34217 25.5375 4.97936C24.6754 4.52969 23.7083 4.31996 22.7375 4.37211C22.3372 4.37378 21.9406 4.44789 21.5667 4.59086C21.0268 4.78686 20.5955 5.21561 20.0468 5.42648C19.9747 5.462 19.8954 5.48047 19.815 5.48047C19.7346 5.48047 19.6552 5.462 19.5831 5.42648C19.64 5.55501 19.7273 5.66775 19.8375 5.75496C19.9477 5.84216 20.0775 5.90121 20.2157 5.92699C20.6318 5.9781 21.0528 5.97428 21.4678 5.91561C21.8858 5.82587 22.3104 5.77027 22.7375 5.74936C23.195 5.76264 23.6417 5.89148 24.036 6.12386C24.5398 6.39216 24.9628 6.79033 25.261 7.27711C25.4371 7.57094 25.5692 7.88904 25.653 8.22124C25.737 8.55731 25.7814 8.90208 25.7851 9.24849C25.7965 9.55351 25.7635 9.85858 25.6871 10.1541C25.5016 10.8375 25.0921 11.5331 24.2512 11.4264C23.7367 11.3607 22.9606 10.3939 22.7007 10.0395C22.1972 9.28429 21.6201 8.58085 20.9778 7.93949C20.5624 7.5675 20.0405 7.33575 19.486 7.27711C19.1052 7.20914 18.7134 7.24015 18.3482 7.36717C17.9829 7.49419 17.6564 7.71296 17.4 8.00249C17.558 8.04261 17.7134 8.09229 17.8655 8.15124C18.217 8.30642 18.5405 8.5187 18.8227 8.77949C18.9578 8.87563 19.068 9.00265 19.1441 9.14998C19.2202 9.2973 19.26 9.46067 19.2602 9.62648C19.2672 9.88898 19.0511 10.0999 18.8533 10.2897C18.7317 10.4061 18.5716 10.512 18.4736 10.6021C18.3432 10.722 18.1822 10.8524 18.345 11.0396C18.4259 11.1123 18.5138 11.1768 18.6075 11.2321C18.7501 11.338 18.6853 11.7326 18.4963 11.8367C18.3841 11.9046 18.2533 11.9353 18.1226 11.9244C17.9918 11.9136 17.8679 11.8618 17.7683 11.7764C18.0195 11.7387 18.1787 11.7055 18.1717 11.5007C18.1717 11.3817 18.0168 11.2829 17.8681 11.2155C17.5249 11.1246 17.1943 10.9918 16.8837 10.82C16.5241 10.5575 16.5162 10.4192 16.4191 10.0132C16.2273 10.0224 16.0374 10.0556 15.8538 10.1121C15.622 10.1882 15.3656 10.3746 15.1538 10.4166C14.8535 10.5157 14.5295 10.5175 14.2281 10.4219C13.5996 10.3659 12.9672 10.471 12.3906 10.7272C12.1038 10.7388 11.8184 10.7742 11.5375 10.8331C10.9997 11.045 10.498 11.3387 10.05 11.7037C9.18265 12.7229 8.58673 13.9445 8.31746 15.2554C8.27283 15.7541 8.41546 16.091 8.10046 16.3342C7.78546 16.5775 7.79508 17.2022 7.68833 17.3781C7.58158 17.554 7.45821 17.4752 7.22896 17.7211C6.99971 17.967 6.87896 17.9259 6.88858 18.3914C7.10689 18.2343 7.36109 18.1344 7.62796 18.1009C7.85196 18.093 7.85458 18.3879 8.42946 17.8191C8.73746 17.5146 9.32808 17.5059 9.74196 17.3711C10.472 17.1404 11.1238 16.7119 11.625 16.133C12.3571 15.3132 12.793 14.2715 12.8631 13.1746C12.9094 13.5378 12.8981 13.906 12.8298 14.2657C12.6132 14.9704 12.6602 15.7298 12.962 16.4025L13.2323 16.9187C13.0117 16.6629 12.8204 16.3832 12.6618 16.0849L12.4431 15.4951C12.129 16.0685 11.6919 16.5651 11.163 16.9494C11.1194 17.2921 11.1459 17.6401 11.2408 17.9722C11.3528 18.2986 11.1743 18.6722 11.2592 18.8901C11.3441 19.108 11.5401 18.9829 11.604 19.2007C11.6678 19.4186 11.5707 19.8491 11.6696 20.0609C11.7685 20.2726 12.0126 20.1484 12.1307 20.2131C12.2239 20.2777 12.2995 20.3646 12.3503 20.466C12.4142 20.5535 12.3258 20.7687 12.4545 20.8379C12.5831 20.907 12.7835 20.8484 12.9173 20.9149C12.9763 20.9536 13.0205 21.0112 13.0426 21.0783C13.0647 21.1453 13.0634 21.2179 13.039 21.2841C13.0075 21.4267 12.864 21.4924 12.801 21.6341C12.77 21.6934 12.7556 21.7599 12.7591 21.8267C12.7626 21.8935 12.784 21.9582 12.8211 22.0139C12.9238 22.147 13.0668 22.2434 13.2288 22.2886C13.3951 22.356 13.6287 22.3184 13.8002 22.4111C13.9678 22.5167 14.1101 22.658 14.2167 22.825C14.2972 22.9316 14.3366 23.0636 14.3278 23.1969C14.3158 23.3526 14.2688 23.5036 14.1905 23.6387C14.1143 23.7761 13.9472 23.9424 14.2088 24.2049C14.4705 24.4674 14.46 24.3536 14.6096 24.5234C14.593 24.2294 14.4722 23.9905 14.5606 23.7691C14.649 23.5477 14.9158 23.5066 15.0558 23.4095C15.1783 23.3048 15.2895 23.1875 15.3875 23.0595C15.3953 23.2026 15.3953 23.346 15.3875 23.4891C15.3516 23.7219 15.2833 23.9266 15.6298 23.9651C15.7946 23.9515 15.9544 23.9019 16.098 23.8199C16.0105 23.9739 15.8626 24.0981 15.8355 24.2819C15.8064 24.4816 15.8535 24.685 15.9676 24.8515C16.1104 25.0229 16.2829 25.1672 16.4768 25.2776C16.5943 25.3489 16.7189 25.4075 16.8487 25.4526C16.8548 25.6337 16.819 25.8262 16.84 25.996C16.8583 26.1626 16.9185 26.3218 17.015 26.4589C17.1307 26.5904 17.2683 26.7008 17.4218 26.7852C17.3396 26.5945 17.1742 26.4142 17.176 26.2139C17.1751 26.1131 17.1979 26.0136 17.2426 25.9233C17.2873 25.833 17.3526 25.7545 17.4332 25.6941C17.6283 25.5191 18.086 25.3616 18.3012 25.1892C18.4607 25.0766 18.586 24.9222 18.6635 24.743C18.7167 24.5514 18.7403 24.3528 18.7335 24.1541C18.7918 24.3142 18.8269 24.4819 18.8376 24.652C18.8219 24.8945 18.7561 25.131 18.6442 25.3467C18.8784 25.2378 19.0649 25.0475 19.1692 24.8112C19.2261 24.8454 19.1972 24.9381 19.2182 25.1166C19.3136 25.0221 19.4212 24.9495 19.5166 24.8602C19.6211 24.7835 19.7062 24.6835 19.7651 24.568C19.8039 24.4366 19.8015 24.2964 19.7581 24.1664C19.6798 24.0002 19.5848 23.8425 19.4746 23.6956C19.3871 23.5372 19.4895 23.3824 19.4833 23.1916C19.3149 23.1316 19.1371 23.102 18.9583 23.1041C18.758 23.133 18.5287 23.3579 18.324 23.3605C18.1192 23.3631 18.0046 23.1715 17.8366 23.1181C17.67 23.0803 17.5005 23.0569 17.33 23.0481C17.8389 22.8218 18.3841 22.6882 18.94 22.6535C19.4361 22.5713 19.9377 22.5259 20.4406 22.5179C20.6637 22.5463 20.8888 22.5551 21.1135 22.5441C21.2701 22.4995 21.2368 22.3919 21.2832 22.2755C21.3822 21.9683 21.3803 21.6375 21.278 21.3314C20.823 21.2611 20.3625 21.2339 19.9025 21.25C19.4553 21.2841 18.9251 21.4967 18.464 21.5125C18.0007 21.5304 17.5404 21.4317 17.1252 21.2255C16.7724 20.9608 16.4786 20.6256 16.2625 20.2411C16.0743 19.9532 15.8372 19.388 15.6928 19.1299C15.6224 18.9667 15.5217 18.8182 15.3962 18.6924C15.2652 18.6095 15.1207 18.5502 14.9692 18.5174C15.1337 18.534 15.3122 18.4824 15.4618 18.5681C15.6858 18.6967 15.937 19.2296 16.0743 19.4615C16.2222 18.9662 16.1872 18.772 16.6151 18.4929C16.3481 18.8119 16.1943 19.2103 16.1776 19.626C16.4637 20.0959 16.8618 20.8449 17.3833 21.0522C17.6157 21.1266 17.8554 21.1759 18.0982 21.1992C18.7317 21.2225 19.364 21.129 19.9637 20.9236C20.4486 20.8381 20.9436 20.8263 21.432 20.8886C21.6201 20.8991 22.062 20.7862 22.1538 20.5972C22.1796 20.5435 22.1905 20.4838 22.1854 20.4244C22.1803 20.365 22.1594 20.3081 22.125 20.2595C22.0541 20.1492 21.8625 20.0967 21.7627 19.997C21.6737 19.8967 21.5935 19.789 21.523 19.675C21.1658 19.7451 20.8035 19.7855 20.4397 19.7957C20.6646 19.703 20.8772 19.6496 21.1143 19.5586C21.3552 19.459 21.5858 19.3362 21.803 19.192C21.9657 19.0974 22.1157 18.9825 22.2492 18.8499C22.4042 18.7089 22.5424 18.5507 22.6613 18.3782C22.7511 18.1929 22.7929 17.988 22.783 17.7824C22.8015 17.5441 22.7717 17.3045 22.6955 17.078C22.6559 17.0078 22.6014 16.9472 22.536 16.9002C22.4706 16.8532 22.3957 16.821 22.3166 16.8059C22.1853 16.7639 22.0961 16.8697 21.9596 16.8846C21.8231 16.8995 21.6971 16.9852 21.4985 16.8916C21.2451 16.7596 21.0286 16.5665 20.8685 16.3299C20.669 16.0499 20.5272 15.5914 20.3233 15.2387C19.9554 14.6371 19.5534 14.0569 19.1193 13.501C19.072 13.3308 19.0375 13.1574 19.0161 12.9821C18.9721 12.6514 18.9948 12.3152 19.0826 11.9934C19.1069 11.8655 19.1599 11.7447 19.2374 11.6402C19.315 11.5356 19.4152 11.45 19.5306 11.3896C19.6331 11.3455 19.7475 11.3375 19.8552 11.3669C19.9074 11.3837 19.9513 11.4194 19.9784 11.467C20.0054 11.5147 20.0136 11.5707 20.0013 11.6241C19.962 11.7554 19.8701 11.7597 19.808 11.8262C19.716 11.9189 19.6515 12.0352 19.6216 12.1622C19.7419 12.1533 19.8628 12.158 19.9821 12.1762C20.0518 12.1944 20.1157 12.2302 20.1676 12.2801C20.2196 12.3301 20.2578 12.3925 20.2787 12.4615C20.2298 12.4027 20.1689 12.3552 20.1001 12.322C20.0313 12.2888 19.9561 12.2707 19.8797 12.269C19.7866 12.2758 19.6941 12.2898 19.6032 12.311C19.5787 12.4255 19.5442 12.5377 19.5 12.6461C19.451 12.7336 19.3573 12.7117 19.325 12.8132C19.2913 12.9432 19.2848 13.0787 19.3057 13.2114L19.3048 13.2122ZM19.7826 13.3872C19.6006 13.3986 19.5568 13.375 19.4116 13.4747L19.6487 13.844C19.6363 13.7623 19.6419 13.6789 19.665 13.5995C19.6881 13.5202 19.7282 13.4469 19.7826 13.3846V13.3872ZM13.5946 11.7597C13.5981 11.7021 13.6087 11.6451 13.6261 11.59C13.3636 11.5191 13.256 11.6906 13.1011 12.0091C13.0433 12.1281 13.1011 12.199 13.0381 12.2769C12.9751 12.3547 12.8762 12.3442 12.7756 12.4195C12.675 12.4947 12.5743 12.6391 12.4798 12.717C12.2684 12.8652 12.0402 12.9879 11.8 13.0827C12.0051 12.9633 12.1897 12.8118 12.3468 12.6339C12.3976 12.5464 12.3906 12.3827 12.4693 12.304C12.5481 12.2252 12.577 12.171 12.6793 12.1517C12.7817 12.1325 12.7406 12.0126 12.7738 11.919C12.8167 11.8254 12.8736 11.7389 12.9427 11.6626C13.0123 11.5405 13.1152 11.4407 13.2393 11.3747C13.3776 11.3231 13.5937 11.3747 13.6987 11.3494C13.8037 11.324 13.7433 11.2435 13.8195 11.198C13.8956 11.1525 14.0443 11.1726 14.1458 11.1236C14.3041 11.0316 14.434 10.8978 14.5212 10.7369C14.5538 11.0372 14.517 11.3411 14.4136 11.625C14.3627 11.7924 14.2784 11.9477 14.1657 12.0815C14.0531 12.2154 13.9144 12.325 13.7582 12.4037C13.6387 12.4622 13.5139 12.5091 13.3855 12.5437C13.4493 12.4562 13.5403 12.4186 13.5771 12.2812C13.5969 12.107 13.6027 11.9314 13.5946 11.7562V11.7597ZM15.2842 13.0661C15.4216 13.0539 15.5913 13.0906 15.7217 13.0836C15.833 13.0712 15.9432 13.0507 16.0516 13.0224C16.0315 12.829 16.0516 12.4737 15.8722 12.3451C15.6366 12.2921 15.3919 12.2945 15.1573 12.3521C14.8531 12.4431 14.5557 12.5557 14.2675 12.689C14.5096 12.4949 14.7826 12.3429 15.0751 12.2392C15.3437 12.1585 15.6256 12.1317 15.9046 12.1605C15.9921 12.185 16.0122 12.2217 16.0665 12.297C16.2125 12.5343 16.2934 12.8059 16.301 13.0845C16.3504 13.1487 16.3963 13.2156 16.4383 13.2849C16.4775 13.3791 16.5014 13.4789 16.5092 13.5806C16.4602 13.5097 16.49 13.4205 16.3543 13.368C16.18 13.338 16.0015 13.3433 15.8293 13.3837C15.9076 13.4338 15.9681 13.5072 16.0025 13.5934C16.0369 13.6797 16.0434 13.7746 16.0211 13.8648C15.9988 13.955 15.9489 14.0359 15.8782 14.0962C15.8075 14.1565 15.7198 14.1931 15.6272 14.201C15.5142 14.2301 15.3945 14.2164 15.291 14.1626C15.1875 14.1088 15.1075 14.0187 15.0663 13.9096C15.0364 13.7954 15.0301 13.6763 15.048 13.5596C14.9368 13.5461 14.824 13.5596 14.7191 13.5991C14.6143 13.6385 14.5206 13.7027 14.446 13.7862C14.553 13.975 14.7118 14.1293 14.9036 14.2307C15.0398 14.3079 15.1875 14.3629 15.3411 14.3935C15.5361 14.4294 15.7351 14.4388 15.9326 14.4215C16.08 14.4052 16.2173 14.3385 16.3211 14.2325C16.4165 14.1131 16.4802 13.9717 16.5066 13.8212C16.5028 13.95 16.4783 14.0774 16.434 14.1984C16.3694 14.3195 16.2701 14.4186 16.1488 14.4829C16.0275 14.5471 15.8897 14.5736 15.7532 14.5589C15.4478 14.5556 15.1456 14.4962 14.8616 14.3839C14.596 14.2745 14.3722 14.0832 14.2228 13.8379C14.1917 13.6773 14.1858 13.5129 14.2053 13.3505C14.4958 13.158 14.5667 13.2052 14.9106 13.1484C15.0541 13.1247 15.153 13.0714 15.2895 13.0609L15.2842 13.0661ZM16.0717 11.1525C16.2112 11.2432 16.3669 11.3062 16.5302 11.338C16.6588 11.338 16.6921 11.2505 16.7682 11.2032C16.8779 11.6075 17.0313 11.9986 17.2258 12.3696C17.3133 12.5175 17.365 12.4484 17.4288 12.5971C17.4927 12.7459 17.5225 13.0469 17.5828 13.2359C17.6448 13.4039 17.7155 13.5686 17.7946 13.7294C17.6065 13.479 17.4361 13.2159 17.2845 12.9419C17.1847 12.731 17.2486 12.7126 17.1681 12.5114C17.0876 12.3101 16.924 11.9969 16.8023 11.7396C16.716 11.7579 16.627 11.7603 16.5398 11.7466C16.4733 11.7265 16.4865 11.6591 16.427 11.6101C16.3675 11.5611 16.266 11.5821 16.182 11.5095C16.1024 11.4092 16.0628 11.2829 16.0708 11.1551L16.0717 11.1525ZM14.3532 17.9442C14.474 17.8462 14.8003 17.9241 15.0436 17.9442L14.5186 18.079C14.502 18.1385 14.5098 18.2076 14.4696 18.254C14.4293 18.3004 14.3541 18.3231 14.2946 18.3581C14.3007 18.2015 14.2316 18.0405 14.3523 17.9425L14.3532 17.9442ZM16.6055 14.6744C16.6863 14.5073 16.7465 14.331 16.7848 14.1494C16.7612 14.3699 16.8058 14.6122 16.6973 14.7724C16.5888 14.9325 16.4007 14.9045 16.2441 14.9474C16.3657 14.8546 16.5066 14.8135 16.6037 14.6744H16.6055ZM16.385 17.1244C16.3796 16.9658 16.4175 16.8087 16.4946 16.67C16.5716 16.5313 16.685 16.4161 16.8225 16.3369C17.0137 16.2273 17.2229 16.1523 17.4402 16.1155C17.7919 16.084 18.1462 16.1303 18.478 16.2511C18.6899 16.3727 18.8944 16.5069 19.0905 16.6527C19.2996 16.7761 19.4483 16.8592 19.6478 16.9984C19.9541 17.211 20.1326 17.4464 20.3478 17.5872C20.47 17.6363 20.5979 17.6695 20.7285 17.6861C20.6149 17.7294 20.4914 17.7394 20.3723 17.715C20.209 17.651 20.0573 17.5606 19.9235 17.4472C19.7675 17.3078 19.5978 17.1847 19.4168 17.0797C19.29 17.0062 19.0817 16.9196 18.9426 16.8286C18.8035 16.7376 18.562 16.539 18.429 16.4725C18.2187 16.3847 17.9926 16.3412 17.7648 16.3447C17.4674 16.3318 17.1736 16.4136 16.9257 16.5784C16.8349 16.6414 16.7645 16.7297 16.7235 16.8324C16.6824 16.9351 16.6724 17.0476 16.6947 17.1559C16.7562 17.0642 16.8234 16.9765 16.896 16.8934C16.9704 16.8359 17.0567 16.7958 17.1485 16.7759C17.2404 16.7561 17.3356 16.7571 17.4271 16.7787C17.5236 16.7897 17.6142 16.8306 17.6863 16.8958C17.7583 16.9609 17.8081 17.047 17.8287 17.1419C17.7656 17.0866 17.6956 17.0398 17.6205 17.0027C17.5478 16.9749 17.4696 16.9644 17.3922 16.9719C17.3147 16.9795 17.2401 17.0051 17.1742 17.0465C16.9905 17.1445 17.0403 17.2897 17.0141 17.4516C16.9986 17.5203 16.9784 17.5878 16.9537 17.6537C16.8844 17.6379 16.8206 17.6038 16.7691 17.5549C16.7648 17.6305 16.7672 17.7063 16.7761 17.7815C16.8004 17.876 16.8296 17.9692 16.8636 18.0606C16.7281 17.9431 16.6128 17.8042 16.5223 17.6494C16.4354 17.4881 16.3909 17.3075 16.3928 17.1244H16.385ZM18.0378 17.4026C18.1719 17.4054 18.3035 17.4395 18.422 17.5024C18.5206 17.5569 18.6128 17.6223 18.6967 17.6975C18.9106 17.908 19.062 18.1736 19.1342 18.4649C19.1721 18.6803 19.1946 18.8981 19.2016 19.1167C19.1513 18.9117 19.0855 18.7107 19.0047 18.5156C18.863 18.2109 18.6212 17.9639 18.3196 17.8156C18.2507 17.7837 18.1737 17.774 18.0991 17.7876C18.1236 17.8287 18.1647 17.8629 18.1665 17.9232C18.171 17.9679 18.1627 18.013 18.1426 18.0531C18.1224 18.0932 18.0912 18.1268 18.0527 18.1499C17.974 18.184 17.887 18.1939 17.8027 18.1783C17.7184 18.1627 17.6406 18.1223 17.5793 18.0624C17.5161 18.0044 17.4722 17.9285 17.4534 17.8448C17.4346 17.7611 17.4419 17.6737 17.4743 17.5942C17.554 17.3982 17.8585 17.3982 18.0378 17.4052V17.4026ZM8.93258 17.9661C8.82217 17.9737 8.71564 18.0099 8.62355 18.0713C8.53147 18.1327 8.45702 18.2171 8.40758 18.3161C8.35276 18.4011 8.27246 18.4666 8.17817 18.5032C8.08387 18.5399 7.98041 18.5457 7.88258 18.52C7.76 18.4676 7.62629 18.4465 7.49353 18.4587C7.36078 18.471 7.23316 18.5161 7.12221 18.59C6.85446 18.7807 6.56483 18.6364 6.61558 18.289C6.62603 18.1168 6.67785 17.9496 6.76665 17.8017C6.85546 17.6538 6.97863 17.5295 7.12571 17.4394C7.85371 17.0202 7.34796 16.7289 7.74696 16.308C8.14596 15.8871 8.05846 15.7576 8.04621 15.1854C7.45961 15.1398 6.88986 14.9676 6.37626 14.6806C5.86265 14.3936 5.4174 13.9986 5.07121 13.5229C4.27316 12.6056 3.81741 11.4403 3.78146 10.225C3.62232 9.08459 3.82072 7.92291 4.34933 6.89999C4.81905 5.92527 5.61398 5.14487 6.59721 4.69324C7.53985 4.20964 8.59148 3.97785 9.65008 4.02036C10.3846 3.96864 11.1203 4.10474 11.7877 4.41586C12.1954 4.72413 12.6525 4.96084 13.1396 5.11586C13.3836 5.13036 13.6252 5.06055 13.8238 4.91811C13.865 5.95849 12.9287 6.04861 12.0905 6.07049C11.2522 6.09236 10.7377 5.74586 9.96683 5.87536C9.43964 5.92708 8.9299 6.09238 8.47268 6.35989C8.01546 6.62739 7.62161 6.99075 7.31821 7.42498C6.83359 8.10551 6.62446 8.94422 6.73283 9.77261C6.74833 10.1349 6.87881 10.4829 7.10536 10.7661C7.3319 11.0493 7.64275 11.253 7.99283 11.3476C8.43033 11.3546 8.52658 11.2286 8.90896 10.9792C9.29133 10.7299 11.2408 8.31836 11.9067 7.77499C12.475 7.29874 13.1962 7.04365 13.9376 7.05661C14.4385 7.00834 14.9431 7.09442 15.3997 7.30599C15.8858 7.57983 16.3497 7.8911 16.7875 8.23699C16.9956 8.07958 17.1954 7.91135 17.386 7.73299C17.6649 7.47694 17.9982 7.28741 18.3608 7.1786C18.7235 7.06979 19.106 7.04454 19.4798 7.10474C20.065 7.18611 20.616 7.42846 21.0715 7.80473C21.7354 8.44484 22.3264 9.15647 22.8337 9.92661C23.1586 10.4986 23.6547 10.9542 24.2521 11.2295C24.9267 11.4369 25.4342 10.5627 25.5095 10.078C25.5642 9.80926 25.5969 9.53652 25.6075 9.26249C25.6111 8.93067 25.5716 8.59979 25.4902 8.27811C25.3995 7.96472 25.2655 7.6655 25.0921 7.38911C24.8119 6.93392 24.4204 6.55753 23.9546 6.29536C23.574 6.1007 23.1619 5.97508 22.7375 5.92436C22.3264 5.96146 21.9175 6.01987 21.5125 6.09936C21.0015 6.13436 20.0888 6.24899 19.6881 5.85436C19.585 5.75887 19.5025 5.64334 19.4456 5.51485C19.3888 5.38636 19.3587 5.24762 19.3573 5.10711C19.4753 5.20071 19.6178 5.25815 19.7677 5.27249C20.088 5.29961 20.3872 5.03799 20.6427 4.88661C20.8957 4.71411 21.161 4.56029 21.4363 4.42636C22.1971 4.17477 23.0062 4.10495 23.7988 4.22249C24.4741 4.31344 25.1268 4.52852 25.7238 4.85686C26.2763 5.19659 26.761 5.63566 27.1536 6.15186C27.6037 6.69634 27.9151 7.34188 28.061 8.03311C28.3088 9.14093 28.3139 10.2893 28.0758 11.3992C27.7633 12.3215 27.2516 13.1636 26.577 13.8659C26.0133 14.3851 25.3073 14.724 24.5496 14.8389C24.5793 14.9937 24.5846 15.1381 24.624 15.265C24.6808 15.4452 24.7885 15.6465 25.0107 15.5835C25.0527 15.5624 25.1007 15.5563 25.1467 15.5661C25.1927 15.576 25.2339 15.6012 25.2636 15.6377C25.38 15.7401 25.3187 16.1339 24.9906 16.3106C24.8005 16.3986 24.5915 16.438 24.3825 16.4252C24.058 16.438 23.7331 16.4231 23.4112 16.3806C23.1225 16.3299 22.9492 16.1015 22.629 16.0647C22.1594 15.9434 21.7244 15.7145 21.3585 15.3962C21.2566 15.3353 21.1508 15.2813 21.0417 15.2344C21.0933 15.3919 21.1616 15.5564 21.1966 15.7077C21.2316 15.8591 21.2158 16 21.2342 16.1216C21.2526 16.2432 21.2858 16.3369 21.3051 16.4357C21.3847 16.5066 21.4101 16.6107 21.5431 16.6484C21.7033 16.6619 21.8647 16.6492 22.0208 16.6107C22.1573 16.5924 22.2492 16.5189 22.356 16.5381C22.4672 16.5705 22.5693 16.6283 22.6543 16.707C22.7418 16.7787 22.8206 16.7892 22.8941 16.9695C22.9793 17.224 23.0294 17.4889 23.0428 17.757C23.058 17.9808 23.0283 18.2054 22.9553 18.4176C22.8886 18.6024 22.7735 18.7659 22.622 18.891C22.3669 19.1437 22.0863 19.3692 21.7846 19.5639C21.8334 19.6573 21.8921 19.7453 21.9596 19.8264C22.0471 19.9209 22.2431 20.0267 22.328 20.1265C22.4063 20.2006 22.4528 20.3022 22.4575 20.41C22.4688 20.5437 22.4352 20.6773 22.3621 20.7897C22.1441 21.0339 21.8589 21.2083 21.5422 21.2911C21.6156 21.5952 21.6225 21.9116 21.5623 22.2186C21.53 22.3577 21.4582 22.6727 21.2867 22.7541C21.0527 22.8047 20.8139 22.8299 20.5745 22.8294C20.3653 22.8626 20.2481 22.8941 20.0845 22.9265C19.9726 23.0604 19.873 23.2042 19.787 23.3561C19.7648 23.4043 19.754 23.457 19.7552 23.51C19.7564 23.5631 19.7696 23.6152 19.794 23.6624C19.8368 23.7936 19.9821 23.9852 20.0223 24.1384C20.0655 24.2928 20.0691 24.4556 20.0328 24.6117C19.9944 24.7659 19.9128 24.9058 19.7975 25.0151C19.6662 25.1525 19.4072 25.2592 19.2786 25.3704C19.15 25.4815 19.0213 25.4946 19.0563 25.6784C19.1764 26.0107 19.4217 26.2829 19.7397 26.437C19.928 26.4923 20.13 26.4777 20.3085 26.3959C20.2953 26.6111 20.109 26.7564 19.9873 26.899C20.3197 26.8091 20.6218 26.6317 20.8623 26.3854C20.7154 26.7137 20.4893 27.0006 20.2043 27.2201C20.0448 27.3585 19.8684 27.4761 19.6793 27.5701C19.9658 27.625 20.26 27.625 20.5465 27.5701C20.3448 27.6841 20.1222 27.7561 19.892 27.7819C19.6428 27.8124 19.3901 27.7937 19.1482 27.7267C18.8563 27.5959 18.5777 27.4374 18.3161 27.2534C18.3358 27.3993 18.4021 27.5349 18.5051 27.6401C18.6783 27.7608 18.8662 27.859 19.0642 27.9324C18.7818 27.9127 18.5006 27.8789 18.2216 27.8309C18.0532 27.7969 17.89 27.7413 17.736 27.6655C17.5987 27.5849 17.4674 27.4945 17.3431 27.3951C17.3837 27.5253 17.4474 27.6471 17.5312 27.7547C17.6615 27.8417 17.8031 27.9103 17.9521 27.9586C17.8064 27.9728 17.6595 27.9696 17.5146 27.949C17.3507 27.9092 17.1968 27.8363 17.0622 27.7346C16.8978 27.6139 16.7452 27.478 16.6063 27.3286C16.4657 27.191 16.3476 27.0321 16.2563 26.8579C16.2056 26.7231 16.287 26.6286 16.3018 26.514C16.1998 26.5599 16.1056 26.6216 16.0227 26.6969C15.9793 26.7377 15.947 26.789 15.9289 26.8458C15.9109 26.9026 15.9076 26.9631 15.9195 27.0215C15.9874 27.2051 16.0801 27.3785 16.1951 27.5369C15.8941 27.291 15.7261 27.1956 15.6543 26.899C15.6425 26.766 15.6575 26.6319 15.6984 26.5048C15.7393 26.3776 15.8052 26.26 15.8923 26.1587C15.958 26.0546 16.056 25.9575 16.1163 25.8569C15.9712 25.7336 15.835 25.6003 15.7086 25.4579C15.5922 25.3056 15.5432 25.1009 15.4242 24.9556C15.2959 24.8247 15.1559 24.7058 15.006 24.6004C15.1494 24.8526 15.2723 25.1159 15.3735 25.3879C15.3872 25.4652 15.3834 25.5447 15.3624 25.6204C15.3413 25.6962 15.3036 25.7662 15.2518 25.8254C15.1792 25.9356 15.0628 25.9601 14.9526 26.0275C14.8423 26.0949 14.6691 26.0415 14.6026 26.1421C14.5681 26.1933 14.5481 26.2528 14.5446 26.3144C14.541 26.3759 14.5541 26.4373 14.5825 26.4921L14.845 26.8999C14.7176 26.8248 14.6047 26.7276 14.5116 26.6129C14.4372 26.514 14.3243 26.4221 14.3086 26.2882C14.2934 26.2254 14.2913 26.1602 14.3022 26.0966C14.3132 26.0329 14.3371 25.9722 14.3725 25.9181C14.46 25.7991 14.6971 25.7589 14.8038 25.667C14.9106 25.5751 14.9701 25.5156 14.964 25.3966C14.9578 25.2776 14.8423 25.1927 14.7426 25.1184C14.4063 24.907 14.0879 24.6685 13.7906 24.4052C13.6786 24.2979 13.5945 24.1648 13.5456 24.0176C13.5345 23.9617 13.5355 23.9041 13.5483 23.8486C13.5611 23.7931 13.5855 23.741 13.62 23.6956C13.6926 23.5635 13.9411 23.3876 13.97 23.245C13.9988 23.1024 13.8746 23.07 13.7617 23.0201C13.6488 22.9702 13.4336 23.0455 13.3242 22.958C13.2148 22.8705 13.3548 22.6859 13.2367 22.5844C13.1186 22.4829 12.8473 22.5397 12.7117 22.4304C12.5878 22.3268 12.5013 22.1854 12.4658 22.0279C12.4192 21.8839 12.4119 21.7302 12.4448 21.5825C12.4772 21.4679 12.5752 21.4486 12.6347 21.3891C12.6942 21.3296 12.7458 21.2806 12.6662 21.1914C12.5866 21.1021 12.3285 21.1966 12.1797 21.0829C12.031 20.9691 12.122 20.6979 12.017 20.5832C11.912 20.4686 11.723 20.5132 11.6241 20.4765C11.5252 20.4397 11.4858 20.5692 11.4246 20.3654C11.3633 20.1615 11.3616 19.5525 11.2802 19.325C11.1988 19.0975 11.037 19.3101 10.9617 19.0835C10.9262 18.7754 10.9137 18.4651 10.9241 18.1551L10.771 17.2267C10.3385 17.5326 9.83827 17.729 9.31321 17.799C9.15607 19.0663 9.25667 20.3524 9.60896 21.5799C10.0841 23.1347 11.0466 24.0509 12.346 25.3669C10.9817 24.4841 9.91987 23.2055 9.30271 21.7024C8.90633 20.4971 8.7826 19.2189 8.94046 17.96" fill="#1D2021"/>
</svg>
