<svg viewBox="0 0 32 32" fill="none" xmlns="http://www.w3.org/2000/svg">
<g clip-path="url(#clip0_498_15)">
<path fill-rule="evenodd" clip-rule="evenodd" d="M23.5206 16V11.4624H20.5501V16H17.7846L22.0526 21.1654L26.3206 16H23.5206ZM9.91786 11.4154H6.92338V20.4436H9.94106V15.9987L12.2363 18.9313L14.5147 16.0201V20.4436H17.4853V11.4154H14.5547H14.5147V11.4659L12.2363 14.3804L9.94106 11.4445V11.4154H9.91786ZM5.50884 7H26.4912C27.3245 7 28 7.67553 28 8.50884V23.4912C28 24.3245 27.3245 25 26.4912 25H5.50884C4.67553 25 4 24.3245 4 23.4912L4 8.50884C4 7.67553 4.67553 7 5.50884 7Z" fill="#8EC07C"/>
</g>
<defs>
<clipPath id="clip0_498_15">
<rect width="24" height="24" fill="white" transform="translate(4 4)"/>
</clipPath>
</defs>
</svg>
