<svg viewBox="0 0 32 32" fill="none" xmlns="http://www.w3.org/2000/svg">
<path d="M15.999 5.481C14.6168 5.47784 13.2476 5.74772 11.97 6.27517C10.6925 6.80262 9.53164 7.57723 8.55425 8.55453C7.57685 9.53184 6.80213 10.6926 6.27456 11.9701C5.74699 13.2477 5.47697 14.6168 5.48001 15.999C5.48001 21.827 10.17 26.519 15.998 26.519C21.825 26.519 26.518 21.826 26.518 15.999C26.5209 14.6168 26.2508 13.2476 25.7231 11.97C25.1954 10.6925 24.4206 9.53176 23.4431 8.55447C22.4656 7.57718 21.3048 6.80259 20.0271 6.27515C18.7495 5.74772 17.3812 5.47784 15.999 5.481ZM11.953 10.899C11.9912 10.8982 12.0289 10.9079 12.062 10.927L17.724 14.197C17.7562 14.2158 17.7928 14.2257 17.83 14.2257C17.8673 14.2257 17.9038 14.2158 17.936 14.197L19.938 13.04C19.9698 13.0211 20.0061 13.011 20.0431 13.0107C20.0801 13.0104 20.1165 13.0198 20.1487 13.0381C20.1809 13.0564 20.2077 13.0828 20.2263 13.1147C20.245 13.1467 20.2549 13.183 20.255 13.22V20.89C20.2554 20.9273 20.2459 20.9639 20.2275 20.9963C20.209 21.0287 20.1823 21.0556 20.15 21.0742C20.1177 21.0928 20.0811 21.1025 20.0438 21.1023C20.0066 21.1021 19.9701 21.092 19.938 21.073L14.276 17.803C14.2441 17.7846 14.2079 17.7749 14.171 17.7749C14.1341 17.7749 14.0979 17.7846 14.066 17.803L12.062 18.963C12.0299 18.9815 11.9935 18.9912 11.9565 18.9911C11.9194 18.991 11.8831 18.9812 11.8511 18.9625C11.8191 18.9438 11.7926 18.917 11.7743 18.8848C11.7561 18.8525 11.7466 18.816 11.747 18.779V11.11C11.747 11.055 11.7686 11.0022 11.8071 10.9629C11.8456 10.9236 11.898 10.9 11.953 10.899Z" fill="#1D2021"/>
</svg>
