<svg viewBox="0 0 32 32" fill="none" xmlns="http://www.w3.org/2000/svg">
<path d="M15.9545 3.75H16.0114C16.3028 3.88883 16.5867 4.04305 16.8619 4.212L26.3626 9.67725C26.4851 9.74265 26.5852 9.84335 26.6498 9.96629C26.7144 10.0892 26.7405 10.2288 26.7249 10.3668C26.7179 14.2071 26.7249 18.0466 26.7205 21.8853C26.6793 22.0684 26.5673 22.2279 26.409 22.3289C23.0414 24.2679 19.6735 26.2057 16.3054 28.1424C16.2237 28.2046 16.1253 28.2409 16.0229 28.2467C15.9204 28.2525 15.8186 28.2274 15.7305 28.1747C12.3588 26.2416 8.99035 24.3049 5.6251 22.3647C5.51573 22.313 5.42413 22.2301 5.36184 22.1264C5.29955 22.0227 5.26937 21.9028 5.2751 21.782V10.2644C5.26685 10.1441 5.29466 10.024 5.35498 9.91959C5.4153 9.81516 5.50539 9.73109 5.61373 9.67812C8.77656 7.85929 11.9394 6.03929 15.1022 4.21813C15.384 4.05713 15.6605 3.8865 15.9545 3.75Z" fill="#8EC07C"/>
<path d="M9.67113 11.2208V20.7224C9.66709 20.8978 9.69805 21.0722 9.7622 21.2355C9.82635 21.3989 9.9224 21.5477 10.0448 21.6735C10.2793 21.9052 10.5861 22.0494 10.9141 22.0822C11.2422 22.115 11.5715 22.0344 11.8473 21.8538C12.0318 21.7283 12.1829 21.5597 12.2874 21.3625C12.3919 21.1653 12.4465 20.9455 12.4466 20.7224C12.4466 18.4299 12.4423 16.1374 12.4466 13.8449C14.5367 16.3474 16.6312 18.8464 18.73 21.3419C19.0216 21.6373 19.3827 21.8547 19.7802 21.9743C20.1777 22.0938 20.5988 22.1117 21.005 22.0261C21.2918 21.9696 21.5529 21.8226 21.75 21.6067C21.947 21.3907 22.0696 21.1173 22.0996 20.8265C22.1043 17.5943 22.1043 14.3623 22.0996 11.1306C22.0695 10.7857 21.9112 10.4645 21.6559 10.2306C21.4006 9.9966 21.0669 9.86682 20.7206 9.86682C20.3744 9.86682 20.0407 9.9966 19.7854 10.2306C19.5301 10.4645 19.3718 10.7857 19.3416 11.1306C19.3416 13.4599 19.3276 15.7865 19.3416 18.1149C17.2889 15.6946 15.2615 13.2534 13.2166 10.8244C12.947 10.4787 12.5901 10.2111 12.1827 10.0493C11.7753 9.88754 11.3321 9.83733 10.8988 9.90388C10.5705 9.94041 10.2662 10.0933 10.041 10.3349C9.8158 10.5765 9.68458 10.8908 9.67113 11.2208Z" fill="#FBF1C7"/>
</svg>
