<svg viewBox="0 0 32 32" fill="none" xmlns="http://www.w3.org/2000/svg">
<path d="M16 28.25C15.6695 28.2502 15.3447 28.1632 15.0585 27.998L12.0625 26.2244C11.6153 25.9742 11.8332 25.8858 11.9811 25.8342C12.4566 25.6872 12.912 25.4815 13.3365 25.2217C13.372 25.2052 13.4111 25.1981 13.4502 25.201C13.4892 25.2039 13.5269 25.2168 13.5596 25.2383L15.8617 26.6059C15.9046 26.6286 15.9523 26.6404 16.0008 26.6404C16.0493 26.6404 16.0971 26.6286 16.14 26.6059L25.1175 21.4242C25.1595 21.399 25.1942 21.3633 25.2183 21.3207C25.2424 21.278 25.255 21.2299 25.2548 21.1809V10.8157C25.2549 10.7659 25.2421 10.717 25.2177 10.6736C25.1934 10.6302 25.1582 10.5939 25.1157 10.568L16.1382 5.39065C16.0959 5.36681 16.0481 5.35428 15.9995 5.35428C15.9509 5.35428 15.9032 5.36681 15.8608 5.39065L6.8886 10.5698C6.8458 10.5951 6.81026 10.631 6.78543 10.6741C6.7606 10.7172 6.74731 10.7659 6.74685 10.8157V21.1765C6.74697 21.2254 6.76008 21.2733 6.78483 21.3155C6.80959 21.3576 6.8451 21.3924 6.88772 21.4163L9.34997 22.8373C10.6843 23.504 11.5016 22.7183 11.5016 21.929V11.6994C11.5016 11.6298 11.5293 11.563 11.5785 11.5138C11.6277 11.4646 11.6945 11.4369 11.7641 11.4369H12.9016C12.9712 11.4369 13.038 11.4646 13.0872 11.5138C13.1364 11.563 13.1641 11.6298 13.1641 11.6994V21.9299C13.1641 23.7105 12.1946 24.7299 10.5058 24.7299C9.7773 24.7426 9.06018 24.5478 8.43822 24.1682L6.07835 22.8145C5.79186 22.6477 5.55415 22.4086 5.38894 22.1212C5.22373 21.8338 5.13681 21.508 5.13685 21.1765V10.8157C5.136 10.4836 5.22255 10.1572 5.38782 9.86922C5.55308 9.58123 5.79124 9.34181 6.07835 9.17503L15.0567 3.99153C15.3459 3.8333 15.6703 3.75037 16 3.75037C16.3296 3.75037 16.654 3.8333 16.9432 3.99153L25.9207 9.17503C26.2072 9.34153 26.4449 9.58026 26.6103 9.86737C26.7757 10.1545 26.8628 10.4799 26.8631 10.8113V21.1765C26.8626 21.508 26.7754 21.8337 26.61 22.121C26.4447 22.4084 26.2071 22.6475 25.9207 22.8145L16.9432 27.998C16.6564 28.1635 16.3311 28.2504 16 28.25Z" fill="#B8BB26"/>
<path d="M14.2972 17.7089C14.2972 17.6392 14.3249 17.5725 14.3741 17.5232C14.4234 17.474 14.4901 17.4464 14.5597 17.4464H15.7209C15.7829 17.4466 15.8429 17.4687 15.8901 17.5089C15.9374 17.5491 15.9689 17.6048 15.979 17.666C16.154 18.8481 16.679 19.444 19.0529 19.444C20.9437 19.444 21.7496 19.0161 21.7496 18.0125C21.7496 17.4341 21.5212 17.0045 18.5821 16.7166C16.1251 16.4734 14.6061 15.9291 14.6061 13.9656C14.6061 12.1544 16.133 11.0737 18.6924 11.0737C21.5685 11.0737 22.9921 12.0721 23.1724 14.2141C23.1751 14.2499 23.1705 14.2858 23.1588 14.3197C23.1472 14.3536 23.1287 14.3848 23.1045 14.4113C23.0803 14.4378 23.0509 14.459 23.0182 14.4737C22.9855 14.4884 22.9501 14.4962 22.9142 14.4967H21.7452C21.6866 14.4959 21.6299 14.4755 21.5842 14.4387C21.5386 14.4019 21.5065 14.3509 21.4932 14.2937C21.2141 13.0504 20.5307 12.6531 18.6932 12.6531C16.6282 12.6531 16.3885 13.3724 16.3885 13.9114C16.3885 14.5641 16.672 14.7549 19.4597 15.1232C22.2186 15.4881 23.5294 16.0044 23.5294 17.9434C23.5294 19.8999 21.8984 21.0199 19.0537 21.0199C15.1206 21.0251 14.2972 19.2217 14.2972 17.7089Z" fill="#B8BB26"/>
</svg>
