<svg viewBox="0 0 32 32" fill="none" xmlns="http://www.w3.org/2000/svg">
<path d="M27.5937 14.075C27.4944 13.3808 27.2747 12.7092 26.9445 12.0905C26.9044 12.0157 26.8537 11.947 26.794 11.8866C26.1841 11.2699 25.6748 10.5613 25.2846 9.78663C24.9922 9.0309 24.58 8.32715 24.064 7.70238C23.6538 7.21124 23.3242 6.65805 23.0875 6.0635C22.9685 5.53526 22.7435 5.03667 22.4262 4.59794C22.1088 4.15921 21.7057 3.78947 21.2412 3.51113C21.213 3.49374 21.1838 3.47797 21.1537 3.46388C20.7858 3.29806 20.4055 3.16115 20.0162 3.05438C19.9412 3.03421 19.8638 3.02392 19.7861 3.02375C19.7273 3.02403 19.6687 3.03019 19.6111 3.04213C19.3783 3.0904 19.1423 3.12169 18.905 3.13575C18.8612 3.13575 18.8175 3.1305 18.7746 3.1305C18.3338 3.15035 17.9061 3.28715 17.5356 3.52688C17.4534 3.57238 17.3711 3.61963 17.2871 3.65725C17.2632 3.66775 17.2405 3.67913 17.2189 3.69138C17.1257 3.72062 17.0299 3.74026 16.9327 3.75C16.7012 3.77741 16.4742 3.83446 16.2572 3.91975C16.0629 4.00238 15.9051 4.15248 15.8127 4.34238C15.6998 4.5089 15.5613 4.65655 15.4024 4.77988C15.1502 4.99037 14.9261 5.23239 14.7356 5.5C14.6927 5.56333 14.6585 5.63221 14.6341 5.70475C14.3742 6.46783 13.8952 7.13739 13.2569 7.62975C13.01 7.79007 12.7759 7.96941 12.5569 8.16613C12.5356 7.6423 12.3428 7.13997 12.0082 6.73638C11.9932 6.71962 11.9778 6.70328 11.9619 6.68738V6.67513C11.9444 6.4999 11.9047 6.3276 11.8437 6.16238C11.8148 6.08863 11.7759 6.01916 11.7282 5.95588C11.3505 5.45173 10.8715 5.03209 10.3221 4.72388C10.2286 4.67062 10.1259 4.63531 10.0194 4.61975C9.97499 4.59971 9.93176 4.57722 9.88987 4.55238C9.62652 4.38781 9.32511 4.29407 9.01487 4.28025C8.80747 4.28012 8.60308 4.32994 8.419 4.4255C8.32918 4.47114 8.24804 4.53214 8.17925 4.60575C8.14378 4.62604 8.10728 4.64444 8.06987 4.66088C7.73868 4.79637 7.46004 5.03512 7.27537 5.34163C7.11468 5.35527 6.95596 5.38637 6.802 5.43438C6.69263 5.46405 6.58015 5.48079 6.46687 5.48425C5.98648 5.48146 5.52093 5.65061 5.15437 5.96113L5.06162 6.04863C4.72108 6.29584 4.45795 6.63489 4.303 7.02613C4.14805 7.41738 4.10768 7.84466 4.18662 8.258C4.20244 8.30768 4.22234 8.35597 4.24612 8.40238C4.41254 8.69638 4.65047 8.94363 4.93787 9.12121C5.22528 9.2988 5.55285 9.40096 5.89025 9.41825C5.80275 9.6265 5.71525 9.83213 5.6155 10.0308C5.57725 10.1118 5.55158 10.1983 5.53937 10.2871C5.43897 11.032 5.42575 11.7861 5.5 12.5341C5.5 12.5516 5.5 12.5691 5.50612 12.5866C5.52637 12.7454 5.53834 12.9052 5.542 13.0653C5.50869 13.4542 5.56477 13.8457 5.70596 14.2096C5.84716 14.5736 6.06972 14.9005 6.35662 15.1652L6.40212 15.1994L6.40912 15.2265C6.44208 15.3604 6.48628 15.4912 6.54125 15.6176C6.64912 15.8621 6.84723 16.0555 7.09425 16.1575C7.12468 16.3393 7.19918 16.5108 7.31125 16.6571C7.38906 16.7588 7.48822 16.8421 7.60175 16.9013C7.73181 16.9662 7.86813 17.0178 8.00862 17.0552L8.06462 17.071C8.11378 17.1281 8.17027 17.1784 8.23262 17.2206C8.46549 17.3788 8.68498 17.5559 8.88887 17.75C9.01378 17.9377 9.1991 18.0771 9.4141 18.1451C9.62911 18.2131 9.86089 18.2055 10.071 18.1236C10.2732 18.2454 10.5044 18.3104 10.7404 18.3118C10.9297 18.3116 11.1164 18.2682 11.2864 18.1849L11.3861 18.1621C11.4071 18.5191 11.415 18.877 11.4106 19.2323C11.4099 19.3035 11.4176 19.3745 11.4334 19.444C11.5567 19.9695 11.6346 20.5046 11.6661 21.0435C11.6688 21.1026 11.6779 21.1613 11.6932 21.2185C11.8285 21.7379 11.9072 22.2703 11.9277 22.8066C11.9277 22.8337 11.9277 22.8617 11.9347 22.8889C12.079 23.9616 11.8928 25.0528 11.401 26.017C11.3646 26.0891 11.3383 26.166 11.3231 26.2454C11.2525 26.2606 11.1838 26.2838 11.1184 26.3145L11.0746 26.3337C10.8451 26.4088 10.6334 26.5302 10.4528 26.6906C10.2721 26.8509 10.1264 27.0466 10.0246 27.2656C9.97142 27.4155 9.94971 27.5748 9.96086 27.7335C9.972 27.8922 10.0157 28.0469 10.0894 28.1879C10.1553 28.318 10.2528 28.4296 10.3729 28.5125C10.8175 28.8198 11.3347 29.0057 11.8732 29.0517C12.4117 29.0978 12.9529 29.0024 13.4432 28.775C13.7039 28.6443 13.9153 28.4329 14.046 28.1722C14.1767 27.9116 14.2197 27.6157 14.1686 27.3286L14.1642 27.27C14.1845 27.2254 14.2009 27.1791 14.2132 27.1318C14.3535 26.5378 14.4378 25.932 14.4652 25.3222C14.4857 24.7845 14.5617 24.2502 14.6919 23.728C14.8852 23.2881 15.0004 22.8179 15.0322 22.3385L15.069 22.3805C15.4127 22.7339 15.7795 23.0639 16.1671 23.3684C16.5083 23.6334 16.8299 23.9226 17.1296 24.2338L17.12 24.267C17.0994 24.3397 17.0613 24.4063 17.0092 24.4611C16.9571 24.5158 16.8924 24.557 16.8207 24.5811L16.7779 24.596C16.5237 24.6923 16.2966 24.8488 16.1162 25.0521C15.9357 25.2554 15.8073 25.4994 15.7419 25.7633C15.7071 25.9621 15.7254 26.1666 15.7948 26.3562C15.8642 26.5457 15.9824 26.7136 16.1374 26.843C16.2477 26.939 16.3804 27.0058 16.5232 27.0373C17.3198 27.2128 18.1499 27.1579 18.9164 26.8789C18.9972 26.8501 19.0751 26.8138 19.1491 26.7704C19.3803 26.9829 19.6839 27.0993 19.9979 27.0959C20.3039 27.0828 20.603 27.0009 20.8729 26.8561C20.9157 26.836 20.9604 26.8167 20.9954 26.8019C21.1505 26.7419 21.2854 26.6389 21.3841 26.505C21.4828 26.3711 21.5413 26.2118 21.5527 26.0459C21.6012 25.3382 21.4598 24.6305 21.1432 23.9958C21.0418 23.7855 20.8882 23.6047 20.697 23.4708C21.0017 22.8015 21.3834 22.1702 21.8345 21.5895C22.0415 21.3496 22.186 21.0621 22.2548 20.7528C22.3237 20.4434 22.3148 20.1218 22.2291 19.8167C22.2075 19.703 22.195 19.5877 22.1915 19.472C22.1946 19.4289 22.1946 19.3856 22.1915 19.3425C22.1534 18.9702 22.1569 18.5949 22.202 18.2234C22.4035 18.7832 22.6837 19.3115 23.0341 19.7922C23.0954 20.11 23.1343 20.4316 23.1505 20.7548C23.17 21.1026 23.2089 21.449 23.2669 21.7925C23.4423 22.9311 23.3755 24.0939 23.0709 25.205C23.0445 25.3018 23.0351 25.4025 23.0429 25.5025C23.0083 25.5515 22.979 25.604 22.9554 25.6591C22.7616 25.9853 22.6668 26.3607 22.6824 26.7398C22.6878 26.7991 22.6992 26.8577 22.7165 26.9148C22.786 27.1661 22.9389 27.3864 23.15 27.5395C23.3611 27.6926 23.618 27.7694 23.8785 27.7574C23.9537 27.7574 24.0334 27.7521 24.113 27.7451H24.1296L24.1629 27.7565C24.5832 27.8864 25.0361 27.8618 25.4399 27.6873C25.8437 27.5127 26.1719 27.1997 26.3652 26.8045C26.4635 26.6044 26.4816 26.3744 26.416 26.1614C26.3257 25.8686 26.2647 25.5676 26.234 25.2628C26.2276 25.1982 26.2141 25.1345 26.1937 25.0729C25.8923 24.1651 25.8258 23.1958 26.0004 22.2554C26.0065 22.2224 26.0108 22.1891 26.0135 22.1556C26.0276 22.0253 26.0492 21.8959 26.0782 21.768C26.173 21.4658 26.2068 21.1477 26.1778 20.8323C26.1488 20.5169 26.0576 20.2104 25.9094 19.9305C25.9079 19.7914 25.914 19.6524 25.9277 19.514C25.9374 19.3854 25.9479 19.2515 25.9514 19.1089C26.2912 18.9699 26.5623 18.7023 26.7056 18.3642C27.0428 17.7414 27.3202 17.0881 27.5342 16.413C27.7071 16.0966 27.7605 15.7286 27.6847 15.3761C27.7252 15.3068 27.7578 15.2331 27.7819 15.1565C27.8324 14.9735 27.8418 14.7816 27.8093 14.5946C27.7767 14.4076 27.7031 14.2301 27.5937 14.075ZM18.5051 21.922C18.4824 21.922 18.4587 21.915 18.4351 21.9132H18.4141C18.3385 21.8242 18.2695 21.7297 18.2076 21.6306C18.157 21.5545 18.1051 21.4792 18.0519 21.4049C18.1172 21.3409 18.178 21.2725 18.2339 21.2001C18.4404 21.1611 18.6315 21.0636 18.7842 20.9193C18.755 21.2681 18.6603 21.6082 18.5051 21.922Z" fill="#FBF1C7"/>
<path d="M18.8779 4.0125C18.3984 3.95563 18.037 4.275 17.6363 4.45525C17.3143 4.6355 16.9231 4.58825 16.5994 4.72563C16.3526 5.23225 15.776 5.52013 15.4619 5.98825C15.142 6.92525 14.5505 7.74583 13.7626 8.3455C12.7093 9.02545 11.9652 10.092 11.6906 11.3153C11.5637 11.5778 11.5839 11.968 11.4482 12.1903C11.0011 12.3154 11.2391 11.7388 11.1857 11.4684C11.121 11.0571 11.4841 10.7946 11.5121 10.3956C11.6636 10.1136 11.7273 9.79274 11.695 9.47425C11.646 8.762 11.8604 7.89313 11.3511 7.30688C11.0457 7.13188 11.142 6.76175 11.0309 6.47825C10.7246 6.07102 10.3373 5.73167 9.89337 5.48163C9.52675 5.44575 9.18812 5.00738 8.81537 5.199C8.58262 5.46938 8.14775 5.46588 8.00862 5.82288C7.92112 6.27438 7.40662 6.15013 7.07412 6.26038C6.64712 6.42225 6.09587 6.26563 5.74587 6.59463C5.38625 6.95338 4.84112 7.4355 5.01525 7.99988C5.41512 8.77163 6.45462 8.38313 7.04262 8.85213C6.85847 9.38196 6.64612 9.90158 6.4065 10.4087C6.31452 11.0851 6.3016 11.7699 6.368 12.4493C6.47562 13.1256 6.29537 13.9997 6.89825 14.4784C7.23075 14.5982 7.21062 14.9789 7.33575 15.2545C7.453 15.5083 7.70937 15.1556 7.81087 15.4234C8.10662 15.5844 7.84325 15.9143 8.00337 16.1234C8.2335 16.2433 8.5625 16.2354 8.72262 16.4961C9.02816 16.7044 9.31376 16.9405 9.57575 17.2014C9.777 17.61 10.0404 16.8041 10.2609 17.106C10.4096 17.3554 10.7036 17.5628 10.9775 17.3554C11.3974 17.2896 11.795 17.1227 12.136 16.8689C12.2457 17.6567 12.2958 18.4517 12.2856 19.2471C12.4204 19.8221 12.5053 20.4076 12.5394 20.9971C12.6914 21.5779 12.7794 22.1735 12.8019 22.7734C12.9682 24.0215 12.7518 25.2908 12.1815 26.4134C12.1474 26.5873 12.0619 26.747 11.936 26.8718C11.8101 26.9966 11.6496 27.0808 11.4754 27.1134C11.2207 27.2271 10.6879 27.4336 10.8699 27.7924C11.1894 28.0127 11.5608 28.1459 11.9475 28.1788C12.3342 28.2116 12.7228 28.143 13.0749 27.9796C13.5211 27.767 13.1387 27.2289 13.3671 26.9069C13.6672 25.7694 13.5194 24.5522 13.8702 23.42C14.1322 22.8454 14.2233 22.2075 14.1327 21.5825C14.2019 21.1975 14.0409 20.7346 14.2964 20.4196C14.3033 20.0296 14.4538 19.6558 14.719 19.3696C14.8017 18.7823 14.8437 18.19 14.845 17.5969C15.2034 17.4863 15.5804 17.4485 15.9536 17.4858C15.9694 17.8139 15.7156 18.1962 15.7874 18.5655C15.8624 18.9786 15.7823 19.4048 15.5625 19.7625C15.4444 20.0907 15.3964 20.44 15.4217 20.7878C15.447 21.1357 15.5451 21.4744 15.7095 21.782C16.3937 22.5161 17.2845 23.035 17.9285 23.8181C18.2032 23.9975 18.1035 24.2705 17.9617 24.5041C17.9025 24.7139 17.7928 24.906 17.6423 25.0637C17.4917 25.2214 17.3049 25.3399 17.0981 25.4089C16.8286 25.5148 16.3929 25.9041 16.7114 26.1806C17.3457 26.3206 18.0068 26.2769 18.6171 26.0546C19.0336 25.905 18.8796 25.4089 19.0441 25.1026C19.3066 25.3065 19.4142 25.772 19.6662 26.038C19.9287 26.4169 20.3724 26.1019 20.6777 25.9838C20.716 25.427 20.6036 24.8702 20.3523 24.372C20.2061 24.0413 19.6522 24.0351 19.6785 23.6265C20.0459 22.6825 20.5507 21.798 21.1765 21.0015C21.6227 20.5824 21.2902 19.9594 21.3147 19.4265C21.1756 18.0676 21.5107 16.7025 22.2633 15.5625C22.4206 16.2002 22.6229 16.8259 22.8687 17.435C23.0534 18.1484 23.3809 18.817 23.8312 19.4002C24.0386 20.1099 23.9852 20.8965 24.1209 21.6324C24.3184 22.901 24.2462 24.1971 23.9091 25.436C23.9441 25.8893 23.5092 26.2235 23.546 26.668C23.6685 27.0784 24.1585 26.7494 24.4122 26.9218C24.6333 26.99 24.8715 26.977 25.0839 26.8853C25.2962 26.7935 25.4689 26.629 25.5707 26.4213C25.463 26.0727 25.3906 25.7142 25.3546 25.3511C25.0058 24.3028 24.9291 23.1831 25.1315 22.097C25.1718 21.5116 25.5314 20.7845 25.0676 20.284C24.9381 19.7424 25.1551 19.1596 25.0247 18.6084C24.7112 17.1899 24.675 15.7242 24.918 14.292C24.9994 14.0934 24.9294 13.7241 25.1341 13.6139C25.3504 13.9294 25.4481 14.3113 25.4097 14.6919C25.6066 15.2797 25.6306 15.9117 25.4789 16.5128C25.1079 16.9774 25.3363 17.6048 25.3835 18.1315C25.443 18.5008 25.835 18.2348 25.8989 18.0055C26.2407 17.3819 26.5175 16.7248 26.7249 16.0446C26.9602 15.7331 26.7371 15.3709 26.7249 15.0454C27.0862 15.0025 26.9489 14.6026 26.7555 14.4329C26.6884 13.7593 26.4901 13.1053 26.1719 12.5079C25.4817 11.8098 24.9082 11.0054 24.4735 10.1253C24.0115 8.69113 22.6867 7.74 22.237 6.29363C22.1486 5.87438 21.9746 5.47791 21.7259 5.12904C21.4771 4.78018 21.159 4.48645 20.7915 4.26625C20.4644 4.11759 20.1262 3.99471 19.78 3.89875C19.4828 3.96068 19.1811 3.99872 18.8779 4.0125ZM19.2279 16.84C19.4431 18.0825 19.5892 19.3359 19.6654 20.5946C19.6867 21.3812 19.4534 22.1537 19.0004 22.797C18.8954 23.1689 18.5751 22.8075 18.3432 22.783C17.7806 22.7673 17.5715 22.1854 17.2652 21.8144C16.9502 21.5134 17.1777 21.1144 17.3816 20.8248C17.6021 20.6681 17.6879 20.3181 18.0011 20.3452C18.3511 20.3391 18.2776 19.9191 18.2286 19.6951C18.4369 19.3784 18.3091 18.9146 18.5156 18.5725C18.8822 18.4133 18.7729 17.855 18.9024 17.54C19.003 17.316 18.9172 16.8846 19.1946 16.7928C19.227 16.7875 19.2375 16.8033 19.2314 16.8383L19.2279 16.84Z" fill="#458588"/>
</svg>
