<svg viewBox="0 0 32 32" fill="none" xmlns="http://www.w3.org/2000/svg">
<path d="M16 22.4444C22.7655 22.4444 28.25 19.5591 28.25 16C28.25 12.4409 22.7655 9.55563 16 9.55563C9.23451 9.55563 3.75 12.4409 3.75 16C3.75 19.5591 9.23451 22.4444 16 22.4444Z" fill="#458588"/>
<path d="M16 21.9657C22.5012 21.9657 27.7714 19.2948 27.7714 16C27.7714 12.7052 22.5012 10.0342 16 10.0342C9.49886 10.0342 4.22864 12.7052 4.22864 16C4.22864 19.2948 9.49886 21.9657 16 21.9657Z" fill="#458588"/>
<path d="M18.3844 17.925L18.968 14.9202C19.0512 14.6631 19.0649 14.3885 19.0077 14.1244C18.9505 13.8602 18.8246 13.6159 18.6425 13.4161C18.1344 13.0553 17.5123 12.892 16.8925 12.9567H15.8836L16.1733 11.4692C16.1786 11.4416 16.1777 11.413 16.1706 11.3857C16.1636 11.3584 16.1507 11.333 16.1327 11.3113C16.1147 11.2895 16.0922 11.272 16.0667 11.26C16.0412 11.248 16.0133 11.2418 15.9851 11.2417H14.5851C14.5407 11.2417 14.4976 11.2572 14.4633 11.2854C14.429 11.3137 14.4055 11.353 14.397 11.3966L13.7766 14.5869C13.7289 14.2458 13.584 13.9256 13.3593 13.6646C13.1091 13.414 12.8072 13.221 12.4747 13.0991C12.1423 12.9771 11.7872 12.9291 11.4343 12.9585H8.73752C8.69307 12.9585 8.64999 12.9739 8.61567 13.0022C8.58135 13.0304 8.55792 13.0697 8.5494 13.1134L7.29465 19.5709C7.28937 19.5986 7.29027 19.6271 7.29728 19.6544C7.30429 19.6817 7.31724 19.7071 7.33521 19.7289C7.35318 19.7506 7.37572 19.7681 7.40123 19.7801C7.42673 19.7921 7.45458 19.7984 7.48277 19.7984H8.8854C8.92985 19.7984 8.97293 19.7829 9.00725 19.7547C9.04157 19.7264 9.065 19.6871 9.07352 19.6435L9.37715 18.0816H10.4271C10.8907 18.094 11.3535 18.035 11.7991 17.9066C12.1749 17.7823 12.5185 17.5764 12.8054 17.3037C13.0405 17.0896 13.2412 16.8405 13.4004 16.5652L13.1493 17.8559C13.144 17.8836 13.1449 17.9121 13.1519 17.9394C13.1589 17.9667 13.1719 17.9921 13.1898 18.0139C13.2078 18.0356 13.2303 18.0531 13.2559 18.0651C13.2814 18.0771 13.3092 18.0834 13.3374 18.0834H14.7374C14.7819 18.0834 14.8249 18.0679 14.8592 18.0397C14.8936 18.0114 14.917 17.9721 14.9255 17.9285L15.6141 14.3839H16.5714C16.9791 14.3839 17.0964 14.4652 17.1314 14.5002C17.1664 14.5352 17.2189 14.6446 17.1533 14.9981L16.5976 17.855C16.5924 17.8827 16.5933 17.9112 16.6003 17.9385C16.6073 17.9658 16.6202 17.9913 16.6382 18.013C16.6562 18.0347 16.6787 18.0522 16.7042 18.0642C16.7297 18.0762 16.7576 18.0825 16.7858 18.0825H18.2033C18.2469 18.0808 18.2886 18.0643 18.3216 18.0356C18.3545 18.007 18.3767 17.968 18.3844 17.925ZM11.9138 15.4452C11.871 15.8126 11.6966 16.152 11.4229 16.4007C11.0791 16.6146 10.6759 16.713 10.2723 16.6816H9.64927L10.0999 14.362H10.9058C11.4981 14.362 11.7361 14.4889 11.8324 14.5947C11.9058 14.7225 11.9511 14.8645 11.9651 15.0112C11.9791 15.1579 11.9616 15.3059 11.9138 15.4452ZM24.3528 13.6655C24.1026 13.4149 23.8007 13.2219 23.4682 13.1C23.1357 12.978 22.7807 12.93 22.4278 12.9594H19.7231C19.6787 12.9594 19.6356 12.9748 19.6013 13.0031C19.567 13.0313 19.5436 13.0706 19.535 13.1142L18.2803 19.5717C18.275 19.5994 18.2759 19.628 18.2829 19.6553C18.2899 19.6826 18.3029 19.708 18.3208 19.7297C18.3388 19.7515 18.3613 19.769 18.3869 19.781C18.4124 19.793 18.4402 19.7992 18.4684 19.7992H19.8754C19.9199 19.7993 19.9629 19.7838 19.9972 19.7556C20.0316 19.7273 20.055 19.688 20.0635 19.6444L20.3671 18.0825H21.4171C21.8808 18.0949 22.3435 18.0359 22.7891 17.9075C23.1649 17.7832 23.5085 17.5773 23.7954 17.3046C24.2867 16.8619 24.6177 16.269 24.7369 15.6185C24.831 15.2857 24.8453 14.9354 24.7786 14.596C24.7118 14.2567 24.5659 13.9379 24.3528 13.6655ZM22.8941 15.4452C22.8514 15.8126 22.677 16.152 22.4033 16.4007C22.0586 16.6148 21.6545 16.713 21.25 16.6807H20.6288L21.0794 14.3611H21.8853C22.4776 14.3611 22.7156 14.488 22.8119 14.5939C22.8856 14.7217 22.9311 14.8638 22.9452 15.0107C22.9594 15.1575 22.942 15.3057 22.8941 15.4452Z" fill="#FBF1C7"/>
<path d="M10.9058 14.1695C11.0946 14.1457 11.2862 14.1596 11.4696 14.2104C11.653 14.2612 11.8245 14.3478 11.9741 14.4653C12.0707 14.614 12.1323 14.7826 12.1543 14.9586C12.1763 15.1346 12.1581 15.3132 12.101 15.4811C12.051 15.8945 11.8511 16.2753 11.5393 16.5512C11.1631 16.7935 10.7185 16.9071 10.2723 16.875H9.41652L9.94152 14.1721L10.9058 14.1695ZM7.47839 19.6085H8.88539L9.21877 17.8918H10.4236C10.8671 17.9039 11.3098 17.8475 11.7361 17.7246C12.086 17.6091 12.4058 17.4172 12.6724 17.1629C13.1338 16.7478 13.4446 16.1914 13.5561 15.5809C13.6444 15.2773 13.66 14.9571 13.6014 14.6464C13.5429 14.3356 13.412 14.0431 13.2193 13.7924C12.9869 13.5625 12.7072 13.3862 12.3997 13.2755C12.0921 13.1649 11.7642 13.1227 11.4386 13.1519H8.73752L7.47839 19.6085ZM14.5886 11.4342H15.9886L15.65 13.151H16.8934C17.4645 13.0912 18.0382 13.2364 18.5121 13.5605C18.669 13.7388 18.7762 13.9552 18.8231 14.188C18.8699 14.4209 18.8547 14.6619 18.779 14.887L18.1954 17.8918H16.7788L17.3344 15.0349C17.3731 14.9258 17.3869 14.8095 17.3748 14.6944C17.3627 14.5794 17.3249 14.4685 17.2644 14.3699C17.0618 14.2247 16.8115 14.1622 16.5644 14.1949H15.4488L14.7295 17.8944H13.3295L14.5886 11.4342ZM21.8861 14.1695C22.0749 14.1457 22.2666 14.1596 22.4499 14.2104C22.6333 14.2612 22.8048 14.3478 22.9545 14.4653C23.0511 14.614 23.1127 14.7826 23.1347 14.9586C23.1567 15.1346 23.1384 15.3132 23.0814 15.4811C23.0314 15.8945 22.8315 16.2753 22.5196 16.5512C22.1428 16.7941 21.6971 16.9077 21.25 16.875H20.3943L20.9193 14.1721L21.8861 14.1695ZM18.4588 19.6085H19.8658L20.1991 17.8918H21.404C21.8475 17.9039 22.2902 17.8475 22.7165 17.7246C23.0664 17.6091 23.3862 17.4172 23.6528 17.1629C24.1142 16.7478 24.425 16.1914 24.5365 15.5809C24.6248 15.2773 24.6403 14.9571 24.5818 14.6464C24.5233 14.3356 24.3923 14.0431 24.1996 13.7924C23.9673 13.5625 23.6876 13.3862 23.38 13.2755C23.0725 13.1649 22.7445 13.1227 22.419 13.1519H19.7135L18.4588 19.6085Z" fill="#1D2021"/>
</svg>
