<svg viewBox="0 0 32 32" fill="none" xmlns="http://www.w3.org/2000/svg">
<path d="M15.7681 13.3496C16.1057 13.4456 16.4172 13.6164 16.6796 13.8494C16.942 14.0824 17.1485 14.3715 17.2836 14.6954L18.2181 14.9579C18.1761 14.4462 17.986 13.9579 17.671 13.5525C17.3561 13.1471 16.9299 12.8422 16.4445 12.675C15.9581 12.5569 15.4471 12.5918 14.9812 12.7749C14.5154 12.9579 14.1173 13.2803 13.8414 13.6979C14.1131 13.4941 14.4285 13.3564 14.7626 13.2956C15.0967 13.2349 15.4404 13.2528 15.7664 13.3479L15.7681 13.3496ZM23.2056 14.7041C22.7195 14.5856 22.2087 14.62 21.7429 14.8028C21.2771 14.9856 20.8792 15.3077 20.6034 15.7252C20.8752 15.5218 21.1908 15.3847 21.525 15.3247C21.8592 15.2647 22.2028 15.2835 22.5284 15.3796C22.8669 15.475 23.1796 15.6455 23.4431 15.8785C23.7065 16.1115 23.914 16.401 24.05 16.7254L24.9863 16.9879C24.9445 16.4754 24.7545 15.9861 24.4394 15.5798C24.1243 15.1735 23.6977 14.8677 23.2118 14.6997L23.2056 14.7041ZM22.279 19.5L14.5046 17.3265C14.5898 17.6716 14.727 18.0018 14.9115 18.3056L21.4574 20.1352C21.7614 19.9657 22.0384 19.7515 22.279 19.5ZM16.889 24.1777C10.7334 22.5275 11.4771 14.684 12.4738 10.9652C12.7734 9.7905 13.1685 8.64219 13.655 7.53174C13.4468 7.48886 13.2735 7.59911 13.1029 7.94561C12.5534 9.13576 12.1172 10.375 11.8 11.6469C10.8043 15.363 10.0596 23.2065 16.2153 24.8594C19.1168 25.6364 21.3778 24.4551 23.0621 22.6001C22.2656 23.3863 21.2748 23.9471 20.1908 24.2254C19.1068 24.5036 17.9683 24.4893 16.8916 24.1839L16.889 24.1777Z" fill="#1D2021"/>
<path d="M13.4879 20.032V18.45L9.0875 19.696C9.2486 19.0733 9.57816 18.5071 10.04 18.0594C10.5018 17.6118 11.0781 17.3001 11.7055 17.1585C12.2821 16.9844 12.8917 16.9496 13.4844 17.057V10.5645H15.6859C15.5035 9.98068 15.2807 9.41026 15.0191 8.85737C14.6971 8.20112 14.3664 8.636 13.6191 9.26337C12.4769 10.168 11.158 10.8238 9.74725 11.1884C8.34603 11.5828 6.87757 11.6785 5.437 11.4692C4.4745 11.3039 3.974 11.093 4.02125 11.8192C4.10976 12.8221 4.29256 13.8143 4.56725 14.7829C5.32763 17.6406 7.84238 23.147 12.5936 21.8704C13.6908 21.5997 14.6563 20.9486 15.3184 20.0329L13.4879 20.032ZM6.39163 14.824L9.76825 13.935C9.73037 14.3124 9.58011 14.6698 9.33692 14.9608C9.09372 15.2519 8.76878 15.4633 8.40413 15.5677C8.03271 15.6557 7.6436 15.6321 7.28557 15.4998C6.92755 15.3674 6.61657 15.1324 6.39163 14.824Z" fill="#FB4934"/>
<path d="M26.1964 10.6397C24.3304 10.9162 22.4272 10.797 20.6104 10.2897C18.7826 9.8212 17.074 8.973 15.5958 7.80036C14.6254 6.98748 14.1958 6.42311 13.7793 7.27536C13.2293 8.46377 12.7922 9.7012 12.4738 10.9714C11.478 14.6875 10.7343 22.531 16.889 24.1839C23.0438 25.8367 26.3198 18.6714 27.3155 14.9509C27.6739 13.6927 27.9138 12.4037 28.0321 11.1009C28.0951 10.1515 27.4433 10.4271 26.1946 10.6459L26.1964 10.6397ZM13.8291 13.7145C14.1051 13.2931 14.5043 12.9671 14.9723 12.7807C15.4403 12.5944 15.9544 12.5569 16.4445 12.6732C16.9305 12.8407 17.3572 13.1463 17.6722 13.5525C17.9872 13.9588 18.1769 14.4481 18.2181 14.9605L13.8291 13.7145ZM17.8454 20.4844C17.0574 20.3052 16.3318 19.918 15.7444 19.363C15.1569 18.8081 14.7291 18.1057 14.5055 17.3291L22.279 19.5C21.7068 20.0635 20.9874 20.4544 20.2033 20.628C19.4192 20.8016 18.602 20.7509 17.8454 20.4817V20.4844ZM20.5938 15.7419C20.87 15.3213 21.2691 14.996 21.7367 14.8102C22.2043 14.6243 22.7178 14.587 23.2074 14.7032C23.6933 14.8712 24.1199 15.177 24.435 15.5833C24.7501 15.9896 24.9401 16.4789 24.9819 16.9914L20.5938 15.7419Z" fill="#B8BB26"/>
<path d="M11.9514 18.8875L9.08748 19.696C9.23999 19.1085 9.54377 18.5712 9.96857 18.1377C10.3934 17.7041 10.9243 17.3895 11.5086 17.225L9.88811 11.1446L9.74811 11.1875C8.34689 11.582 6.87842 11.6777 5.43786 11.4684C4.47536 11.303 3.97486 11.0921 4.02211 11.8184C4.11062 12.8212 4.29342 13.8135 4.56811 14.782C5.32848 17.6397 7.84323 23.1461 12.5945 21.8695L12.7345 21.8257L11.9514 18.8875ZM6.39161 14.824L9.76823 13.935C9.73035 14.3124 9.58009 14.6698 9.3369 14.9608C9.0937 15.2519 8.76876 15.4633 8.40411 15.5677C8.03269 15.6557 7.64357 15.6321 7.28555 15.4998C6.92753 15.3674 6.61655 15.1324 6.39161 14.824Z" fill="#FB4934"/>
<path d="M17.9757 20.5167L17.8445 20.4852C17.0564 20.3061 16.3309 19.9189 15.7434 19.3639C15.156 18.8089 14.7282 18.1066 14.5046 17.33L18.513 18.45L20.6375 10.2941L20.6121 10.2871C18.7843 9.81855 17.0757 8.97036 15.5975 7.79774C14.6271 6.98486 14.1975 6.42049 13.781 7.27274C13.2312 8.46122 12.7941 9.69863 12.4755 10.9687C11.4797 14.6849 10.736 22.5284 16.8907 24.1812L17.0167 24.2092L17.9757 20.5167ZM13.8291 13.7154C14.1051 13.294 14.5043 12.9679 14.9723 12.7816C15.4403 12.5953 15.9544 12.5578 16.4445 12.6741C16.9305 12.8416 17.3571 13.1472 17.6721 13.5534C17.9872 13.9597 18.1769 14.4489 18.2181 14.9614L13.8291 13.7154Z" fill="#B8BB26"/>
</svg>
