<svg viewBox="0 0 32 32" fill="none" xmlns="http://www.w3.org/2000/svg">
<path d="M20.9997 9.49963H21.9999C22.1324 9.49963 22.2595 9.55227 22.3532 9.64597C22.4469 9.73967 22.4995 9.86675 22.4995 9.99926C22.4995 10.1318 22.4469 10.2588 22.3532 10.3525C22.2595 10.4462 22.1324 10.4989 21.9999 10.4989H20.9997C20.8672 10.4989 20.7402 10.4462 20.6465 10.3525C20.5528 10.2588 20.5001 10.1318 20.5001 9.99926C20.5001 9.86675 20.5528 9.73967 20.6465 9.64597C20.7402 9.55227 20.8672 9.49963 20.9997 9.49963Z" fill="#8EC07C"/>
<path d="M5.99963 25.4999H10.9994C11.1319 25.4999 11.259 25.5525 11.3527 25.6462C11.4464 25.7399 11.499 25.867 11.499 25.9995C11.499 26.0651 11.4861 26.1301 11.461 26.1907C11.4359 26.2513 11.3991 26.3064 11.3527 26.3528C11.3063 26.3992 11.2512 26.436 11.1906 26.4611C11.13 26.4862 11.065 26.4991 10.9994 26.4991H5.99963C5.86727 26.4991 5.74032 26.4466 5.64665 26.3531C5.55297 26.2596 5.50023 26.1327 5.5 26.0004C5.49989 25.9347 5.51272 25.8696 5.53778 25.8089C5.56284 25.7482 5.59962 25.693 5.64603 25.6465C5.69243 25.6 5.74755 25.5632 5.80823 25.538C5.8689 25.5128 5.93394 25.4999 5.99963 25.4999Z" fill="#FB4934"/>
<path d="M18.0002 17.4998H21.0006C21.1331 17.4998 21.2602 17.5524 21.3539 17.6461C21.4476 17.7398 21.5002 17.8669 21.5002 17.9994C21.5002 18.1319 21.4476 18.259 21.3539 18.3527C21.2602 18.4464 21.1331 18.499 21.0006 18.499H18.0002C17.8677 18.499 17.7406 18.4464 17.6469 18.3527C17.5532 18.259 17.5006 18.1319 17.5006 17.9994C17.5006 17.8669 17.5532 17.7398 17.6469 17.6461C17.7406 17.5524 17.8677 17.4998 18.0002 17.4998Z" fill="#D3869B"/>
<path d="M12.0004 17.4998H16C16.1325 17.4998 16.2596 17.5524 16.3533 17.6461C16.447 17.7398 16.4996 17.8669 16.4996 17.9994C16.4996 18.1319 16.447 18.259 16.3533 18.3527C16.2596 18.4464 16.1325 18.499 16 18.499H12.0004C11.8678 18.499 11.7408 18.4464 11.6471 18.3527C11.5534 18.259 11.5007 18.1319 11.5007 17.9994C11.5007 17.8669 11.5534 17.7398 11.6471 17.6461C11.7408 17.5524 11.8678 17.4998 12.0004 17.4998Z" fill="#FB4934"/>
<path d="M5.99963 17.4998H10.0001C10.1326 17.4998 10.2597 17.5524 10.3534 17.6461C10.4471 17.7398 10.4998 17.8669 10.4998 17.9994C10.4998 18.1319 10.4471 18.259 10.3534 18.3527C10.2597 18.4464 10.1326 18.499 10.0001 18.499H5.99963C5.86727 18.499 5.74032 18.4465 5.64665 18.353C5.55297 18.2595 5.50023 18.1326 5.5 18.0003C5.49989 17.9346 5.51272 17.8695 5.53778 17.8088C5.56284 17.7481 5.59962 17.6929 5.64603 17.6464C5.69243 17.5999 5.74755 17.563 5.80823 17.5379C5.8689 17.5127 5.93394 17.4998 5.99963 17.4998Z" fill="#8EC07C"/>
<path d="M5.99963 21.5002H10.9994C11.1319 21.5002 11.259 21.5529 11.3527 21.6466C11.4464 21.7403 11.499 21.8674 11.499 21.9999C11.499 22.1324 11.4464 22.2595 11.3527 22.3532C11.259 22.4469 11.1319 22.4995 10.9994 22.4995H5.99963C5.86712 22.4995 5.74003 22.4469 5.64634 22.3532C5.55264 22.2595 5.5 22.1324 5.5 21.9999C5.5 21.8674 5.55264 21.7403 5.64634 21.6466C5.74003 21.5529 5.86712 21.5002 5.99963 21.5002ZM5.99963 13.5001H10.9994C11.1319 13.5001 11.259 13.5528 11.3527 13.6465C11.4464 13.7402 11.499 13.8672 11.499 13.9997C11.499 14.1323 11.4464 14.2593 11.3527 14.353C11.259 14.4467 11.1319 14.4994 10.9994 14.4994H5.99963C5.86712 14.4994 5.74003 14.4467 5.64634 14.353C5.55264 14.2593 5.5 14.1323 5.5 13.9997C5.5 13.8672 5.55264 13.7402 5.64634 13.6465C5.74003 13.5528 5.86712 13.5001 5.99963 13.5001Z" fill="#D3869B"/>
<path d="M11.0002 7.50024H20.9997C21.1322 7.50024 21.2593 7.55288 21.353 7.64658C21.4467 7.74028 21.4994 7.86736 21.4994 7.99987C21.4994 8.13238 21.4467 8.25946 21.353 8.35316C21.2593 8.44686 21.1322 8.49949 20.9997 8.49949H11.0002C10.8677 8.49949 10.7406 8.44686 10.6469 8.35316C10.5532 8.25946 10.5006 8.13238 10.5006 7.99987C10.5006 7.86736 10.5532 7.74028 10.6469 7.64658C10.7406 7.55288 10.8677 7.50024 11.0002 7.50024Z" fill="#FABD2F"/>
<path d="M5.99963 7.50024H9C9.13251 7.50024 9.25959 7.55288 9.35329 7.64658C9.44699 7.74028 9.49963 7.86736 9.49963 7.99987C9.49974 8.06555 9.4869 8.13062 9.46185 8.19134C9.43679 8.25205 9.4 8.30724 9.3536 8.35372C9.30719 8.40021 9.25208 8.43709 9.1914 8.46225C9.13073 8.48742 9.06569 8.50037 9 8.50037H5.99963C5.93394 8.50037 5.8689 8.48742 5.80823 8.46225C5.74755 8.43709 5.69243 8.40021 5.64603 8.35372C5.59962 8.30724 5.56284 8.25205 5.53778 8.19134C5.51272 8.13062 5.49989 8.06555 5.5 7.99987C5.5 7.86736 5.55264 7.74028 5.64634 7.64658C5.74004 7.55288 5.86712 7.50024 5.99963 7.50024Z" fill="#FB4934"/>
<path d="M10.0001 23.4996H11.0002C11.1327 23.4996 11.2598 23.5523 11.3535 23.646C11.4472 23.7397 11.4999 23.8668 11.4999 23.9993C11.4999 24.1318 11.4472 24.2588 11.3535 24.3525C11.2598 24.4462 11.1327 24.4989 11.0002 24.4989H10.0001C9.8676 24.4989 9.74052 24.4462 9.64683 24.3525C9.55313 24.2588 9.50049 24.1318 9.50049 23.9993C9.50049 23.8668 9.55313 23.7397 9.64683 23.646C9.74052 23.5523 9.8676 23.4996 10.0001 23.4996Z" fill="#FABD2F"/>
<path d="M10.0001 11.4999H11.0003C11.1328 11.4999 11.2598 11.5525 11.3535 11.6462C11.4472 11.7399 11.4999 11.867 11.4999 11.9995C11.4999 12.132 11.4472 12.2591 11.3535 12.3528C11.2598 12.4465 11.1328 12.4991 11.0003 12.4991H10.0001C9.86762 12.4991 9.74054 12.4465 9.64684 12.3528C9.55314 12.2591 9.5005 12.132 9.5005 11.9995C9.5005 11.867 9.55314 11.7399 9.64684 11.6462C9.74054 11.5525 9.86762 11.4999 10.0001 11.4999ZM5.99963 23.4996H7.99988C8.13238 23.4996 8.25947 23.5523 8.35316 23.646C8.44686 23.7397 8.4995 23.8667 8.4995 23.9993C8.4995 24.1318 8.44686 24.2588 8.35316 24.3525C8.25947 24.4462 8.13238 24.4989 7.99988 24.4989H5.99963C5.86727 24.4989 5.74032 24.4464 5.64665 24.3529C5.55297 24.2593 5.50023 24.1325 5.5 24.0001C5.49989 23.9344 5.51272 23.8694 5.53778 23.8087C5.56284 23.7479 5.59962 23.6928 5.64603 23.6463C5.69243 23.5998 5.74755 23.5629 5.80823 23.5377C5.8689 23.5126 5.93394 23.4996 5.99963 23.4996Z" fill="#8EC07C"/>
<path d="M5.99963 11.4999H7.99988C8.13238 11.4999 8.25947 11.5525 8.35316 11.6462C8.44686 11.7399 8.4995 11.867 8.4995 11.9995C8.49962 12.0652 8.48678 12.1303 8.46172 12.191C8.43666 12.2517 8.39988 12.3069 8.35347 12.3534C8.30707 12.3998 8.25195 12.4367 8.19128 12.4619C8.1306 12.4871 8.06556 12.5 7.99988 12.5H5.99963C5.86712 12.5 5.74004 12.4474 5.64634 12.3537C5.55264 12.26 5.5 12.1329 5.5 12.0004C5.49989 11.9347 5.51272 11.8696 5.53778 11.8089C5.56284 11.7482 5.59962 11.693 5.64603 11.6465C5.69243 11.6 5.74755 11.5632 5.80823 11.538C5.8689 11.5128 5.93394 11.4999 5.99963 11.4999Z" fill="#FABD2F"/>
<path d="M13.9997 15.5004H21.9999C22.1324 15.5004 22.2595 15.553 22.3532 15.6467C22.4469 15.7404 22.4995 15.8675 22.4995 16C22.4995 16.1325 22.4469 16.2596 22.3532 16.3533C22.2595 16.447 22.1324 16.4996 21.9999 16.4996H13.9997C13.8672 16.4996 13.7402 16.447 13.6465 16.3533C13.5528 16.2596 13.5001 16.1325 13.5001 16C13.5001 15.8675 13.5528 15.7404 13.6465 15.6467C13.7402 15.553 13.8672 15.5004 13.9997 15.5004Z" fill="#8EC07C"/>
<path d="M8.99999 15.5004H12.0004C12.1329 15.5004 12.26 15.553 12.3537 15.6467C12.4474 15.7404 12.5 15.8675 12.5 16C12.5 16.1325 12.4474 16.2596 12.3537 16.3533C12.26 16.447 12.1329 16.4996 12.0004 16.4996H8.99999C8.86748 16.4996 8.7404 16.447 8.6467 16.3533C8.55301 16.2596 8.50037 16.1325 8.50037 16C8.50037 15.8675 8.55301 15.7404 8.6467 15.6467C8.7404 15.553 8.86748 15.5004 8.99999 15.5004Z" fill="#FABD2F"/>
<path d="M5.99963 15.5004H6.99975C7.06544 15.5003 7.1305 15.5131 7.19122 15.5381C7.25194 15.5632 7.30712 15.6 7.3536 15.6464C7.40009 15.6928 7.43697 15.7479 7.46213 15.8086C7.4873 15.8693 7.50025 15.9343 7.50025 16C7.50025 16.1325 7.44761 16.2596 7.35391 16.3533C7.26022 16.447 7.13313 16.4996 7.00063 16.4996H5.99963C5.86712 16.4996 5.74003 16.447 5.64634 16.3533C5.55264 16.2596 5.5 16.1325 5.5 16C5.5 15.8675 5.55264 15.7404 5.64634 15.6467C5.74003 15.553 5.86712 15.5004 5.99963 15.5004Z" fill="#FB4934"/>
<path d="M14.9999 9.49963H18.9995C19.0653 9.49952 19.1304 9.51239 19.1912 9.5375C19.2519 9.56261 19.3072 9.59947 19.3537 9.64597C19.4002 9.69247 19.437 9.74769 19.4621 9.80847C19.4872 9.86924 19.5001 9.93438 19.5 10.0001C19.5 10.1326 19.4474 10.2597 19.3537 10.3534C19.26 10.4471 19.1329 10.4998 19.0004 10.4998H14.9999C14.8674 10.4998 14.7403 10.4471 14.6466 10.3534C14.5529 10.2597 14.5002 10.1326 14.5002 10.0001C14.5001 9.93445 14.513 9.86939 14.538 9.80867C14.5631 9.74795 14.5999 9.69277 14.6463 9.64628C14.6927 9.59979 14.7478 9.56291 14.8085 9.53775C14.8691 9.51259 14.9342 9.49963 14.9999 9.49963Z" fill="#D3869B"/>
<path d="M5.99963 9.49963H12.9996C13.1321 9.49963 13.2592 9.55227 13.3529 9.64597C13.4466 9.73967 13.4993 9.86675 13.4993 9.99926C13.4993 10.1318 13.4466 10.2588 13.3529 10.3525C13.2592 10.4462 13.1321 10.4989 12.9996 10.4989H5.99963C5.86727 10.4989 5.74032 10.4464 5.64665 10.3529C5.55297 10.2593 5.50023 10.1325 5.5 10.0001C5.49989 9.93445 5.51272 9.86939 5.53778 9.80867C5.56284 9.74795 5.59962 9.69277 5.64603 9.64628C5.69243 9.59979 5.74755 9.56291 5.80823 9.53775C5.8689 9.51259 5.93394 9.49963 5.99963 9.49963Z" fill="#8EC07C"/>
<path d="M8.99999 19.5H18.0002C18.0659 19.5 18.1308 19.5129 18.1914 19.538C18.2521 19.5631 18.3071 19.5999 18.3535 19.6463C18.3999 19.6927 18.4367 19.7478 18.4618 19.8084C18.4869 19.869 18.4999 19.934 18.4999 19.9996C18.4999 20.1321 18.4472 20.2592 18.3535 20.3529C18.2598 20.4466 18.1327 20.4993 18.0002 20.4993H8.99999C8.86748 20.4993 8.7404 20.4466 8.6467 20.3529C8.55301 20.2592 8.50037 20.1321 8.50037 19.9996C8.50037 19.934 8.51329 19.869 8.5384 19.8084C8.56351 19.7478 8.60031 19.6927 8.6467 19.6463C8.6931 19.5999 8.74818 19.5631 8.80879 19.538C8.86941 19.5129 8.93438 19.5 8.99999 19.5Z" fill="#FABD2F"/>
<path d="M5.99963 19.5H6.99975C7.06536 19.5 7.13033 19.5129 7.19095 19.538C7.25157 19.5631 7.30664 19.5999 7.35304 19.6463C7.39943 19.6927 7.43623 19.7478 7.46134 19.8084C7.48645 19.869 7.49937 19.934 7.49937 19.9996C7.49937 20.1321 7.44674 20.2592 7.35304 20.3529C7.25934 20.4466 7.13226 20.4993 6.99975 20.4993H5.99963C5.86712 20.4993 5.74003 20.4466 5.64634 20.3529C5.55264 20.2592 5.5 20.1321 5.5 19.9996C5.5 19.934 5.51292 19.869 5.53803 19.8084C5.56314 19.7478 5.59994 19.6927 5.64634 19.6463C5.69273 19.5999 5.74781 19.5631 5.80843 19.538C5.86904 19.5129 5.93401 19.5 5.99963 19.5Z" fill="#D3869B"/>
<path d="M18.0002 11.4999H23C23.1325 11.4999 23.2596 11.5525 23.3533 11.6462C23.447 11.7399 23.4996 11.867 23.4996 11.9995C23.4997 12.0652 23.4869 12.1303 23.4618 12.191C23.4368 12.2517 23.4 12.3069 23.3536 12.3534C23.3072 12.3998 23.2521 12.4367 23.1914 12.4619C23.1307 12.4871 23.0657 12.5 23 12.5H18.0002C17.8677 12.5 17.7406 12.4474 17.6469 12.3537C17.5533 12.26 17.5006 12.1329 17.5006 12.0004C17.5005 11.9347 17.5133 11.8696 17.5384 11.8089C17.5634 11.7482 17.6002 11.693 17.6466 11.6465C17.693 11.6 17.7482 11.5632 17.8088 11.538C17.8695 11.5128 17.9345 11.4999 18.0002 11.4999Z" fill="#FB4934"/>
<path d="M18.0002 13.5001H23C23.1325 13.5001 23.2596 13.5528 23.3533 13.6465C23.447 13.7402 23.4996 13.8672 23.4996 13.9997C23.4996 14.1323 23.447 14.2593 23.3533 14.353C23.2596 14.4467 23.1325 14.4994 23 14.4994H18.0002C17.8677 14.4994 17.7406 14.4467 17.6469 14.353C17.5532 14.2593 17.5006 14.1323 17.5006 13.9997C17.5006 13.8672 17.5532 13.7402 17.6469 13.6465C17.7406 13.5528 17.8677 13.5001 18.0002 13.5001Z" fill="#FABD2F"/>
<path d="M5.99963 5.5H18.0002C18.1328 5.5 18.2598 5.55264 18.3535 5.64634C18.4472 5.74003 18.4999 5.86712 18.4999 5.99963C18.4999 6.13213 18.4472 6.25922 18.3535 6.35291C18.2598 6.44661 18.1328 6.49925 18.0002 6.49925H5.99963C5.86712 6.49925 5.74003 6.44661 5.64634 6.35291C5.55264 6.25922 5.5 6.13213 5.5 5.99963C5.5 5.86712 5.55264 5.74003 5.64634 5.64634C5.74003 5.55264 5.86712 5.5 5.99963 5.5Z" fill="#8EC07C"/>
</svg>
