<svg viewBox="0 0 32 32" fill="none" xmlns="http://www.w3.org/2000/svg">
<path d="M15.2335 6.6375C15.2335 6.49352 15.2762 6.35277 15.3562 6.23305C15.4362 6.11333 15.5499 6.02002 15.6829 5.96492C15.8159 5.90982 15.9623 5.8954 16.1035 5.92349C16.2447 5.95158 16.3744 6.02092 16.4762 6.12273C16.5781 6.22454 16.6474 6.35426 16.6755 6.49548C16.7036 6.6367 16.6892 6.78307 16.6341 6.9161C16.579 7.04912 16.4856 7.16282 16.3659 7.24281C16.2462 7.32281 16.1055 7.3655 15.9615 7.3655C15.8658 7.36562 15.7711 7.34687 15.6827 7.31032C15.5944 7.27378 15.5141 7.22016 15.4464 7.15254C15.3788 7.08491 15.3252 7.00461 15.2887 6.91623C15.2521 6.82786 15.2334 6.73314 15.2335 6.6375ZM6.54997 13.2298C6.54997 13.0858 6.59267 12.945 6.67266 12.8253C6.75266 12.7056 6.86636 12.6123 6.99938 12.5572C7.13241 12.5021 7.27878 12.4877 7.42 12.5157C7.56122 12.5438 7.69094 12.6132 7.79275 12.715C7.89456 12.8168 7.9639 12.9465 7.99199 13.0877C8.02008 13.2289 8.00566 13.3753 7.95056 13.5083C7.89546 13.6414 7.80215 13.7551 7.68243 13.8351C7.56271 13.9151 7.42196 13.9578 7.27797 13.9578C7.18237 13.9578 7.08771 13.9389 6.99938 13.9023C6.91106 13.8658 6.8308 13.8121 6.7632 13.7445C6.6956 13.6769 6.64198 13.5967 6.60539 13.5083C6.5688 13.42 6.54997 13.3254 6.54997 13.2298ZM23.924 13.2639C23.924 13.1199 23.9667 12.9791 24.0467 12.8594C24.1267 12.7397 24.2404 12.6464 24.3734 12.5913C24.5064 12.5362 24.6528 12.5218 24.794 12.5499C24.9352 12.578 25.0649 12.6473 25.1667 12.7491C25.2686 12.8509 25.3379 12.9806 25.366 13.1219C25.3941 13.2631 25.3797 13.4094 25.3246 13.5425C25.2695 13.6755 25.1761 13.7892 25.0564 13.8692C24.9367 13.9492 24.796 13.9919 24.652 13.9919C24.5563 13.992 24.4616 13.9732 24.3732 13.9367C24.2849 13.9002 24.2046 13.8465 24.1369 13.7789C24.0693 13.7113 24.0157 13.631 23.9792 13.5426C23.9426 13.4542 23.9239 13.3595 23.924 13.2639ZM8.65435 14.2614C8.81485 14.1898 8.94047 14.0575 9.00376 13.8936C9.06704 13.7296 9.06285 13.5473 8.9921 13.3864L8.66922 12.6558H9.93972V18.3826H7.37597C7.05953 17.2713 6.96089 16.1093 7.08547 14.9605L8.65435 14.2614ZM13.9691 14.4023V12.7144H16.9948C17.1515 12.7144 18.0982 12.8946 18.0982 13.6034C18.0982 14.1914 17.372 14.4023 16.7743 14.4023H13.9691ZM9.83822 23.4909C9.83822 23.3469 9.88092 23.2061 9.96091 23.0864C10.0409 22.9667 10.1546 22.8734 10.2876 22.8183C10.4207 22.7632 10.567 22.7488 10.7083 22.7769C10.8495 22.805 10.9792 22.8743 11.081 22.9761C11.1828 23.0779 11.2521 23.2076 11.2802 23.3489C11.3083 23.4901 11.2939 23.6364 11.2388 23.7695C11.1837 23.9025 11.0904 24.0162 10.9707 24.0962C10.851 24.1762 10.7102 24.2189 10.5662 24.2189C10.4706 24.219 10.3759 24.2002 10.2875 24.1637C10.1991 24.1272 10.1188 24.0735 10.0512 24.0059C9.98357 23.9383 9.92995 23.858 9.89341 23.7696C9.85686 23.6812 9.83811 23.5865 9.83822 23.4909ZM20.6278 23.525C20.6278 23.381 20.6705 23.2403 20.7505 23.1205C20.8305 23.0008 20.9442 22.9075 21.0773 22.8524C21.2103 22.7973 21.3567 22.7829 21.4979 22.811C21.6391 22.8391 21.7688 22.9084 21.8706 23.0102C21.9724 23.112 22.0418 23.2418 22.0699 23.383C22.098 23.5242 22.0835 23.6706 22.0284 23.8036C21.9733 23.9366 21.88 24.0503 21.7603 24.1303C21.6406 24.2103 21.4998 24.253 21.3559 24.253C21.1628 24.253 20.9776 24.1763 20.8411 24.0398C20.7045 23.9032 20.6278 23.7181 20.6278 23.525ZM20.8527 21.8739C20.7675 21.8556 20.6794 21.8544 20.5937 21.8702C20.5079 21.8861 20.4262 21.9186 20.353 21.9661C20.2799 22.0135 20.2168 22.075 20.1674 22.1468C20.118 22.2187 20.0833 22.2996 20.0652 22.3849L19.6995 24.0903C18.524 24.6225 17.2475 24.8949 15.9571 24.8887C14.6668 24.8825 13.3929 24.5979 12.2226 24.0544L11.8577 22.349C11.8208 22.177 11.7171 22.0267 11.5695 21.9311C11.4218 21.8354 11.2423 21.8023 11.0702 21.8389L9.56435 22.1626C9.28447 21.8745 9.0243 21.5678 8.7856 21.2448H16.1128C16.196 21.2448 16.2511 21.2299 16.2511 21.1573V18.562C16.2511 18.4868 16.196 18.4745 16.1128 18.4745H13.9691V16.8286H16.287C16.6325 16.8321 16.9655 16.9582 17.2266 17.1846C17.4877 17.4109 17.6599 17.7226 17.7123 18.0641C17.8042 18.4255 18.0063 19.6015 18.1446 19.9778C18.282 20.4004 18.8446 21.2439 19.4413 21.2439H23.224C22.9703 21.584 22.6928 21.9056 22.3936 22.2064L20.8527 21.8739ZM24.9215 15.0305C24.9729 15.5478 24.9794 16.0687 24.9407 16.5871H24.0211C23.9292 16.5871 23.8916 16.6475 23.8916 16.7376V17.1603C23.8916 18.1543 23.3307 18.3713 22.8416 18.4264C22.3735 18.4789 21.8546 18.2304 21.7916 17.9443C21.7579 17.4487 21.6079 16.968 21.3539 16.5412C21.0999 16.1143 20.7489 15.7533 20.3295 15.4873C21.2307 14.915 22.167 14.0706 22.167 12.9401C22.1484 12.4598 22.0099 11.9918 21.7642 11.5787C21.5184 11.1656 21.1732 10.8205 20.76 10.575C20.1835 10.2017 19.5205 9.98344 18.835 9.9415H9.3211C10.6362 8.47156 12.3994 7.47633 14.3375 7.11L15.4592 8.286C15.5193 8.34911 15.5912 8.39976 15.6709 8.43506C15.7506 8.47036 15.8364 8.48962 15.9235 8.49173C16.0106 8.49385 16.0973 8.47877 16.1786 8.44738C16.2599 8.41598 16.3342 8.36888 16.3972 8.30875L17.652 7.10825C18.9313 7.34828 20.1431 7.86396 21.2031 8.61947C22.263 9.37498 23.1458 10.3522 23.7901 11.4833L22.9308 13.4231C22.8603 13.584 22.8563 13.7663 22.9195 13.9302C22.9828 14.0941 23.1083 14.2263 23.2686 14.2981L24.9215 15.0305ZM27.0635 15.062L27.0346 14.7619L27.9192 13.9368C27.9527 13.9019 27.9791 13.8607 27.9966 13.8156C28.0142 13.7706 28.0227 13.7225 28.0217 13.6741C28.0206 13.6257 28.01 13.578 27.9905 13.5338C27.9709 13.4895 27.9429 13.4495 27.9078 13.4161C27.8769 13.3866 27.8411 13.3627 27.802 13.3453L26.675 12.9226L26.5875 12.6304L27.2927 11.6504C27.3448 11.5678 27.3621 11.468 27.3408 11.3727C27.3195 11.2774 27.2613 11.1945 27.179 11.142C27.1432 11.1195 27.1038 11.1033 27.0626 11.0939L25.87 10.8996L25.7265 10.6319L26.2278 9.532C26.2456 9.48719 26.2543 9.43933 26.2535 9.39114C26.2527 9.34296 26.2425 9.2954 26.2233 9.25119C26.2041 9.20698 26.1764 9.16699 26.1417 9.1335C26.1071 9.1 26.0662 9.07367 26.0213 9.056C25.9806 9.04011 25.9373 9.03153 25.8936 9.03063L24.6835 9.07263L24.4875 8.84163L24.7657 7.663C24.774 7.61532 24.7728 7.56646 24.7622 7.51923C24.7516 7.472 24.7318 7.42732 24.704 7.38774C24.6761 7.34817 24.6407 7.31447 24.5998 7.28859C24.5589 7.2627 24.5133 7.24513 24.4656 7.23688C24.4239 7.22988 24.3813 7.22988 24.3396 7.23688L23.1601 7.5125L22.9273 7.32088L22.9702 6.1125C22.9691 6.06412 22.9584 6.01644 22.9389 5.97218C22.9193 5.92792 22.8912 5.88795 22.8562 5.85456C22.8211 5.82116 22.7799 5.79499 22.7348 5.77754C22.6896 5.7601 22.6415 5.75172 22.5931 5.75288C22.5509 5.754 22.5092 5.76228 22.4697 5.77738L21.3698 6.27875L21.1021 6.13525L20.9078 4.94263C20.8863 4.84795 20.8283 4.76561 20.7463 4.7135C20.6644 4.6614 20.5652 4.64374 20.4703 4.66438C20.4291 4.67377 20.3898 4.69004 20.354 4.7125L19.3731 5.41775L19.0817 5.33025L18.6591 4.19888C18.6196 4.10956 18.5463 4.03956 18.4552 4.00429C18.3642 3.96901 18.2628 3.97134 18.1735 4.01075C18.1349 4.02818 18.0994 4.05183 18.0685 4.08075L17.2407 4.96625L16.9406 4.93738L16.3036 3.9075C16.2696 3.8593 16.2245 3.81996 16.1721 3.79282C16.1197 3.76567 16.0616 3.7515 16.0026 3.7515C15.9436 3.7515 15.8855 3.76567 15.8331 3.79282C15.7807 3.81996 15.7356 3.8593 15.7016 3.9075L15.0646 4.93738L14.7645 4.96625L13.9394 4.08075C13.8686 4.01349 13.7739 3.97708 13.6763 3.97954C13.5787 3.982 13.486 4.02313 13.4187 4.09388C13.3898 4.12481 13.3662 4.16028 13.3487 4.19888L12.9226 5.325L12.6312 5.4125L11.6512 4.7125C11.5687 4.66041 11.4688 4.64313 11.3736 4.66445C11.2783 4.68577 11.1953 4.74394 11.1428 4.82625C11.1204 4.86207 11.1041 4.90141 11.0947 4.94263L10.9005 6.13525L10.6327 6.27875L9.53197 5.77738C9.44111 5.74219 9.34 5.74444 9.25079 5.78364C9.16157 5.82283 9.09153 5.89578 9.05597 5.9865C9.04088 6.02686 9.0326 6.06944 9.03147 6.1125L9.07347 7.32263L8.84072 7.5125L7.6621 7.236C7.61441 7.22771 7.56555 7.22889 7.51832 7.23949C7.47109 7.25008 7.42641 7.26988 7.38684 7.29775C7.34726 7.32563 7.31357 7.36103 7.28768 7.40193C7.2618 7.44283 7.24423 7.48843 7.23597 7.53613C7.22897 7.57784 7.22897 7.62042 7.23597 7.66213L7.51247 8.84163L7.32172 9.0735L6.11247 9.0315C6.05341 9.03305 5.99558 9.04874 5.94383 9.07726C5.89209 9.10579 5.84795 9.14631 5.81512 9.19544C5.78228 9.24456 5.76172 9.30084 5.75514 9.35956C5.74857 9.41828 5.75619 9.47772 5.77735 9.53288L6.27872 10.6328L6.13522 10.9005L4.9426 11.0948C4.8478 11.1161 4.76531 11.1741 4.71317 11.2561C4.66103 11.3381 4.64347 11.4374 4.66435 11.5323C4.67374 11.5735 4.69001 11.6128 4.71247 11.6486L5.41772 12.6286L5.33022 12.9209L4.19885 13.3435C4.10953 13.383 4.03953 13.4563 4.00426 13.5474C3.96898 13.6384 3.97131 13.7398 4.01072 13.8291C4.02791 13.8683 4.0519 13.9042 4.0816 13.935L4.96622 14.7601L4.93735 15.0603L3.90747 15.6973C3.85927 15.7313 3.81993 15.7764 3.79278 15.8287C3.76564 15.8811 3.75146 15.9393 3.75146 15.9983C3.75146 16.0573 3.76564 16.1154 3.79278 16.1678C3.81993 16.2201 3.85927 16.2652 3.90747 16.2993L4.93735 16.9363L4.96622 17.2364L4.0816 18.0615C4.01433 18.1323 3.97793 18.2269 3.98039 18.3245C3.98285 18.4222 4.02397 18.5148 4.09472 18.5821C4.12533 18.611 4.16052 18.6347 4.19885 18.6521L5.33022 19.0748L5.41772 19.367L4.71247 20.3505C4.6866 20.3914 4.66905 20.437 4.66081 20.4847C4.65257 20.5324 4.6538 20.5812 4.66445 20.6284C4.67509 20.6757 4.69494 20.7203 4.72285 20.7598C4.75075 20.7994 4.78618 20.833 4.8271 20.8589C4.86291 20.8813 4.90225 20.8976 4.94347 20.907L6.1361 21.1013L6.2796 21.3699L5.77822 22.4698C5.74305 22.5609 5.74541 22.6622 5.78476 22.7516C5.82412 22.8409 5.89728 22.9111 5.98822 22.9466C6.02827 22.9617 6.07057 22.97 6.11335 22.9711L7.32347 22.9291L7.5151 23.1619L7.23772 24.3414C7.22095 24.4373 7.24295 24.536 7.2989 24.6158C7.35485 24.6955 7.44016 24.7498 7.5361 24.7666C7.57832 24.7745 7.62163 24.7745 7.66385 24.7666L8.84072 24.4875L9.07347 24.6783L9.0306 25.8875C9.03162 25.9357 9.04215 25.9833 9.06158 26.0274C9.08101 26.0716 9.10896 26.1115 9.14383 26.1448C9.17871 26.1781 9.21981 26.2042 9.26479 26.2216C9.30978 26.239 9.35775 26.2474 9.40597 26.2463C9.4488 26.2456 9.49117 26.2373 9.5311 26.2218L10.631 25.7204L10.8987 25.8639L11.093 27.0556C11.1143 27.1505 11.1723 27.233 11.2542 27.2853C11.3362 27.3376 11.4355 27.3554 11.5305 27.3348C11.5718 27.3258 11.6112 27.3095 11.6468 27.2866L12.6269 26.5805L12.9191 26.668L13.3417 27.7985C13.3815 27.8877 13.4551 27.9575 13.5463 27.9926C13.6375 28.0277 13.7389 28.0253 13.8282 27.9858C13.8666 27.9683 13.9017 27.9447 13.9323 27.9158L14.7575 27.0311L15.0576 27.0609L15.6946 28.0908C15.7513 28.1705 15.8373 28.2246 15.9337 28.241C16.0302 28.2574 16.1293 28.2348 16.2091 28.1783C16.2431 28.1543 16.2727 28.1247 16.2966 28.0908L16.9336 27.0609L17.2337 27.0311L18.0589 27.9158C18.1296 27.983 18.2243 28.0194 18.3219 28.017C18.4195 28.0145 18.5122 27.9734 18.5795 27.9026C18.6084 27.872 18.632 27.8368 18.6495 27.7985L19.0721 26.668L19.3643 26.5805L20.3443 27.2866C20.3853 27.3125 20.4308 27.3301 20.4785 27.3383C20.5262 27.3465 20.5751 27.3453 20.6223 27.3347C20.6695 27.324 20.7141 27.3042 20.7537 27.2763C20.7932 27.2484 20.8269 27.2129 20.8527 27.172C20.8752 27.1362 20.8915 27.0968 20.9008 27.0556L21.0951 25.8639L21.3629 25.7204L22.4627 26.2218C22.5536 26.2569 22.6547 26.2547 22.7439 26.2155C22.8331 26.1763 22.9032 26.1034 22.9387 26.0126C22.9538 25.9726 22.9621 25.9303 22.9632 25.8875L22.9212 24.6765L23.1531 24.4858L24.3317 24.7631C24.4277 24.7799 24.5263 24.7581 24.6062 24.7023C24.686 24.6466 24.7406 24.5615 24.7579 24.4656C24.7649 24.4233 24.7649 24.3802 24.7579 24.3379L24.4875 23.1601L24.6782 22.9274L25.8883 22.9694C25.9859 22.9669 26.0785 22.9257 26.1457 22.855C26.213 22.7843 26.2495 22.6898 26.2471 22.5923C26.2466 22.5497 26.2383 22.5076 26.2226 22.468L25.7212 21.3681L25.8647 21.0995L27.0573 20.9053C27.1522 20.8839 27.2347 20.826 27.287 20.744C27.3393 20.662 27.3571 20.5628 27.3365 20.4678C27.3269 20.4259 27.3104 20.386 27.2875 20.3496L26.5822 19.3696L26.6697 19.0774L27.8011 18.6548C27.8453 18.6353 27.8852 18.6073 27.9186 18.5724C27.952 18.5375 27.9782 18.4964 27.9956 18.4514C28.0131 18.4063 28.0215 18.3583 28.0204 18.31C28.0193 18.2618 28.0087 18.2142 27.9892 18.17C27.972 18.1308 27.948 18.095 27.9184 18.0641L27.0337 17.239L27.0626 16.9389L28.0925 16.3019C28.1407 16.2679 28.18 16.2228 28.2072 16.1704C28.2343 16.118 28.2485 16.0599 28.2485 16.0009C28.2485 15.9419 28.2343 15.8837 28.2072 15.8314C28.18 15.779 28.1407 15.7339 28.0925 15.6999L27.0635 15.062Z" fill="#FBF1C7"/>
</svg>
