<svg viewBox="0 0 32 32" fill="none" xmlns="http://www.w3.org/2000/svg">
<path d="M8.46106 18.8271V20.7119C8.46106 21.0295 15.3149 21.5615 19.7809 22.5966C21.9378 22.097 23.5391 21.4793 23.5391 20.7119V18.8271C23.5391 18.0598 21.9378 17.4429 19.7809 16.9424C15.3184 17.9775 8.46106 18.5095 8.46106 18.8271ZM8.46106 11.2881V13.1729C8.46106 13.4905 15.3149 14.0225 19.7809 15.0576C21.9378 14.558 23.5391 13.9403 23.5391 13.1729V11.2881C23.5391 10.5208 21.9378 9.90388 19.7809 9.40338C15.3184 10.4385 8.46106 10.9705 8.46106 11.2881Z" fill="#1D2021"/>
<path d="M8.46106 15.0576V20.7119C8.46106 20.2411 23.5391 19.2987 23.5391 16.9424V11.2881C23.5391 13.6436 8.46106 14.586 8.46106 15.0576Z" fill="#FB4934"/>
<path d="M8.46106 7.5195V13.1737C8.46106 12.703 23.5391 11.7606 23.5391 9.40425V3.75C23.5391 6.1055 8.46106 7.04787 8.46106 7.5195Z" fill="#FB4934"/>
<path d="M8.46106 22.5957V28.25C8.46106 27.7792 23.5391 26.8369 23.5391 24.4805V18.8271C23.5391 21.1826 8.46106 22.1241 8.46106 22.5957Z" fill="#FB4934"/>
</svg>
