<svg viewBox="0 0 32 32" fill="none" xmlns="http://www.w3.org/2000/svg">
<path d="M16.1663 27.6279C18.8464 18.0475 18.7685 18.0029 20.7049 11.1726L21.1704 11.4421C21.4241 11.5874 21.6306 11.4675 21.6306 11.1796V7.91762C22.1451 6.11775 22.5467 4.7265 22.6658 4.31H24.7657L28.25 7.53787L25.9601 9.51625L27.6917 11.3887L16.2818 27.6279C16.2266 27.7197 16.1488 27.6987 16.1663 27.6279ZM17.4131 6.97787C17.5173 6.97787 17.6004 7.03475 17.6004 7.1065V8.77512C17.6004 8.84512 17.5129 8.902 17.4131 8.902H14.5956C14.4915 8.902 14.4075 8.84512 14.4075 8.77425V7.10475C14.4075 7.03387 14.495 6.97612 14.5948 6.97612H17.4131V6.97787ZM20.8921 5.129L17.792 6.91837C17.8289 6.9736 17.8489 7.03834 17.8498 7.10475V8.77512C17.8493 8.85882 17.8182 8.93945 17.7622 9.00175L20.8939 10.8095C21.1074 10.9329 21.2824 10.8322 21.2824 10.5864V5.353C21.2798 5.10625 21.1056 5.00562 20.8921 5.129ZM14.1625 8.77512V7.10475C14.1631 7.03831 14.1832 6.97351 14.2202 6.91837L11.1149 5.12725C10.9014 5.00475 10.7264 5.10537 10.7264 5.35125V10.5855C10.7264 10.8314 10.9014 10.9355 11.1158 10.8086L14.25 9C14.1941 8.9377 14.163 8.85707 14.1625 8.77337V8.77512ZM15.7226 27.6279H15.8381C13.1589 18.0475 13.2359 18.0029 11.2995 11.1726L10.834 11.4421C10.5811 11.5874 10.3737 11.4675 10.3737 11.1796V7.91762C9.854 6.1195 9.45237 4.7265 9.33337 4.31H7.23338L3.75 7.53787L6.039 9.51625L4.30738 11.3896L15.7226 27.6279ZM15.9125 12.3889C16.0798 12.3889 16.2434 12.3392 16.3826 12.2463C16.5217 12.1533 16.6302 12.0212 16.6942 11.8665C16.7583 11.7119 16.775 11.5418 16.7424 11.3777C16.7097 11.2135 16.6291 11.0628 16.5108 10.9444C16.3925 10.8261 16.2417 10.7455 16.0776 10.7129C15.9134 10.6802 15.7433 10.697 15.5887 10.761C15.4341 10.8251 15.3019 10.9335 15.209 11.0727C15.116 11.2118 15.0664 11.3754 15.0664 11.5427C15.0664 11.7672 15.1555 11.9824 15.3142 12.141C15.4729 12.2997 15.6881 12.3889 15.9125 12.3889ZM15.9125 17.4201C16.0798 17.4201 16.2434 17.3705 16.3826 17.2775C16.5217 17.1846 16.6302 17.0524 16.6942 16.8978C16.7583 16.7432 16.775 16.5731 16.7424 16.4089C16.7097 16.2448 16.6291 16.094 16.5108 15.9757C16.3925 15.8574 16.2417 15.7768 16.0776 15.7441C15.9134 15.7115 15.7433 15.7282 15.5887 15.7923C15.4341 15.8563 15.3019 15.9648 15.209 16.1039C15.116 16.2431 15.0664 16.4067 15.0664 16.574C15.0664 16.7984 15.1555 17.0136 15.3142 17.1723C15.4729 17.331 15.6881 17.4201 15.9125 17.4201ZM15.9125 22.4531C16.0798 22.4531 16.2434 22.4035 16.3826 22.3105C16.5217 22.2176 16.6302 22.0854 16.6942 21.9308C16.7583 21.7762 16.775 21.6061 16.7424 21.4419C16.7097 21.2778 16.6291 21.127 16.5108 21.0087C16.3925 20.8904 16.2417 20.8098 16.0776 20.7771C15.9134 20.7445 15.7433 20.7612 15.5887 20.8253C15.4341 20.8893 15.3019 20.9978 15.209 21.1369C15.116 21.2761 15.0664 21.4397 15.0664 21.607C15.0664 21.8314 15.1555 22.0466 15.3142 22.2053C15.4729 22.364 15.6881 22.4531 15.9125 22.4531Z" fill="#FBF1C7"/>
</svg>
