<svg viewBox="0 0 32 32" fill="none" xmlns="http://www.w3.org/2000/svg">
<path d="M18.9943 5.50612C18.9943 5.50612 24.4341 8.61587 25.8577 13.5561C27.1405 18.0186 26.1133 20.1484 26.1133 20.1484C26.7693 20.8631 27.2862 21.694 27.6375 22.5984C27.9904 23.1794 28.1977 23.8371 28.2419 24.5155C28.2861 25.1938 28.1658 25.8728 27.8913 26.4947C27.8913 26.4947 27.8037 24.6747 25.0912 24.2976C22.6054 23.9476 21.7015 26.3679 16.9538 26.2506C14.3231 26.2005 11.7447 25.5076 9.4433 24.2325C7.14188 22.9573 5.18731 21.1386 3.75 18.9347C6.06962 20.2 9.1085 22.1644 12.8929 21.8625C16.6772 21.5606 17.4674 20.3977 17.4674 20.3977C13.2136 17.0316 9.44828 13.0905 6.27962 8.68762C9.25462 11.177 16.6239 16.1312 16.4524 16.0052C13.7568 13.3714 11.2906 10.5126 9.0805 7.46C9.0805 7.46 20.137 16.5504 21.0269 16.4926C21.3926 15.7392 23.2835 11.8394 18.9934 5.50525L18.9943 5.50612Z" fill="#FE8019"/>
</svg>
