<svg viewBox="0 0 32 32" fill="none" xmlns="http://www.w3.org/2000/svg">
<path d="M9.875 13.9875C10.6917 10.7208 12.7333 9.08749 16 9.08749C20.9 9.08749 21.5125 12.7625 23.9625 13.375C25.5958 13.7833 27.025 13.1708 28.25 11.5375C27.4333 14.8042 25.3917 16.4375 22.125 16.4375C17.225 16.4375 16.6125 12.7625 14.1625 12.15C12.5292 11.7417 11.1 12.3542 9.875 13.9875ZM3.75 21.3375C4.56667 18.0708 6.60833 16.4375 9.875 16.4375C14.775 16.4375 15.3875 20.1125 17.8375 20.725C19.4708 21.1333 20.9 20.5208 22.125 18.8875C21.3083 22.1542 19.2667 23.7875 16 23.7875C11.1 23.7875 10.4875 20.1125 8.0375 19.5C6.40417 19.0917 4.975 19.7042 3.75 21.3375Z" fill="#458588"/>
</svg>
