<svg viewBox="0 0 32 32" fill="none" xmlns="http://www.w3.org/2000/svg">
<path d="M28.1485 7.37776L16.6493 27.9403C16.5953 28.037 16.5165 28.1176 16.4211 28.1739C16.3257 28.2301 16.2171 28.26 16.1063 28.2604C15.9955 28.2609 15.8866 28.2319 15.7908 28.1764C15.6949 28.1209 15.6155 28.0409 15.5608 27.9446L3.83401 7.37951C3.77505 7.27633 3.74675 7.15847 3.75242 7.03976C3.75809 6.92105 3.7975 6.80642 3.86603 6.70933C3.93456 6.61223 4.02936 6.5367 4.13931 6.49159C4.24925 6.44647 4.36979 6.43366 4.48676 6.45464L15.9983 8.51264C16.0715 8.52582 16.1464 8.52582 16.2196 8.51264L27.4905 6.45814C27.607 6.43685 27.7272 6.44912 27.837 6.49353C27.9468 6.53793 28.0418 6.61264 28.1107 6.70894C28.1797 6.80525 28.2199 6.91917 28.2266 7.03743C28.2333 7.1557 28.2062 7.2743 28.1485 7.37776Z" fill="#B16286"/>
<path d="M21.481 3.75613L12.9725 5.42301C12.9043 5.43631 12.8426 5.47191 12.797 5.5242C12.7513 5.57648 12.7244 5.64247 12.7205 5.71176L12.1972 14.5528C12.1943 14.6013 12.2028 14.6498 12.2219 14.6944C12.2411 14.7391 12.2704 14.7787 12.3075 14.81C12.3446 14.8413 12.3885 14.8636 12.4358 14.875C12.483 14.8864 12.5323 14.8866 12.5796 14.8756L14.9482 14.3288C14.9992 14.317 15.0524 14.3182 15.1028 14.3323C15.1533 14.3465 15.1993 14.3731 15.2368 14.4096C15.2743 14.4462 15.3019 14.4917 15.3172 14.5418C15.3326 14.5918 15.335 14.645 15.3245 14.6963L14.621 18.1429C14.6101 18.1959 14.6132 18.2509 14.63 18.3024C14.6468 18.3539 14.6767 18.4001 14.7168 18.4366C14.7569 18.473 14.8057 18.4984 14.8585 18.5103C14.9114 18.5221 14.9664 18.5201 15.0182 18.5043L16.4812 18.0598C16.5331 18.0439 16.5882 18.0418 16.6411 18.0537C16.6941 18.0656 16.743 18.0911 16.7831 18.1276C16.8232 18.1642 16.8531 18.2106 16.8698 18.2622C16.8865 18.3138 16.8895 18.3689 16.8785 18.422L15.7593 23.8356C15.6893 24.1743 16.14 24.3589 16.3281 24.0693L16.4532 23.875L23.3876 10.0369C23.4136 9.98474 23.4245 9.92636 23.4191 9.86833C23.4137 9.81031 23.3922 9.75496 23.3569 9.70853C23.3217 9.66211 23.2742 9.62646 23.2198 9.60563C23.1653 9.58479 23.1062 9.5796 23.049 9.59063L20.6103 10.0605C20.5578 10.0706 20.5036 10.067 20.4529 10.0501C20.4022 10.0332 20.3567 10.0036 20.3207 9.96408C20.2847 9.92458 20.2595 9.8765 20.2474 9.82444C20.2353 9.77238 20.2367 9.71809 20.2516 9.66676L21.8423 4.14901C21.8573 4.09751 21.8588 4.04302 21.8466 3.99078C21.8344 3.93854 21.809 3.89032 21.7728 3.85076C21.7366 3.8112 21.6908 3.78163 21.6398 3.76491C21.5889 3.74818 21.5345 3.74486 21.4818 3.75526L21.481 3.75613Z" fill="#FABD2F"/>
</svg>
