<svg viewBox="0 0 32 32" fill="none" xmlns="http://www.w3.org/2000/svg">
<path d="M22.0024 11.7037L16.2712 19.9812C16.2104 20.0663 16.1248 20.1304 16.0262 20.165C15.9242 20.2003 15.8132 20.2003 15.7112 20.165C15.6088 20.1332 15.5196 20.0686 15.4574 19.9812C15.3998 19.8899 15.3723 19.7828 15.3787 19.675L15.6062 15.125L11.9049 14.3375C11.8273 14.3204 11.7552 14.2843 11.6949 14.2325C11.6314 14.1825 11.5829 14.1159 11.5549 14.04C11.5333 13.9627 11.5333 13.881 11.5549 13.8037C11.5616 13.7237 11.5921 13.6476 11.6424 13.585L17.3649 5.3075C17.4267 5.21776 17.5156 5.15027 17.6187 5.115C17.7178 5.08032 17.8258 5.08032 17.9249 5.115C18.028 5.15027 18.117 5.21776 18.1787 5.3075C18.2387 5.39451 18.2665 5.4997 18.2574 5.605L18.0299 10.1725L21.7312 10.96C21.8115 10.9768 21.8866 11.0128 21.9499 11.065C22.0089 11.1192 22.0565 11.1847 22.0899 11.2575C22.1163 11.3338 22.1252 11.4151 22.1161 11.4953C22.107 11.5755 22.0802 11.6527 22.0374 11.7212L22.0024 11.7037Z" fill="#FABD2F"/>
<path d="M16 26.9287C15.8501 26.9258 15.702 26.8962 15.5625 26.8412C15.4213 26.7828 15.2934 26.6965 15.1863 26.5875L9.77001 21.1712C9.6647 21.0671 9.58108 20.9431 9.524 20.8064C9.46693 20.6697 9.43753 20.5231 9.43751 20.375C9.43515 20.2227 9.46341 20.0714 9.52062 19.9302C9.57783 19.789 9.66282 19.6607 9.77054 19.553C9.87827 19.4453 10.0065 19.3603 10.1477 19.3031C10.2889 19.2459 10.4402 19.2176 10.5925 19.22C10.7448 19.2185 10.8958 19.247 11.037 19.3041C11.1781 19.3612 11.3066 19.4456 11.415 19.5525L16 24.1287L26.0013 14.1275C26.1097 14.0206 26.2382 13.9362 26.3793 13.8791C26.5205 13.822 26.6715 13.7935 26.8238 13.795C26.9752 13.7953 27.1251 13.8256 27.2648 13.8842C27.4045 13.9427 27.5311 14.0284 27.6375 14.1362C27.7461 14.242 27.8323 14.3686 27.891 14.5084C27.9496 14.6482 27.9794 14.7984 27.9788 14.95C27.9777 15.2541 27.8584 15.5459 27.6463 15.7637L16.8225 26.5875C16.7137 26.6944 16.5862 26.7805 16.4463 26.8412C16.304 26.897 16.1528 26.9267 16 26.9287Z" fill="#B8BB26"/>
<path d="M16 26.9287C16.1499 26.9258 16.298 26.8962 16.4375 26.8412C16.5787 26.7828 16.7067 26.6965 16.8138 26.5875L22.23 21.1712C22.3353 21.0671 22.4189 20.9431 22.476 20.8064C22.5331 20.6697 22.5625 20.5231 22.5625 20.375C22.5649 20.2227 22.5366 20.0714 22.4794 19.9302C22.4222 19.789 22.3372 19.6607 22.2295 19.553C22.1217 19.4453 21.9935 19.3603 21.8523 19.3031C21.7111 19.2459 21.5598 19.2176 21.4075 19.22C21.2553 19.2185 21.1042 19.247 20.9631 19.3041C20.8219 19.3612 20.6934 19.4456 20.585 19.5525L16 24.1287L5.99875 14.1275C5.89034 14.0206 5.76186 13.9362 5.6207 13.8791C5.47954 13.822 5.3285 13.7935 5.17625 13.795C5.02479 13.7953 4.8749 13.8256 4.73522 13.8842C4.59555 13.9427 4.46887 14.0284 4.3625 14.1362C4.25389 14.242 4.16769 14.3686 4.10906 14.5084C4.05043 14.6482 4.02057 14.7984 4.02125 14.95C4.02236 15.2541 4.14158 15.5459 4.35375 15.7637L15.1775 26.5875C15.2863 26.6944 15.4138 26.7805 15.5538 26.8412C15.696 26.897 15.8472 26.9267 16 26.9287Z" fill="#B8BB26"/>
</svg>
