<svg viewBox="0 0 32 32" fill="none" xmlns="http://www.w3.org/2000/svg">
<path d="M3.75 12.6907C4.41063 12.6907 5.07125 12.6837 5.731 12.6907L5.77737 12.724L8.19325 15.1372C8.97288 14.3445 9.76825 13.5675 10.5558 12.7747C10.6021 12.7292 10.652 12.6759 10.7238 12.6872H12.3189C12.4221 12.6797 12.5259 12.6853 12.6278 12.7039C12.0153 13.2901 11.4229 13.9017 10.8174 14.4976L6.85188 18.45C6.56225 18.7335 6.28488 19.0301 5.9865 19.3031C5.32675 19.3224 4.66438 19.3092 4.00375 19.3092C5.07388 18.2514 6.13088 17.1804 7.2045 16.1269C6.04863 14.9859 4.90325 13.8344 3.75 12.6907ZM13.1125 12.6907H14.7216V19.311C14.187 19.311 13.6524 19.3215 13.1186 19.304V14.9342C11.7186 16.3404 10.3108 17.7342 8.909 19.1342C8.83113 19.2042 8.76375 19.3241 8.64213 19.304C7.92113 19.2987 7.19925 19.304 6.47738 19.304C8.69346 17.1013 10.9052 14.8969 13.1125 12.6907ZM15.0883 12.6925C15.4995 12.6846 15.9099 12.6925 16.3211 12.6925C17.0526 13.4389 17.7999 14.1704 18.5401 14.908C19.2798 14.1689 20.0203 13.4304 20.7618 12.6925H21.9867C21.9821 14.8998 21.9821 17.1069 21.9867 19.3136C21.5746 19.3136 21.1616 19.3189 20.7495 19.3136C20.7542 17.9212 20.7542 16.5291 20.7495 15.1372C20.011 15.8749 19.283 16.6247 18.5393 17.3562C17.7903 16.6256 17.0631 15.8731 16.3238 15.1329C16.3238 16.5276 16.3185 17.9224 16.329 19.3162C15.916 19.3162 15.5039 19.3206 15.0909 19.3162C15.0891 17.1054 15.0883 14.8975 15.0883 12.6925ZM22.3516 12.6899C22.7646 12.6899 23.1776 12.6837 23.5906 12.6899C23.5865 14.4883 23.5865 16.2867 23.5906 18.0851H26.8999C26.955 18.0904 27.0259 18.0746 27.067 18.1245C27.459 18.5217 27.8606 18.912 28.2509 19.3092C26.2845 19.3133 24.3183 19.3133 22.3525 19.3092C22.3566 17.1031 22.3563 14.8966 22.3516 12.6899Z" fill="#FABD2F"/>
</svg>
