<svg viewBox="0 0 32 32" fill="none" xmlns="http://www.w3.org/2000/svg">
<path d="M26.682 23.3578C25.4284 23.641 24.2483 24.1841 23.2179 24.9521C21.6282 25.9498 19.9107 26.7274 18.1122 27.2638C17.8917 27.5213 17.5868 27.6918 17.2521 27.7451C15.3818 28.0111 13.4988 28.1797 11.611 28.25C10.5934 28.2578 9.96948 27.9875 9.79623 27.571C9.72487 27.4023 9.68789 27.2211 9.68746 27.0379C9.68703 26.8548 9.72316 26.6734 9.79373 26.5044C9.8643 26.3353 9.9679 26.1821 10.0984 26.0536C10.229 25.9252 10.3839 25.8241 10.554 25.7562C10.3949 25.6586 10.2445 25.5477 10.1042 25.4246C9.95461 25.275 9.79623 24.9748 9.74898 25.0851C9.55211 25.5663 9.44886 26.7423 8.92036 27.2726C8.19411 28.0067 6.82036 27.7617 6.00836 27.3356C5.11673 26.8622 6.07136 25.7492 6.07136 25.7492C5.99493 25.788 5.91149 25.811 5.82599 25.8168C5.7405 25.8227 5.6547 25.8112 5.57372 25.7832C5.49273 25.7552 5.4182 25.7112 5.35457 25.6538C5.29095 25.5964 5.23952 25.5268 5.20336 25.4491C4.73867 24.6732 4.53417 23.7691 4.61974 22.8687C4.84392 21.8816 5.38064 20.9932 6.15011 20.3356C6.02891 19.0246 6.22644 17.7038 6.72586 16.4856C7.38548 15.2157 8.33406 14.1185 9.49523 13.2822C9.49523 13.2822 7.79948 11.4036 8.43123 9.71485C8.84161 8.6106 9.00698 8.61847 9.14173 8.57035C9.61818 8.42348 10.0534 8.16661 10.4122 7.82047C10.895 7.28897 11.4953 6.87767 12.1653 6.6194C12.8353 6.36114 13.5564 6.26305 14.271 6.33297C14.271 6.33297 15.3 3.22497 16.2424 3.82872C16.7637 4.6289 17.2126 5.474 17.5837 6.35397C17.5837 6.35397 18.7046 5.69947 18.8306 5.9436C19.4751 7.65566 19.6335 9.51262 19.2882 11.3091C18.8809 13.0331 18.1048 14.6484 17.0132 16.0437C16.8951 16.2406 18.3704 16.8645 19.3014 19.4448C20.1615 21.8074 19.3959 23.7848 19.5306 24.0054C19.5542 24.0447 19.5621 24.0605 19.5621 24.0605C19.5621 24.0605 20.5482 24.1392 22.5292 22.916C23.6253 22.1154 24.9195 21.6301 26.2716 21.5125C26.5141 21.464 26.766 21.5125 26.9732 21.6475C27.1804 21.7826 27.3265 21.9934 27.3802 22.2348C27.4338 22.4762 27.3908 22.7291 27.2603 22.9392C27.1298 23.1492 26.9222 23.299 26.682 23.3578Z" fill="#458588"/>
</svg>
