<svg viewBox="0 0 32 32" fill="none" xmlns="http://www.w3.org/2000/svg">
<path d="M11.3333 16H20.6666V13.6666H11.3333V16ZM11.3333 11.3333H20.6666V8.99998H11.3333V11.3333ZM25.275 25.8875L20.55 19.7333C20.2194 19.2861 19.8111 18.9408 19.325 18.6973C18.8388 18.4546 18.3138 18.3333 17.75 18.3333H6.66663V6.66665C6.66663 6.02498 6.89529 5.47548 7.35263 5.01815C7.80918 4.56159 8.35829 4.33331 8.99996 4.33331H23C23.6416 4.33331 24.1911 4.56159 24.6485 5.01815C25.105 5.47548 25.3333 6.02498 25.3333 6.66665V25.3333C25.3333 25.4305 25.3286 25.5231 25.3193 25.611C25.3092 25.6981 25.2944 25.7903 25.275 25.8875ZM8.99996 27.6666C8.35829 27.6666 7.80918 27.4384 7.35263 26.9818C6.89529 26.5245 6.66663 25.975 6.66663 25.3333V20.6666H17.75C17.9444 20.6666 18.1245 20.7106 18.2901 20.7985C18.455 20.8856 18.5958 21.0069 18.7125 21.1625L23.6125 27.5791C23.5152 27.618 23.4133 27.6425 23.3068 27.6526C23.1995 27.662 23.0972 27.6666 23 27.6666H8.99996Z" fill="#FBF1C7"/>
</svg>
