<svg viewBox="0 0 32 32" fill="none" xmlns="http://www.w3.org/2000/svg">
<path d="M6.66671 25.3334C6.02504 25.3334 5.47593 25.1051 5.01937 24.6485C4.56204 24.1912 4.33337 23.6417 4.33337 23V9.00002C4.33337 8.35835 4.56204 7.80924 5.01937 7.35269C5.47593 6.89535 6.02504 6.66669 6.66671 6.66669H13.6667L16 9.00002H25.3334C25.975 9.00002 26.5245 9.22869 26.9819 9.68602C27.4384 10.1426 27.6667 10.6917 27.6667 11.3334H6.66671V23L9.46671 13.6667H29.4167L26.4125 23.6709C26.257 24.1764 25.9704 24.5801 25.5527 24.8819C25.1343 25.1829 24.6723 25.3334 24.1667 25.3334H6.66671Z" fill="#FABD2F"/>
</svg>
