<svg viewBox="0 0 32 32" fill="none" xmlns="http://www.w3.org/2000/svg">
<path d="M17.0334 5.88237C17.4821 5.26942 18.0587 4.76128 18.7231 4.39309C19.3876 4.02491 20.1241 3.80549 20.8817 3.75C20.9464 4.45451 20.8676 5.16483 20.65 5.838C20.4323 6.51117 20.0804 7.13321 19.6155 7.6665C19.2042 8.23993 18.6529 8.6986 18.0143 8.99893C17.3757 9.29926 16.6708 9.43126 15.9668 9.38238C15.8927 8.75693 15.9492 8.1229 16.1328 7.52043C16.3164 6.91797 16.6231 6.36018 17.0334 5.88237ZM16.175 10.7798C17.0028 10.7798 18.5375 9.64225 20.5404 9.64225C21.4837 9.60158 22.4215 9.80586 23.2624 10.2352C24.1033 10.6646 24.8187 11.3043 25.3389 12.0923C24.5277 12.5631 23.8553 13.24 23.39 14.0544C22.9247 14.8688 22.683 15.7918 22.6894 16.7297C22.6942 17.7922 23.009 18.8301 23.5953 19.7161C24.1817 20.6021 25.0139 21.2976 25.9899 21.7173C25.9899 21.7173 23.6825 28.2115 20.5649 28.2115C19.1334 28.2115 18.0204 27.249 16.5128 27.249C14.9754 27.249 13.4503 28.25 12.4572 28.25C9.61255 28.25 6.01367 22.0891 6.01367 17.1375C6.01367 12.2655 9.05692 9.70962 11.9112 9.70962C13.767 9.70962 15.2064 10.7798 16.175 10.7798Z" fill="#FBF1C7"/>
</svg>
