<svg viewBox="0 0 32 32" fill="none" xmlns="http://www.w3.org/2000/svg">
<path d="M13.4747 7.012C13.4966 7.14588 13.4301 7.257 13.207 7.369C12.7546 7.18835 12.2653 7.11961 11.7807 7.16863C11.2233 7.21325 10.7552 7.39175 10.8182 7.77063C10.9057 8.1495 11.4421 8.37263 12.4002 8.28338C14.74 8.083 14.7181 6.50013 18.1498 6.18863C20.8238 5.94363 22.3175 6.76788 22.5178 7.77063C22.6736 8.55025 22.0278 9.308 20.0888 9.46463C18.373 9.62038 17.3702 9.15225 17.281 8.685C17.2363 8.44 17.3685 8.083 18.1945 7.99375C18.282 8.37263 18.7518 8.77338 19.8657 8.66225C20.6733 8.594 21.3375 8.3 21.25 7.8625C21.1625 7.39438 20.3137 7.1275 18.975 7.23863C16.2563 7.48363 15.5878 8.97725 13.27 9.17763C11.625 9.329 10.288 8.72788 10.1095 7.83625C10.043 7.502 10.043 6.72238 11.7807 6.56575C12.6723 6.49925 13.3855 6.65413 13.4747 7.012ZM4.78335 16.3273C4.0608 17.2181 3.69557 18.346 3.75872 19.4913C3.79563 20.0144 3.94393 20.5236 4.19368 20.9848C4.44344 21.446 4.78887 21.8485 5.20685 22.1653C5.6144 22.4929 6.0902 22.7251 6.59928 22.8447C7.10835 22.9643 7.63776 22.9684 8.1486 22.8565C8.59532 22.7457 9.03386 22.6042 9.4611 22.433C8.57816 22.4318 7.72461 22.1157 7.05397 21.5414C6.64418 21.2561 6.29795 20.8891 6.03711 20.4633C5.77627 20.0376 5.60649 19.5624 5.53847 19.0678C5.43973 18.6161 5.43652 18.1488 5.52904 17.6958C5.62157 17.2429 5.80778 16.8143 6.07572 16.4375C6.36716 16.0671 6.7308 15.7598 7.14458 15.5342C7.55835 15.3086 8.01365 15.1694 8.48285 15.125C9.4873 15.0547 10.4836 15.3472 11.2907 15.9493C11.0609 15.6749 10.8074 15.4213 10.533 15.1915C10.1045 14.8716 9.61003 14.6516 9.08561 14.5474C8.56119 14.4433 8.02012 14.4576 7.50197 14.5895C6.41378 14.8174 5.4467 15.435 4.78335 16.3273ZM16.7288 11.1788C14.2811 11.1987 11.8378 10.9671 9.43747 10.4875C7.45735 9.9975 6.40997 9.46288 6.40997 8.7725C6.40997 8.48288 6.54385 8.23788 6.9446 7.94825C5.69685 8.43825 5.02835 8.83988 5.02835 9.46375C5.09485 10.155 6.2096 10.8454 8.48285 11.38C11.1665 11.9796 13.9122 12.2563 16.6615 12.2043C19.4101 12.2599 22.1553 11.9831 24.8375 11.38C27.1125 10.8454 28.2027 10.1323 28.2027 9.46375C28.2027 8.97375 27.7127 8.50125 26.8211 8.15125C26.9248 8.21528 27.0115 8.3035 27.0736 8.40834C27.1358 8.51318 27.1717 8.63153 27.1781 8.75325C27.1781 9.4445 26.1526 10.001 24.0806 10.4691C21.6626 10.9688 19.1978 11.2067 16.7288 11.1788ZM24.9302 13.095C22.2431 13.6725 19.4999 13.9489 16.7516 13.9193C13.9813 13.941 11.2168 13.6647 8.5056 13.095C6.58935 12.605 5.56385 12.0695 5.20772 11.513C5.56934 13.8575 6.33933 16.1204 7.48272 18.1989C8.30697 19.4466 9.1321 20.5386 9.95635 21.7199C10.2964 22.3756 10.5511 23.0723 10.7141 23.7928C11.2703 24.5501 12.0759 25.0868 12.9891 25.3083C14.1593 25.7295 15.4022 25.9113 16.644 25.8429H16.7778C18.0542 25.8982 19.3299 25.717 20.5403 25.3083C21.4193 25.0531 22.1928 24.5218 22.7462 23.7928H22.8127C22.9518 23.0746 23.1842 22.3778 23.504 21.7199C24.3282 20.5386 25.1533 19.4449 25.9776 18.1989C27.0976 16.1104 27.8654 13.8514 28.25 11.513C27.8046 12.1369 26.7791 12.675 24.9293 13.0959L24.9302 13.095Z" fill="#D65D0E"/>
</svg>
