<svg viewBox="0 0 32 32" fill="none" xmlns="http://www.w3.org/2000/svg">
<path d="M25.5498 14.075V15.4225H24.2005V16.7726H25.5498V18.1228H26.8999V16.7726H28.25V15.4225H26.8999V14.075H25.5498ZM22.4873 14.075H21.1363V15.4225H19.7861V16.7726H21.1363V18.1228H22.4864V16.7726H23.8365V15.4225H22.4864L22.4873 14.075ZM19.29 18.6478C18.7065 19.6849 17.7965 20.5 16.7017 20.9663C15.6069 21.4326 14.3887 21.524 13.2366 21.2261C12.0845 20.9283 11.0631 20.258 10.3315 19.3195C9.59983 18.381 9.19892 17.227 9.19114 16.037C9.18336 14.8471 9.56915 13.6879 10.2885 12.74C11.0078 11.792 12.0203 11.1084 13.1684 10.7955C14.3165 10.4826 15.5358 10.558 16.6366 11.01C17.7375 11.462 18.658 12.2651 19.255 13.2945L23.9713 10.582C22.7765 8.51521 20.9327 6.90082 18.7261 5.98958C16.5196 5.07834 14.0739 4.92127 11.769 5.54276C9.46403 6.16425 7.42882 7.52951 5.97948 9.42648C4.53014 11.3235 3.74781 13.646 3.754 16.0332C3.76019 18.4205 4.55456 20.7389 6.01372 22.6283C7.47287 24.5178 9.51513 25.8724 11.8233 26.482C14.1314 27.0915 16.5763 26.9217 18.778 25.9991C20.9798 25.0764 22.8152 23.4525 23.9993 21.3795L19.29 18.6478Z" fill="#B16286"/>
</svg>
