<svg width="32" height="32" viewBox="0 0 32 32" fill="none" xmlns="http://www.w3.org/2000/svg">
<path d="M7.16422 25.8009L5.19897 3.75H26.801L24.8331 25.7974L15.9868 28.25L7.16422 25.8009Z" fill="#83A598"/>
<path d="M16 26.3757L23.1488 24.3938L24.8305 5.55334H16V26.3757Z" fill="#83A598"/>
<path d="M16 13.5421H19.5788L19.8255 10.7727H16V8.06812H22.7812L22.7165 8.79349L22.0524 16.2467H16V13.5421Z" fill="#FBF1C7"/>
<path d="M16.0166 20.5658L16.0043 20.5693L12.9926 19.7555L12.8001 17.5986H10.085L10.4638 21.845L16.0035 23.3833L16.0166 23.3798V20.5658Z" fill="#FBF1C7"/>
<path d="M19.3486 16.1321L19.0231 19.7538L16.007 20.5675V23.3815L21.551 21.845L21.5921 21.3883L22.062 16.1321H19.3486Z" fill="#FBF1C7"/>
<path d="M16.0096 8.06812V10.7727H9.47687L9.42262 10.1646L9.29925 8.79349L9.2345 8.06812H16.0096ZM16 13.5421V16.2467H13.0259L12.9716 15.6386L12.8491 14.2675L12.7844 13.5421H16Z" fill="#FBF1C7"/>
</svg>
