<svg viewBox="0 0 32 32" fill="none" xmlns="http://www.w3.org/2000/svg">
<path d="M17.5751 9.51712C19.3942 13.5281 24.2601 15.2046 23.8234 20.4319C23.3142 26.5718 18.9663 28.1179 16.5469 28.2273C14.6018 28.3782 12.6718 27.7864 11.1456 26.5711C9.61941 25.3558 8.61044 23.6074 8.32193 21.6779C6.91581 15.1653 13.0732 5.178 16.6204 3.75C16.5035 5.71956 16.8298 7.69027 17.5751 9.51712ZM17.4298 26.017C17.4412 25.9684 17.4427 25.918 17.4341 25.8688C17.4255 25.8197 17.4071 25.7727 17.3799 25.7309C16.8611 24.7684 12.2962 24.2915 11.3363 24.1979C11.7632 24.636 12.2439 25.0182 12.7669 25.3354C13.5207 25.7962 14.357 26.1056 15.2292 26.2463C15.9318 26.3521 17.2837 26.4414 17.4307 26.0161L17.4298 26.017Z" fill="#B16286"/>
<path d="M17.4298 26.017C17.4412 25.9684 17.4427 25.918 17.4341 25.8688C17.4255 25.8197 17.4071 25.7727 17.3799 25.7309C16.8611 24.7684 12.2962 24.2915 11.3363 24.1979C11.7632 24.636 12.2439 25.0182 12.7669 25.3354C13.5207 25.7962 14.357 26.1056 15.2292 26.2463C15.9318 26.3521 17.2837 26.4414 17.4307 26.0161L17.4298 26.017Z" fill="#FBF1C7"/>
</svg>
