<svg viewBox="0 0 32 32" fill="none" xmlns="http://www.w3.org/2000/svg">
<path d="M6.18335 21.9027L16.203 4.54974L17.1025 5.06862L7.08372 22.4225L6.18335 21.9027Z" fill="#D3869B"/>
<path d="M5.97687 20.5168H26.0161V21.5554H5.97687V20.5168Z" fill="#D3869B"/>
<path d="M6.37415 21.0995L6.89302 20.2L16.9161 25.9872L16.3964 26.8867L6.37415 21.0995ZM15.0813 6.01624L15.601 5.11761L25.6241 10.9049L25.1044 11.8044L15.0813 6.01624Z" fill="#D3869B"/>
<path d="M6.37677 10.9022L16.399 5.11499L16.9188 6.01449L6.89564 11.8017L6.37677 10.9022Z" fill="#D3869B"/>
<path d="M14.9002 5.06949L15.7997 4.54974L25.8184 21.9036L24.9198 22.4225L14.9002 5.06949ZM6.77228 10.2127H7.8109V21.7872H6.77228V10.2127Z" fill="#D3869B"/>
<path d="M24.19 10.2127H25.2286V21.7872H24.19V10.2127Z" fill="#D3869B"/>
<path d="M15.7673 25.6618L24.484 20.6288L24.9381 21.4145L16.2205 26.4475L15.7673 25.6618Z" fill="#D3869B"/>
<path d="M26.605 22.125C26.3891 22.5002 26.0667 22.8028 25.6787 22.9947C25.2907 23.1866 24.8545 23.2591 24.4253 23.2029C23.9961 23.1468 23.5933 22.9646 23.2677 22.6793C22.9421 22.3941 22.7084 22.0187 22.5962 21.6007C22.4841 21.1826 22.4985 20.7406 22.6376 20.3307C22.7768 19.9209 23.0344 19.5615 23.3779 19.2981C23.7213 19.0347 24.1353 18.8791 24.5672 18.851C24.9991 18.8229 25.4297 18.9236 25.8044 19.1404C26.3058 19.4305 26.6718 19.9076 26.8219 20.4671C26.972 21.0267 26.894 21.6229 26.605 22.125ZM9.17501 12.0625C8.9591 12.4377 8.63675 12.7403 8.24875 12.9322C7.86075 13.1241 7.42454 13.1966 6.99534 13.1404C6.56615 13.0843 6.16325 12.9021 5.83765 12.6168C5.51206 12.3316 5.2784 11.9562 5.16625 11.5382C5.0541 11.1201 5.06851 10.6781 5.20764 10.2683C5.34678 9.85837 5.60439 9.49898 5.94787 9.23557C6.29135 8.97216 6.70525 8.81657 7.1372 8.7885C7.56914 8.76043 7.9997 8.86114 8.37438 9.07788C8.87584 9.36795 9.24176 9.8451 9.39186 10.4046C9.54195 10.9642 9.46397 11.5604 9.17501 12.0625ZM5.39501 22.125C5.17827 21.7503 5.07756 21.3198 5.10563 20.8878C5.1337 20.4559 5.28929 20.042 5.5527 19.6985C5.81611 19.355 6.1755 19.0974 6.58538 18.9583C6.99526 18.8191 7.43721 18.8047 7.85528 18.9169C8.27336 19.029 8.64876 19.2627 8.93398 19.5883C9.2192 19.9139 9.40141 20.3168 9.45755 20.746C9.51369 21.1752 9.44123 21.6114 9.24935 21.9994C9.05747 22.3874 8.7548 22.7097 8.37963 22.9256C7.87753 23.2146 7.2813 23.2926 6.72177 23.1425C6.16223 22.9924 5.68508 22.6265 5.39501 22.125ZM22.825 12.0625C22.6083 11.6878 22.5076 11.2573 22.5356 10.8253C22.5637 10.3934 22.7193 9.97947 22.9827 9.63599C23.2461 9.29251 23.6055 9.0349 24.0154 8.89576C24.4253 8.75663 24.8672 8.74222 25.2853 8.85437C25.7034 8.96652 26.0788 9.20018 26.364 9.52577C26.6492 9.85137 26.8314 10.2543 26.8875 10.6835C26.9437 11.1127 26.8712 11.5489 26.6794 11.9369C26.4875 12.3249 26.1848 12.6472 25.8096 12.8631C25.3075 13.1521 24.7113 13.2301 24.1518 13.08C23.5922 12.9299 23.1151 12.564 22.825 12.0625ZM16 28.25C15.5674 28.25 15.1444 28.1217 14.7847 27.8813C14.425 27.641 14.1446 27.2993 13.979 26.8996C13.8135 26.4999 13.7701 26.0601 13.8545 25.6357C13.9389 25.2114 14.1473 24.8216 14.4532 24.5157C14.7591 24.2098 15.1489 24.0014 15.5732 23.917C15.9976 23.8326 16.4374 23.8759 16.8371 24.0415C17.2368 24.2071 17.5785 24.4875 17.8188 24.8472C18.0592 25.2069 18.1875 25.6299 18.1875 26.0625C18.1883 26.35 18.1323 26.6348 18.0226 26.9006C17.913 27.1663 17.7519 27.4078 17.5486 27.6111C17.3453 27.8144 17.1038 27.9755 16.8381 28.0851C16.5723 28.1948 16.2875 28.2508 16 28.25ZM16 8.11713C15.5674 8.11713 15.1444 7.98883 14.7847 7.74847C14.425 7.5081 14.1446 7.16646 13.979 6.76675C13.8135 6.36703 13.7701 5.9272 13.8545 5.50287C13.9389 5.07853 14.1473 4.68876 14.4532 4.38283C14.7591 4.0769 15.1489 3.86856 15.5732 3.78416C15.9976 3.69975 16.4374 3.74307 16.8371 3.90864C17.2368 4.07421 17.5785 4.35458 17.8188 4.71432C18.0592 5.07405 18.1875 5.49698 18.1875 5.92963C18.1883 6.21712 18.1323 6.50194 18.0226 6.7677C17.913 7.03347 17.7519 7.27494 17.5486 7.47823C17.3453 7.68152 17.1038 7.84261 16.8381 7.95226C16.5723 8.06191 16.2875 8.11794 16 8.11713Z" fill="#D3869B"/>
</svg>
