<svg viewBox="0 0 32 32" fill="none" xmlns="http://www.w3.org/2000/svg">
<path d="M7.16425 25.8009L5.19812 3.75H26.8019L24.8331 25.7974L15.9869 28.25L7.16425 25.8009Z" fill="#FE8019"/>
<path d="M16 26.3757L23.1488 24.3938L24.8305 5.55334H16V26.3757Z" fill="#FE8019"/>
<path d="M16 13.7311H12.4212L12.1745 10.9618H16V8.25714H9.21875L9.2835 8.98339L9.94763 16.4358H16V13.7311ZM16 20.7548L15.9878 20.7583L12.976 19.9454L12.7835 17.7885H10.0684L10.4473 22.034L15.9878 23.5723L16 23.5688V20.7548Z" fill="#FBF1C7"/>
<path d="M15.9904 13.7311V16.4358H19.3206L19.0074 19.9436L15.9904 20.7574V23.5714L21.5352 22.034L21.5755 21.5773L22.2107 14.4574L22.2772 13.7311H15.9904ZM15.9904 8.25714V10.9618H22.5231L22.5774 10.3545L22.7007 8.98339L22.7655 8.25714H15.9904Z" fill="#FBF1C7"/>
</svg>
