<svg viewBox="0 0 32 32" fill="none" xmlns="http://www.w3.org/2000/svg">
<path d="M3.75 3.75H28.25V28.25H3.75V3.75Z" fill="#FABD2F"/>
<path d="M20.2078 22.8906C20.4166 23.3146 20.7409 23.671 21.1434 23.9187C21.5459 24.1664 22.0102 24.2953 22.4828 24.2906C23.4366 24.2906 24.0464 23.8137 24.0464 23.1531C24.0464 22.3656 23.4199 22.0839 22.3699 21.6245L21.7942 21.3777C20.1317 20.6699 19.0292 19.7835 19.0292 17.9092C19.0292 16.1829 20.3417 14.8677 22.4006 14.8677C23.0671 14.8196 23.733 14.9688 24.3152 15.2966C24.8975 15.6245 25.3704 16.1165 25.6748 16.7114L23.8749 17.862C23.7577 17.567 23.5536 17.3147 23.2896 17.1384C23.0257 16.9621 22.7144 16.8703 22.3971 16.875C22.2586 16.8611 22.1188 16.8762 21.9865 16.9194C21.8542 16.9626 21.7324 17.0328 21.6287 17.1257C21.5251 17.2185 21.4419 17.332 21.3845 17.4587C21.3272 17.5855 21.2968 17.7228 21.2954 17.862C21.2954 18.5524 21.7233 18.8324 22.7112 19.262L23.2869 19.5087C25.2434 20.3479 26.3494 21.2027 26.3494 23.1251C26.3494 25.198 24.7211 26.3337 22.5344 26.3337C21.6825 26.388 20.833 26.1946 20.0885 25.7768C19.344 25.359 18.7363 24.7346 18.3388 23.9791L20.2078 22.8906ZM12.0747 23.0901C12.4361 23.7315 12.7651 24.274 13.5561 24.274C14.3121 24.274 14.7898 23.9782 14.7898 22.8276V14.999H17.0919V22.8582C17.0919 25.2417 15.6919 26.3267 13.6541 26.3267C12.9337 26.3661 12.2183 26.1866 11.6019 25.8118C10.9855 25.437 10.4969 24.8844 10.2004 24.2267L12.0747 23.0901Z" fill="#1D2021"/>
</svg>
