<svg viewBox="0 0 32 32" fill="none" xmlns="http://www.w3.org/2000/svg">
<path d="M16.4375 28.25L16.4279 27.9691C16.7779 27.9569 17.1279 27.9297 17.4691 27.8869L17.5033 28.166C17.148 28.208 16.7875 28.236 16.4375 28.25ZM15.3683 28.2404C15.0183 28.222 14.656 28.187 14.3043 28.1371L14.3436 27.8589C14.6875 27.907 15.0375 27.9411 15.3831 27.9595L15.3683 28.2404ZM18.555 27.9875L18.4964 27.7127C18.835 27.6401 19.1754 27.5517 19.507 27.4502L19.5893 27.7189C19.2498 27.8221 18.9015 27.9131 18.555 27.9875ZM13.2499 27.9411C12.8999 27.8615 12.5578 27.7661 12.22 27.6559L12.3075 27.3881C12.6374 27.4949 12.976 27.5894 13.3138 27.6672L13.2499 27.9411ZM20.5999 27.3592L20.494 27.0967C20.8125 26.9672 21.131 26.822 21.439 26.6654H21.4443L21.5711 26.9156C21.25 27.0784 20.9228 27.2271 20.5964 27.3592H20.5999ZM11.2216 27.2822C10.8941 27.1438 10.573 26.9908 10.2591 26.8237L10.3904 26.5752C10.6966 26.738 11.0143 26.8885 11.3336 27.0232L11.2216 27.2822ZM22.503 26.3889L22.3543 26.15C22.6491 25.9662 22.9388 25.7676 23.2153 25.5594L23.3841 25.7842C23.0971 25.9969 22.8005 26.2007 22.4995 26.3889H22.503ZM9.33163 26.2821C9.03325 26.0896 8.74013 25.8805 8.45663 25.6626L8.63163 25.4412C8.90463 25.6539 9.19163 25.8577 9.48213 26.0459L9.33163 26.2821ZM24.2066 25.1044L24.0185 24.8952C24.2758 24.6634 24.526 24.4175 24.7631 24.1637L24.9688 24.3554C24.7255 24.6152 24.4691 24.8672 24.2058 25.1L24.2066 25.1044ZM7.64725 24.9705C7.38475 24.729 7.13538 24.4726 6.89825 24.2092L7.10738 24.0211C7.33925 24.2784 7.586 24.5286 7.83888 24.7649L7.64725 24.9705ZM25.6609 23.5425L25.4395 23.3675C25.653 23.0945 25.856 22.8084 26.045 22.517L26.2813 22.6701C26.0879 22.9702 25.8788 23.2625 25.6609 23.5425ZM6.2175 23.3841C6.00315 23.0992 5.80113 22.8052 5.612 22.503L5.85 22.3542C6.03375 22.6491 6.23325 22.9387 6.4415 23.2152L6.2175 23.3841ZM26.8211 21.7505L26.5726 21.6184C26.7354 21.3121 26.8859 20.9945 27.0215 20.6751L27.284 20.7845C27.1433 21.1127 26.9883 21.4349 26.8211 21.7505ZM5.08525 21.5755L5.08 21.565C4.91941 21.2511 4.77342 20.9299 4.6425 20.6025L4.905 20.4966C5.03363 20.8134 5.178 21.1301 5.33463 21.4364L5.33988 21.4469L5.08525 21.5755ZM27.655 19.7844L27.3873 19.6969C27.494 19.367 27.5885 19.0284 27.6664 18.6906L27.9403 18.7536C27.8606 19.1001 27.7653 19.4466 27.655 19.7844ZM4.282 19.5936C4.177 19.2541 4.08687 18.9059 4.0125 18.5594L4.28725 18.5007C4.35988 18.8394 4.44825 19.1797 4.54975 19.5114L4.282 19.5936ZM28.1363 17.7027L27.858 17.6634C27.907 17.3195 27.9403 16.9695 27.9586 16.6239L28.2395 16.6387C28.2208 16.9948 28.1864 17.3498 28.1363 17.7027ZM3.8375 17.505C3.79375 17.155 3.76575 16.7945 3.75 16.4392L4.03088 16.4296C4.04313 16.7796 4.07112 17.1296 4.11312 17.4709L3.8375 17.505ZM27.9718 15.58C27.9595 15.23 27.9324 14.88 27.8904 14.5387L28.1695 14.5046C28.2124 14.8546 28.2413 15.216 28.257 15.5704L27.9718 15.58ZM4.03963 15.3875L3.75875 15.37C3.77712 15.0156 3.81213 14.6577 3.86113 14.306L4.13937 14.3454C4.09125 14.6875 4.058 15.0375 4.03963 15.3875ZM27.7145 13.5115C27.6414 13.171 27.5538 12.8339 27.452 12.5009L27.725 12.4125C27.8291 12.752 27.9201 13.1002 27.9936 13.4476L27.7145 13.5115ZM4.33013 13.3172L4.05625 13.2542C4.13587 12.9042 4.23125 12.5621 4.3415 12.2244L4.60925 12.3119C4.50163 12.6409 4.408 12.9795 4.33013 13.3172ZM27.1029 11.513C26.9721 11.1895 26.8261 10.8724 26.6654 10.5627L26.9156 10.435C27.0775 10.7526 27.2263 11.079 27.3593 11.4071L27.1029 11.513ZM4.975 11.3319L4.7125 11.2225C4.85075 10.8952 5.00475 10.5706 5.171 10.26L5.4195 10.3912C5.2585 10.6949 5.108 11.0125 4.975 11.3319ZM5.94888 9.48736L5.71263 9.33511C5.90513 9.03674 6.11337 8.74361 6.33125 8.46011L6.5535 8.63511C6.34088 8.91249 6.137 9.19599 5.94888 9.48736ZM7.22988 7.84149L7.02425 7.64986C7.26575 7.38736 7.52213 7.13799 7.7855 6.89999L7.97363 7.10911C7.71638 7.33749 7.46613 7.58774 7.22988 7.84149ZM8.77863 6.44149L8.60975 6.21661C8.89238 6.00311 9.189 5.79924 9.49088 5.61111L9.63963 5.84911C9.34475 6.03724 9.05513 6.23586 8.77863 6.44411V6.44149ZM22.5205 5.95324L22.5048 5.94274L22.6579 5.70649L22.6736 5.71611L22.5205 5.95324ZM21.6044 5.41424C21.2967 5.25101 20.982 5.10153 20.6611 4.96624L20.7705 4.70374C21.0978 4.84199 21.4224 4.99599 21.733 5.16224L21.6044 5.41424ZM10.5479 5.33811L10.4201 5.08786L10.4359 5.07999C10.7474 4.92161 11.0694 4.77461 11.3923 4.64249L11.4981 4.90499C11.1823 5.03361 10.8681 5.17712 10.5636 5.33199L10.5479 5.33811ZM19.6829 4.60486C19.3515 4.49751 19.0154 4.40496 18.6758 4.32749L18.7388 4.05361C19.0888 4.13324 19.4318 4.22861 19.7695 4.33799L19.6829 4.60486ZM12.4825 4.55237L12.4003 4.28374C12.741 4.17917 13.0861 4.08925 13.4345 4.01424L13.4931 4.28899C13.1526 4.36226 12.8154 4.45013 12.4825 4.55237ZM17.645 4.13849C17.3001 4.09072 16.9533 4.05773 16.6055 4.03962L16.6195 3.75874C16.9739 3.77712 17.3318 3.81037 17.6835 3.85937L17.645 4.13849ZM14.5195 4.11574L14.4845 3.83662C14.8345 3.79287 15.195 3.76399 15.5503 3.74911L15.5608 4.02999C15.2178 4.04486 14.8669 4.07286 14.523 4.11574H14.5195Z" fill="#FBF1C7"/>
<path d="M16 25.3678C21.1746 25.3678 25.3695 21.1729 25.3695 15.9983C25.3695 10.8236 21.1746 6.62875 16 6.62875C10.8254 6.62875 6.63049 10.8236 6.63049 15.9983C6.63049 21.1729 10.8254 25.3678 16 25.3678Z" fill="#458588"/>
<path d="M19.8806 14.8607C21.3961 14.8607 22.6246 13.6322 22.6246 12.1167C22.6246 10.6013 21.3961 9.37274 19.8806 9.37274C18.3651 9.37274 17.1366 10.6013 17.1366 12.1167C17.1366 13.6322 18.3651 14.8607 19.8806 14.8607Z" fill="#FBF1C7"/>
<path d="M25.3695 9.37363C26.8855 9.37363 28.1144 8.14471 28.1144 6.62876C28.1144 5.1128 26.8855 3.88388 25.3695 3.88388C23.8536 3.88388 22.6246 5.1128 22.6246 6.62876C22.6246 8.14471 23.8536 9.37363 25.3695 9.37363Z" fill="#458588"/>
<path d="M13.4624 20.683V19.9917H10.4253V14.5352H9.63782V20.683H13.4624ZM17.6764 20.683V16.2625H16.9764V18.6994C16.9764 19.6015 16.5039 20.1921 15.7707 20.1921C15.6522 20.2033 15.5326 20.1889 15.4201 20.1498C15.3076 20.1108 15.2049 20.048 15.1187 19.9658C15.0326 19.8836 14.9652 19.7838 14.921 19.6732C14.8767 19.5627 14.8568 19.4439 14.8624 19.325V16.2625H14.1624V19.6024C14.1624 20.3356 14.7102 20.8081 15.5703 20.8081C15.8667 20.8203 16.1608 20.7514 16.4209 20.6087C16.6811 20.4661 16.8973 20.2552 17.0464 19.9987V20.6821H17.6791M22.8171 20.6664V20.1352C22.7676 20.1474 22.7167 20.153 22.6657 20.1519C22.4216 20.1519 22.2859 20.025 22.2859 19.8019V17.344C22.2859 16.5565 21.7128 16.1382 20.6234 16.1382C19.5524 16.1382 18.8944 16.5512 18.8524 17.5715H19.5612C19.6198 17.0316 19.9409 16.784 20.5981 16.784C21.2307 16.784 21.5851 17.0202 21.5851 17.442V17.6275C21.5851 17.9224 21.4101 18.0492 20.8518 18.1166C20.3691 18.1381 19.8921 18.2289 19.4352 18.3861C19.1998 18.4686 18.9972 18.6247 18.8574 18.8313C18.7176 19.0379 18.648 19.284 18.6591 19.5332C18.6591 20.3347 19.2156 20.8064 20.1098 20.8064C20.3909 20.8059 20.669 20.748 20.927 20.6364C21.185 20.5248 21.4176 20.3617 21.6104 20.1571C21.648 20.3217 21.74 20.4688 21.8717 20.5745C22.0034 20.6801 22.167 20.7381 22.3358 20.739C22.4987 20.7365 22.6605 20.7109 22.8162 20.6629M21.5851 19.1535C21.5455 19.4659 21.3842 19.75 21.1363 19.9441C20.8884 20.1383 20.5739 20.2268 20.2612 20.1904C19.7134 20.1904 19.3923 19.9961 19.3923 19.5157C19.3923 19.052 19.7047 18.8499 20.4546 18.7396C20.842 18.7214 21.2238 18.6389 21.5842 18.4955L21.5851 19.1535Z" fill="#FBF1C7"/>
</svg>
