<svg viewBox="0 0 32 32" fill="none" xmlns="http://www.w3.org/2000/svg">
<path d="M16.4996 24.0903C16.5055 23.8829 16.4941 23.6754 16.4655 23.4699C16.4139 23.2949 16.2905 23.28 16.203 23.1426C15.9522 22.7525 15.793 22.3107 15.7375 21.8503C15.72 21.4539 15.5625 21.075 15.5476 20.6786C15.5301 20.4888 15.5651 20.2823 15.5476 20.0933C15.5437 20.0006 15.5323 19.9084 15.5135 19.8176C15.5074 19.7584 15.496 19.6998 15.4794 19.6426L15.531 19.5219C15.7186 19.4878 15.9095 19.4763 16.0998 19.4878C16.3238 19.4878 16.5478 19.5053 16.7718 19.5053C17.2204 19.5314 17.6705 19.5141 18.1158 19.4536C18.7442 19.3776 19.3368 19.12 19.8211 18.7125C20.4138 18.2532 20.8769 17.6477 21.1651 16.9555C21.32 16.6108 21.32 16.0079 21.6473 15.7305C22.0261 15.4033 22.6806 15.4374 23.1286 15.2309C23.3423 15.1082 23.5925 15.0654 23.8348 15.1101C24.0246 15.1443 24.386 15.3858 24.4726 15.0585C24.4035 15.0244 24.3851 14.9378 24.3519 14.9036C24.7141 14.8695 24.3519 14.0286 24.2136 13.8536C23.9352 13.6014 23.5896 13.4352 23.2188 13.375C22.7905 13.2122 22.3313 13.1474 21.8748 13.1851C21.0995 13.34 21.1511 12.892 20.7031 12.892C20.1519 12.892 19.1868 12.9261 19.0144 13.4433C18.9476 13.6107 18.848 13.763 18.7213 13.8913C18.6005 14.0461 18.7388 14.201 18.6871 14.3909C18.618 14.5808 18.5323 15.2528 18.4456 15.4934C18.2908 15.8898 18.1009 16.3894 17.7561 16.3894C17.3373 16.4636 16.907 16.4399 16.4988 16.3203C16.2573 16.2328 15.8609 16.0963 15.6719 16.0271C14.7759 15.6483 14.6219 15.2344 14.6219 15.2344C14.4313 15.0086 14.2799 14.7524 14.1739 14.4766C14.0706 14.1144 13.8983 13.8046 13.8291 13.6016C13.76 13.3986 13.5666 13.0845 13.4328 12.7398C13.3044 12.384 13.0915 12.0648 12.8124 11.8096C12.5368 11.5681 12.2786 11.1718 11.7099 11.2925C11.4362 11.3101 11.1732 11.4058 10.9521 11.5681C10.7623 11.723 10.6896 12.0678 10.5216 12.3434C10.4184 12.4983 10.246 12.9638 10.0736 13.3601C10.0131 13.5667 9.9136 13.7597 9.78052 13.9289C9.67727 13.998 9.55652 14.1039 9.41827 14.0496C9.31545 14.0106 9.22166 13.9511 9.14265 13.8746C8.89579 13.5745 8.68738 13.2447 8.52227 12.8929C8.31668 12.5161 8.08635 12.1533 7.83277 11.807C7.75287 11.6504 7.62834 11.5211 7.47494 11.4353C7.32153 11.3494 7.14613 11.311 6.9709 11.3249C6.0749 11.3249 6.0084 11.8245 5.6094 12.5656C5.47234 12.9993 5.2753 13.4116 5.02402 13.7906C4.81752 14.0146 4.19715 14.9623 3.74915 15.1171H3.75002V21.7846C3.78415 21.6971 3.80165 21.6096 3.83752 21.5431C4.01252 21.1809 4.40627 20.837 4.63027 20.4748C4.76275 20.2812 4.87256 20.073 4.95752 19.8544C5.00549 19.6412 5.07467 19.4334 5.16402 19.234C5.22131 19.1521 5.2956 19.0835 5.38183 19.0329C5.46805 18.9823 5.56418 18.9509 5.66365 18.9409C5.9734 18.8893 6.2324 19.3714 6.61127 19.5613C6.78627 19.6304 7.5414 19.906 7.7654 19.9576C8.14427 20.0451 8.55815 20.1326 8.93702 20.1991C9.14352 20.2333 9.3334 20.2683 9.5574 20.2866C9.87501 20.2922 10.1918 20.3214 10.505 20.3741C10.1585 20.6428 9.91028 21.0184 9.7989 21.4425C9.66065 21.8214 9.55739 22.2519 9.38502 22.6141C9.19515 23.028 8.79965 23.1995 8.85127 23.6825C8.88315 23.8819 8.88903 24.0845 8.86877 24.2854C8.82375 24.4916 8.7602 24.6934 8.6789 24.8883C8.5914 25.1639 8.48902 26.0774 8.36915 26.353L9.1619 26.2498C9.24886 25.8673 9.31169 25.4798 9.35002 25.0895C9.48623 24.6775 9.70307 24.2968 9.9879 23.9695C10.281 23.6423 10.2635 23.2284 10.4359 22.832C10.6367 22.4396 10.8612 22.0598 11.1079 21.6945C11.5384 20.9884 11.814 20.109 12.7275 19.92C13.0629 20.068 13.3669 20.2786 13.6235 20.5404C13.9315 20.8179 14.1932 21.1428 14.3988 21.5029C14.7424 22.2531 15.0024 23.039 15.174 23.8461C15.2153 24.086 15.3368 24.3048 15.5188 24.4665C15.6614 24.669 15.7881 24.8823 15.8976 25.1044C15.9668 25.2593 16.0726 25.604 16.1601 25.7939C16.269 26.0283 16.3611 26.2701 16.4358 26.5175L17.1769 26.5H17.1944V26.4825C16.8471 25.7234 16.613 24.9174 16.4996 24.0903Z" fill="#FBF1C7"/>
<path d="M16.1899 25.8306C16.1024 25.6556 16 25.2969 15.9274 25.1411C15.8178 24.919 15.6911 24.7057 15.5485 24.5033C15.36 24.3469 15.237 24.1255 15.2038 23.8829C15.0347 23.075 14.7746 22.2889 14.4285 21.5396C14.223 21.1796 13.9612 20.8547 13.6533 20.5771C13.3967 20.3153 13.0926 20.1048 12.7573 19.9568C11.8438 20.1318 11.5681 21.0251 11.1376 21.7313C10.8909 22.0965 10.6665 22.4764 10.4656 22.8688C10.2906 23.2476 10.3108 23.6781 10.0176 24.0063C9.7267 24.3292 9.50909 24.7113 9.37976 25.1263C9.34563 25.2138 9.27651 26.0739 9.18988 26.2804L10.5339 26.1929C11.7913 26.2804 11.4299 26.7616 13.3768 26.6584L16.4611 26.5551C16.3879 26.3075 16.2972 26.0654 16.1899 25.8306Z" fill="#FE8019"/>
<path d="M25.149 5.32501H6.85102C6.4457 5.32467 6.04429 5.4043 5.6698 5.55936C5.29531 5.71442 4.95509 5.94185 4.66865 6.22862C4.38221 6.51538 4.15516 6.85586 4.00053 7.23053C3.8459 7.60519 3.76672 8.00669 3.76752 8.41201V15.1311C4.21552 14.9763 4.8359 14.0286 5.0424 13.8046C5.29048 13.4238 5.4873 13.0119 5.62777 12.5796C6.02415 11.856 6.09327 11.3389 6.98927 11.3389C7.1645 11.325 7.33991 11.3635 7.49331 11.4493C7.64672 11.5351 7.77125 11.6644 7.85115 11.821C8.10855 12.1647 8.33907 12.5277 8.54065 12.9069C8.70146 13.261 8.91021 13.5914 9.16102 13.8886C9.24724 13.9554 9.33952 14.014 9.43665 14.0636C9.5749 14.1153 9.69915 14.012 9.7989 13.9429C9.93126 13.7739 10.0301 13.5811 10.0903 13.375C10.2653 12.9786 10.435 12.5306 10.5383 12.3583C10.7133 12.0826 10.7798 11.7379 10.9688 11.583C11.1886 11.4184 11.4523 11.3225 11.7265 11.3074C12.2953 11.1866 12.5534 11.583 12.829 11.8245C13.0947 12.091 13.3055 12.407 13.4494 12.7546C13.5876 13.0994 13.7591 13.4266 13.8458 13.6165C13.9781 13.901 14.0932 14.1932 14.1905 14.4915C14.3048 14.7633 14.4555 15.0182 14.6385 15.2493C14.6385 15.2493 14.7934 15.6631 15.6885 16.042C15.9583 16.1554 16.2344 16.2533 16.5154 16.3351C16.9236 16.4548 17.3539 16.4785 17.7728 16.4043C18.1175 16.4043 18.3065 15.9046 18.4623 15.5083C18.5498 15.2668 18.6521 14.5948 18.7038 14.4058C18.7554 14.2168 18.6163 14.0785 18.7379 13.9061C18.8761 13.7163 18.9619 13.6996 19.031 13.4581C19.206 12.9244 20.1685 12.9069 20.7198 12.9069C21.1853 12.9069 21.1161 13.3549 21.8914 13.2C22.3482 13.1536 22.8094 13.2188 23.2354 13.3899C23.6082 13.4503 23.9554 13.6178 24.2346 13.872C24.3729 14.047 24.7343 14.8888 24.3729 14.922C24.407 14.9561 24.442 15.0428 24.4936 15.0769C24.4061 15.4041 24.0631 15.1644 23.8558 15.1285C23.6135 15.0837 23.3633 15.1265 23.1496 15.2493C22.7016 15.4391 22.0638 15.4243 21.6683 15.7489C21.341 16.0245 21.341 16.6239 21.1861 16.9739C20.8905 17.6618 20.4287 18.2655 19.8421 18.7309C19.3533 19.131 18.7629 19.3876 18.1368 19.472C17.6915 19.5325 17.2414 19.5498 16.7928 19.5236C16.5688 19.5061 16.3448 19.5061 16.1208 19.5061C15.9825 19.5061 15.5354 19.4886 15.552 19.5403L15.5004 19.661C15.5032 19.7207 15.5147 19.7797 15.5345 19.836C15.552 19.9393 15.552 20.0259 15.5686 20.1116C15.5686 20.3015 15.5511 20.508 15.5686 20.697C15.5861 21.0934 15.7436 21.4548 15.7585 21.8686C15.8061 22.3309 15.9659 22.7746 16.224 23.161C16.3115 23.2993 16.4305 23.3159 16.4865 23.4883C16.5155 23.6937 16.527 23.9013 16.5206 24.1086C16.6404 24.9443 16.8843 25.7574 17.2443 26.521V26.5385C17.6923 26.4694 18.1578 26.297 18.7431 26.2113C19.829 26.0564 21.3279 26.1238 22.2921 26.0363C24.7421 25.8123 26.0651 27.0355 28.2535 26.5359V8.41201C28.2482 7.5919 27.9189 6.80715 27.3373 6.22887C26.7558 5.65059 25.9692 5.32569 25.149 5.32501Z" fill="#FE8019"/>
<path d="M9.41823 22.6264C9.59323 22.2475 9.69385 21.8336 9.8321 21.4547C9.94349 21.0306 10.1917 20.6551 10.5382 20.3864C10.225 20.3337 9.90821 20.3044 9.5906 20.2989C9.38264 20.2787 9.17565 20.2495 8.97023 20.2114C8.57768 20.1409 8.18701 20.0604 7.7986 19.9699C7.5746 19.9182 6.79935 19.6426 6.64448 19.5735C6.2481 19.3985 5.98998 18.9015 5.69685 18.9531C5.59739 18.9631 5.50126 18.9945 5.41503 19.0451C5.32881 19.0957 5.25451 19.1643 5.19723 19.2462C5.10787 19.4456 5.03869 19.6534 4.99073 19.8666C4.90323 20.0731 4.76673 20.2805 4.66348 20.487C4.37235 20.82 4.10204 21.1707 3.8541 21.537C3.81998 21.6245 3.80248 21.712 3.7666 21.7995V25.9514C3.98216 25.9827 4.19529 26.0289 4.40448 26.0896C5.63255 26.5151 6.94857 26.6217 8.2291 26.3994L8.38398 26.3819C8.50473 26.1062 8.60798 25.1927 8.69373 24.9171C8.77018 24.7205 8.8336 24.5191 8.8836 24.3142C8.90386 24.1134 8.89798 23.9107 8.8661 23.7114C8.83285 23.2117 9.22923 23.0394 9.41823 22.6264Z" fill="#FE8019"/>
</svg>
