<svg viewBox="0 0 32 32" fill="none" xmlns="http://www.w3.org/2000/svg">
<path d="M28.2404 15.3613C28.2325 15.0471 28.2159 14.7243 28.1992 14.4101C28.1826 14.096 28.1747 13.7653 28.1415 13.4424C28.0837 13.0049 28.026 12.5578 27.9262 12.1299C27.8437 11.7781 27.7358 11.4327 27.6034 11.0965C27.453 10.6936 27.2819 10.2987 27.0906 9.91352C26.7444 9.31616 26.3646 8.7389 25.9531 8.18452C25.6967 7.82052 25.366 7.52302 25.1175 7.15114C24.9632 6.93599 24.7763 6.74618 24.5636 6.58852C24.2329 6.32602 23.8855 6.08364 23.5381 5.85264C23.2756 5.67064 23.0131 5.49739 22.7279 5.33989C22.5047 5.21564 22.265 5.11677 22.0331 5.00914C21.775 4.86509 21.4999 4.75398 21.2141 4.67839C21.1413 4.66001 21.0694 4.63781 20.9989 4.61189C20.809 4.54539 20.627 4.47102 20.4362 4.41327C20.1466 4.32577 19.8657 4.21464 19.5682 4.14027C19.2767 4.06845 18.9814 4.01323 18.6836 3.97489C18.3529 3.92502 18.0134 3.90839 17.6826 3.87602C17.4674 3.85152 17.2521 3.82614 17.0456 3.81827C16.7315 3.80164 16.4086 3.80164 16.0945 3.79377C15.935 3.78002 15.775 3.77447 15.615 3.77714C15.3743 3.78702 15.1342 3.80922 14.8957 3.84364C14.6639 3.86814 14.4329 3.91014 14.2089 3.94252C13.9359 3.97577 13.6629 3.99239 13.3899 4.02564C13.1335 4.05889 12.8649 4.10877 12.6129 4.14989C12.5254 4.16652 12.4309 4.19977 12.3399 4.21639C12.1364 4.24593 11.9348 4.28742 11.7361 4.34064C11.3809 4.44827 11.0247 4.57252 10.6774 4.70464C10.3557 4.83361 10.0411 4.97965 9.73499 5.14214C9.42087 5.31714 9.12249 5.52277 8.82499 5.72139C8.54412 5.91127 8.26237 6.10989 7.98937 6.32514C7.72704 6.53531 7.47586 6.75903 7.23687 6.99539C7.10474 7.12752 6.99712 7.28502 6.87287 7.43289C6.66637 7.67264 6.45899 7.90452 6.26037 8.15214C6.09499 8.35864 5.94624 8.57389 5.78874 8.78914C5.51436 9.16913 5.26561 9.56696 5.04412 9.98002C4.95662 10.1454 4.86912 10.3108 4.78774 10.4761C4.66349 10.7246 4.53137 10.9644 4.41587 11.2208C4.33252 11.3988 4.26602 11.5842 4.21724 11.7746C4.10174 12.1798 3.98537 12.5936 3.87774 12.9996C3.79026 13.3641 3.74736 13.7378 3.74999 14.1126C3.74857 14.4417 3.76786 14.7704 3.80774 15.097C3.81562 15.1793 3.76662 15.279 3.86549 15.3455C3.87337 15.3455 3.86549 15.3788 3.85674 15.3866C3.85106 15.3973 3.84786 15.4091 3.84736 15.4212C3.84687 15.4333 3.8491 15.4453 3.85389 15.4564C3.85868 15.4675 3.86591 15.4774 3.87504 15.4853C3.88416 15.4932 3.89496 15.499 3.90662 15.5021C3.91098 15.5067 3.91375 15.5125 3.91449 15.5188H3.87512C3.85062 15.5931 3.93287 15.6509 3.89962 15.734C3.89174 15.7506 3.92412 15.7839 3.94074 15.8084C3.93667 15.8357 3.93667 15.8634 3.94074 15.8906C3.9592 15.967 3.97294 16.0445 3.98187 16.1225C3.98187 16.1803 4.03174 16.2468 4.04837 16.3045C4.05198 16.3186 4.05237 16.3333 4.04949 16.3475C4.04661 16.3618 4.04054 16.3752 4.03174 16.3868C3.98187 16.4445 3.99062 16.4944 4.06499 16.5276C4.08561 16.5409 4.10034 16.5616 4.10612 16.5854C4.10196 16.6356 4.09376 16.6853 4.08162 16.7341C4.09824 16.7508 4.10612 16.7674 4.09824 16.784C4.09037 16.8006 4.07374 16.8339 4.08162 16.8505C4.14344 16.9855 4.17708 17.1317 4.18049 17.2801C4.18506 17.3177 4.19632 17.3542 4.21374 17.3878C4.23073 17.3869 4.24771 17.3896 4.26362 17.3956L4.21374 17.5444C4.25065 17.5243 4.28931 17.5076 4.32924 17.4945C4.35096 17.5953 4.37872 17.6946 4.41237 17.792C4.42452 17.8126 4.44168 17.8297 4.46224 17.8419C4.45349 17.8585 4.45349 17.8918 4.43774 17.8996C4.46084 18.046 4.49686 18.1901 4.54537 18.3301C4.55412 18.3301 4.56199 18.3214 4.56987 18.3214C4.54537 18.1726 4.52874 18.0151 4.50337 17.8664V17.8165C4.51105 17.8124 4.51931 17.8094 4.52787 17.8078C4.53894 17.8399 4.54714 17.873 4.55237 17.9066C4.61887 17.9066 4.71774 17.9478 4.78424 17.9478C4.79114 17.9226 4.79932 17.8978 4.80874 17.8734C4.75887 17.8235 4.72124 17.7491 4.66787 17.6984C4.67671 17.7364 4.67671 17.7759 4.66787 17.8139C4.63462 17.7973 4.59349 17.7806 4.55237 17.764C4.5882 17.7177 4.62677 17.6736 4.66787 17.6319C4.66787 17.5575 4.62674 17.491 4.51037 17.4998C4.56024 17.4831 4.61012 17.4586 4.66787 17.442C4.67465 17.4647 4.68283 17.4869 4.69237 17.5085C4.75887 17.393 4.65912 17.302 4.65912 17.1856C4.64104 17.0391 4.60791 16.8949 4.56024 16.7551C4.51912 16.5233 4.52699 16.1759 4.50249 15.9449C4.50249 15.9283 4.47799 15.9116 4.46137 15.895C4.45262 15.9038 4.41149 16.0105 4.40362 16.0193C4.42812 16.2179 4.45349 16.4165 4.47012 16.6151C4.46224 16.6151 4.45349 16.6151 4.45349 16.623C4.42024 16.448 4.38699 16.2678 4.34587 16.0691C4.33798 16.1073 4.33243 16.1458 4.32924 16.1846C4.30474 16.1768 4.29599 16.168 4.25487 16.1514C4.28812 16.2258 4.32137 16.2756 4.34237 16.3334C4.30282 16.3182 4.26026 16.3125 4.21812 16.3168V16.5486C4.16085 16.4857 4.11094 16.4164 4.06937 16.3421C4.05274 16.2756 4.04487 16.21 4.02824 16.1435L4.05274 16.1348C4.04196 16.1082 4.03375 16.0807 4.02824 16.0525C4.02008 15.9942 4.01191 15.928 4.00374 15.8539C4.01162 15.846 4.04487 15.8373 4.06149 15.8206L3.99499 15.7218C4.04423 15.7301 4.09389 15.7356 4.14374 15.7384C4.14374 15.7218 4.15162 15.7139 4.14374 15.7051C4.06062 15.6308 4.11924 15.5643 4.15162 15.4986C4.16824 15.4654 4.22599 15.4575 4.23912 15.4243C4.30562 15.3 4.41412 15.2011 4.41412 15.0436C4.42115 14.9658 4.43225 14.8884 4.44737 14.8118C4.46399 14.6709 4.48062 14.5309 4.48849 14.39C4.49228 14.2112 4.50866 14.0328 4.53749 13.8563C4.65231 13.3513 4.80709 12.8562 5.00037 12.3758C5.11569 12.0519 5.24829 11.7344 5.39762 11.4246C5.62074 10.9784 5.87712 10.5496 6.12562 10.1121C6.28312 9.83914 6.44849 9.58714 6.62174 9.31852C6.79499 9.04989 6.95249 8.79352 7.14674 8.55727C7.40795 8.21859 7.70095 7.90566 8.02174 7.62277C8.35249 7.32527 8.66662 7.01902 9.02274 6.74777C9.48284 6.39062 9.97291 6.07386 10.4875 5.80102C10.9094 5.58582 11.3446 5.39761 11.7904 5.23752C12.0712 5.12989 12.3775 5.08089 12.6654 4.98902C12.9917 4.88457 13.3316 4.82885 13.6742 4.82364C13.8974 4.81577 14.1117 4.79039 14.3357 4.76589C14.5344 4.74927 14.733 4.73264 14.9482 4.70814C14.9322 4.72877 14.9184 4.75107 14.9071 4.77464C14.8196 4.90677 14.7172 5.03714 14.6262 5.17189C14.5519 5.27952 14.4687 5.39502 14.3944 5.50264C14.2622 5.67764 14.1214 5.85264 13.9971 6.02764C13.8072 6.30064 13.6331 6.58152 13.4345 6.85452C13.2359 7.12752 13.0206 7.36727 12.8141 7.62364C12.5411 7.97889 12.2891 8.34289 12.0117 8.69902C11.7632 9.03852 11.499 9.36052 11.2592 9.70002C11.044 9.99752 10.8541 10.3125 10.6467 10.6179C10.3405 11.0729 10.0342 11.5191 9.72887 11.9741C9.48912 12.3241 9.24937 12.661 9.00087 13.0084C8.98247 13.0295 8.9598 13.0465 8.93437 13.0583C8.91774 13.0749 8.88449 13.0915 8.88449 13.1081C8.87575 13.1644 8.86199 13.2197 8.84337 13.2735C8.77687 13.3978 8.71124 13.522 8.63687 13.6375C8.59574 13.704 8.53799 13.7618 8.48812 13.8274C8.47149 13.8195 8.46362 13.8108 8.44699 13.8108C8.48024 13.7276 8.62199 13.6786 8.55462 13.5544C8.51349 13.6209 8.47149 13.6786 8.43037 13.7443L8.33149 13.9429C8.36474 13.9674 8.41899 13.984 8.36474 14.0304C8.34024 14.0715 8.31487 14.1179 8.29037 14.1625C8.29912 14.1625 8.29912 14.1704 8.30699 14.1704C8.33149 14.1371 8.35687 14.1126 8.38137 14.0829C8.38924 14.0829 8.39799 14.0916 8.40587 14.0916C8.37576 14.1728 8.33704 14.2506 8.29037 14.3235C8.24257 14.3888 8.18326 14.4449 8.11537 14.4889C8.12412 14.4968 8.18187 14.5221 8.18974 14.53C8.21424 14.4968 8.22299 14.5134 8.24749 14.4801C8.26412 14.5046 8.28862 14.4635 8.29737 14.488C8.32012 14.4632 8.33953 14.4356 8.35512 14.4058C8.36827 14.3655 8.3898 14.3284 8.41831 14.2971C8.44681 14.2657 8.48164 14.2407 8.52049 14.2238C8.55223 14.2082 8.5812 14.1875 8.60624 14.1625C8.85474 13.9061 9.11112 13.6576 9.33424 13.3855C9.68424 12.9638 9.99574 12.5254 10.3265 12.0949C10.4674 11.9129 10.6327 11.7309 10.7815 11.5576C10.7981 11.5664 10.8147 11.5664 10.8226 11.5743C10.806 11.7493 10.7894 11.9295 10.7815 12.0993C10.757 12.4055 10.7404 12.7118 10.715 13.0259C10.7071 13.1501 10.715 13.2744 10.7071 13.3978C10.7071 13.431 10.6826 13.4555 10.6826 13.4853C10.6826 13.5675 10.7071 13.6603 10.7071 13.7416C10.6826 14.0479 10.6494 14.3454 10.624 14.6516C10.6249 14.717 10.6389 14.7816 10.6651 14.8415C10.6527 14.8289 10.6389 14.8177 10.624 14.8083C10.6667 15.2814 10.6723 15.7571 10.6406 16.231C10.6739 16.2223 10.6905 16.2144 10.6905 16.1978C10.7027 16.1401 10.7109 16.0816 10.715 16.0228C10.7192 15.9704 10.7192 15.9177 10.715 15.8653V15.783C10.7356 15.6323 10.7437 15.4801 10.7395 15.328C10.7202 15.1683 10.7258 15.0065 10.7561 14.8485C10.7727 14.782 10.7482 14.6998 10.7894 14.6166V14.7409C10.799 15.213 10.7797 15.6852 10.7316 16.1549C10.7237 16.196 10.7561 16.2704 10.6651 16.2625C10.6564 16.2625 10.6485 16.3036 10.6319 16.329C10.5907 16.4113 10.6817 16.5189 10.5986 16.602C10.582 16.6186 10.6152 16.6895 10.6231 16.7429C10.6231 16.7595 10.6319 16.7761 10.6231 16.784C10.5899 16.8418 10.5899 16.8418 10.6397 16.8505C10.6485 17.0325 10.6642 17.2005 10.673 17.3755H10.6975C10.7556 17.0578 10.7886 16.7359 10.7964 16.413C10.8076 16.5477 10.8106 16.683 10.8051 16.8181C10.8051 17.0334 10.7964 17.2399 10.7885 17.4551C10.787 17.497 10.7815 17.5386 10.7719 17.5794C10.7559 17.6943 10.731 17.8078 10.6975 17.9189C10.675 18.0194 10.6694 18.1228 10.6809 18.2251V18.5393C10.6809 18.548 10.7054 18.5725 10.7054 18.6058C10.7132 18.6801 10.6721 18.7545 10.6966 18.8376C10.7054 18.8543 10.6887 18.8788 10.68 18.8954C10.6693 18.9187 10.6666 18.9448 10.6721 18.9698L10.6966 19.094C10.6966 19.1019 10.7054 19.1106 10.7132 19.1273C10.719 19.1056 10.7219 19.0832 10.722 19.0608C10.8629 19.0774 10.7885 19.2016 10.8541 19.2673C10.8209 19.2839 10.7964 19.2918 10.7964 19.3005C10.8081 19.3286 10.8163 19.358 10.8209 19.388C10.8194 19.46 10.8139 19.5319 10.8042 19.6033C10.8042 19.7931 10.7955 19.9839 10.7955 20.1659C10.7955 20.1904 10.8042 20.2158 10.8042 20.2403C10.8042 20.2648 10.7955 20.2735 10.7955 20.298V20.473H10.8287C10.8121 20.4997 10.7928 20.5247 10.771 20.5474C10.7631 20.5474 10.7377 20.5474 10.7377 20.5395V19.5053H10.6161C10.6319 19.975 10.6096 20.4452 10.5496 20.9114C10.4702 20.9241 10.3902 20.9323 10.3099 20.9359C10.0535 20.9359 9.79712 20.9359 9.54074 20.9438C9.23449 20.9438 8.93699 20.9525 8.63074 20.9525C8.48199 20.9525 8.32449 20.9691 8.17574 20.9691C7.97712 20.9691 7.77062 20.9446 7.57199 20.9446C7.26574 20.9446 6.96824 20.9691 6.66199 20.9779C6.43887 20.9858 6.21574 20.9858 5.99174 20.9945C5.84299 21.0024 5.69424 21.0111 5.54549 21.0278C5.47523 21.0415 5.40618 21.0608 5.33899 21.0855C5.29505 21.0814 5.25081 21.0814 5.20687 21.0855C5.12374 21.1021 5.04937 21.152 4.96712 21.1686C4.84287 21.1931 4.80962 21.2264 4.82624 21.3506V21.4329C4.80906 21.4165 4.78961 21.4026 4.76849 21.3918C4.76224 21.3925 4.7564 21.3953 4.75187 21.3996C4.75974 21.4241 4.77637 21.4408 4.78512 21.4661C4.81837 21.4495 4.85949 21.4084 4.89274 21.4084H5.00824C4.99162 21.4084 4.98374 21.4583 4.95837 21.4959C5.02487 21.4714 5.06599 21.4548 5.10712 21.4381C5.11291 21.4598 5.11556 21.4822 5.11499 21.5046C5.22118 21.483 5.33002 21.4774 5.43787 21.488C5.76176 21.5624 6.09083 21.6121 6.42224 21.6368C6.63749 21.6534 6.84399 21.6613 7.05924 21.67C7.36549 21.6866 7.67174 21.7033 7.97712 21.7033C8.23349 21.7033 8.48199 21.6788 8.73837 21.6788C9.09362 21.6788 9.44974 21.6954 9.80499 21.7033C9.87937 21.7033 9.96249 21.6945 10.0447 21.6945H10.6485C11.1857 21.6779 11.7239 21.67 12.2611 21.6534C12.5674 21.6455 12.8815 21.6289 13.1877 21.6201L14.1301 21.5956C14.4941 21.5878 14.8581 21.5878 15.2134 21.579C15.4864 21.579 15.7506 21.5711 16.0236 21.5624C16.3299 21.5536 16.644 21.5291 16.9502 21.5125C17.1156 21.5046 17.281 21.488 17.4464 21.4714C17.645 21.4548 17.8515 21.4303 18.0501 21.4215C18.3476 21.4049 18.6539 21.397 18.9514 21.3804C19.3232 21.3559 19.696 21.3226 20.0757 21.3139C20.4257 21.2973 20.7757 21.306 21.1257 21.2973C21.432 21.2894 21.7382 21.2728 22.0524 21.264L22.5774 21.2395C22.5774 21.2395 22.9274 21.2316 23.1024 21.215C23.3999 21.1984 23.6982 21.1651 23.9957 21.1573C24.1856 21.1494 24.3764 21.1573 24.5662 21.1494C24.8725 21.1406 25.1866 21.1249 25.4929 21.1249C25.6084 21.1249 25.7326 21.1415 25.8814 21.1494C25.8149 21.2071 25.7737 21.2369 25.7239 21.2815C25.7582 21.2917 25.7913 21.3055 25.8227 21.3226C25.8227 21.3314 25.8149 21.3393 25.8149 21.3559C25.7737 21.3559 25.7326 21.3646 25.6906 21.3646C25.6674 21.409 25.6506 21.4564 25.6407 21.5055H25.7895C25.7317 21.5055 25.6819 21.5799 25.6241 21.6298C25.6329 21.6376 25.6407 21.6376 25.6486 21.6464C25.5611 21.6131 25.4999 21.6298 25.4666 21.7208C25.4881 21.7275 25.5107 21.7301 25.5331 21.7286C25.5252 21.7531 25.5165 21.7785 25.5086 21.8109C25.4983 21.8284 25.4925 21.8483 25.492 21.8686L25.4675 21.8441C25.4689 21.8271 25.4662 21.81 25.4596 21.7943C25.4097 21.8441 25.3354 21.8774 25.3765 21.9841C25.3432 22.0008 25.3021 22.0174 25.261 22.0419C25.2738 22.0601 25.285 22.0794 25.2942 22.0996C25.2199 22.1075 25.1455 22.1241 25.1621 22.2151C25.1954 22.223 25.2286 22.2396 25.2496 22.2484C25.2085 22.265 25.1674 22.2895 25.1254 22.3061C25.1166 22.3228 25.1087 22.3639 25.0921 22.3726C24.9766 22.3971 25.0422 22.4391 25.0755 22.4803C25.0526 22.4971 25.0276 22.5109 25.0011 22.5214C25.0229 22.5274 25.0427 22.5389 25.0589 22.5546C25.0404 22.567 25.0211 22.5781 25.0011 22.5879C25.0169 22.5977 25.0336 22.6059 25.051 22.6124C25.0177 22.6369 24.9763 22.6699 24.9267 22.7113C24.9254 22.7254 24.9282 22.7397 24.9346 22.7524C24.8977 22.7873 24.8646 22.826 24.8357 22.8679C24.8098 22.9247 24.7806 22.9799 24.7482 23.0333C24.5977 23.2422 24.4213 23.4313 24.2232 23.5959C24.1402 23.6579 24.0626 23.727 23.9914 23.8024C23.8426 23.9433 23.7105 24.0999 23.5539 24.2329C23.3474 24.4079 23.1321 24.5636 22.909 24.7211C22.636 24.911 22.363 25.1018 22.09 25.2838C21.9412 25.3826 21.7759 25.4588 21.6184 25.5463C21.4609 25.6338 21.3121 25.7213 21.1555 25.8088C21.0617 25.885 20.9622 25.9541 20.858 26.0153C20.585 26.1308 20.2954 26.2305 20.0145 26.3381C19.99 26.346 19.9734 26.3548 19.948 26.3626C19.7415 26.4501 19.5429 26.5525 19.3355 26.6251C19.1434 26.6902 18.9473 26.7428 18.7484 26.7826C18.6768 26.7896 18.605 26.7922 18.5331 26.7905C18.3922 26.815 18.2522 26.8483 18.1114 26.8649C17.7474 26.9148 17.3834 26.9471 17.0194 26.997C16.8041 27.0215 16.5976 27.0635 16.3824 27.0845C16.2336 27.0933 16.0761 27.0766 15.9274 27.0766C15.8175 27.0875 15.7069 27.0902 15.5966 27.0845C15.4216 27.06 15.2466 27.018 15.0716 26.9856C15.0291 26.971 14.9834 26.9683 14.9395 26.9778C14.873 27.011 14.8152 26.9611 14.7496 26.9778C14.7085 26.9856 14.6674 26.9533 14.6254 26.9533C14.5834 26.9533 14.551 26.9611 14.5099 26.9533C14.4227 26.92 14.3302 26.9031 14.2369 26.9034C14.1321 26.8964 14.0289 26.8739 13.9306 26.8369L13.4931 26.738C13.4351 26.7202 13.3796 26.6952 13.3277 26.6636C13.3054 26.6779 13.2798 26.6864 13.2534 26.6881C13.1132 26.6736 12.9746 26.646 12.8395 26.6059C12.7314 26.5501 12.6111 26.5219 12.4895 26.5236C12.4562 26.5315 12.4317 26.5149 12.402 26.5149C12.3775 26.4816 12.3521 26.416 12.3276 26.416C12.1622 26.4248 12.0651 26.2839 11.9225 26.241C11.8481 26.2165 11.7904 26.1334 11.716 26.1089C11.534 26.0345 11.3852 25.877 11.1787 25.8525C11.108 25.8367 11.0389 25.8144 10.9722 25.786C10.9923 25.8153 11.0146 25.8431 11.0387 25.8691L11.0221 25.8858C10.799 25.7536 10.5759 25.6233 10.3519 25.4973C10.3186 25.4885 10.2941 25.4561 10.2687 25.4395L10.0456 25.2908C10.0211 25.2741 9.97124 25.2496 9.97124 25.2575C9.92137 25.3153 9.87237 25.2663 9.83912 25.2496C9.61599 25.0921 9.35962 24.9933 9.14437 24.8191C9.04823 24.7586 8.96005 24.6863 8.88187 24.6039C8.76724 24.4693 8.62643 24.3594 8.46799 24.281C8.34374 24.2145 8.22824 24.1401 8.11274 24.0658C8.07947 24.0479 8.05136 24.0218 8.03113 23.9899C8.0109 23.958 7.99923 23.9215 7.99724 23.8838C7.99724 23.826 7.97274 23.7683 7.89837 23.8015C7.86512 23.7516 7.83187 23.6939 7.79074 23.6773C7.70091 23.6309 7.6198 23.5693 7.55099 23.4953C7.47662 23.4288 7.41887 23.3378 7.32787 23.3054C7.18151 23.2298 7.05638 23.1188 6.96387 22.9825C6.73199 22.7095 6.52637 22.412 6.31024 22.1224C6.28735 22.0982 6.26247 22.0759 6.23587 22.0559L6.22712 22.0646C6.26824 22.1469 6.31024 22.2221 6.35137 22.3044C6.34262 22.3123 6.32687 22.321 6.31812 22.3289C6.26824 22.2711 6.21049 22.2134 6.16062 22.1539C6.15187 22.1626 6.14399 22.1705 6.13612 22.1705L6.72499 23.1278C6.77487 23.2021 6.81249 23.2765 6.86587 23.3509C6.8564 23.361 6.84512 23.3694 6.83262 23.3754C6.78765 23.3658 6.74522 23.3469 6.70812 23.3197C6.67102 23.2926 6.64009 23.2579 6.61737 23.2179C6.59353 23.1534 6.54876 23.0988 6.49023 23.0628C6.43169 23.0268 6.36277 23.0115 6.29449 23.0193C6.27684 22.9596 6.2631 22.8988 6.25337 22.8373C6.21471 22.8379 6.17607 22.8353 6.13787 22.8294C6.25337 23.0114 6.35312 23.1689 6.46074 23.3544L6.37849 23.3045C6.52724 23.462 6.63487 23.6598 6.82474 23.7595C6.86587 23.9494 7.08112 24.0404 7.13099 24.2224L7.01549 24.1979C6.94899 24.1156 6.87462 24.0325 6.80024 23.9415C6.81487 23.9956 6.84016 24.0461 6.87462 24.0903C6.96775 24.2161 7.07011 24.3349 7.18087 24.4455C7.22199 24.4866 7.27974 24.5033 7.27974 24.5776C7.2994 24.5602 7.32189 24.5463 7.34624 24.5365C7.33322 24.5604 7.3221 24.5853 7.31299 24.6109C7.34624 24.6109 7.37074 24.6188 7.39612 24.6188C7.41274 24.6686 7.38737 24.743 7.48362 24.7264C7.49237 24.7264 7.50024 24.7343 7.50812 24.743C7.54924 24.8506 7.61574 24.8506 7.70674 24.8095C7.71826 24.8057 7.73063 24.8052 7.74241 24.8082C7.75419 24.8111 7.76488 24.8173 7.77324 24.8261C7.81437 24.9136 7.87212 24.925 7.94824 24.8594C7.94824 24.9005 7.95612 24.9416 7.95612 24.9749H7.99374C7.99374 24.9583 7.98587 24.9338 7.98587 24.8926C8.02699 24.9259 8.05237 24.9425 8.06899 24.9591C8.14392 25.0768 8.23592 25.1827 8.34199 25.2733C8.49949 25.4054 8.63949 25.5463 8.78824 25.6705C9.08072 25.9046 9.39345 26.1122 9.72274 26.2909C10.12 26.514 10.4997 26.7538 10.9057 26.969C11.3954 27.2195 11.9154 27.4056 12.4527 27.5229C12.6514 27.564 12.8412 27.6051 13.0399 27.655C13.2149 27.7049 13.3899 27.7793 13.5649 27.8204C13.8274 27.8781 14.1021 27.928 14.3672 27.9779L14.5492 28.0024V28.019C14.6236 28.019 14.7146 27.9858 14.7312 28.0103C14.7724 28.0768 14.8056 28.0435 14.8555 28.0348C14.9177 28.0207 14.9816 28.0151 15.0454 28.0181C15.2734 28.0442 15.5027 28.0579 15.7322 28.0593C15.7821 28.0593 15.8565 28.0181 15.8976 28.1004C15.9142 28.0916 15.9221 28.0838 15.9387 28.0759C15.972 28.0671 16.0131 28.0671 16.0464 28.0593V28.075C16.0247 28.0825 16.0025 28.0881 15.9799 28.0916C16.0096 28.0978 16.0388 28.106 16.0674 28.1161C16.0556 28.1272 16.0416 28.1356 16.0262 28.1406C15.9999 28.1514 15.975 28.1652 15.9519 28.1818C16.224 28.2439 16.5066 28.2439 16.7787 28.1818V28.1319H16.812C16.8137 28.1496 16.8194 28.1666 16.8286 28.1818C17.204 28.2143 17.5819 28.1662 17.9372 28.0409C17.9705 28.082 17.995 28.1398 18.0449 28.0575C18.0615 28.033 18.1026 28.0243 18.1324 28.0164C18.2053 27.9871 18.2846 27.9771 18.3625 27.9875C18.4369 28.012 18.4614 27.9464 18.52 27.9464C18.6142 27.9468 18.7082 27.9386 18.8009 27.9219C18.8507 27.914 18.8997 27.8886 18.9584 27.872C18.9589 27.8676 18.9585 27.8631 18.9571 27.8589C18.9558 27.8547 18.9535 27.8508 18.9505 27.8475C18.8926 27.8382 18.8341 27.8327 18.7755 27.8309C18.8744 27.781 18.9654 27.7434 19.0564 27.6988C19.0564 27.7066 19.0651 27.7066 19.0651 27.7154C19.0406 27.7233 19.024 27.7565 18.9907 27.7565H19.1062C19.0817 27.7565 19.0485 27.8309 19.0074 27.8808L19.843 27.6743V27.6576C19.8097 27.6655 19.7852 27.6655 19.7599 27.6743C19.752 27.4993 19.9419 27.5588 20.0084 27.459C19.9252 27.4835 19.843 27.5089 19.7599 27.5255V27.5089C20.0407 27.3846 20.3304 27.2604 20.6121 27.137C20.6121 27.1458 20.6209 27.1458 20.6209 27.1536C20.571 27.1869 20.522 27.2114 20.4459 27.2525C20.482 27.2562 20.5179 27.2617 20.5535 27.2691C20.5535 27.2936 20.5535 27.3103 20.5456 27.319C20.6865 27.3103 20.6532 27.1869 20.6944 27.1125C20.7189 27.1204 20.7521 27.137 20.7775 27.1291C20.8504 27.1108 20.9222 27.0886 20.9927 27.0626C21.0759 27.0381 21.1581 27.0128 21.2412 26.9795C21.3734 26.9218 21.4976 26.8474 21.6297 26.7809C21.6626 26.7768 21.6958 26.7768 21.7286 26.7809C21.7515 26.7779 21.7723 26.7659 21.7864 26.7476C21.8196 26.7231 21.8529 26.6733 21.8739 26.6811C21.8978 26.6879 21.9228 26.6898 21.9474 26.6868C21.9721 26.6838 21.9959 26.6759 22.0175 26.6636C22.039 26.6513 22.058 26.6349 22.0731 26.6152C22.0883 26.5955 22.0994 26.573 22.1057 26.549C22.1145 26.549 22.1145 26.5403 22.1224 26.5403C22.1619 26.5085 22.2034 26.4793 22.2466 26.4528C22.4286 26.3539 22.6019 26.2541 22.7839 26.1553C22.7917 26.1474 22.8084 26.1553 22.825 26.1553C22.8501 26.1572 22.8753 26.1545 22.8994 26.1474C23.007 26.0975 23.1059 26.0398 23.2056 25.982C23.1811 25.9733 23.2056 25.9654 23.1234 25.9575V25.94C23.1769 25.9305 23.2295 25.9168 23.2809 25.8989L23.2642 25.8823C23.4795 25.667 23.7525 25.5104 23.959 25.3284C23.9862 25.3364 24.014 25.342 24.0421 25.345C24.0487 25.3235 24.0516 25.301 24.0509 25.2785C24.0822 25.2334 24.1183 25.1917 24.1585 25.1543C24.3405 24.9889 24.5391 24.848 24.7045 24.6748C24.9442 24.435 25.1761 24.1865 25.3914 23.9301C25.595 23.7034 25.7829 23.4631 25.954 23.2109C26.1859 22.8556 26.3845 22.4916 26.591 22.1189C26.7397 21.8564 26.8719 21.5939 27.0215 21.3253C27.0381 21.3008 27.0714 21.2675 27.0959 21.2675C27.319 21.243 27.5421 21.2264 27.7574 21.201C27.8126 21.186 27.8656 21.1636 27.9149 21.1345C27.8904 21.0934 27.8737 21.047 27.8484 21.0024C27.823 20.9578 27.7661 20.9149 27.7329 20.8615C27.7004 20.8175 27.6725 20.7703 27.6497 20.7206C27.6252 20.6795 27.5999 20.6463 27.5754 20.6051C27.5235 20.5141 27.4765 20.4203 27.4345 20.3243C27.4215 20.297 27.4158 20.2669 27.4179 20.2368C27.5666 19.9139 27.6244 19.5665 27.7679 19.2445C27.8885 18.9015 27.9718 18.5466 28.0164 18.1858C28.0741 17.8463 28.1039 17.5076 28.1485 17.1681C28.173 16.9284 28.2062 16.6965 28.215 16.4568C28.2518 16.094 28.26 15.7288 28.2395 15.3648L28.2404 15.3613ZM7.44774 24.5916C7.38999 24.5251 7.34012 24.4508 7.28237 24.3851L7.30687 24.3606C7.39437 24.4604 7.48887 24.5593 7.57987 24.6669C7.53147 24.6508 7.48661 24.6247 7.44774 24.5916ZM7.57987 24.666C7.60437 24.6581 7.62974 24.6581 7.65424 24.6494C7.67874 24.6905 7.69537 24.7369 7.72074 24.7903C7.60524 24.7824 7.54574 24.7325 7.57987 24.666ZM16.1811 28.0785V28.0575L16.644 28.0076V28.0321C16.4907 28.0569 16.3362 28.0736 16.1811 28.082V28.0785ZM18.2654 27.8633C18.1499 27.8878 18.0256 27.9044 17.9101 27.921C17.869 27.9298 17.8226 27.9709 17.8025 27.8965C17.7859 27.9044 17.7692 27.9044 17.7526 27.9131C17.7937 28.0374 17.8935 27.9376 17.9757 27.9875C17.7937 28.012 17.6205 28.0286 17.4507 28.054V28.0374L17.6082 28.0129V27.9875C17.5257 27.9778 17.4428 27.9723 17.3597 27.9709C17.3352 27.9709 17.302 28.0041 17.2775 28.012C17.2425 28.0222 17.2063 28.0278 17.1699 28.0286C17.029 28.0365 16.889 28.0365 16.756 28.0453C16.7481 28.0453 16.7315 28.0365 16.7227 28.0365V28.012L18.3765 27.7889C18.3844 27.8055 18.3844 27.8221 18.3931 27.8388C18.3509 27.8421 18.3092 27.8504 18.2689 27.8633H18.2654ZM18.3896 27.7801C18.5795 27.7556 18.7536 27.739 18.9356 27.7136C18.555 27.8213 18.4307 27.8379 18.3896 27.7801ZM11.1875 11.086C11.45 10.722 11.7247 10.358 11.9899 9.98614C12.0721 9.87852 12.1386 9.76302 12.2217 9.65539C12.2512 9.62372 12.2844 9.5958 12.3206 9.57227L12.3119 9.55564C12.3424 9.5223 12.37 9.48628 12.3941 9.44802C12.4321 9.37866 12.4651 9.30674 12.493 9.23277C12.5017 9.21954 12.513 9.20822 12.5262 9.19952C12.6417 9.25727 12.6417 9.13302 12.6837 9.09189C12.7581 9.00964 12.8325 8.91689 12.899 8.83552C12.9506 8.77274 12.9977 8.70636 13.0399 8.63689C13.0477 8.61239 13.0232 8.57039 13.0154 8.53802H12.9909C13.0154 8.52139 13.0407 8.49689 13.0652 8.48027C13.074 8.48027 13.074 8.48027 13.0819 8.47239C13.1317 8.39802 13.1807 8.32364 13.2306 8.25714C13.3292 8.12287 13.4371 7.99568 13.5535 7.87652C13.5369 7.91764 13.5202 7.95964 13.5036 7.99202C13.5115 7.99202 13.5115 8.00077 13.5202 8.00077C13.6191 7.86864 13.7267 7.74439 13.8265 7.61227C13.8177 7.60439 13.8099 7.59564 13.802 7.59564C13.7609 7.63677 13.7276 7.67789 13.6865 7.71989C13.6777 7.71202 13.6699 7.70327 13.662 7.70327C13.7451 7.59564 13.8274 7.48802 13.9105 7.36377C13.9349 7.40392 13.9571 7.4454 13.977 7.48802C14.0102 7.40489 14.0435 7.34714 14.0645 7.28939C14.04 7.31389 14.0067 7.33927 13.9822 7.36377L13.9569 7.33752L14.1056 7.11439C14.2631 6.89127 14.4197 6.65939 14.5772 6.43627C14.635 6.35314 14.7094 6.28752 14.7592 6.20439C14.9408 5.90873 15.1397 5.62414 15.3551 5.35214C15.4004 5.29575 15.4502 5.24308 15.5039 5.19464C15.545 5.14477 15.5782 5.16139 15.6115 5.20339C15.8346 5.48427 16.0577 5.77389 16.2817 6.05564C16.4471 6.26214 16.6125 6.46077 16.77 6.67602C16.9599 6.93852 17.1419 7.20102 17.3326 7.46964C17.5479 7.77589 17.7631 8.08214 17.9696 8.39627C18.2837 8.85914 18.5821 9.32289 18.8962 9.78577C19.1281 10.1253 19.3591 10.456 19.5831 10.7946H19.1614C18.7729 10.7859 18.3739 10.7535 17.9871 10.7701C17.4621 10.7946 16.9205 10.8524 16.3911 10.8944C15.7209 10.9521 15.0427 10.9609 14.3734 10.9609C14.1336 10.9609 13.8939 10.9941 13.6541 11.0108C13.3645 11.0274 13.0836 11.044 12.794 11.0519C12.4545 11.0685 12.1237 11.0764 11.7851 11.0851C11.5952 11.0939 11.3966 11.0851 11.1892 11.0851L11.1875 11.086ZM20.6725 14.8905V14.9649C20.6646 14.9649 20.6559 14.9728 20.6392 14.9728C20.606 14.8573 20.5727 14.733 20.5316 14.6175C20.4564 14.3722 20.3478 14.1384 20.2087 13.9228C20.0434 13.6909 19.8946 13.4511 19.7292 13.2114C19.684 13.155 19.6343 13.1023 19.5805 13.0539C19.4147 12.8541 19.2229 12.6775 19.01 12.5289C18.6809 12.3246 18.3349 12.149 17.9757 12.0039C17.8759 11.9609 17.7792 11.9112 17.6861 11.8551H17.8847L19.2987 11.8306C19.605 11.8219 19.9025 11.8219 20.2087 11.8061C20.2407 11.8036 20.2727 11.8105 20.3007 11.8261C20.3287 11.8417 20.3515 11.8652 20.3662 11.8936C20.4406 12.0179 20.515 12.1413 20.5981 12.2655C20.6113 12.2855 20.6196 12.3083 20.6226 12.332C20.6226 12.514 20.6226 12.7039 20.6305 12.8859C20.6384 13.0679 20.655 13.2578 20.6637 13.4485C20.6725 13.6393 20.6471 13.837 20.655 14.0356C20.6637 14.3165 20.6716 14.6061 20.6716 14.8958L20.6725 14.8905ZM11.7737 12.1194C12.1622 12.1028 12.535 12.0783 12.9112 12.0616C13.2087 12.045 13.515 12.0371 13.8125 12.0205C13.9335 12.0081 14.0555 12.0081 14.1765 12.0205C14.0442 12.0823 13.917 12.1543 13.7959 12.2358C13.6471 12.3346 13.5062 12.4676 13.3584 12.5753C13.2097 12.6868 13.0738 12.8144 12.9532 12.9559C12.7957 13.1458 12.6225 13.3111 12.4571 13.4931C12.3338 13.6195 12.217 13.7521 12.1071 13.8904C11.9662 14.0724 11.8446 14.271 11.7099 14.4775C11.751 13.69 11.7974 12.9148 11.7676 12.1203L11.7737 12.1194ZM17.1742 20.0758C16.908 20.1507 16.6374 20.2091 16.364 20.2508C16.1277 20.2756 15.89 20.2838 15.6526 20.2753C15.4374 20.2753 15.2309 20.2674 15.0156 20.2508C14.7713 20.239 14.5307 20.1857 14.3042 20.0933C14.1056 20.0058 13.8991 19.9183 13.7005 19.8203C13.4923 19.7282 13.3061 19.5928 13.1545 19.423C13.035 19.2941 12.905 19.1753 12.766 19.0678C12.7905 19.1676 12.8534 19.2538 12.941 19.3075C12.8999 19.3574 12.8421 19.332 12.759 19.1999C12.7377 19.2126 12.7155 19.2238 12.6925 19.2331C12.717 19.1754 12.7424 19.1176 12.7669 19.0678C12.7336 19.0013 12.6925 18.9269 12.6592 18.8613C12.5927 18.7529 12.5294 18.6426 12.4694 18.5305C12.4527 18.506 12.4527 18.4806 12.4361 18.4561C12.3951 18.4086 12.3565 18.359 12.3206 18.3074C12.2575 18.2016 12.1886 18.0993 12.1141 18.0011C12.1141 18.0256 12.122 18.051 12.122 18.0834C12.1157 18.0841 12.1099 18.0869 12.1054 18.0913L11.9304 17.6695C11.9216 17.6695 11.9216 17.6695 11.9137 17.6783L12.0625 18.2243C12.0537 18.2243 12.0459 18.233 12.038 18.233C12.0111 18.2003 11.9887 18.1641 11.9715 18.1254C11.9549 18.0589 11.905 18.0589 11.8639 18.0843C11.8508 18.0969 11.841 18.1125 11.8352 18.1297C11.8295 18.1469 11.8279 18.1652 11.8306 18.1831C11.8884 18.324 11.9549 18.464 12.0205 18.6049C12.0362 18.6532 12.0555 18.7003 12.0782 18.7458C12.087 18.7624 12.1115 18.779 12.1115 18.8035C12.1395 18.8693 12.1726 18.9328 12.2104 18.9934C12.2847 19.0923 12.3679 19.192 12.4422 19.2909C12.5166 19.3898 12.5831 19.4974 12.6487 19.5971C12.6575 19.6138 12.682 19.6138 12.6899 19.6216C12.731 19.7459 12.8719 19.8369 12.9707 19.787C12.9952 19.9769 13.2026 20.0434 13.2849 20.2245C13.2036 20.1918 13.1236 20.1559 13.0451 20.1169C13.0372 20.1256 13.0372 20.1335 13.0285 20.1501C13.1277 20.1976 13.2243 20.2502 13.3181 20.3076C13.4011 20.3553 13.4812 20.4079 13.5579 20.4651C13.6589 20.5541 13.7818 20.6145 13.914 20.6401C13.9109 20.628 13.9052 20.6167 13.8974 20.6069C14.1292 20.7145 14.369 20.83 14.551 20.921C13.6909 20.9376 12.773 20.9543 11.8219 20.9709C11.8219 20.8134 11.814 20.6646 11.814 20.508C11.8208 20.445 11.8234 20.3815 11.8219 20.3181C11.7974 19.9375 11.7974 19.5569 11.7475 19.185C11.7048 18.7922 11.6911 18.3968 11.7064 18.002C11.7142 17.7868 11.6976 17.5645 11.6897 17.3484C11.6897 17.0588 11.6897 16.7779 11.6976 16.4883C11.701 16.4479 11.7123 16.4087 11.7309 16.3728H11.7554C11.7632 16.3894 11.7554 16.4139 11.772 16.4226C11.7965 16.4471 11.8385 16.4891 11.8551 16.4804C11.905 16.4471 11.9794 16.4139 11.996 16.3649C12.035 16.2676 12.0547 16.1635 12.0537 16.0586C12.0565 15.9947 12.0798 15.9333 12.1202 15.8836C12.1356 15.8571 12.1493 15.8296 12.1614 15.8014C12.1281 15.7769 12.0949 15.7603 12.0537 15.727C12.087 15.6395 12.0782 15.5284 12.2025 15.4785C12.2191 15.4698 12.2191 15.4286 12.227 15.4041L12.2515 15.1976C12.2631 15.2159 12.2769 15.2327 12.2926 15.2475C12.297 15.2386 12.3026 15.2303 12.3092 15.223C12.3092 15.1898 12.3014 15.1241 12.3092 15.1241C12.4081 15.1075 12.367 14.9999 12.4169 14.9491C12.4247 14.9413 12.4081 14.9159 12.4081 14.8993C12.4081 14.8826 12.4081 14.8581 12.4169 14.8581C12.5324 14.8336 12.5157 14.7094 12.5919 14.6516C12.6164 14.635 12.6251 14.6105 12.6584 14.5694C12.7249 14.6849 12.6085 14.7444 12.6006 14.8258C12.7415 14.7426 12.7826 14.5449 12.6995 14.4863C12.7324 14.4611 12.7618 14.4316 12.787 14.3988C12.8745 14.2999 12.9769 14.2089 13.06 14.1091C13.1177 14.0348 13.1475 13.9438 13.2087 13.8694C13.2515 13.8272 13.302 13.7937 13.3575 13.7705C13.5084 13.6988 13.6391 13.5909 13.7381 13.4564C13.7587 13.4378 13.781 13.4211 13.8046 13.4065C13.8291 13.3899 13.879 13.3899 13.8869 13.3654C13.8947 13.3409 13.8702 13.3076 13.8536 13.2831C13.8869 13.2665 13.9201 13.2333 13.9857 13.2009C13.9612 13.2508 13.9525 13.2831 13.9359 13.3164L13.977 13.3575C14.0514 13.2998 14.1669 13.2333 14.2395 13.1825C14.2395 13.1746 14.1984 13.1414 14.1984 13.1414C14.1485 13.1659 14.0741 13.2079 13.9997 13.2403C14.0164 13.2158 14.0164 13.1991 14.0242 13.1904C14.1379 13.1137 14.2566 13.0447 14.3795 12.9839C14.6691 12.8518 14.9587 12.7214 15.2475 12.5954C15.3046 12.58 15.3643 12.5773 15.4225 12.5875C15.445 12.589 15.4675 12.5863 15.489 12.5796C15.6211 12.5385 15.7515 12.4974 15.8862 12.4641C15.9455 12.4479 16.0068 12.4396 16.0682 12.4396C16.3167 12.4475 16.5644 12.4475 16.8129 12.4641C16.9173 12.4735 17.0202 12.4958 17.1191 12.5306C17.2465 12.5746 17.3708 12.6272 17.491 12.6881C17.6307 12.7631 17.766 12.846 17.8961 12.9366C18.1359 13.0941 18.359 13.2674 18.5961 13.4083C18.8202 13.5483 19.012 13.7345 19.1587 13.9543C19.3641 14.1904 19.524 14.4624 19.6304 14.7566L19.7546 15.3026C19.799 15.4011 19.8188 15.5089 19.8124 15.6168C19.7712 15.8233 19.738 16.0385 19.7047 16.245C19.6844 16.3259 19.6761 16.4093 19.6802 16.4926C19.6778 16.741 19.6153 16.985 19.4982 17.204C19.465 17.2784 19.4151 17.3528 19.374 17.4359C19.3944 17.4502 19.4168 17.4615 19.4405 17.4691L19.5149 17.3204C19.5227 17.3204 19.5227 17.3204 19.5315 17.3291C19.4904 17.4446 19.4571 17.5689 19.416 17.6844C19.3171 17.9408 19.2174 18.2094 19.0931 18.4535C19.0132 18.588 18.9256 18.7177 18.8306 18.842C18.7475 18.9575 18.6819 19.0818 18.5987 19.192C18.5291 19.2868 18.4456 19.3705 18.3511 19.4405C18.1299 19.6099 17.8978 19.7645 17.6564 19.9034C17.5037 19.9882 17.3391 20.0496 17.1681 20.0854L17.1742 20.0758ZM12.766 19.6383L12.7581 19.6461C12.7372 19.6382 12.7177 19.627 12.7004 19.6129L12.5 19.3154C12.4911 19.3037 12.4849 19.2902 12.482 19.2758C12.4792 19.2614 12.4796 19.2465 12.4834 19.2323C12.5709 19.3731 12.6654 19.5053 12.7642 19.6374L12.766 19.6383ZM17.9101 20.7714C18.2654 20.6164 18.5911 20.4009 18.8726 20.1344C18.9127 20.0916 18.957 20.0529 19.0047 20.0189C19.3385 19.7984 19.623 19.5112 19.8404 19.1754C20.0824 18.7838 20.3007 18.3779 20.494 17.96C20.509 17.9299 20.5256 17.9007 20.5439 17.8725C20.5455 18.8099 20.6175 19.7459 20.7591 20.6725L17.9136 20.7714H17.9101ZM26.297 20.5238C26.2882 20.5404 26.2725 20.557 26.2637 20.5736C26.2564 20.5493 26.2508 20.5244 26.2471 20.4993C26.1972 20.6314 26.0896 20.5658 26.0152 20.5658C25.569 20.5736 25.114 20.5736 24.6669 20.5736C24.2364 20.5736 23.7989 20.5736 23.3684 20.5824C23.2275 20.5824 23.0787 20.6156 22.9379 20.6235C22.5984 20.6401 22.2597 20.648 21.9202 20.6568C21.8957 20.6568 21.8704 20.6156 21.8327 20.5824C21.8182 20.6085 21.8015 20.6334 21.7829 20.6568C21.775 20.6401 21.7584 20.6235 21.7417 20.599C21.735 20.6217 21.7268 20.6439 21.7172 20.6655H21.6875C21.6628 20.5537 21.6461 20.4402 21.6376 20.326C21.6376 20.0775 21.6621 19.8299 21.6709 19.5814C21.6787 19.4659 21.6709 19.3583 21.6709 19.2506L21.7584 19.3171C21.7731 19.2883 21.7898 19.2606 21.8082 19.234C21.796 19.2275 21.7848 19.2193 21.775 19.2095C21.7916 19.2016 21.8082 19.185 21.8082 19.1763C21.8187 19.155 21.8269 19.1327 21.8327 19.1098C21.8293 19.0566 21.8211 19.0039 21.8082 18.9523C21.8127 18.9528 21.8171 18.9524 21.8214 18.951C21.8256 18.9497 21.8295 18.9474 21.8327 18.9444L21.8826 19.192H21.9071C21.8739 19.1343 21.9815 19.0844 21.8905 19.017C21.8826 19.0091 21.8992 18.9593 21.8992 18.9348C21.8743 18.8808 21.8521 18.8256 21.8327 18.7694C21.8506 18.7582 21.8701 18.7499 21.8905 18.7449C21.8639 18.7296 21.8365 18.7158 21.8082 18.7038C21.8905 18.6294 21.8905 18.5883 21.817 18.5051C21.8336 18.4973 21.8502 18.4973 21.8502 18.4885C21.8529 18.4138 21.8474 18.3389 21.8336 18.2654C21.817 18.1831 21.8581 18.0834 21.7347 18.0335C21.7424 18.0572 21.7536 18.0796 21.768 18.1C21.7505 18.1062 21.7337 18.1144 21.7181 18.1245C21.6105 18.0256 21.677 17.8926 21.6516 17.7439C21.6995 17.7579 21.7465 17.7746 21.7925 17.7938C21.7759 17.736 21.7347 17.6695 21.7102 17.5951H21.677V17.05C21.677 17.0579 21.7347 17.0579 21.7645 17.0666C21.7645 17.0588 21.7724 17.05 21.7724 17.0421C21.7479 17.0089 21.7146 16.9756 21.6849 16.9345L21.7015 16.9179C21.6613 16.8509 21.6493 16.7706 21.6682 16.6948V16.1155C21.7505 16.1978 21.6271 16.3054 21.7505 16.3553V16.2713H21.7426C21.7339 16.147 21.7339 16.0228 21.726 15.8994H21.7094C21.7015 15.916 21.7015 15.9239 21.6927 15.9405H21.6761L21.726 13.9639C21.8112 14.0625 21.8887 14.1675 21.9579 14.278C22.1592 14.6137 22.3831 14.9353 22.6281 15.2405C22.8267 15.5135 23.0087 15.811 23.1907 16.0928C23.4139 16.4323 23.6282 16.7709 23.8522 17.1104C24.0176 17.3668 24.1917 17.6231 24.365 17.8716C24.5225 18.0948 24.6879 18.3091 24.8532 18.5253C24.9941 18.7151 25.1429 18.9059 25.2829 19.0958C25.4482 19.3276 25.6136 19.5586 25.779 19.7826C25.8612 19.8981 25.954 20.0145 26.0415 20.1326C26.0934 20.1919 26.1521 20.2448 26.2165 20.2901C26.2048 20.2904 26.1933 20.2874 26.1832 20.2814C26.201 20.3073 26.2203 20.3321 26.241 20.3558C26.3285 20.4056 26.3399 20.4546 26.2909 20.5308L26.297 20.5238ZM26.7187 18.4561V18.3984C26.7187 18.415 26.7266 18.4395 26.7187 18.4561ZM26.9996 14.8091C26.9755 14.7923 26.9532 14.7729 26.9331 14.7514C26.9244 14.7759 26.9331 14.8013 26.9165 14.8336C26.9086 14.8091 26.85 14.817 26.85 14.7925C26.8412 14.908 26.8999 15.0244 26.8911 15.1425C26.9156 15.1259 27.0154 15.118 27.0399 15.0926C27.049 15.1014 27.0606 15.1073 27.0731 15.1093C26.9077 15.2335 26.9489 15.3578 27.0232 15.4978C27.0399 15.531 27.0897 15.5966 27.0399 15.6631C27.0232 15.6798 27.0486 15.7296 27.0565 15.7708H27.081V15.7874L27.0066 15.8119C26.99 15.7874 26.8911 15.7375 26.8911 15.6964V16.1181C26.9734 16.1426 26.9734 16.259 27.0066 16.3168C27.021 16.2964 27.0322 16.274 27.0399 16.2503L27.0486 16.2581C27.0415 16.3085 27.0304 16.3583 27.0154 16.4069C26.9976 16.4778 26.9839 16.5497 26.9742 16.6221C26.9742 16.63 26.9909 16.6466 26.9909 16.6554C26.9371 16.869 26.9121 17.0888 26.9165 17.309C26.892 17.4665 26.9165 17.6319 26.8999 17.7973C26.8805 17.9422 26.853 18.0859 26.8176 18.2278C26.8097 18.2523 26.7931 18.261 26.7511 18.2776C26.7649 18.1924 26.7619 18.1053 26.7424 18.0213C26.7345 18.0213 26.6269 17.9635 26.6181 17.9635C26.6372 18.1005 26.6664 18.236 26.7056 18.3686C26.6811 18.3608 26.5814 18.3021 26.5735 18.3021C26.5569 18.401 26.5569 18.534 26.549 18.6416C26.5402 18.7239 26.4659 18.7991 26.4615 18.8901C26.4615 18.94 26.5192 18.9724 26.5114 19.0555H26.5779C26.5779 18.8901 26.6522 18.7414 26.6522 18.5673H26.675C26.6829 18.5839 26.7082 18.6005 26.6995 18.6084C26.6737 18.6999 26.6599 18.7943 26.6584 18.8893C26.6584 18.9391 26.6995 18.9881 26.6829 19.0468C26.6654 19.1037 26.6542 19.1624 26.6496 19.2218C26.6416 19.1949 26.6361 19.1674 26.633 19.1395L26.5455 19.1316C26.5376 19.1815 26.6032 19.2305 26.5954 19.2725C26.5866 19.2813 26.5787 19.2813 26.5621 19.2891L26.2891 18.8919C26.0739 18.5778 25.8586 18.2636 25.6442 17.9408C25.5886 17.8617 25.5389 17.7786 25.4955 17.6923C25.2393 17.2524 24.9546 16.8297 24.6432 16.427C24.4035 16.1208 24.2127 15.79 23.9896 15.4645C23.7831 15.1583 23.5757 14.8608 23.3692 14.5545C23.2949 14.4556 23.2039 14.3646 23.1374 14.257C22.9221 13.9175 22.7322 13.5701 22.517 13.2315C22.335 12.9506 22.1364 12.6776 21.9465 12.4046C21.88 12.3171 21.8144 12.2148 21.7479 12.115C21.7375 12.0975 21.7318 12.0776 21.7312 12.0573C21.7146 11.8753 21.698 11.6933 21.6901 11.52C21.6822 11.3468 21.7067 11.1893 21.7067 11.0151V10.8664C21.7067 10.8253 21.7146 10.792 21.7146 10.7509C21.7225 10.7421 21.7312 10.7264 21.7391 10.7176C21.4994 10.7176 21.2509 10.7098 21.0111 10.7176C20.9427 10.7207 20.8747 10.7062 20.8134 10.6755C20.7522 10.6449 20.6998 10.5992 20.6611 10.5426C20.3689 10.1777 20.0956 9.79802 19.8421 9.40514C19.5857 9.04114 19.3171 8.68589 19.0546 8.32977C18.8394 8.04014 18.625 7.75927 18.4097 7.46964C18.17 7.13889 17.9381 6.80814 17.6905 6.47739C17.393 6.08014 17.0867 5.68377 16.7805 5.28652C16.6396 5.10452 16.483 4.93127 16.3255 4.74052C16.4331 4.75714 16.532 4.77377 16.6317 4.78164L17.029 4.80614C17.3265 4.83064 17.6249 4.84727 17.9224 4.88927C18.1709 4.92252 18.4185 4.97239 18.6749 5.01352C19.2198 5.10944 19.7563 5.24782 20.2796 5.42739C20.5859 5.52627 20.8834 5.65927 21.1809 5.78264C21.8455 6.05821 22.4933 6.37289 23.1207 6.72502C23.298 6.8444 23.4544 6.99222 23.5836 7.16252C23.7989 7.38564 24.0141 7.60877 24.2206 7.84064C24.4604 8.11364 24.6835 8.39452 24.9154 8.67627C25.1219 8.92477 25.3371 9.17239 25.5436 9.42089C25.6067 9.50031 25.6651 9.58328 25.7186 9.66939C25.8507 9.86802 25.9995 10.0579 26.1159 10.2731C26.1927 10.4387 26.2562 10.6102 26.3057 10.7859C26.388 11.0423 26.4711 11.2908 26.5542 11.5471C26.612 11.737 26.6619 11.9356 26.703 12.1343C26.7362 12.2664 26.7275 12.4073 26.7695 12.5394C26.8194 12.7144 26.7695 12.9034 26.8194 13.0766L26.8439 13.1344C26.8771 13.1676 26.9016 13.2009 26.8526 13.2499C26.8439 13.2712 26.8439 13.2951 26.8526 13.3164C26.8682 13.2986 26.882 13.2792 26.8937 13.2586C26.8937 13.2753 26.9016 13.2831 26.9016 13.2919C26.8975 13.3247 26.8975 13.3579 26.9016 13.3908C26.9062 13.4113 26.9145 13.4309 26.9261 13.4485C26.9472 13.4305 26.9694 13.4139 26.9926 13.3986C27.0572 13.6779 27.0848 13.9644 27.0749 14.2509C27.1106 14.5226 27.088 14.7989 27.0084 15.0611C27.0329 14.9736 26.9751 14.8861 26.9996 14.8048V14.8091Z" fill="#FB4934"/>
<path d="M21.7426 18.051C21.749 18.052 21.7549 18.0551 21.7593 18.0598L21.7505 18.051C21.7505 18.0431 21.7505 18.0431 21.7426 18.051ZM23.049 26.2226C22.9617 26.2931 22.8603 26.3439 22.7515 26.3714C22.7436 26.3635 22.7436 26.3548 22.7349 26.3469C22.8224 26.2891 22.9248 26.2314 23.0158 26.1719C23.0236 26.1885 23.0403 26.2051 23.049 26.2218V26.2226ZM7.54139 15.0156C7.62889 14.9001 7.72339 14.7838 7.82226 14.6656C7.83014 14.6735 7.89664 14.6901 7.90539 14.6989C7.81789 14.8144 7.69014 14.9719 7.59914 15.0961C7.58251 15.0795 7.55801 15.0218 7.54139 15.0139V15.0156ZM5.19289 19.0686C5.12639 18.9278 5.06076 18.779 4.99426 18.6381C5.0174 18.6237 5.04243 18.6125 5.06864 18.6049C5.14658 18.7427 5.21301 18.8867 5.26726 19.0354C5.24318 19.048 5.21834 19.0591 5.19289 19.0686ZM7.30164 15.0988C7.25176 15.1731 7.20276 15.2563 7.15289 15.3306C7.14501 15.3228 7.05401 15.3639 7.04526 15.3551C7.09514 15.2808 7.22026 15.1486 7.26839 15.0743C7.27786 15.0844 7.28913 15.0927 7.30164 15.0988ZM22.1635 26.5613C22.1723 26.5613 22.1723 26.5525 22.1801 26.5525C22.243 26.5625 22.3064 26.5681 22.37 26.5691C22.2624 26.6435 22.195 26.6356 22.1635 26.5613ZM7.31826 15.4453C7.32882 15.4189 7.34263 15.3939 7.35939 15.3709C7.37337 15.37 7.38718 15.3673 7.40051 15.363C7.43376 15.3053 7.43376 15.2641 7.46701 15.2143C7.45914 15.2064 7.45039 15.2064 7.44251 15.1976C7.39264 15.2309 7.34364 15.272 7.29376 15.3053C7.29981 15.3101 7.30452 15.3165 7.30743 15.3237C7.31034 15.3309 7.31136 15.3387 7.31039 15.3464C7.24389 15.3385 7.22289 15.3709 7.18614 15.4619C7.17739 15.4864 7.13626 15.4951 7.09864 15.5284C7.09076 15.545 7.08201 15.5861 7.06539 15.6273L7.07414 15.636C7.06217 15.6468 7.0482 15.6551 7.03301 15.6605C6.98314 15.7104 6.92539 15.748 6.87551 15.8014C6.86604 15.8251 6.86043 15.8503 6.85889 15.8758C6.91664 15.818 7.01639 15.7104 7.09076 15.6439L7.09864 15.6518C7.13189 15.6019 7.15639 15.5529 7.18614 15.503C7.19401 15.5109 7.19401 15.5196 7.20276 15.5275L7.12839 15.734C7.11176 15.7419 7.08726 15.7585 7.08726 15.7506C7.05401 15.7751 7.02951 15.8084 6.99976 15.8338L6.85101 15.9326C6.76789 16.007 6.68564 16.0735 6.59464 16.1479C6.53689 16.2354 6.47914 16.3229 6.41264 16.4288C6.51151 16.4043 6.53689 16.4454 6.52814 16.5276C6.64364 16.5443 6.65239 16.4533 6.68564 16.3868C6.69439 16.3701 6.70226 16.3369 6.71889 16.329C6.79326 16.2625 6.87639 16.2048 6.95864 16.1391C6.97277 16.1171 6.97866 16.0907 6.97526 16.0648C6.97526 16.0569 6.93414 16.0569 6.90876 16.0481C6.98314 15.965 7.09076 15.825 7.16514 15.734C7.20626 15.7095 7.24739 15.6763 7.24739 15.6509C7.23864 15.5634 7.29726 15.5354 7.36289 15.5021C7.35238 15.4959 7.3433 15.4876 7.33621 15.4776C7.32913 15.4677 7.32421 15.4564 7.32176 15.4444L7.31826 15.4453Z" fill="#FB4934"/>
<path d="M7.48363 15.3543C7.45038 15.412 7.41713 15.4619 7.38476 15.5196L7.33751 15.4951C7.32955 15.5766 7.30138 15.6548 7.25554 15.7227C7.2097 15.7905 7.14764 15.8458 7.07501 15.8836C7.10058 15.9014 7.13141 15.9101 7.16251 15.9081C7.18701 15.9003 7.20363 15.8583 7.22026 15.8338L7.44338 15.5109L7.51251 15.3875L7.47926 15.3543H7.48363ZM4.72913 18.9855C4.77026 18.9855 4.81226 18.9943 4.86126 18.9943C4.86126 18.961 4.90238 18.9698 4.90238 18.9365H4.92688C4.92688 18.9776 4.93563 19.0109 4.93563 19.052H4.76063C4.75188 19.0433 4.71951 18.9943 4.72738 18.9855H4.72913ZM4.66263 18.6049C4.63813 18.5804 4.59613 18.555 4.59613 18.5305C4.59613 18.506 4.61276 18.4561 4.63726 18.415C4.65388 18.4728 4.66176 18.5226 4.67838 18.5804C4.66963 18.5883 4.66263 18.597 4.66263 18.6049ZM4.86913 18.0799C4.90238 18.163 4.93563 18.2549 4.96801 18.3363C4.9443 18.3439 4.92188 18.3552 4.90151 18.3695C4.86826 18.2873 4.82713 18.1945 4.79388 18.1131C4.81618 18.0972 4.84235 18.0858 4.86913 18.0799ZM23.2791 25.9864C23.3308 25.9696 23.3834 25.9558 23.4366 25.9453C23.373 25.9911 23.3123 26.0408 23.2546 26.094C23.2459 26.0853 23.238 26.0774 23.2301 26.0774C23.2468 26.0441 23.2634 26.0196 23.28 25.9899L23.2791 25.9864ZM13.1125 8.50651C13.1624 8.47326 13.2 8.44876 13.2534 8.41901L13.27 8.43563C13.2201 8.50213 13.1825 8.56776 13.1213 8.65088C13.1134 8.59313 13.1134 8.56338 13.1046 8.51876C13.0968 8.51876 13.1046 8.51876 13.1134 8.51088L13.1125 8.50651ZM15.5354 12.6916L15.7751 12.584C15.7686 12.6222 15.7657 12.6608 15.7664 12.6995C15.7396 12.69 15.7116 12.6844 15.6833 12.6829C15.6334 12.6908 15.5424 12.7573 15.5013 12.7651C15.4925 12.7651 15.5345 12.6986 15.5345 12.6908L15.5354 12.6916ZM21.7383 19.7048C21.7549 19.787 21.9133 19.829 21.7549 19.9113C21.7794 19.9279 21.8048 19.9358 21.8293 19.9524C21.8272 19.9649 21.8214 19.9765 21.8126 19.9856C21.796 19.9944 21.7628 20.0101 21.7461 20.0023C21.7295 19.9944 21.7216 19.969 21.7216 19.9524C21.7216 19.878 21.7304 19.8045 21.7383 19.7048Z" fill="#FB4934"/>
</svg>
