<svg viewBox="0 0 32 32" fill="none" xmlns="http://www.w3.org/2000/svg">
<path d="M21.1555 21.369L19.2427 19.5831H10.8436L12.7564 21.369H21.1555ZM12.7564 15.1075L10.8436 16.8934H19.2427L21.1555 15.1075H12.7564ZM21.1546 12.4178L19.2427 10.631H10.8436L12.7564 12.4178H21.1546ZM9.9625 14.1853L8.6955 12.9218L4.0125 17.6065C3.84563 17.7742 3.75195 18.0012 3.75195 18.2378C3.75195 18.4744 3.84563 18.7014 4.0125 18.8691L8.69725 23.5539L9.9625 22.2913L5.906 18.2383L9.9625 14.1853ZM27.9875 13.1309L23.3045 8.44525L22.0375 9.70875L26.0887 13.7618L22.0375 17.8156L23.3001 19.0783L27.9875 14.3944C28.0705 14.3114 28.1363 14.2129 28.1812 14.1045C28.2261 13.9961 28.2492 13.88 28.2492 13.7626C28.2492 13.6453 28.2261 13.5291 28.1812 13.4207C28.1363 13.3123 28.0705 13.2138 27.9875 13.1309Z" fill="#FBF1C7"/>
</svg>
