<svg viewBox="0 0 32 32" fill="none" xmlns="http://www.w3.org/2000/svg">
<path d="M15.8994 3.83753C9.68687 3.83753 10.0797 6.52378 10.0797 6.52378V9.31502H15.9877V10.19H7.72687C7.72687 10.19 3.75 9.70002 3.75 16.0044C3.75 22.3088 7.26137 22.0524 7.26137 22.0524H9.28875V19.1115C9.28875 19.1115 9.175 15.6002 12.7012 15.6002H18.618C18.618 15.6002 21.9185 15.6526 21.9185 12.4046V7.07503C21.9185 7.07503 22.419 3.82703 15.9317 3.82703L15.8994 3.83753ZM12.6339 5.7074C12.8439 5.7021 13.0508 5.75921 13.2284 5.87149C13.406 5.98378 13.5462 6.14621 13.6315 6.33823C13.7168 6.53025 13.7432 6.74325 13.7074 6.95028C13.6716 7.15731 13.5752 7.34908 13.4304 7.50133C13.2856 7.65358 13.099 7.75947 12.894 7.80562C12.689 7.85177 12.475 7.8361 12.2789 7.76059C12.0828 7.68508 11.9136 7.55312 11.7925 7.38141C11.6714 7.2097 11.604 7.00594 11.5987 6.7959V6.7784C11.5987 6.49667 11.7107 6.22649 11.9099 6.02728C12.1091 5.82807 12.3793 5.71615 12.661 5.71615L12.6339 5.7074Z" fill="url(#paint0_linear_365_27)"/>
<path d="M16.0743 28.1712C22.2868 28.1712 21.894 25.4762 21.894 25.4762V22.6937H15.9868V21.8187H24.2731C24.2731 21.8187 28.25 22.2632 28.25 15.9956C28.25 9.72797 24.7386 9.9476 24.7386 9.9476H22.685V12.85C22.685 12.85 22.7987 16.3613 19.2725 16.3613H13.3531C13.3531 16.3613 10.05 16.3115 10.05 19.5595V24.925C10.05 24.925 9.54946 28.173 16.0367 28.173H16.0717L16.0743 28.1712ZM19.3398 26.2926C19.1298 26.2979 18.9229 26.2408 18.7453 26.1285C18.5678 26.0162 18.4275 25.8538 18.3422 25.6618C18.2569 25.4697 18.2305 25.2567 18.2663 25.0497C18.3021 24.8427 18.3985 24.6509 18.5433 24.4987C18.6881 24.3464 18.8748 24.2405 19.0797 24.1944C19.2847 24.1482 19.4987 24.1639 19.6948 24.2394C19.8909 24.3149 20.0601 24.4469 20.1812 24.6186C20.3023 24.7903 20.3697 24.9941 20.375 25.2041V25.2303C20.375 25.5121 20.263 25.7823 20.0638 25.9815C19.8646 26.1807 19.5944 26.2926 19.3127 26.2926H19.3398Z" fill="url(#paint1_linear_365_27)"/>
<defs>
<linearGradient id="paint0_linear_365_27" x1="6.17126" y1="6.22006" x2="17.7971" y2="17.8196" gradientUnits="userSpaceOnUse">
<stop stop-color="#458588"/>
<stop offset="1" stop-color="#458588"/>
</linearGradient>
<linearGradient id="paint1_linear_365_27" x1="13.049" y1="13.7762" x2="26.3317" y2="25.3722" gradientUnits="userSpaceOnUse">
<stop stop-color="#FABD2F"/>
<stop offset="1" stop-color="#FABD2F"/>
</linearGradient>
</defs>
</svg>
