<svg viewBox="0 0 32 32" fill="none" xmlns="http://www.w3.org/2000/svg">
<path d="M16 18.1647C17.2081 18.1647 18.1875 17.1854 18.1875 15.9772C18.1875 14.7691 17.2081 13.7897 16 13.7897C14.7919 13.7897 13.8125 14.7691 13.8125 15.9772C13.8125 17.1854 14.7919 18.1647 16 18.1647Z" fill="#83A598"/>
<path d="M16 20.9927C13.3707 21.0563 10.7481 20.7019 8.23 19.9427C7.06679 19.574 5.98189 18.9931 5.03013 18.2295C4.66694 17.9686 4.36449 17.6323 4.14352 17.2435C3.92256 16.8547 3.78832 16.4228 3.75 15.9772C3.75 14.5309 5.339 13.1134 8.00075 12.1859C10.5861 11.364 13.2874 10.9657 16 11.0064C18.6764 10.969 21.3415 11.3601 23.8942 12.1649C25.0145 12.522 26.0626 13.0748 26.99 13.7976C27.347 14.0463 27.6449 14.3705 27.8626 14.7472C28.0804 15.1238 28.2126 15.5438 28.25 15.9772C28.25 17.4805 26.4738 19.0039 23.6125 19.9506C21.1432 20.6851 18.5759 21.0365 16 20.9927ZM16 12.0529C13.4048 12.0182 10.8207 12.3968 8.34462 13.1746C5.89462 14.0295 4.7965 15.1985 4.7965 15.9746C4.7965 16.7866 5.97688 18.0632 8.56862 18.9496C10.9776 19.6722 13.4858 20.0086 16 19.9462C18.4644 19.9903 20.9209 19.6569 23.2844 18.9575C25.975 18.0659 27.2 16.7875 27.2 15.9772C27.1559 15.6992 27.0545 15.4333 26.9024 15.1964C26.7503 14.9595 26.5507 14.7567 26.3163 14.6009C25.4865 13.9596 24.5502 13.4697 23.5504 13.1536C21.1083 12.3869 18.5594 12.0153 16 12.0529Z" fill="#83A598"/>
<path d="M11.03 26.8876C10.6218 26.897 10.2185 26.7979 9.86103 26.6006C8.60803 25.8779 8.17403 23.7936 8.6999 21.0242C9.27972 18.3739 10.2844 15.8349 11.6749 13.5054C12.9793 11.1683 14.6492 9.05503 16.6213 7.2456C17.4903 6.45347 18.4928 5.82158 19.5823 5.37923C19.9763 5.19455 20.4062 5.09882 20.8414 5.09882C21.2766 5.09882 21.7065 5.19455 22.1005 5.37923C23.4034 6.12998 23.8348 8.42948 23.2267 11.3809C22.6289 13.8873 21.6504 16.2874 20.3252 18.4972C19.0667 20.8067 17.4494 22.9016 15.5336 24.7036C14.6331 25.5268 13.5879 26.1762 12.451 26.619C11.9959 26.7879 11.5154 26.8787 11.03 26.8876ZM12.5814 14.0251C11.255 16.2558 10.2921 18.6833 9.7289 21.2167C9.24503 23.7674 9.70965 25.3012 10.3852 25.6915C11.0852 26.0966 12.7844 25.7125 14.8476 23.91C16.6764 22.1836 18.2201 20.1783 19.4213 17.9687C20.6908 15.8561 21.6295 13.5615 22.2046 11.1647C22.7769 8.3866 22.2825 6.6856 21.5808 6.28135C21.3178 6.18057 21.0367 6.13546 20.7554 6.14887C20.474 6.16227 20.1985 6.2339 19.9463 6.35923C18.9765 6.7594 18.0849 7.32753 17.3125 8.03748C15.4284 9.77067 13.8333 11.7938 12.5875 14.0304L12.5814 14.0251Z" fill="#83A598"/>
<path d="M20.9674 26.899C19.7818 26.899 18.2759 26.1815 16.7079 24.8331C14.7013 23.0072 13.0031 20.8688 11.6793 18.5007C10.3062 16.2033 9.3095 13.701 8.72704 11.0886C8.47443 9.93928 8.42763 8.75427 8.58879 7.58861C8.62605 7.15619 8.75772 6.73721 8.97452 6.36121C9.19132 5.98522 9.48796 5.66136 9.84354 5.41248C11.1447 4.65911 13.3523 5.43348 15.6054 7.43373C17.4784 9.20314 19.069 11.2493 20.3217 13.501C21.6939 15.7448 22.7011 18.1923 23.3054 20.7521C23.5689 21.9436 23.6095 23.1736 23.4253 24.3799C23.3815 24.8247 23.2419 25.2548 23.0163 25.6407C22.7907 26.0266 22.4842 26.3591 22.118 26.6155C21.7664 26.8104 21.3693 26.9082 20.9674 26.899ZM12.5849 17.974C13.8549 20.2371 15.477 22.2837 17.3904 24.0369C19.3583 25.73 20.9193 26.094 21.5904 25.6994C22.2904 25.2925 22.8067 23.6317 22.2747 20.9446C21.6918 18.5007 20.7258 16.1644 19.4125 14.0225C18.2171 11.8675 16.6989 9.90811 14.9107 8.21248C12.7897 6.32948 11.0694 5.90861 10.3685 6.31461C10.1501 6.49213 9.97082 6.71301 9.84206 6.96332C9.71329 7.21362 9.63782 7.48791 9.62041 7.76886C9.48129 8.80843 9.52661 9.8644 9.75429 10.8882C10.3146 13.3865 11.2704 15.7791 12.5858 17.9757L12.5849 17.974Z" fill="#83A598"/>
</svg>
