<svg viewBox="0 0 32 32" fill="none" xmlns="http://www.w3.org/2000/svg">
<path d="M22.7314 19.9104L8.74365 28.2159L26.8562 26.9909L28.25 8.72437L22.7314 19.9104Z" fill="#FB4934"/>
<path d="M26.885 26.9743L25.3284 16.2301L21.0881 21.8301L26.885 26.9743Z" fill="#FB4934"/>
<path d="M26.906 26.9743L15.5012 26.0791L8.80396 28.1923L26.906 26.9743Z" fill="#FB4934"/>
<path d="M8.81979 28.1949L11.6688 18.8613L5.39941 20.2L8.81979 28.1949Z" fill="#1D2021"/>
<path d="M21.0864 21.8625L18.4614 11.5944L10.9626 18.625L21.0864 21.8625Z" fill="#1D2021"/>
<path d="M27.655 11.7361L20.5675 5.94449L18.5927 12.332L27.655 11.7361Z" fill="#1D2021"/>
<path d="M24.3387 3.87949L20.1676 6.18424L17.5365 3.84799L24.3387 3.87949Z" fill="#1D2021"/>
<path d="M3.75 23.3325L5.5 20.1458L4.08425 16.35L3.75 23.3325Z" fill="#1D2021"/>
<path d="M3.98975 16.2301L5.4125 20.2639L11.5917 18.8779L18.646 12.325L20.6375 5.99787L17.5024 3.78412L12.1727 5.77912C10.4927 7.33749 7.23425 10.4306 7.117 10.4875C6.99975 10.5444 4.96537 14.3935 3.98975 16.2292V16.2301Z" fill="#1D2021"/>
<path d="M8.98341 8.98337C12.6225 5.37574 17.3125 3.24336 19.1142 5.06249C20.9158 6.88161 19.0057 11.2934 15.3665 14.901C11.7274 18.5086 7.09341 20.7547 5.29441 18.9382C3.49541 17.1217 5.34428 12.5875 8.98341 8.98337Z" fill="#FB4934"/>
<path d="M8.8197 28.1914L11.6468 18.8289L21.0347 21.845C17.6406 25.0283 13.865 27.718 8.8197 28.1914Z" fill="#FB4934"/>
<path d="M18.6582 12.3022L21.068 21.8485C23.903 18.8674 26.4483 15.6622 27.6943 11.6985L18.6573 12.3031L18.6582 12.3022Z" fill="#FB4934"/>
<path d="M27.6699 11.7466C28.6324 8.83548 28.8573 4.65911 24.309 3.88474L20.5771 5.94536L27.6699 11.7457V11.7466Z" fill="#FB4934"/>
<path d="M3.75 23.2905C3.88387 28.0943 7.34975 28.166 8.825 28.208L5.4125 20.2455L3.75 23.2905Z" fill="#FB4934"/>
<path d="M18.6714 12.3171C20.8501 13.6567 25.2418 16.3421 25.3301 16.3955C26.3545 14.9789 27.1295 13.3978 27.6218 11.7204L18.6714 12.3171Z" fill="#FB4934"/>
<path d="M11.6434 18.828L15.4226 26.1185C17.481 24.972 19.3628 23.5338 21.0094 21.8485L11.6469 18.828H11.6434Z" fill="#FB4934"/>
<path d="M5.4011 20.2534L4.8656 26.6295C5.87623 28.0094 7.26573 28.1292 8.72348 28.0216C7.6691 25.3966 5.56123 20.1466 5.39848 20.2534H5.4011Z" fill="#FB4934"/>
<path d="M20.5553 5.96201L28.0628 7.01201C27.662 5.31451 26.4318 4.21901 24.3344 3.87601L20.5553 5.95851V5.96201Z" fill="#FB4934"/>
</svg>
