<svg viewBox="0 0 32 32" fill="none" xmlns="http://www.w3.org/2000/svg">
<path d="M16.1496 18.3625C15.7287 18.5559 15.2676 18.8079 14.3445 19.3145C13.9945 19.5114 13.6287 19.7082 13.2884 19.8937C13.2647 19.8701 13.2402 19.8404 13.2166 19.8159C11.3905 17.8646 8.01299 16.4865 8.15649 13.8659C8.20987 12.9112 8.53799 10.4052 14.6429 7.362C19.6671 4.88575 23.665 5.57175 24.3554 7.09337C25.3476 9.2625 22.2125 13.2989 17.0237 13.8842C16.4495 14.0007 15.8564 13.9867 15.2883 13.8431C14.7202 13.6995 14.1916 13.4301 13.7416 13.0547C13.4669 12.7564 13.4257 12.7389 13.3242 12.7984C13.1571 12.8859 13.2647 13.1562 13.3242 13.3111C13.5222 13.6695 13.7899 13.9845 14.1117 14.2376C14.4335 14.4907 14.8027 14.6767 15.1976 14.7846C17.2395 15.226 19.3685 15.0151 21.2841 14.1817C24.4289 12.9646 26.8841 9.581 26.1649 6.74425C25.443 3.86812 20.669 2.91962 16.1522 4.52437C13.3236 5.47759 10.7102 6.97814 8.46099 8.9405C5.97249 11.268 5.57874 13.291 5.73974 14.138C6.31899 17.1454 10.4647 19.1027 12.1272 20.5526C12.0397 20.6007 11.9662 20.6401 11.9006 20.6777C11.0711 21.0899 7.90887 22.7427 7.12049 24.491C6.22537 26.472 7.26399 27.8921 7.94999 28.0829C8.98379 28.3305 10.0691 28.2491 11.0544 27.85C12.0397 27.451 12.8758 26.7541 13.4459 25.8569C13.93 25.1128 14.2273 24.2629 14.3124 23.3793C14.3976 22.4957 14.2681 21.6047 13.935 20.7819C14.1315 20.6251 14.3411 20.4855 14.5615 20.3645C14.985 20.1142 15.3884 19.8675 15.7462 19.6767C16.9716 19.1028 18.3088 18.8073 19.6619 18.8114C22.5021 19.1456 23.063 20.9175 22.9554 21.6639C22.905 21.9287 22.7985 22.1796 22.6431 22.3998C22.4876 22.6201 22.2868 22.8044 22.0541 22.9405C21.8572 23.0656 21.7916 23.1076 21.8091 23.1969C21.8327 23.3281 21.9281 23.322 22.0952 23.2984C22.522 23.1635 22.8979 22.9027 23.1737 22.5502C23.4495 22.1978 23.6122 21.7701 23.6405 21.3235C23.728 19.5735 22.0594 17.6537 19.1054 17.6712C18.2208 17.6728 17.3452 17.8472 16.5276 18.1849C16.3964 18.2391 16.2689 18.2975 16.1452 18.3599L16.1496 18.3625ZM11.9277 25.2216C10.9845 26.248 9.67199 26.6356 9.10499 26.3075C8.49249 25.9575 8.73487 24.4394 9.89249 23.3535C10.5781 22.7358 11.3192 22.1825 12.1062 21.7006C12.2436 21.6131 12.4466 21.4976 12.6907 21.3506L12.7564 21.3147L12.8999 21.2272C13.1063 21.9195 13.1251 22.6541 12.9543 23.356C12.7835 24.0578 12.4292 24.7017 11.9277 25.2216Z" fill="#D3869B"/>
</svg>
