<svg viewBox="0 0 32 32" fill="none" xmlns="http://www.w3.org/2000/svg">
<path d="M20.1432 6.76175L20.2595 3.98538L22.6395 3.83838L22.7463 6.66463C22.748 6.70992 22.7334 6.75433 22.7052 6.78975C22.6898 6.80897 22.6708 6.82491 22.6491 6.83662C22.6275 6.84834 22.6037 6.8556 22.5793 6.85796C22.5548 6.86033 22.5301 6.85776 22.5066 6.8504C22.4832 6.84304 22.4614 6.83105 22.4427 6.81513L21.5239 6.09763L20.4363 6.91488C20.4168 6.93004 20.3946 6.94118 20.3708 6.94763C20.347 6.95409 20.3221 6.95574 20.2977 6.95248C20.2732 6.94922 20.2497 6.94112 20.2284 6.92865C20.2071 6.91619 20.1886 6.89961 20.1738 6.87988C20.1501 6.84526 20.1393 6.80349 20.1432 6.76175Z" fill="#FBF1C7"/>
<path d="M20.2595 3.98451L20.1431 6.76176C20.1413 6.80435 20.1546 6.8462 20.1807 6.87989C20.1955 6.89962 20.2141 6.9162 20.2354 6.92867C20.2567 6.94113 20.2802 6.94923 20.3046 6.95249C20.3291 6.95575 20.3539 6.9541 20.3777 6.94764C20.4015 6.94119 20.4238 6.93005 20.4432 6.91489L21.5309 6.09764L22.4496 6.81514C22.4684 6.83106 22.4901 6.84305 22.5136 6.85041C22.5371 6.85777 22.5618 6.86034 22.5862 6.85797C22.6107 6.85561 22.6345 6.84835 22.6561 6.83663C22.6777 6.82492 22.6968 6.80898 22.7121 6.78976C22.7404 6.75434 22.755 6.70993 22.7532 6.66464L22.6395 3.83751L24.0097 3.75001C24.1722 3.73921 24.3352 3.76055 24.4894 3.81282C24.6436 3.86509 24.786 3.94726 24.9084 4.05462C25.0308 4.16199 25.1308 4.29244 25.2027 4.43851C25.2746 4.58459 25.317 4.74341 25.3275 4.90589V27.018C25.3261 27.3454 25.195 27.6589 24.9629 27.8898C24.7309 28.1207 24.4167 28.2502 24.0894 28.25H24.0316L7.45212 27.5115C7.14159 27.4988 6.84723 27.3697 6.62755 27.1498C6.40788 26.93 6.27898 26.6355 6.26649 26.325L5.49999 6.10376C5.48895 5.78126 5.60452 5.46723 5.82199 5.22883C6.03946 4.99042 6.34158 4.84657 6.66374 4.82801L20.2586 3.98539L20.2595 3.98451Z" fill="#D3869B"/>
<path d="M17.0964 12.9847C17.0964 13.4634 20.3514 13.2341 20.7889 12.8972C20.7889 9.63349 19.0231 7.91849 15.7891 7.91849C12.5551 7.91849 10.7439 9.65974 10.7439 12.2725C10.7439 16.8225 16.9362 16.91 16.9362 19.3915C16.9566 19.5413 16.9423 19.6938 16.8943 19.8372C16.8464 19.9805 16.7661 20.111 16.6597 20.2184C16.5533 20.3258 16.4236 20.4073 16.2807 20.4566C16.1378 20.5059 15.9855 20.5217 15.8355 20.5027C14.8494 20.5027 14.4591 20.0022 14.5055 18.3047C14.5055 17.9364 10.743 17.8209 10.6292 18.3047C10.337 22.4172 12.9226 23.6072 15.8792 23.6072C18.7457 23.6072 20.9936 22.0909 20.9936 19.3477C20.9936 14.4714 14.7094 14.6026 14.7094 12.1859C14.6962 12.0315 14.718 11.8762 14.773 11.7314C14.8281 11.5866 14.915 11.4561 15.0273 11.3494C15.1397 11.2428 15.2746 11.1628 15.4221 11.1154C15.5695 11.068 15.7258 11.0543 15.8792 11.0755C16.3395 11.0755 17.1655 11.156 17.0964 12.9847Z" fill="#FBF1C7"/>
</svg>
