<svg viewBox="0 0 32 32" fill="none" xmlns="http://www.w3.org/2000/svg">
<g clip-path="url(#clip0_498_86)">
<path d="M21.0045 10.1428L20.5667 9.83295C22.7555 7.29599 20.129 5.45624 18.8919 7.35409C17.7309 9.13574 19.3106 11.3435 20.2622 14.2096C21.7658 18.7413 21.5374 21.1814 19.5961 23.544C14.7046 29.47 5.54981 27.2042 8.70927 21.0652C9.79415 18.9543 11.6784 17.4438 14.895 17.8117C15.1995 18.199 14.876 18.354 14.6475 18.4701C12.04 19.7871 10.5365 25.0739 12.8013 24.9577C13.8862 24.919 15.504 23.8152 16.3415 21.9366C17.3121 19.7483 16.1131 16.9983 15.2566 14.4033C13.2581 8.28367 17.788 2.9968 22.9649 5.74671C24.9253 6.79249 23.6311 10.4526 21.0045 10.1428H21.0045Z" fill="#B8BB26"/>
</g>
<defs>
<clipPath id="clip0_498_86">
<rect width="16" height="22" fill="white" transform="translate(8 5)"/>
</clipPath>
</defs>
</svg>
