<svg viewBox="0 0 32 32" fill="none" xmlns="http://www.w3.org/2000/svg">
<path d="M24.5068 7.63127C23.4416 6.16957 21.871 5.15604 20.1002 4.78756C18.3295 4.41908 16.4849 4.72198 14.925 5.6374L9.46745 9.01253C8.73592 9.45337 8.1058 10.0438 7.61838 10.7452C7.13097 11.4466 6.79727 12.243 6.63914 13.0823C6.37967 14.4862 6.60908 15.9367 7.28914 17.192C6.82309 17.8773 6.50462 18.652 6.35395 19.467C6.19886 20.3177 6.21977 21.1913 6.41542 22.0337C6.61106 22.876 6.97727 23.6694 7.49145 24.3647C8.55674 25.8266 10.1272 26.8404 11.898 27.2095C13.6688 27.5785 15.5135 27.2764 17.0741 26.3618L22.5325 22.9875C23.2638 22.5464 23.8937 21.9559 24.3811 21.2546C24.8685 20.5532 25.2023 19.7569 25.3608 18.9177C25.6219 17.5128 25.3924 16.0608 24.7108 14.8048C25.1773 14.1197 25.4961 13.3449 25.6468 12.5298C25.8018 11.6788 25.7807 10.8049 25.5846 9.96239C25.3885 9.11982 25.0217 8.32644 24.5068 7.63127Z" fill="#FB4934"/>
<path d="M14.3929 24.645C13.5396 24.8639 12.6402 24.8214 11.8112 24.5231C10.9823 24.2248 10.2621 23.6845 9.7438 22.9721C9.43348 22.5545 9.21221 22.0776 9.09369 21.5709C8.97517 21.0643 8.96194 20.5387 9.0548 20.0268C9.0857 19.8586 9.12888 19.693 9.18399 19.5311L9.28718 19.2265L9.56668 19.4198C10.2155 19.8819 10.9373 20.2318 11.7019 20.455L11.901 20.5143L11.8807 20.7068C11.8573 20.9869 11.9354 21.2661 12.1009 21.4933C12.2564 21.7133 12.4752 21.8805 12.7283 21.9729C12.9813 22.0652 13.2565 22.0782 13.5171 22.0101C13.6348 21.9795 13.7473 21.9316 13.851 21.8679L19.2947 18.4928C19.4273 18.4124 19.5415 18.3052 19.6301 18.178C19.7187 18.0508 19.7797 17.9064 19.8091 17.7542C19.8383 17.6008 19.8358 17.4429 19.8017 17.2905C19.7676 17.138 19.7027 16.9941 19.6108 16.8678C19.4545 16.6529 19.2373 16.4898 18.9872 16.3997C18.7372 16.3096 18.4659 16.2966 18.2084 16.3624C18.0901 16.3931 17.977 16.4413 17.8729 16.5054L15.7831 17.7924C15.4396 18.005 15.066 18.1644 14.6749 18.2653C13.8208 18.4847 12.9206 18.4424 12.0909 18.144C11.2612 17.8455 10.5403 17.3047 10.0217 16.5915C9.71342 16.1725 9.49444 15.6947 9.3783 15.1877C9.26216 14.6806 9.25134 14.1552 9.34649 13.6438C9.44239 13.14 9.64303 12.662 9.93542 12.2407C10.2278 11.8194 10.6054 11.4642 11.0438 11.1981L16.4941 7.82302C16.8376 7.61073 17.2112 7.45158 17.6023 7.35096C18.4564 7.13105 19.3568 7.17298 20.1867 7.47131C21.0166 7.76963 21.7377 8.31058 22.2563 9.0239C22.5666 9.44156 22.7878 9.91846 22.9063 10.4251C23.0249 10.9317 23.0381 11.4573 22.9453 11.9692C22.9145 12.1374 22.8713 12.303 22.8161 12.4648L22.7129 12.7695L22.4334 12.577C21.785 12.1142 21.0631 11.7643 20.2982 11.5418L20.0991 11.4817L20.1194 11.2891C20.1428 11.0089 20.0643 10.7297 19.8984 10.5027C19.7425 10.2875 19.5255 10.1242 19.2755 10.034C19.0255 9.94389 18.7542 9.93108 18.4969 9.99728C18.379 10.0278 18.2664 10.076 18.1629 10.1403L12.7013 13.504C12.5687 13.584 12.4545 13.691 12.3662 13.8181C12.2778 13.9453 12.2173 14.0896 12.1886 14.2418C12.1586 14.3953 12.1607 14.5535 12.1948 14.7062C12.2289 14.8589 12.2943 15.0029 12.3869 15.129C12.5433 15.3438 12.7606 15.5067 13.0106 15.5967C13.2606 15.6866 13.5318 15.6995 13.7892 15.6336C13.9074 15.6028 14.0205 15.5549 14.1248 15.4914L16.2064 14.2036C16.5498 13.9909 16.9235 13.8318 17.3147 13.7315C18.1687 13.5121 19.069 13.5542 19.8989 13.8525C20.7287 14.1508 21.4498 14.6915 21.9687 15.4045C22.2782 15.8225 22.4986 16.2995 22.6164 16.8061C22.7343 17.3127 22.7469 17.8381 22.6536 18.3498C22.5584 18.8541 22.358 19.3327 22.0656 19.7545C21.7731 20.1763 21.3952 20.5318 20.9563 20.7978L15.5069 24.173C15.1635 24.3856 14.7898 24.5448 14.3986 24.645" fill="#FBF1C7"/>
</svg>
