<svg viewBox="0 0 32 32" fill="none" xmlns="http://www.w3.org/2000/svg">
<path d="M27.6365 14.4182C26.7562 13.538 25.3288 13.538 24.4485 14.4182H19.8346L23.0971 11.1558C24.3422 11.1558 25.3514 10.1465 25.3514 8.90145C25.3514 7.65644 24.3422 6.64701 23.0971 6.64701C21.852 6.64701 20.8428 7.65644 20.8428 8.90145L17.5803 12.164V7.55001C18.4606 6.66965 18.4606 5.24231 17.5803 4.36195C16.6998 3.48148 15.2724 3.48148 14.3921 4.36195C13.5117 5.24242 13.5117 6.66976 14.3921 7.55001V12.164L11.1296 8.90134C11.1296 7.65644 10.1203 6.64712 8.87532 6.64712C7.63031 6.64712 6.62099 7.65644 6.62099 8.90134C6.62099 10.1465 7.63031 11.1558 8.87521 11.1558L12.1379 14.4182H7.52388C6.64342 13.5379 5.21607 13.538 4.3356 14.4182C3.45535 15.2987 3.45535 16.726 4.3356 17.6065C5.21607 18.4867 6.64342 18.4867 7.52388 17.6065H12.1376L8.87532 20.8688C7.63031 20.8688 6.62099 21.878 6.62099 23.123C6.62099 24.3682 7.63031 25.3775 8.87521 25.3775C10.1203 25.3775 11.1296 24.3682 11.1296 23.1232L14.3921 19.8606V24.4745C13.5117 25.3548 13.5117 26.7823 14.3921 27.6627C15.2726 28.543 16.6999 28.543 17.5804 27.6627C18.4606 26.7822 18.4606 25.3548 17.5804 24.4744V19.8606L20.8428 23.1232C20.8428 24.3682 21.852 25.3774 23.097 25.3774C24.3422 25.3774 25.3515 24.3682 25.3515 23.1232C25.3515 21.878 24.3422 20.8688 23.0971 20.8688L19.8345 17.6063H24.4485C25.3289 18.4867 26.7563 18.4867 27.6365 17.6063C28.517 16.7259 28.517 15.2986 27.6365 14.4182Z" fill="#FABD2F"/>
</svg>
