<svg viewBox="0 0 32 32" fill="none" xmlns="http://www.w3.org/2000/svg">
<path d="M5.71429 28H26.2857C27.2325 28 28 27.2325 28 26.2857V5.71429C28 4.76751 27.2325 4 26.2857 4H5.71429C4.76751 4 4 4.76751 4 5.71429V26.2857C4 27.2325 4.76751 28 5.71429 28ZM19.3181 18.0022H16.327V26.3605H14.1585L14.0949 18.0022H10.9838V16H19.3181V18.0022ZM25.9281 16.2788L26.1632 16.3746V17.4627C26.1632 18.0634 26.1458 18.5509 26.1283 18.5509C26.1109 18.5509 25.9281 18.4551 25.7192 18.342C24.9357 17.898 23.6821 17.7326 22.9161 17.9589C22.7333 18.0112 22.4634 18.1766 22.3241 18.3159C22.1152 18.5161 22.0717 18.638 22.0717 18.96C22.0717 19.3083 22.1152 19.404 22.4025 19.6739C22.5853 19.848 23.2643 20.2484 23.9259 20.5792C25.3188 21.267 26.05 21.6563 26.3721 22.3788C26.6594 23.023 26.6507 24.1 26.3721 24.7094C26.1109 25.2839 25.5364 25.8672 24.9705 26.1371C23.7692 26.7029 21.8105 26.7551 20.2783 26.2502L19.7299 26.0674V23.6473L20.1652 23.9607C20.731 24.3699 21.4623 24.6223 22.2283 24.6746C22.9944 24.7268 23.5603 24.5875 23.9085 24.2567C24.1261 24.0565 24.1696 23.9433 24.1696 23.6125C24.1696 22.977 23.8214 22.9273 22.3241 22.196C21.0009 21.5431 20.5569 21.4411 20.1652 20.8665C19.2946 19.6042 19.5558 17.6717 20.7223 16.7924C21.7147 16.035 23.36 15.7565 25.0315 16.0612C25.3884 16.1308 25.7888 16.2266 25.9281 16.2788Z" fill="#458588"/>
<path d="M25.9281 16.2788L26.1632 16.3746V17.4627C26.1632 18.0634 26.1458 18.5509 26.1283 18.5509C26.1109 18.5509 25.9281 18.4551 25.7192 18.342C24.9357 17.898 23.6821 17.7326 22.9161 17.9589C22.7333 18.0112 22.4634 18.1766 22.3241 18.3159C22.1152 18.5161 22.0717 18.638 22.0717 18.96C22.0717 19.3083 22.1152 19.404 22.4025 19.6739C22.5853 19.848 23.2643 20.2484 23.9259 20.5792C25.3188 21.267 26.05 21.6563 26.3721 22.3788C26.6594 23.023 26.6507 24.1 26.3721 24.7094C26.1109 25.2839 25.5364 25.8672 24.9705 26.1371C23.7692 26.7029 21.8105 26.7551 20.2783 26.2502L19.7299 26.0674V23.6473L20.1652 23.9607C20.731 24.3699 21.4623 24.6223 22.2283 24.6746C22.9944 24.7268 23.5603 24.5875 23.9085 24.2567C24.1261 24.0565 24.1696 23.9433 24.1696 23.6125C24.1696 22.977 23.8214 22.9273 22.3241 22.196C21.0009 21.5431 20.5569 21.4411 20.1652 20.8665C19.2946 19.6042 19.5558 17.6717 20.7223 16.7924C21.7147 16.035 23.36 15.7565 25.0315 16.0612C25.3884 16.1308 25.7888 16.2266 25.9281 16.2788Z" fill="#458588"/>
<path d="M25.9281 16.2788L26.1632 16.3746V17.4627C26.1632 18.0634 26.1458 18.5509 26.1283 18.5509C26.1109 18.5509 25.9281 18.4551 25.7192 18.342C24.9357 17.898 23.6821 17.7326 22.9161 17.9589C22.7333 18.0112 22.4634 18.1766 22.3241 18.3159C22.1152 18.5161 22.0717 18.638 22.0717 18.96C22.0717 19.3083 22.1152 19.404 22.4025 19.6739C22.5853 19.848 23.2643 20.2484 23.9259 20.5792C25.3188 21.267 26.05 21.6563 26.3721 22.3788C26.6594 23.023 26.6507 24.1 26.3721 24.7094C26.1109 25.2839 25.5364 25.8672 24.9705 26.1371C23.7692 26.7029 21.8105 26.7551 20.2783 26.2502L19.7299 26.0674V23.6473L20.1652 23.9607C20.731 24.3699 21.4623 24.6223 22.2283 24.6746C22.9944 24.7268 23.5603 24.5875 23.9085 24.2567C24.1261 24.0565 24.1696 23.9433 24.1696 23.6125C24.1696 22.977 23.8214 22.9273 22.3241 22.196C21.0009 21.5431 20.5569 21.4411 20.1652 20.8665C19.2946 19.6042 19.5558 17.6717 20.7223 16.7924C21.7147 16.035 23.36 15.7565 25.0315 16.0612C25.3884 16.1308 25.7888 16.2266 25.9281 16.2788Z" fill="#FBF1C7"/>
<path d="M19.3181 18.0022H16.327V26.3605H14.1585L14.0949 18.0022H10.9838V16H19.3181V18.0022Z" fill="#458588"/>
<path d="M19.3181 18.0022H16.327V26.3605H14.1585L14.0949 18.0022H10.9838V16H19.3181V18.0022Z" fill="#FBF1C7"/>
</svg>
