<svg width="32" height="32" viewBox="0 0 32 32" fill="none" xmlns="http://www.w3.org/2000/svg">
<path d="M27.102 3.75H4.898C4.26398 3.75 3.75 4.26398 3.75 4.898V27.102C3.75 27.736 4.26398 28.25 4.898 28.25H27.102C27.736 28.25 28.25 27.736 28.25 27.102V4.898C28.25 4.26398 27.736 3.75 27.102 3.75Z" fill="#83A598"/>
<path fill-rule="evenodd" clip-rule="evenodd" d="M17.9644 22.7892V25.4737C18.4521 25.7144 18.9719 25.8838 19.5079 25.9768C20.1272 26.0911 20.7558 26.1474 21.3856 26.1448C21.9994 26.1477 22.6118 26.0858 23.2126 25.9602C23.752 25.8512 24.2667 25.6435 24.7307 25.3477C25.1615 25.0696 25.5166 24.6889 25.7641 24.2399C26.2074 23.3101 26.2659 22.2429 25.9269 21.2702C25.7838 20.9064 25.5706 20.5743 25.2995 20.2928C25.0084 19.9934 24.6778 19.7352 24.3169 19.5254C23.9013 19.282 23.4695 19.0674 23.0245 18.8832C22.6745 18.7379 22.3595 18.5967 22.0795 18.4597C21.8308 18.3406 21.5928 18.2004 21.3681 18.0405C21.1921 17.9172 21.0393 17.7637 20.9166 17.5873C20.8106 17.4271 20.7554 17.2386 20.7582 17.0465C20.7559 16.8697 20.8052 16.6961 20.9 16.5469C21.003 16.3907 21.1404 16.2602 21.3016 16.1654C21.4987 16.0493 21.7132 15.9657 21.9369 15.9178C22.2114 15.8568 22.4921 15.8274 22.7734 15.8303C23.0099 15.8311 23.2461 15.848 23.4804 15.881C23.7333 15.9152 23.9836 15.967 24.2294 16.0359C24.4794 16.1052 24.7239 16.1929 24.9609 16.2984C25.1908 16.4009 25.4108 16.5245 25.618 16.6677V14.1625C25.1867 13.9994 24.7395 13.882 24.2836 13.8125C23.7332 13.7324 23.1774 13.6947 22.6211 13.6997C22.0131 13.6964 21.4068 13.7654 20.8151 13.9053C20.2803 14.0275 19.7717 14.2447 19.3136 14.5467C18.8881 14.8301 18.5367 15.2115 18.289 15.6588C18.0265 16.1555 17.8966 16.7115 17.9119 17.2732C17.8925 18.0158 18.1371 18.7413 18.6022 19.3207C19.1729 19.963 19.8925 20.4554 20.6979 20.7548C21.0654 20.9064 21.4081 21.0549 21.726 21.2002C22.0128 21.3278 22.2885 21.4791 22.5502 21.6525C22.7613 21.7898 22.9467 21.9631 23.098 22.1644C23.231 22.347 23.3016 22.5676 23.2992 22.7935C23.3004 22.9628 23.257 23.1294 23.1732 23.2765C23.0802 23.4346 22.9494 23.5672 22.7926 23.6624C22.5964 23.782 22.3818 23.8684 22.1574 23.9179C21.8651 23.9833 21.5661 24.0141 21.2666 24.0098C20.6789 24.0087 20.0958 23.9051 19.5437 23.7035C18.967 23.4954 18.4321 23.1857 17.9644 22.7892ZM13.4546 16.1059H16.9546V13.8948H7.19574V16.1059H10.68V25.9532H13.4546V16.1059Z" fill="#FBF1C7"/>
</svg>
